<svg width="27" height="18" viewBox="0 0 27 18" fill="none" xmlns="http://www.w3.org/2000/svg">
<path d="M0.630859 5.45224C1.78229 4.26875 3.09209 3.25041 4.52289 2.42624C5.90058 1.63191 7.37601 1.02075 8.91187 0.608247C11.9453 -0.202749 15.1385 -0.202749 18.1719 0.608247C19.7077 1.02097 21.1831 1.63211 22.5609 2.42624C23.9911 3.25081 25.3005 4.26911 26.4519 5.45224L25.3769 6.55225C24.3221 5.46931 23.1224 4.53778 21.8119 3.78424C20.5503 3.05873 19.2001 2.49974 17.7949 2.12125C15.0081 1.37916 12.0757 1.37916 9.28888 2.12125C7.88335 2.49975 6.53278 3.05873 5.27087 3.78424C3.96089 4.53811 2.76156 5.46962 1.70691 6.55225L0.630859 5.45224Z" fill="#CCCCCC"/>
<path d="M3.85889 8.74329C5.11761 7.44899 6.62304 6.42019 8.28619 5.71768C9.94934 5.01517 11.7364 4.6532 13.5419 4.6532C15.3473 4.6532 17.1344 5.01517 18.7975 5.71768C20.4607 6.42019 21.9661 7.44899 23.2249 8.74329L22.1489 9.84329C21.0287 8.69517 19.6901 7.78275 18.212 7.15979C16.7338 6.53683 15.1459 6.21591 13.5419 6.21591C11.9378 6.21591 10.35 6.53683 8.87183 7.15979C7.39367 7.78275 6.05507 8.69517 4.93488 9.84329L3.85889 8.74329Z" fill="#0179FF"/>
<path d="M7.0849 12.0003C7.66089 11.4088 8.31572 10.8997 9.03088 10.4873C9.71978 10.0906 10.4573 9.78502 11.2249 9.57827C12.7419 9.17264 14.3389 9.17264 15.8559 9.57827C16.6237 9.78448 17.3613 10.0901 18.0499 10.4873C18.7653 10.8994 19.4202 11.4085 19.9959 12.0003L18.9209 13.1002C18.441 12.6076 17.896 12.183 17.3009 11.8382C16.7266 11.5074 16.1118 11.2522 15.4719 11.0792C14.2083 10.7427 12.8786 10.7427 11.6149 11.0792C10.9753 11.2521 10.3608 11.5072 9.78693 11.8382C9.19136 12.1823 8.64615 12.6069 8.16687 13.1002L7.0849 12.0003ZM15.1549 13.6453C15.3719 13.8663 15.5419 14.1289 15.6549 14.4173C15.8847 14.9883 15.8813 15.6267 15.6455 16.1953C15.4097 16.7639 14.9604 17.2173 14.3939 17.4582C14.1212 17.5723 13.8285 17.6311 13.5329 17.6311C13.2373 17.6311 12.9446 17.5723 12.6719 17.4582C12.2474 17.2777 11.8855 16.9764 11.631 16.5917C11.3766 16.207 11.241 15.756 11.241 15.2948C11.241 14.8335 11.3766 14.3825 11.631 13.9978C11.8855 13.6131 12.2474 13.3117 12.6719 13.1312C13.0888 12.9588 13.5479 12.9155 13.9897 13.007C14.4316 13.0984 14.8357 13.3205 15.1499 13.6442L15.1549 13.6453Z" fill="#0179FF"/>
</svg>
