<svg width="27" height="18" viewBox="0 0 27 18" fill="none" xmlns="http://www.w3.org/2000/svg">
<path d="M7.08563 12.0352C7.66163 11.4438 8.31646 10.9347 9.03162 10.5222C9.72052 10.1256 10.458 9.82 11.2256 9.61325C12.7427 9.20762 14.3396 9.20762 15.8566 9.61325C16.6244 9.81946 17.362 10.125 18.0507 10.5222C18.766 10.9344 19.4209 11.4435 19.9966 12.0352L18.9216 13.1353C18.4418 12.6426 17.8967 12.218 17.3016 11.8733C16.7273 11.5424 16.1125 11.2872 15.4727 11.1143C14.209 10.7777 12.8793 10.7777 11.6157 11.1143C10.976 11.2871 10.3616 11.5422 9.78766 11.8733C9.1921 12.2173 8.64695 12.642 8.16766 13.1353L7.08563 12.0352ZM3.85864 8.74326C5.11737 7.44897 6.6228 6.42016 8.28595 5.71765C9.9491 5.01514 11.7362 4.65317 13.5416 4.65317C15.3471 4.65317 17.1342 5.01514 18.7973 5.71765C20.4605 6.42016 21.9659 7.44897 23.2246 8.74326L22.1486 9.84326C21.0284 8.69514 19.6899 7.78272 18.2117 7.15976C16.7336 6.5368 15.1457 6.21588 13.5416 6.21588C11.9376 6.21588 10.3497 6.5368 8.87158 7.15976C7.39343 7.78272 6.05483 8.69514 4.93463 9.84326L3.85864 8.74326ZM0.630615 5.45224C1.78204 4.26875 3.09185 3.25041 4.52264 2.42624C5.90034 1.63191 7.37577 1.02075 8.91162 0.608247C11.945 -0.202749 15.1382 -0.202749 18.1716 0.608247C19.7074 1.02097 21.1829 1.63211 22.5607 2.42624C23.9909 3.25081 25.3003 4.26911 26.4517 5.45224L25.3766 6.55225C24.3219 5.46931 23.1221 4.53778 21.8116 3.78424C20.5501 3.05873 19.1998 2.49974 17.7946 2.12125C15.0078 1.37916 12.0754 1.37916 9.28864 2.12125C7.88311 2.49975 6.53253 3.05873 5.27063 3.78424C3.96065 4.53811 2.76131 5.46962 1.70667 6.55225L0.630615 5.45224ZM15.1556 13.6812C15.3726 13.9023 15.5427 14.1649 15.6556 14.4532C15.8854 15.0243 15.882 15.6627 15.6462 16.2313C15.4105 16.7999 14.9611 17.2534 14.3947 17.4943C14.1219 17.6084 13.8292 17.6671 13.5336 17.6671C13.238 17.6671 12.9454 17.6084 12.6727 17.4943C12.2482 17.3138 11.8862 17.0124 11.6318 16.6277C11.3773 16.243 11.2417 15.792 11.2417 15.3308C11.2417 14.8695 11.3773 14.4185 11.6318 14.0338C11.8862 13.6491 12.2482 13.3478 12.6727 13.1673C13.0896 12.9948 13.5487 12.9515 13.9905 13.043C14.4323 13.1345 14.8364 13.3565 15.1506 13.6803L15.1556 13.6812Z" fill="#0179FF"/>
</svg>
