<svg width="143" height="67" viewBox="0 0 143 67" fill="none" xmlns="http://www.w3.org/2000/svg">
<path d="M18.0459 48.2413C18.3049 48.3886 18.5559 48.5495 18.7979 48.7232C18.8356 48.5626 18.878 48.4055 18.9048 48.2413H18.0459ZM5.73735 41.6108C6.22122 41.0685 6.81147 40.6322 7.47117 40.3292C8.21267 39.9959 9.01849 39.8313 9.83086 39.8472C10.4297 39.84 11.0252 39.9373 11.5907 40.1348C12.4541 40.436 13.1981 41.0075 13.713 41.7651C14.9555 41.0935 16.1278 40.2987 17.2122 39.3925C16.8984 38.9774 16.5434 38.5952 16.1527 38.2518C15.3232 37.5397 14.368 36.9897 13.3366 36.6304C12.1252 36.2114 10.8502 36.0076 9.56899 36.0279C8.18921 36.0045 6.82031 36.2765 5.55355 36.8256C4.43092 37.3164 3.41833 38.0289 2.5762 38.9208C1.73407 39.8126 1.07965 40.8654 0.65198 42.0165C0.216817 43.1695 -0.00412026 44.3928 9.60648e-05 45.6257C-0.00533988 46.8854 0.219968 48.1353 0.664799 49.3133C1.09355 50.4583 1.75008 51.5039 2.59443 52.3863C3.46846 53.2885 4.51494 54.0046 5.67128 54.4918C8.0922 55.4502 10.7702 55.5334 13.2457 54.7271C14.2382 54.3889 15.1646 53.88 15.9834 53.2233C16.3092 52.9559 16.6143 52.664 16.8959 52.3502C15.7984 51.4683 14.6168 50.6975 13.3682 50.0487C13.1973 50.2241 13.0125 50.3852 12.8156 50.5307C12.4215 50.819 11.987 51.0474 11.5263 51.2083C11.0484 51.3753 10.5456 51.4593 10.0395 51.4565C9.20436 51.4732 8.37472 51.3174 7.60211 50.999C6.92511 50.7144 6.31528 50.2902 5.81214 49.754C5.309 49.2179 4.92377 48.5817 4.68143 47.8866C4.42605 47.1602 4.29815 46.3948 4.30343 45.6245C4.30191 44.886 4.4254 44.1526 4.66862 43.4556C4.90089 42.7764 5.26402 42.1496 5.73735 41.6108Z" fill="#0B38DB"/>
<path d="M31.2869 41.7804V54.3866H27.2971V52.6085C27.1336 52.9146 26.9225 53.1926 26.6716 53.4319C26.4034 53.6906 26.1007 53.9108 25.7723 54.0862C25.4201 54.2744 25.0484 54.4234 24.6639 54.5304C24.2733 54.6428 23.869 54.7001 23.4626 54.7007C22.6058 54.7103 21.7568 54.5364 20.9724 54.1906C20.2375 53.8661 19.5765 53.3944 19.0299 52.8045C18.4775 52.1981 18.052 51.4866 17.7786 50.7123C17.1871 49.0103 17.1871 47.1575 17.7786 45.4555C18.052 44.681 18.4775 43.9695 19.0299 43.3629C19.5767 42.7732 20.2377 42.3016 20.9724 41.9768C21.7568 41.6308 22.6058 41.4569 23.4626 41.4667C23.8689 41.4676 24.2732 41.5247 24.6639 41.6366C25.0502 41.7445 25.4222 41.8982 25.7723 42.0945C26.1014 42.2789 26.404 42.5074 26.6716 42.7737C26.916 43.0141 27.1265 43.2869 27.2971 43.5846V41.7796L31.2869 41.7804ZM24.2987 51.2995C24.7217 51.3058 25.1406 51.2164 25.5244 51.038C25.8795 50.8708 26.1984 50.6353 26.463 50.3448C26.7298 50.0469 26.9377 49.7008 27.0756 49.325C27.2242 48.9277 27.2993 48.5066 27.2971 48.0823C27.3031 47.2554 27.0063 46.455 26.463 45.833C26.2011 45.5362 25.8818 45.296 25.5244 45.1269C25.1387 44.9546 24.7212 44.8655 24.2989 44.8655C23.8767 44.8655 23.4591 44.9546 23.0734 45.1269C22.716 45.2959 22.3966 45.5361 22.1348 45.833C21.5917 46.4551 21.2947 47.2554 21.3003 48.0823C21.2981 48.5066 21.3733 48.9278 21.5222 49.325C21.6598 49.701 21.8677 50.0471 22.1348 50.3448C22.3993 50.6354 22.7182 50.8709 23.0734 51.038C23.457 51.2169 23.8758 51.3067 24.2987 51.3007V51.2995Z" fill="#0B38DB"/>
<path d="M34.6758 36.0793H38.6652V54.3866H34.6758V36.0793Z" fill="#0B38DB"/>
<path d="M41.4811 37.596C41.4735 37.2611 41.5344 36.9282 41.66 36.6179C41.7856 36.3075 41.9733 36.0262 42.2115 35.7914C42.4498 35.5508 42.7346 35.3618 43.0485 35.2359C43.3624 35.11 43.6987 35.0498 44.0366 35.0592C44.7212 35.0528 45.3811 35.3157 45.8749 35.7914C46.1112 36.021 46.2975 36.297 46.4223 36.6023C46.5531 36.9171 46.6196 37.255 46.6181 37.596C46.6205 37.933 46.5539 38.2668 46.4223 38.5768C46.2934 38.8797 46.1075 39.1549 45.8749 39.3874C45.64 39.6231 45.3609 39.8098 45.0537 39.9368C44.731 40.0693 44.3852 40.1359 44.0366 40.1328C43.6921 40.1369 43.3505 40.0702 43.0327 39.9368C42.4237 39.6746 41.9384 39.1877 41.6769 38.5768C41.5453 38.2668 41.4787 37.933 41.4811 37.596ZM42.0549 41.7804H46.0443V54.3866H42.0557L42.0549 41.7804Z" fill="#0B38DB"/>
<path d="M61.1155 54.3866H56.4995L54.4393 50.7252L52.3795 54.3866H47.7646L52.0928 48.0313L47.8427 41.7804H52.458L54.4393 45.3374L56.421 41.7804H61.0354L56.8122 48.0313L61.1155 54.3866Z" fill="#0B38DB"/>
<path d="M82.6263 49.8668C82.3765 50.7059 81.985 51.4959 81.4691 52.2024C80.9425 52.9264 80.2996 53.5577 79.5667 54.0704C78.7917 54.6103 77.9393 55.0287 77.0388 55.3115C76.0575 55.6203 75.0341 55.7734 74.0056 55.7654C72.6045 55.7898 71.2136 55.5216 69.9213 54.9778C68.7781 54.4897 67.7461 53.7729 66.8884 52.8712C66.0307 51.9695 65.3653 50.9018 64.9329 49.7334C64.4858 48.5395 64.2603 47.2735 64.2678 45.9981C64.2642 44.7543 64.485 43.52 64.9196 42.3551C65.3395 41.2142 65.9714 40.1636 66.782 39.2592C67.6103 38.3453 68.6152 37.6097 69.7355 37.0971C70.968 36.5397 72.3079 36.2619 73.6597 36.2834C74.8508 36.2654 76.037 36.4417 77.1718 36.8055C78.1345 37.1169 79.0352 37.5958 79.8326 38.2201C80.5666 38.8035 81.1811 39.5239 81.6421 40.3416C82.1049 41.1657 82.437 42.0571 82.6263 42.9837H80.7371C80.564 42.2829 80.2858 41.6126 79.9123 40.9955C79.538 40.3799 79.0557 39.8374 78.4888 39.3941C77.8811 38.924 77.197 38.5628 76.4666 38.3265C75.6282 38.0587 74.7522 37.9281 73.8723 37.9398C72.7459 37.9196 71.6288 38.1473 70.5996 38.6069C69.6738 39.0281 68.8449 39.6369 68.1651 40.395C67.4976 41.1465 66.9825 42.0213 66.6487 42.9704C65.9478 44.9623 65.9571 47.1364 66.6751 49.1221C67.0261 50.0919 67.5739 50.9782 68.2838 51.7248C68.9937 52.4715 69.8503 53.0623 70.7994 53.4599C71.8821 53.9118 73.0462 54.1344 74.2187 54.1138C74.936 54.1149 75.6493 54.0065 76.3341 53.7925C76.9937 53.5898 77.6209 53.2931 78.1965 52.9117C78.7513 52.5418 79.2488 52.0921 79.6732 51.577C80.0935 51.0708 80.4181 50.4919 80.631 49.8688L82.6263 49.8668Z" fill="#FF7600"/>
<path d="M85.9512 36.6829H87.6806V55.3648H85.9512V36.6829Z" fill="#FF7600"/>
<path d="M97.2054 55.6581C96.3335 55.6717 95.4683 55.5037 94.6644 55.1649C93.933 54.8516 93.2724 54.3931 92.7223 53.8169C92.1807 53.2469 91.7558 52.5758 91.4718 51.8416C91.1768 51.085 91.0273 50.2791 91.0313 49.4667C91.0282 48.6499 91.1776 47.8397 91.4718 47.078C91.7516 46.3419 92.177 45.6701 92.7223 45.1031C93.2756 44.5342 93.9356 44.0808 94.6644 43.7688C95.4682 43.4295 96.3335 43.2613 97.2054 43.2748C98.0858 43.2631 98.9594 43.4312 99.7729 43.7688C100.512 44.0761 101.182 44.5299 101.742 45.1031C102.287 45.6702 102.712 46.342 102.992 47.078C103.286 47.8397 103.436 48.6499 103.433 49.4667C103.437 50.2791 103.287 51.085 102.992 51.8416C102.708 52.5757 102.283 53.2468 101.742 53.8169C101.185 54.3974 100.515 54.8563 99.7729 55.1649C98.9592 55.502 98.0857 55.6698 97.2054 55.6581ZM97.2054 54.0571C97.8458 54.0677 98.4809 53.9402 99.0678 53.6832C99.5996 53.4472 100.079 53.107 100.478 52.6827C100.871 52.261 101.178 51.767 101.383 51.2279C101.598 50.666 101.707 50.0686 101.703 49.4667C101.706 48.8603 101.597 48.2587 101.383 47.6918C101.182 47.1455 100.873 46.6454 100.475 46.2213C100.078 45.7972 99.5991 45.4578 99.0678 45.2232C98.4808 44.9664 97.8457 44.8389 97.2054 44.8493C96.5738 44.8406 95.9477 44.9681 95.3695 45.2232C94.8406 45.4575 94.3652 45.7981 93.9728 46.2241C93.5854 46.6521 93.2829 47.1502 93.0815 47.6918C92.867 48.2587 92.7584 48.8603 92.7612 49.4667C92.7576 50.0686 92.8662 50.666 93.0815 51.2279C93.285 51.7646 93.5874 52.2581 93.9728 52.6827C94.365 53.1088 94.8404 53.4493 95.3695 53.6832C95.9477 53.9384 96.5738 54.066 97.2054 54.0571Z" fill="#FF7600"/>
<path d="M117.268 43.5415V55.3649H115.538V52.8028C115.188 53.62 114.616 54.3226 113.888 54.8311C113.061 55.4022 112.072 55.6921 111.068 55.6581C110.351 55.6737 109.639 55.5368 108.979 55.2565C108.416 55.0128 107.919 54.6377 107.529 54.1624C107.167 53.7041 106.9 53.1778 106.744 52.6144C106.562 51.9178 106.477 51.1992 106.492 50.4792V43.5415H108.248V49.9739C108.243 50.5222 108.306 51.0689 108.434 51.6018C108.544 52.0695 108.747 52.5099 109.032 52.8959C109.311 53.2634 109.671 53.5605 110.084 53.7635C110.575 53.9915 111.112 54.1015 111.653 54.0848C112.248 54.0989 112.838 53.9661 113.369 53.698C113.845 53.4506 114.258 53.0996 114.58 52.6706C114.903 52.2365 115.146 51.7484 115.299 51.2291C115.458 50.7012 115.539 50.1527 115.539 49.6012V43.5415H117.268Z" fill="#FF7600"/>
<path d="M131.288 52.8826C130.897 53.7192 130.268 54.4206 129.479 54.8977C128.647 55.4092 127.687 55.6729 126.712 55.658C125.857 55.6682 125.01 55.5002 124.224 55.1648C123.495 54.8535 122.839 54.3946 122.295 53.8169C121.761 53.2438 121.34 52.5733 121.058 51.8416C120.763 51.0849 120.613 50.279 120.617 49.4666C120.614 48.6498 120.764 47.8396 121.058 47.078C121.336 46.3443 121.757 45.6731 122.295 45.1031C122.842 44.5326 123.498 44.0787 124.224 43.7688C125.01 43.433 125.857 43.2647 126.712 43.2747C127.686 43.26 128.644 43.5189 129.479 44.0222C130.274 44.4975 130.905 45.205 131.288 46.0502V36.6829H133.018V55.3648H131.288V52.8826ZM126.791 54.0571C127.432 54.0676 128.067 53.9401 128.654 53.6831C129.186 53.4471 129.665 53.107 130.064 52.6826C130.457 52.261 130.764 51.7669 130.969 51.2278C131.184 50.6659 131.292 50.0686 131.289 49.4666C131.292 48.8603 131.183 48.2586 130.969 47.6917C130.768 47.1455 130.459 46.6455 130.062 46.2214C129.664 45.7973 129.185 45.4578 128.654 45.2232C128.067 44.9664 127.432 44.8389 126.791 44.8492C126.16 44.8406 125.534 44.9681 124.955 45.2232C124.426 45.4574 123.951 45.7981 123.559 46.2241C123.171 46.652 122.869 47.1501 122.667 47.6917C122.453 48.2586 122.344 48.8603 122.347 49.4666C122.343 50.0686 122.452 50.6659 122.667 51.2278C122.871 51.7645 123.173 52.258 123.559 52.6826C123.951 53.1087 124.426 53.4493 124.955 53.6831C125.534 53.9384 126.16 54.0659 126.791 54.0571Z" fill="#FF7600"/>
<path d="M19.1434 35.5889L17.834 35.015C19.4689 31.2597 22.1602 28.0641 25.5782 25.8198C28.9963 23.5754 32.9926 22.3797 37.0779 22.379C37.5256 22.379 37.98 22.3939 38.4361 22.4232C38.4065 21.9666 38.3917 21.5111 38.3917 21.0612C38.392 16.3508 39.9664 11.7764 42.8634 8.0691C45.7604 4.36179 49.8127 1.73554 54.3727 0.610064C58.9327 -0.51541 63.7372 -0.075153 68.0185 1.86048C72.2997 3.79611 75.8105 7.11539 77.9899 11.2879C82.5534 9.73614 87.51 9.80536 92.0287 11.4839C96.5474 13.1625 100.353 16.3484 102.808 20.5073C108.109 19.1312 113.737 19.8874 118.49 22.6145C123.243 25.3417 126.745 29.8239 128.25 35.1049L126.876 35.499C126.169 33.0187 124.982 30.7026 123.382 28.6831C121.782 26.6636 119.801 24.9803 117.552 23.7296C115.303 22.4789 112.83 21.6853 110.275 21.3942C107.72 21.1031 105.132 21.3203 102.661 22.0332L102.116 22.1899L101.84 21.6934C99.5626 17.5882 95.8935 14.4381 91.4984 12.8148C87.1033 11.1916 82.2736 11.2029 77.8861 12.8467L77.2775 13.0748L76.9932 12.4888C75.0593 8.4935 71.8317 5.27415 67.8379 3.35671C63.844 1.43928 59.32 0.937097 55.0048 1.93222C50.6896 2.92734 46.8384 5.36094 44.0804 8.83543C41.3224 12.3099 39.8206 16.6199 39.8204 21.0612C39.8209 21.7536 39.8574 22.4455 39.9297 23.1341L40.0218 24.0138L39.1449 23.9218C38.4582 23.8494 37.7683 23.8128 37.0779 23.8121C33.2706 23.8129 29.5461 24.9274 26.3606 27.0192C23.1752 29.1109 20.667 32.0891 19.1434 35.5889Z" fill="#FF7600"/>
<path d="M142.999 40.1143C143.016 40.7316 142.848 41.3399 142.519 41.8613C142.189 42.3826 141.711 42.7934 141.147 43.0409C140.583 43.2884 139.958 43.3614 139.352 43.2507C138.747 43.1399 138.188 42.8503 137.747 42.419C137.307 41.9877 137.004 41.4343 136.879 40.8297C136.754 40.225 136.811 39.5967 137.044 39.025C137.277 38.4534 137.675 37.9645 138.186 37.6209C138.698 37.2773 139.3 37.0946 139.916 37.0963C140.317 37.0884 140.715 37.1604 141.088 37.3084C141.461 37.4563 141.8 37.6771 142.087 37.958C142.374 38.2388 142.602 38.5741 142.759 38.9443C142.916 39.3145 142.997 39.7122 142.999 40.1143ZM137.587 40.1143C137.577 40.4288 137.631 40.742 137.745 41.0352C137.859 41.3284 138.03 41.5954 138.25 41.8205C138.469 42.0455 138.731 42.2238 139.021 42.3447C139.31 42.4656 139.621 42.5267 139.935 42.5242C140.244 42.5229 140.549 42.4595 140.833 42.3376C141.116 42.2158 141.373 42.038 141.587 41.8148C141.8 41.5917 141.967 41.3277 142.078 41.0385C142.188 40.7494 142.239 40.4409 142.228 40.1316C142.241 39.8187 142.191 39.5064 142.08 39.2134C141.97 38.9204 141.802 38.6528 141.586 38.4264C141.371 38.2001 141.112 38.0197 140.825 37.896C140.538 37.7724 140.229 37.708 139.917 37.7068C139.605 37.7055 139.295 37.7674 139.008 37.8888C138.72 38.0102 138.459 38.1885 138.242 38.4131C138.024 38.6377 137.854 38.9041 137.742 39.1961C137.629 39.4882 137.576 39.8001 137.587 40.1131V40.1143ZM139.439 41.6972H138.743V38.6768C139.124 38.6094 139.511 38.5786 139.898 38.5848C140.261 38.555 140.624 38.6317 140.944 38.8057C141.039 38.887 141.115 38.9888 141.166 39.1035C141.217 39.2183 141.241 39.343 141.238 39.4684C141.224 39.6375 141.156 39.7975 141.044 39.9239C140.931 40.0502 140.78 40.1359 140.614 40.1677V40.2043C140.764 40.2651 140.894 40.3659 140.991 40.4956C141.088 40.6254 141.148 40.7792 141.164 40.9405C141.194 41.2029 141.268 41.4582 141.385 41.6952H140.632C140.516 41.4633 140.435 41.2153 140.392 40.9594C140.337 40.628 140.152 40.4806 139.768 40.4806H139.438L139.439 41.6972ZM139.458 39.9858H139.788C140.174 39.9858 140.486 39.8568 140.486 39.544C140.486 39.268 140.285 39.0841 139.845 39.0841C139.716 39.0812 139.586 39.0935 139.46 39.1206L139.458 39.9858Z" fill="#0B38DB"/>
</svg>
