<svg width="143" height="67" viewBox="0 0 143 67" fill="none" xmlns="http://www.w3.org/2000/svg">
<path d="M18.1235 48.2999C18.3836 48.4473 18.6357 48.6084 18.8787 48.7824C18.919 48.6216 18.9572 48.4647 18.9861 48.2999H18.1235ZM5.76242 41.6645C6.24828 41.1215 6.8411 40.6847 7.5037 40.3816C8.24832 40.0477 9.05765 39.8829 9.87354 39.899C10.4749 39.8917 11.0729 39.989 11.641 40.1866C12.508 40.4881 13.2552 41.0603 13.7723 41.8188C15.0201 41.1465 16.1975 40.3508 17.2867 39.4438C16.9715 39.0279 16.615 38.6452 16.2226 38.3013C15.3895 37.5882 14.4302 37.0375 13.3943 36.6778C12.1777 36.2584 10.8973 36.0543 9.61054 36.0746C8.22482 36.0513 6.85004 36.3236 5.57783 36.8733C4.45029 37.3648 3.43329 38.0782 2.58747 38.9712C1.74166 39.8642 1.08435 40.9185 0.654783 42.0711C0.217942 43.2256 -0.00393854 44.4502 9.64778e-05 45.6847C-0.00536284 46.9458 0.220914 48.1974 0.667657 49.3768C1.09825 50.5233 1.7576 51.5703 2.60559 52.4539C3.48358 53.3569 4.53452 54.0737 5.69566 54.5616C8.12698 55.5213 10.8166 55.6047 13.3026 54.7973C14.2995 54.4587 15.2298 53.9491 16.0521 53.2916C16.3793 53.0239 16.6857 52.7317 16.9686 52.4174C15.8663 51.5346 14.6796 50.7626 13.4257 50.113C13.2542 50.2888 13.0686 50.4503 12.8707 50.5957C12.4747 50.8855 12.0379 51.1149 11.5746 51.2765C11.0948 51.4438 10.59 51.5281 10.0818 51.5255C9.24297 51.542 8.40964 51.3859 7.63359 51.067C6.95368 50.782 6.34122 50.3573 5.83592 49.8205C5.33062 49.2836 4.94374 48.6466 4.70035 47.9507C4.44387 47.2234 4.31543 46.4572 4.32073 45.6859C4.31898 44.9459 4.443 44.2109 4.68749 43.5123C4.9215 42.832 5.2867 42.2042 5.76242 41.6645Z" fill="#0B38DB"/>
<path d="M31.422 41.8334V54.4551H27.4154V52.6744C27.2511 52.981 27.0389 53.2594 26.7869 53.4992C26.5174 53.7579 26.2134 53.9782 25.8837 54.1539C25.5299 54.3423 25.1567 54.4916 24.7705 54.599C24.3788 54.711 23.9735 54.7683 23.5661 54.7692C22.7056 54.779 21.8529 54.6048 21.0652 54.2584C20.3272 53.9335 19.6633 53.4613 19.1144 52.8707C18.5595 52.2636 18.1322 51.5512 17.8577 50.7759C17.2636 49.0718 17.2636 47.2167 17.8577 45.5126C18.1322 44.7372 18.5596 44.0247 19.1144 43.4174C19.6635 42.827 20.3273 42.3548 21.0652 42.0297C21.853 41.6834 22.7056 41.5093 23.5661 41.5189C23.9735 41.5199 24.3789 41.5773 24.7705 41.6895C25.1585 41.7975 25.5322 41.9514 25.8837 42.1479C26.2143 42.3325 26.5182 42.5614 26.7869 42.8283C27.0323 43.0691 27.2438 43.3423 27.4154 43.6402V41.8334H31.422ZM24.4042 51.3642C24.8288 51.3705 25.2494 51.281 25.6347 51.1024C25.9914 50.9352 26.3118 50.6993 26.5774 50.4083C26.8456 50.1102 27.0544 49.7636 27.1927 49.3872C27.342 48.9896 27.4175 48.5681 27.4154 48.1434C27.4212 47.3154 27.123 46.5142 26.5774 45.8915C26.3146 45.5941 25.9938 45.3535 25.6347 45.1845C25.2474 45.0119 24.828 44.9227 24.404 44.9227C23.9799 44.9227 23.5606 45.0119 23.1732 45.1845C22.8141 45.3535 22.4934 45.5941 22.2306 45.8915C21.6849 46.5142 21.3867 47.3154 21.3925 48.1434C21.3903 48.5681 21.4658 48.9897 21.6153 49.3872C21.7536 49.7636 21.9624 50.1102 22.2306 50.4083C22.4962 50.6993 22.8165 50.9352 23.1732 51.1024C23.5586 51.2813 23.9793 51.371 24.4042 51.365V51.3642Z" fill="#0B38DB"/>
<path d="M34.8252 36.1249H38.8318V54.455H34.8252V36.1249Z" fill="#0B38DB"/>
<path d="M41.6598 37.6431C41.6522 37.3078 41.7134 36.9745 41.8396 36.6638C41.9657 36.353 42.1542 36.0713 42.3933 35.8362C42.6327 35.5955 42.9188 35.4063 43.234 35.2802C43.5493 35.1541 43.8869 35.0938 44.2263 35.1031C44.9139 35.0968 45.5766 35.36 46.0725 35.8362C46.3097 36.0661 46.4968 36.3426 46.6223 36.6482C46.7536 36.9633 46.8204 37.3017 46.8189 37.6431C46.8213 37.9805 46.7544 38.3147 46.6223 38.6251C46.4927 38.9284 46.306 39.2041 46.0725 39.437C45.8365 39.6728 45.5562 39.8596 45.2477 39.9868C44.9238 40.1197 44.5765 40.1866 44.2263 40.1834C43.8803 40.1875 43.5372 40.1205 43.2181 39.9868C42.6062 39.7245 42.1187 39.237 41.8565 38.6251C41.7243 38.3147 41.6574 37.9805 41.6598 37.6431ZM42.2361 41.833H46.2427V54.4547H42.2361V41.833Z" fill="#0B38DB"/>
<path d="M61.3778 54.4551H56.7427L54.674 50.7891L52.605 54.4551H47.9707L52.3191 48.0919L48.0507 41.8334H52.6858L54.676 45.3944L56.6659 41.8334H61.301L57.0588 48.0919L61.3778 54.4551Z" fill="#0B38DB"/>
<path d="M63.0088 67.2417C62.4023 67.2515 61.8006 67.1339 61.2425 66.8963C60.7432 66.681 60.2925 66.3671 59.9175 65.9733C59.5561 65.5893 59.275 65.1371 59.0907 64.6431C58.7133 63.6316 58.7133 62.5179 59.0907 61.5063C59.275 61.0122 59.5561 60.5598 59.9175 60.1756C60.2926 59.782 60.7433 59.4681 61.2425 59.2527C62.3733 58.7927 63.639 58.7927 64.7697 59.2527C65.2666 59.4694 65.7152 59.7832 66.0892 60.1756C66.4507 60.5596 66.7317 61.0121 66.9156 61.5063C67.2929 62.5179 67.2929 63.6315 66.9156 64.6431C66.7317 65.1372 66.4507 65.5895 66.0892 65.9733C65.7154 66.3659 65.2667 66.6798 64.7697 66.8963C64.2137 67.1343 63.6135 67.252 63.0088 67.2417ZM63.0088 65.5881C63.3451 65.5938 63.6784 65.5223 63.9827 65.379C64.2627 65.2441 64.5115 65.0523 64.7134 64.816C64.9152 64.579 65.0706 64.3061 65.1715 64.0117C65.3833 63.403 65.3833 62.7407 65.1715 62.132C65.0704 61.8377 64.9151 61.5648 64.7134 61.3277C64.5112 61.0925 64.2624 60.9019 63.9827 60.7676C63.6767 60.6295 63.3447 60.5581 63.0089 60.5581C62.6732 60.5581 62.3412 60.6295 62.0352 60.7676C61.7555 60.9019 61.5067 61.0925 61.3045 61.3277C61.1029 61.5649 60.9474 61.8377 60.846 62.132C60.6348 62.7408 60.6348 63.4029 60.846 64.0117C60.9472 64.3061 61.1027 64.5789 61.3045 64.816C61.5064 65.0523 61.7552 65.2441 62.0352 65.379C62.3393 65.5226 62.6724 65.5944 63.0088 65.5889V65.5881Z" fill="#333333"/>
<path d="M68.8867 59.111H72.2048C72.6128 59.1051 73.0177 59.1842 73.3935 59.3431C73.7353 59.4889 74.0449 59.7006 74.3048 59.9661C74.5586 60.2274 74.7569 60.5373 74.8879 60.8773C75.1597 61.5844 75.1597 62.3672 74.8879 63.0742C74.7569 63.4143 74.5586 63.7243 74.3048 63.9858C74.0448 64.2512 73.7352 64.4629 73.3935 64.6088C73.0176 64.7675 72.6128 64.8465 72.2048 64.8408H70.7209V67.0378H68.8867V59.111ZM71.978 63.346C72.1586 63.3482 72.3373 63.3096 72.5008 63.233C72.6539 63.1616 72.7908 63.0595 72.9029 62.9331C73.0142 62.8047 73.1007 62.6567 73.1579 62.4968C73.278 62.16 73.278 61.792 73.1579 61.4552C73.1008 61.2951 73.0143 61.1472 72.9029 61.0189C72.7909 60.8923 72.654 60.7901 72.5008 60.7188C72.3373 60.6421 72.1586 60.6034 71.978 60.6058H70.7205V63.346H71.978Z" fill="#333333"/>
<path d="M78.4767 60.583V62.3834H81.4776V63.8218H78.4767V65.5659H81.4776V67.0378H76.6426V59.1111H81.4776V60.583H78.4767Z" fill="#333333"/>
<path d="M83.4936 59.111H86.8221C87.2303 59.1051 87.6353 59.1842 88.0113 59.3431C88.3531 59.489 88.6628 59.7007 88.9229 59.9661C89.1766 60.2276 89.3749 60.5374 89.506 60.8773C89.6425 61.2274 89.7116 61.6001 89.7099 61.9759C89.7159 62.512 89.5729 63.0393 89.2969 63.4989C89.0236 63.9537 88.6188 64.315 88.1359 64.5352L89.7212 67.0378H87.5922L86.1883 64.8408H85.3274V67.0378H83.4932L83.4936 59.111ZM86.5849 63.346C86.7647 63.3479 86.9427 63.3093 87.1056 63.233C87.2588 63.1616 87.3957 63.0595 87.5078 62.9331C87.6192 62.8048 87.7057 62.6568 87.7627 62.4968C87.8834 62.1601 87.8834 61.7919 87.7627 61.4552C87.7058 61.295 87.6193 61.147 87.5078 61.0189C87.3958 60.8923 87.2589 60.7901 87.1056 60.7188C86.9428 60.6423 86.7648 60.6037 86.5849 60.6058H85.3277V63.346H86.5849Z" fill="#333333"/>
<path d="M96.1425 67.0397L95.8365 66.0769H93.0155L92.7098 67.0397H90.751L93.5817 59.113H95.2707L98.1356 67.0397H96.1425ZM94.4326 61.3779L93.4586 64.6389H95.3837L94.4326 61.3779Z" fill="#333333"/>
<path d="M100.049 60.6964H98.2598V59.1111H103.683V60.6964H101.883V67.0398H100.049V60.6964Z" fill="#333333"/>
<path d="M105.179 59.1111H107.036V67.0398H105.179V59.1111Z" fill="#333333"/>
<path d="M112.924 67.2408C112.317 67.2507 111.715 67.133 111.157 66.8954C110.658 66.6802 110.207 66.3662 109.832 65.9725C109.471 65.5887 109.19 65.1364 109.006 64.6422C108.628 63.6307 108.628 62.517 109.006 61.5055C109.19 61.0112 109.471 60.5587 109.832 60.1748C110.207 59.7811 110.658 59.4673 111.157 59.2519C112.288 58.7919 113.554 58.7919 114.684 59.2519C115.182 59.4683 115.63 59.7821 116.004 60.1748C116.366 60.5587 116.646 61.0112 116.83 61.5055C117.208 62.517 117.208 63.6307 116.83 64.6422C116.646 65.1364 116.366 65.5886 116.004 65.9725C115.63 66.3652 115.182 66.6791 114.684 66.8954C114.128 67.1334 113.528 67.2511 112.924 67.2408ZM112.924 65.5872C113.26 65.5929 113.593 65.5215 113.897 65.3782C114.177 65.2434 114.426 65.0516 114.628 64.8151C114.83 64.5781 114.985 64.3053 115.087 64.0108C115.298 63.4022 115.298 62.7398 115.087 62.1312C114.985 61.8368 114.83 61.564 114.628 61.3269C114.426 61.0915 114.177 60.9008 113.897 60.7668C113.591 60.6287 113.259 60.5573 112.924 60.5573C112.588 60.5573 112.256 60.6287 111.95 60.7668C111.67 60.9008 111.422 61.0915 111.22 61.3269C111.018 61.5639 110.862 61.8367 110.761 62.1312C110.549 62.7398 110.549 63.4022 110.761 64.0108C110.862 64.3054 111.017 64.5782 111.22 64.8151C111.421 65.0516 111.67 65.2434 111.95 65.3782C112.254 65.5218 112.587 65.5936 112.924 65.5881V65.5872Z" fill="#333333"/>
<path d="M123.578 64.2746V59.1111H125.402V67.0398H123.488L120.633 61.9439V67.0398H118.801V59.1131H120.715L123.578 64.2746Z" fill="#333333"/>
<path d="M128.993 64.4106C128.982 64.5935 129.007 64.7767 129.067 64.9496C129.128 65.1226 129.222 65.2819 129.344 65.4184C129.463 65.5393 129.606 65.634 129.764 65.6963C129.922 65.7586 130.091 65.7873 130.261 65.7803C130.531 65.7887 130.795 65.6982 131.003 65.5258C131.1 65.4436 131.178 65.3401 131.23 65.2234C131.282 65.1066 131.307 64.9795 131.303 64.8518C131.307 64.7115 131.274 64.5726 131.206 64.4496C131.139 64.3372 131.051 64.2391 130.946 64.1609C130.825 64.0716 130.694 63.9976 130.555 63.9405C130.404 63.8761 130.242 63.8099 130.068 63.7418C129.706 63.6059 129.361 63.4701 129.032 63.3345C128.725 63.2111 128.438 63.0452 128.177 62.8418C127.938 62.6527 127.742 62.4156 127.6 62.1457C127.447 61.8323 127.373 61.4861 127.384 61.1375C127.378 60.802 127.458 60.4704 127.617 60.1748C127.769 59.8986 127.979 59.6591 128.234 59.4731C128.502 59.2788 128.803 59.1347 129.123 59.048C129.463 58.9533 129.815 58.9059 130.169 58.9069C130.589 58.8988 131.007 58.9679 131.403 59.1107C131.734 59.2311 132.035 59.4203 132.288 59.6657C132.518 59.8938 132.697 60.1679 132.814 60.47C132.932 60.777 132.992 61.1034 132.99 61.4324H131.155C131.173 61.1317 131.082 60.8347 130.901 60.5943C130.811 60.4909 130.698 60.4095 130.571 60.3565C130.444 60.3035 130.307 60.2803 130.17 60.2887C129.928 60.282 129.69 60.3534 129.491 60.4925C129.397 60.5628 129.321 60.6556 129.272 60.7625C129.223 60.8693 129.202 60.9868 129.209 61.1041C129.206 61.2264 129.232 61.3477 129.286 61.4573C129.34 61.5669 129.421 61.6614 129.521 61.7323C129.772 61.9098 130.049 62.0493 130.341 62.1461C130.666 62.2593 130.995 62.3819 131.327 62.5141C131.644 62.6379 131.945 62.8015 132.221 63.0011C132.482 63.19 132.704 63.4285 132.873 63.7029C133.05 64.0064 133.138 64.3536 133.128 64.705C133.134 65.0787 133.059 65.4494 132.906 65.7907C132.765 66.1008 132.554 66.374 132.289 66.589C132.011 66.8116 131.692 66.9771 131.35 67.076C130.96 67.1894 130.555 67.2448 130.149 67.2405C129.747 67.2436 129.347 67.1804 128.966 67.0534C128.614 66.9375 128.291 66.7505 128.015 66.5041C127.743 66.2574 127.528 65.9541 127.386 65.6154C127.229 65.2329 127.152 64.8223 127.16 64.409L128.993 64.4106Z" fill="#333333"/>
<path d="M82.9806 49.9298C82.7297 50.7698 82.3366 51.5606 81.8184 52.2678C81.2894 52.9927 80.6437 53.6248 79.9079 54.1385C79.1294 54.6787 78.2734 55.0976 77.3691 55.3808C76.3836 55.6899 75.3558 55.8432 74.3229 55.8352C72.9157 55.8596 71.5188 55.5911 70.221 55.0466C69.0729 54.5579 68.0365 53.8403 67.1751 52.9376C66.3138 52.0349 65.6455 50.966 65.2111 49.7962C64.7622 48.6008 64.5358 47.3332 64.5431 46.0563C64.5395 44.811 64.7613 43.5754 65.1978 42.4092C65.6193 41.2668 66.254 40.2149 67.0682 39.3095C67.8998 38.3942 68.9088 37.6578 70.034 37.1448C71.2717 36.5865 72.6174 36.3081 73.975 36.3296C75.1713 36.3116 76.3626 36.4882 77.5022 36.8524C78.4691 37.1644 79.3735 37.6438 80.1745 38.2688C80.9115 38.853 81.5287 39.5743 81.9918 40.3929C82.4566 41.218 82.7901 42.1105 82.9802 43.0382H81.0837C80.9098 42.3366 80.6303 41.6653 80.2549 41.0475C79.8792 40.4312 79.3948 39.8882 78.8253 39.4447C78.2152 38.9738 77.5282 38.612 76.7949 38.3753C75.9528 38.1072 75.073 37.9766 74.1894 37.9885C73.0581 37.968 71.9362 38.1961 70.9027 38.6565C69.9728 39.0779 69.1403 39.6873 68.4576 40.4464C67.7873 41.1989 67.2698 42.0746 66.9343 43.0249C66.2303 45.0192 66.2398 47.1961 66.9612 49.1842C67.3138 50.1552 67.8639 51.0425 68.5769 51.7901C69.2898 52.5376 70.1501 53.1292 71.1033 53.5274C72.1905 53.9798 73.3594 54.2026 74.5368 54.182C75.2574 54.1833 75.9739 54.0748 76.6618 53.8603C77.3242 53.6574 77.9541 53.3604 78.5321 52.9783C79.0891 52.6079 79.5888 52.1579 80.0152 51.6425C80.4372 51.1357 80.7631 50.556 80.9767 49.9321L82.9806 49.9298Z" fill="#FF7600"/>
<path d="M86.3203 36.7292H88.0576V55.4342H86.3203V36.7292Z" fill="#FF7600"/>
<path d="M97.6239 55.7283C96.7482 55.7417 95.8793 55.5734 95.0719 55.234C94.3374 54.9204 93.6738 54.4615 93.1211 53.8848C92.5775 53.3138 92.1509 52.642 91.8652 51.9071C91.5699 51.1493 91.4205 50.3425 91.4249 49.5292C91.4213 48.7114 91.5707 47.9001 91.8652 47.1372C92.1467 46.4004 92.5738 45.7279 93.1211 45.1599C93.677 44.5904 94.34 44.1363 95.0719 43.824C95.8793 43.4845 96.7482 43.3163 97.6239 43.3297C98.5081 43.3181 99.3853 43.4863 100.202 43.824C100.945 44.1317 101.617 44.5861 102.18 45.1599C102.727 45.7278 103.154 46.4003 103.436 47.1372C103.731 47.9 103.881 48.7113 103.878 49.5292C103.882 50.3426 103.732 51.1495 103.436 51.9071C103.15 52.642 102.724 53.3139 102.18 53.8848C101.621 54.4658 100.947 54.9251 100.202 55.234C99.3853 55.5717 98.5081 55.7398 97.6239 55.7283ZM97.6239 54.1249C98.267 54.1355 98.9048 54.008 99.4943 53.7509C100.028 53.5145 100.51 53.1738 100.91 52.7488C101.305 52.3267 101.613 51.832 101.819 51.2922C102.035 50.7297 102.144 50.1318 102.141 49.5292C102.143 48.9221 102.034 48.3198 101.819 47.7521C101.617 47.2052 101.307 46.7045 100.908 46.2798C100.509 45.8552 100.028 45.5152 99.4943 45.2802C98.9048 45.0232 98.267 44.8956 97.6239 44.9061C96.9896 44.8973 96.3608 45.0249 95.7801 45.2802C95.2488 45.5148 94.7713 45.8558 94.377 46.2823C93.9879 46.7108 93.6842 47.2097 93.4823 47.7521C93.2669 48.3197 93.1578 48.9221 93.1605 49.5292C93.157 50.1318 93.2661 50.7297 93.4823 51.2922C93.6864 51.8296 93.99 52.3238 94.377 52.7488C94.7711 53.1755 95.2487 53.5165 95.7801 53.7509C96.3608 54.0063 96.9896 54.1339 97.6239 54.1249Z" fill="#FF7600"/>
<path d="M117.771 43.5968V55.4343H116.034V52.8689C115.682 53.6871 115.108 54.3906 114.378 54.8998C113.546 55.4717 112.554 55.7621 111.545 55.7282C110.825 55.7439 110.11 55.6068 109.447 55.3261C108.882 55.082 108.382 54.7063 107.991 54.2302C107.628 53.7714 107.36 53.2444 107.203 52.6803C107.02 51.9829 106.934 51.2635 106.949 50.5426V43.5951H108.713V50.0351C108.708 50.584 108.771 51.1314 108.9 51.665C109.01 52.1335 109.214 52.5745 109.501 52.961C109.78 53.329 110.142 53.6264 110.556 53.8293C111.05 54.0576 111.59 54.1677 112.133 54.151C112.731 54.1649 113.322 54.0319 113.856 53.7634C114.334 53.5159 114.749 53.1643 115.072 52.7346C115.396 52.3002 115.641 51.8115 115.794 51.2914C115.953 50.763 116.035 50.214 116.035 49.6619V43.596L117.771 43.5968Z" fill="#FF7600"/>
<path d="M131.854 52.9494C131.461 53.787 130.829 54.4891 130.036 54.9665C129.201 55.4787 128.237 55.7429 127.257 55.7282C126.399 55.7383 125.549 55.57 124.759 55.234C124.027 54.9225 123.368 54.4632 122.822 53.8848C122.285 53.3111 121.863 52.6397 121.579 51.907C121.283 51.1494 121.133 50.3426 121.137 49.5291C121.134 48.7112 121.284 47.8999 121.579 47.1372C121.859 46.4026 122.281 45.7306 122.822 45.1598C123.371 44.5885 124.03 44.1341 124.759 43.8239C125.549 43.4878 126.399 43.3195 127.257 43.3297C128.235 43.315 129.198 43.5741 130.036 44.0777C130.835 44.5535 131.469 45.2621 131.854 46.1084V36.7292H133.592V55.4342H131.855L131.854 52.9494ZM127.337 54.1248C127.981 54.1355 128.619 54.008 129.208 53.7509C129.742 53.5144 130.224 53.1737 130.624 52.7487C131.018 52.3266 131.327 51.8319 131.533 51.2921C131.749 50.7297 131.858 50.1317 131.854 49.5291C131.857 48.922 131.748 48.3197 131.533 47.7521C131.331 47.2051 131.021 46.7044 130.622 46.2797C130.222 45.855 129.742 45.5151 129.208 45.2801C128.619 45.0231 127.981 44.8955 127.337 44.906C126.703 44.8972 126.074 45.0248 125.494 45.2801C124.962 45.5145 124.485 45.8556 124.091 46.2822C123.702 46.7109 123.398 47.2097 123.195 47.7521C122.98 48.3197 122.871 48.9221 122.874 49.5291C122.87 50.1317 122.979 50.7296 123.195 51.2921C123.4 51.8294 123.704 52.3235 124.091 52.7487C124.485 53.1756 124.962 53.5167 125.494 53.7509C126.074 54.0063 126.703 54.1338 127.337 54.1248Z" fill="#FF7600"/>
<path d="M19.2248 35.6323L17.9102 35.0572C19.5522 31.2973 22.2551 28.098 25.6878 25.8509C29.1205 23.6038 33.134 22.4065 37.2368 22.4057C37.6864 22.4057 38.1424 22.4207 38.6009 22.4504C38.5711 21.9928 38.5562 21.5363 38.5562 21.0863C38.5567 16.3702 40.138 11.7904 43.0474 8.07868C45.9568 4.36698 50.0264 1.73768 54.6059 0.610842C59.1854 -0.515991 64.0104 -0.075323 68.31 1.86253C72.6095 3.80039 76.1354 7.12356 78.3243 11.3009C82.9075 9.74766 87.8854 9.81719 92.4234 11.4978C96.9615 13.1784 100.784 16.368 103.25 20.5318C108.574 19.154 114.225 19.9111 118.999 22.6417C123.772 25.3722 127.29 29.8601 128.801 35.1477L127.421 35.5418C126.711 33.0587 125.519 30.7398 123.912 28.7179C122.305 26.696 120.315 25.0108 118.057 23.7586C115.798 22.5063 113.315 21.7118 110.748 21.4202C108.182 21.1287 105.584 21.346 103.102 22.0596L102.554 22.2168L102.277 21.7193C99.99 17.6093 96.3051 14.4555 91.8913 12.8303C87.4774 11.2051 82.6272 11.2163 78.2209 12.8617L77.6096 13.0905L77.3241 12.5033C75.3817 8.50327 72.1403 5.28015 68.1293 3.36046C64.1183 1.44077 59.5748 0.937982 55.2411 1.9343C50.9074 2.93063 47.0397 5.36712 44.2698 8.84576C41.4999 12.3244 39.9915 16.6396 39.9911 21.0863C39.9916 21.7796 40.0284 22.4724 40.1013 23.1618L40.1938 24.0425L39.3131 23.9504C38.6233 23.8781 37.9303 23.8416 37.2368 23.841C33.4131 23.8419 29.6726 24.9578 26.4734 27.0521C23.2742 29.1464 20.7551 32.1282 19.2248 35.6323Z" fill="#FF7600"/>
<path d="M142.999 39.8062C143.016 40.4243 142.848 41.0333 142.517 41.5553C142.185 42.0773 141.706 42.4886 141.139 42.7364C140.573 42.9842 139.945 43.0573 139.337 42.9464C138.729 42.8355 138.167 42.5455 137.725 42.1137C137.282 41.6819 136.979 41.1278 136.853 40.5224C136.727 39.9171 136.785 39.288 137.019 38.7156C137.253 38.1433 137.652 37.6537 138.166 37.3097C138.68 36.9657 139.284 36.7828 139.903 36.7845C140.305 36.7766 140.705 36.8487 141.08 36.9968C141.454 37.1449 141.795 37.366 142.083 37.6472C142.372 37.9284 142.601 38.2641 142.758 38.6347C142.915 39.0054 142.997 39.4036 142.999 39.8062ZM137.563 39.8062C137.554 40.1211 137.608 40.4347 137.722 40.7282C137.837 41.0217 138.009 41.2891 138.229 41.5144C138.45 41.7397 138.713 41.9182 139.004 42.0393C139.295 42.1604 139.607 42.2215 139.922 42.2191C140.232 42.2178 140.539 42.1542 140.823 42.0322C141.108 41.9102 141.366 41.7323 141.581 41.5088C141.796 41.2854 141.963 41.0211 142.074 40.7315C142.185 40.442 142.236 40.1332 142.225 39.8235C142.238 39.5102 142.187 39.1976 142.077 38.9042C141.966 38.6109 141.797 38.3429 141.581 38.1162C141.364 37.8896 141.104 37.709 140.816 37.5852C140.528 37.4614 140.217 37.3969 139.904 37.3957C139.59 37.3945 139.28 37.4565 138.991 37.578C138.702 37.6995 138.44 37.878 138.222 38.1029C138.003 38.3278 137.832 38.5945 137.719 38.8869C137.606 39.1794 137.553 39.4916 137.563 39.805V39.8062ZM139.424 41.391H138.724V38.369C139.108 38.3015 139.496 38.2707 139.885 38.2769C140.249 38.247 140.614 38.3238 140.935 38.4981C141.031 38.5795 141.107 38.6814 141.158 38.7962C141.209 38.9111 141.234 39.0359 141.23 39.1616C141.217 39.3308 141.149 39.491 141.035 39.6175C140.922 39.744 140.77 39.8298 140.604 39.8617V39.8983C140.754 39.9592 140.885 40.06 140.983 40.1899C141.08 40.3198 141.14 40.4739 141.156 40.6354C141.186 40.8982 141.261 41.1537 141.378 41.391H140.622C140.505 41.1589 140.424 40.9105 140.381 40.6543C140.326 40.3225 140.14 40.175 139.755 40.175H139.423L139.424 41.391ZM139.443 39.6775H139.774C140.162 39.6775 140.475 39.5485 140.475 39.2352C140.475 38.9589 140.274 38.7747 139.832 38.7747C139.702 38.7719 139.572 38.7841 139.445 38.8113L139.443 39.6775Z" fill="#0B38DB"/>
</svg>
