<svg xmlns="http://www.w3.org/2000/svg" width="669.2" height="759.584" viewBox="0 0 669.2 759.584">
  <g id="Group_7620" data-name="Group 7620" transform="translate(-28.251 -55.447)">
    <ellipse id="Ellipse_139" data-name="Ellipse 139" cx="194.554" cy="10.609" rx="194.554" ry="10.609" transform="translate(222.433 749.668)" fill="#d1d3d4" opacity="0.45"/>
    <g id="Group_7546" data-name="Group 7546" transform="translate(125.233 112.403)">
      <g id="Group_7541" data-name="Group 7541" transform="translate(66.756 317.227)">
        <path id="Path_8484" data-name="Path 8484" d="M202.364,212.618a226.1,226.1,0,0,1-57.293-107.735L62.7,129.586a313.44,313.44,0,0,0,77.826,142.363,42.848,42.848,0,0,0,61.835-59.331Z" transform="translate(-37.647 -21.78)" fill="#ef8e1b"/>
        <path id="Path_8485" data-name="Path 8485" d="M157.475,212.618a226.1,226.1,0,0,1-57.293-107.735l-27.46,8.236c17.514,50.952,51.347,94.145,96.37,126.022A42.44,42.44,0,0,0,157.475,212.618Z" transform="translate(7.242 -21.78)" fill="#ffa92f"/>
        <path id="Path_8486" data-name="Path 8486" d="M165.758,135.832c-1.271-26.879-24.539-47.489-51.966-46.042-27.389,1.4-56.9,23.344-55.621,50.229L75.3,207.29a4.353,4.353,0,0,0,5.874,2.888L171,173.824Z" transform="translate(-58.131 -89.718)" fill="#d87b16"/>
        <path id="Path_8487" data-name="Path 8487" d="M58.171,137.778,75.3,205.05a4.353,4.353,0,0,0,5.874,2.888l53.106-21.492s-23.043-62.433-35.225-96.227C76.819,97,57.124,115.711,58.171,137.778Z" transform="translate(-58.131 -87.478)" fill="#c66c12"/>
      </g>
      <g id="Group_7542" data-name="Group 7542" transform="translate(0 10.286)">
        <path id="Path_8488" data-name="Path 8488" d="M86.156,82.112c-26.989,5.82-44.305,32.3-39.368,59.468s30.452,45.867,57.764,41.828c.537-.077,1.036-.115,1.567-.192L87.691,81.739C87.17,81.86,86.682,82,86.156,82.112Z" transform="translate(-45.949 181.478)" fill="#ef8e1b"/>
        <path id="Path_8489" data-name="Path 8489" d="M60.469,271.3,85.49,409.091c281.345-29.871,441.8,87.871,441.8,87.871L443.165,33.706S334.35,200.339,60.469,271.3Z" transform="translate(19.101 -33.706)" fill="#e6e7e8"/>
        <path id="Path_8490" data-name="Path 8490" d="M63.686,333.749l7.392,40.721c281.345-29.871,441.8,87.871,441.8,87.871L436.447,41.434C371.466,191.776,218.433,274.807,63.686,333.749Z" transform="translate(33.513 0.915)" fill="#d1d3d4" opacity="0.45"/>
        <path id="Path_8491" data-name="Path 8491" d="M103.066,77.063c-8.072,2.088-26.671,6-40.814,8.982a14.227,14.227,0,0,0-11.058,16.478L70.576,209.261A14.228,14.228,0,0,0,86.72,220.8c14.286-2.181,33.082-5.058,41.368-5.94Z" transform="translate(-23.497 160.53)" fill="#ffa92f"/>
        <path id="Path_8492" data-name="Path 8492" d="M64.109,107.9l5.074,27.959c281.345-29.871,441.8,87.871,441.8,87.871L496.6,144.508C363.3,88.536,209.5,85.1,64.109,107.9Z" transform="translate(35.408 239.53)" fill="#d1d3d4" opacity="0.84"/>
        <path id="Path_8493" data-name="Path 8493" d="M54.123,106.9l2.285,12.565A14.225,14.225,0,0,0,72.552,131c14.286-2.181,33.082-5.058,41.368-5.94l-5.074-27.959Q81.251,101.438,54.123,106.9Z" transform="translate(-9.329 250.321)" fill="#d1d3d4" opacity="0.43" style="mix-blend-mode: multiply;isolation: isolate"/>
      </g>
      <g id="Group_7544" data-name="Group 7544" transform="translate(436.487)">
        <g id="Group_7543" data-name="Group 7543">
          <path id="Path_8494" data-name="Path 8494" d="M230.077,506.408c-31.438,0-65.551-129.047-80.747-205.294-1.512-7.727-3.03-15.536-4.472-23.465-4.285-23.6-7.973-47.577-10.965-71.255C128.918,167.141,115.1,38.621,146.317,32.954a11.989,11.989,0,0,1,2.176-.2c4.959,0,20.062,0,44.623,68.581,15.19,42.409,29.641,99.285,40.694,160.156,11.289,62.153,17.771,121.38,18.248,166.765.789,74.22-14.708,77.026-19.8,77.952A12.089,12.089,0,0,1,230.077,506.408Z" transform="translate(-121.443 -27.672)" fill="#2c2c4c"/>
          <path id="Path_8495" data-name="Path 8495" d="M152.645,42c21.942,0,57.528,99.039,80.319,224.562,23.24,127.973,24.353,234.847,2.543,238.809a7.555,7.555,0,0,1-1.271.11c-20.594,0-52.991-86.977-75.76-201.206-1.5-7.683-3.019-15.47-4.455-23.377-4.466-24.61-8.094-48.552-10.927-70.981-11.946-94.26-9.321-164.606,8.286-167.8A7.062,7.062,0,0,1,152.645,42m0-10.171a17.036,17.036,0,0,0-3.08.279C135.021,34.75,127.755,53.036,126,91.4c-1.419,30.983,1,72.406,7.009,119.791,3,23.75,6.707,47.812,11.009,71.524,1.447,7.951,2.97,15.777,4.477,23.509,11.168,56.032,25.076,107.532,39.159,145.059,21.41,57.051,36.14,64.367,46.585,64.367a17.15,17.15,0,0,0,3.091-.279c17.152-3.113,24.545-28.715,23.975-83.01-.482-45.664-6.992-105.193-18.33-167.614-11.1-61.134-25.63-118.3-40.913-160.967-22.84-63.77-38.4-71.951-49.412-71.951Z" transform="translate(-125.601 -31.829)" fill="#ffa92f"/>
        </g>
      </g>
      <g id="Group_7545" data-name="Group 7545" transform="translate(456.489 193.704)">
        <path id="Path_8496" data-name="Path 8496" d="M169.972,76.164l14.072,77.519-1.562,1.622-34.008,22.166c-1.743-9.025-4.061-17.8-5.748-27.082-5.244-28.9-9.941-56.92-13.475-83.213Z" transform="translate(-129.251 -67.177)" fill="#c16b16"/>
        <path id="Path_8497" data-name="Path 8497" d="M149.343,106.736c2.707,14.916,4.943,39.138,2.362,39.609s-9.009-22.994-11.716-37.916-4.948-39.138-2.362-39.609S146.63,91.814,149.343,106.736Z" transform="translate(-96.856 -59.844)" fill="#ffa92f"/>
      </g>
    </g>
    <g id="Group_7548" data-name="Group 7548" transform="translate(482.345 508.272)">
      <path id="Path_8498" data-name="Path 8498" d="M155.389,165.159c-12.692-.274-23.832-10.061-28.518-21.854s-3.858-25.131-.784-37.444c-2.734-.126-4.554-.252-7.283-.378-6.642,14.681-9.836,31.767-4.789,47.067s18.155,28.276,34.058,30.885Z" transform="translate(-109.226 -97.734)" fill="#f7be97"/>
      <path id="Path_8499" data-name="Path 8499" d="M120.864,146.883a38.967,38.967,0,0,0,48.6-36.535c2.351.362,4.707.718,7.058,1.085-1.606,13.037-6.483,28.594-15.607,38.047s-22.435,12.741-35.406,14.807Z" transform="translate(-67.446 -75.94)" fill="#f7be97"/>
      <path id="Path_8500" data-name="Path 8500" d="M137,163.647a53.934,53.934,0,0,1-12.478-11.206,58.194,58.194,0,0,1-8.636-16.182,55.7,55.7,0,0,1-3.315-18.555,62.172,62.172,0,0,1,.855-9.354c-2.461,10.434-2.756,21.279.57,31.362,5.052,15.3,18.155,28.276,34.058,30.885l.312-.778A49.738,49.738,0,0,1,137,163.647Z" transform="translate(-109.209 -84.895)" fill="#eab18b"/>
      <path id="Path_8501" data-name="Path 8501" d="M158.2,130.447c-9.836,9.946-23.158,13.36-36.7,13.881l1.14,4.28c12.971-2.066,26.287-5.354,35.406-14.807,5.069-5.25,8.784-12.407,11.4-19.952A59.65,59.65,0,0,1,158.2,130.447Z" transform="translate(-64.583 -60.26)" fill="#eab18b"/>
      <path id="Path_8502" data-name="Path 8502" d="M127.586,113.444c-4.806,3.4-11.628,7.5-15.536,10.894,6.258,12.226,19.492,22.983,32.978,25.191l8.066-20.035C142.579,129.265,133.181,122.469,127.586,113.444Z" transform="translate(-106.932 -62.07)" fill="#ee5830"/>
      <path id="Path_8503" data-name="Path 8503" d="M114.7,115.055c-.948.7-1.885,1.408-2.647,2.066a49.062,49.062,0,0,0,10.735,13.716C119.283,126.294,115.7,120.847,114.7,115.055Z" transform="translate(-106.932 -54.853)" fill="#d83b1d"/>
      <path id="Path_8504" data-name="Path 8504" d="M120.864,120.751l4.915,23.229c11.963-1.907,25.6-5.962,34.819-13.464-2.214-3.743-6.116-10.724-7.107-14.873C144,122.165,132.032,123.606,120.864,120.751Z" transform="translate(-67.446 -52.214)" fill="#ee5830"/>
      <path id="Path_8505" data-name="Path 8505" d="M121.83,152.17a3.232,3.232,0,0,0,1.019,2.861,4.712,4.712,0,0,0,2.455.756,117.546,117.546,0,0,0,15.464.674c.6-.011,1.381-.2,1.414-.795a1.2,1.2,0,0,0-.559-.9,24.327,24.327,0,0,0-16.358-5.557C122.981,149.293,122.093,149.649,121.83,152.17Z" transform="translate(-63.206 98.06)" fill="#091a4c"/>
      <path id="Path_8506" data-name="Path 8506" d="M129.813,161.27a1.058,1.058,0,0,1-.712.4,2.431,2.431,0,0,1-.773-.027c-3.688-.74-6.844-2.658-9.946-4.707a11.39,11.39,0,0,1-2.439-1.951,3.832,3.832,0,0,1-1.03-2.866,1.79,1.79,0,0,1,1.211-1.6,2.559,2.559,0,0,1,1.112.077c2.674.6,6.916.625,8.686,2.877.159.2.29.416.427.63.7,1.129,1.315,2.307,1.94,3.474.34.636.68,1.277,1.019,1.912C129.556,159.955,130.17,160.722,129.813,161.27Z" transform="translate(-94.188 103.865)" fill="#091a4c"/>
      <path id="Path_8507" data-name="Path 8507" d="M114.627,129.907c-2.093,36.316,2.877,119.018,2.877,119.018s6.011,2.608,11.9.564a300.909,300.909,0,0,1,13.875-86.835c11.924,26.934,11.3,53.407,13.607,78.3,3.551.148,6.286,1.666,10.648.438,5.946-41.834,5.716-71.239-3.277-112.5Z" transform="translate(-97.694 7.167)" fill="#4c4c75"/>
      <path id="Path_8508" data-name="Path 8508" d="M114.222,186.287c14.67,4.729,50.832,5.354,50.717,4.121-.789-8.368-1.786-15.859-1.167-23.657,1.052-13.146,4.033-23.92,4.768-30.414.515-4.631-.077-4.9-2.373-8.96-3.759-6.636-11.152-8.642-18.013-9.979-8.045-1.567-19.163-2.68-23.377,5.913C123.795,125.317,113.706,151.654,114.222,186.287Z" transform="translate(-97.289 -49.212)" fill="#ee5830"/>
      <path id="Path_8509" data-name="Path 8509" d="M118.693,150.556c-.033-6.34-.142-12.73.192-19.065.2-3.8,1.885-7.82,1.874-11.694a183.653,183.653,0,0,0-6.538,50.887,54.35,54.35,0,0,0,5.759,1.447A146.731,146.731,0,0,1,118.693,150.556Z" transform="translate(-97.289 -33.609)" fill="#d83b1d"/>
      <path id="Path_8510" data-name="Path 8510" d="M123.636,130.8h0a5.219,5.219,0,0,1-4.57-5.8l1.222-10.3,10.373,1.233-1.222,10.3A5.224,5.224,0,0,1,123.636,130.8Z" transform="translate(-75.665 -56.421)" fill="#eab18b"/>
      <g id="Group_7547" data-name="Group 7547" transform="translate(31.942 30.782)">
        <path id="Path_8511" data-name="Path 8511" d="M143.908,128.028c.416,3.019.636,7.458-1.2,9.9-2.137,2.839-6.318,3.14-9.8,2.428a20.683,20.683,0,0,1-11.4-6.34,15.521,15.521,0,0,1-3.88-12.27,12.483,12.483,0,0,1,7.847-9.9C136.938,107.8,142.7,119.249,143.908,128.028Z" transform="translate(-114.53 -103.786)" fill="#f7be97"/>
        <path id="Path_8512" data-name="Path 8512" d="M130.709,124.747a18.712,18.712,0,0,1-5.732-7.464c-.323-.827-.362-1.682-.619-2.51-.373-1.184-.214-1.074-1.491-1.266a19.386,19.386,0,0,0-5.37.362,16.056,16.056,0,0,0,3.951,9.294,20.682,20.682,0,0,0,11.4,6.34c2.68.548,5.748.466,8.006-.882A17.636,17.636,0,0,1,130.709,124.747Z" transform="translate(-114.472 -92.937)" fill="#eab18b"/>
        <path id="Path_8513" data-name="Path 8513" d="M138.881,112.058a8.269,8.269,0,0,0-10.313-1.025c-2.3,1.6-3.578,4.263-5.206,6.543-1.9,2.658-4.395,4.954-5.617,7.979a12.86,12.86,0,0,0,1.238,11.322c2.433,3.984,7.058,7.469,11.787,7.946a7.811,7.811,0,0,0-2.948-6.214,9.76,9.76,0,0,1-1.655-1.375,1.77,1.77,0,0,1-.274-2,1.069,1.069,0,0,1,1.5-.241c.351.345.63,1.189,1.337.751a.785.785,0,0,0,.3-.789,3.016,3.016,0,0,0-.334-.827,7.047,7.047,0,0,1-.241-5.622,5.034,5.034,0,0,1,2.406-2.521c1.118-.554,1.9-.2,3.036-.3a8.132,8.132,0,0,0,5.732-3.272A8.369,8.369,0,0,0,138.881,112.058Z" transform="translate(-116.945 -109.686)" fill="#0e4ba5"/>
        <path id="Path_8514" data-name="Path 8514" d="M121.762,112.92a8.384,8.384,0,0,0,4.4,3,1.116,1.116,0,0,1,.608.351.959.959,0,0,1-.148.986,6.246,6.246,0,0,1-2.57,2.345Z" transform="translate(-95.365 -95.199)" fill="#f7be97"/>
      </g>
      <path id="Path_8515" data-name="Path 8515" d="M132.506,109.7a6.917,6.917,0,0,1,3.529.669q5,1.891,10,3.787c.537.2,1.167.553,1.123,1.118-.038.5-.586.778-1.063.937-4.17,1.4-9.387,1.754-13.579.214C129.3,115.24,128.1,110.423,132.506,109.7Z" transform="translate(-28.152 -79.062)" fill="#f7be97"/>
      <path id="Path_8516" data-name="Path 8516" d="M127.227,113.352a4.989,4.989,0,0,0,.674-5.469,13.728,13.728,0,0,0-4.137-3.814c.192,1.343.389,2.68.581,4.017-.411-.132-9.535-2.482-13.229-3.025a15.825,15.825,0,0,0,6.8,7.014c2.729,1.4,5.88,2.5,8.74,1.414Z" transform="translate(-111.116 -104.069)" fill="#f7be97"/>
    </g>
    <g id="Group_7555" data-name="Group 7555" transform="translate(390.782 55.447)">
      <path id="Path_8517" data-name="Path 8517" d="M117.092,50.929a18.879,18.879,0,0,1-2.839,3.392,23.936,23.936,0,0,1-4.11,2.641,6.53,6.53,0,0,1-4.033,1.315A5.778,5.778,0,0,1,100.9,54.6a6.265,6.265,0,0,1,.581-4.894,12.127,12.127,0,0,1,3.392-3.715c1.375-1.063,3.644-1.929,4.406-3.573a6.866,6.866,0,0,0,.5-2.559c.181-4-.789-7.973-.828-11.979a8.07,8.07,0,0,1,.411-3.008,3.471,3.471,0,0,1,2.055-2.121c2.762-.882,5.809,1.776,7.113,3.929a16.831,16.831,0,0,1,2.017,6.565,29.131,29.131,0,0,1-.625,11.332A22.025,22.025,0,0,1,117.092,50.929Z" transform="translate(-66.529 -16.32)" fill="#d83b1d"/>
      <path id="Path_8518" data-name="Path 8518" d="M110.679,42.355l16.588,9.71,5.858-27.18h4.861c-.093,1.069.378,17.158-.784,24.057a15.887,15.887,0,0,1-3.052,7.65,17.162,17.162,0,0,1-6.2,5.047c-6.735,3.211-13.612,1.238-19.415-2.806-1.649-1.151-3.145-2.844-5.058-3.282.164-.274.323-.575.482-.866C104.53,53.627,110.569,42.437,110.679,42.355Z" transform="translate(-53.771 -5.982)" fill="#0a8f6d"/>
      <g id="Group_7554" data-name="Group 7554" transform="translate(13.953)">
        <path id="Path_8519" data-name="Path 8519" d="M114.3,70.239c-2.066,2.225-9.984-2.066-14.9-4.937-.406-.236-1.271-.838-1.184-1.3.071-.362.444-.564.778-.718,1.419-.663,3.715-2.351,5.272-2.4C105.677,60.847,116.746,67.6,114.3,70.239Z" transform="translate(-91.338 155.295)" fill="#d83b1d"/>
        <path id="Path_8520" data-name="Path 8520" d="M121.8,66.736c-1.841,2.417-10.138-1.091-15.311-3.474-.427-.2-1.343-.712-1.3-1.178.033-.367.384-.608.7-.795,1.348-.795,3.474-2.7,5.02-2.893C112.309,58.22,123.981,63.875,121.8,66.736Z" transform="translate(-60.06 144.123)" fill="#d83b1d"/>
        <path id="Path_8521" data-name="Path 8521" d="M150.969,153.224l-9.568,2.482c.071-.022-1.271-6.669-1.337-7.036q-3.609-18.914-7.206-37.833c-1.293-6.779-5.546-35.515-8.225-36.88a4.1,4.1,0,0,0-4.263.406c-2.291,1.765-6.094,44.524-7.546,58.268-.822,7.781-1.595,25.536-2.422,33.318l-7.354,2.976S91.89,72.115,100.148,45.3c2.482-7.99,11.913-8.713,22.616-6.949l.044,5.326c5.688-1.4,15.525-3.206,17.782.449C150.969,61.1,150.969,153.224,150.969,153.224Z" transform="translate(-96.282 50.807)" fill="#2c2c4c"/>
        <path id="Path_8522" data-name="Path 8522" d="M97.017,45.862l3.82,44.82,40.425-1.167,2.367-56.071s-3.715-4.636-14.116-5.562c-3.639-.318-7.464-.433-11.42-.455a41.816,41.816,0,0,0-7.661.822A16.484,16.484,0,0,0,97.017,45.862Z" transform="translate(-96.953 5.406)" fill="#0a8f6d"/>
        <path id="Path_8523" data-name="Path 8523" d="M103.635,64.042a160.443,160.443,0,0,1-3.019-19.492c-.477-5.157-.9-10.319-1.726-15.42a16.279,16.279,0,0,0-1.874,9.108l3.82,44.82,7.475-.214C106.529,76.645,105.011,70.365,103.635,64.042Z" transform="translate(-96.952 13.031)" fill="#0b7c5c"/>
        <g id="Group_7552" data-name="Group 7552" transform="translate(14.863 4.325)">
          <g id="Group_7550" data-name="Group 7550" transform="translate(4.44 22.607)">
            <g id="Group_7549" data-name="Group 7549">
              <path id="Path_8524" data-name="Path 8524" d="M100.476,32.5a8.8,8.8,0,0,0,8.51.06c.016-2.466.022-3.693.038-6.159l-8.51-.055C100.5,28.81,100.487,30.043,100.476,32.5Z" transform="translate(-100.476 -26.35)" fill="#f7be97"/>
            </g>
          </g>
          <g id="Group_7551" data-name="Group 7551">
            <path id="Path_8525" data-name="Path 8525" d="M99.875,36.622c1.047,6.384,5.907,12.275,12.407,11.853,6.209-.411,10.456-3.261,9.584-13.661-.444-5.321-2.735-10.258-7.853-12.034a10.771,10.771,0,0,0-11.256,2.882A12.862,12.862,0,0,0,99.875,36.622Z" transform="translate(-99.666 -22.225)" fill="#f7be97"/>
          </g>
        </g>
        <g id="Group_7553" data-name="Group 7553" transform="translate(35.179)">
          <path id="Path_8526" data-name="Path 8526" d="M103.373,26.726l19.172-2.993.569,5.6-19.4.732Z" transform="translate(-103.373 -11.142)" fill="#0073de"/>
          <path id="Path_8527" data-name="Path 8527" d="M109.288,23.733l.57,5.6-3,.109-.531-5.216Z" transform="translate(-90.116 -11.142)" fill="#0073de" opacity="0.51" style="mix-blend-mode: multiply;isolation: isolate"/>
          <path id="Path_8528" data-name="Path 8528" d="M126.457,22.926l1.089,10.719-20.2.122-.732-7.2Z" transform="translate(-88.861 -14.759)" fill="#0073de"/>
          <path id="Path_8529" data-name="Path 8529" d="M112.777,22.926l1.089,10.719-3.166.019L109.666,23.5Z" transform="translate(-75.18 -14.759)" fill="#0073de" opacity="0.51" style="mix-blend-mode: multiply;isolation: isolate"/>
          <path id="Path_8530" data-name="Path 8530" d="M141.5,21.829l1.767,17.382-32.008.192-1.2-11.8Z" transform="translate(-73.443 -19.673)" fill="#0073de"/>
          <path id="Path_8531" data-name="Path 8531" d="M121.234,21.435,123.354,42.3l-5.762.035-2.019-19.86Z" transform="translate(-48.718 -21.435)" fill="#0e4ba5"/>
        </g>
      </g>
      <path id="Path_8532" data-name="Path 8532" d="M117.68,27.708c.2-1.041.132-2.126.416-3.145a2.576,2.576,0,0,1,2.137-2.055,2.948,2.948,0,0,0-3.184.954,1.537,1.537,0,0,0-2.34.367,1.245,1.245,0,0,0-1.469-.208,2.921,2.921,0,0,0-1.118,1.118A6.639,6.639,0,0,0,110.94,28a3.821,3.821,0,0,0,1.266,3.14,2.654,2.654,0,0,0,3.419.077A6.263,6.263,0,0,0,117.68,27.708Z" transform="translate(-20.368 -17.266)" fill="#f7be97"/>
      <path id="Path_8533" data-name="Path 8533" d="M115.166,25.809a.8.8,0,0,1-1.37-.641,2.241,2.241,0,0,1-1.458,1.436,1.349,1.349,0,0,1-1.644-.943.98.98,0,0,1-1.3.756,1.319,1.319,0,0,1-.751-1.425,2.036,2.036,0,0,1,1-1.359,4.794,4.794,0,0,1,1.649-.543,14.453,14.453,0,0,1,3.507-.17C115.856,23,115.829,25.14,115.166,25.809Z" transform="translate(-30.694 -14.956)" fill="#f7be97"/>
      <path id="Path_8534" data-name="Path 8534" d="M165.347,23.679l4.044,2.214s-7.064,48.508-63.5,40.414c-8.291-1.184-8.762-17.711-4.3-16.451C150.211,63.617,165.347,23.679,165.347,23.679Z" transform="translate(-74.781 -11.385)" fill="#00b681"/>
      <path id="Path_8535" data-name="Path 8535" d="M141.956,27.441a6.633,6.633,0,0,1-2.115,2.214c-1.019.707-2.165.992-3.189,1.715a16.447,16.447,0,0,0-2.937,2.685,22.133,22.133,0,0,0-3.978,6.976c-1.934,5.414-1.666,11.13-3.069,16.615-.6,2.307-1.945,4.34-2.378,6.625s-.882,4.625-2.817,6.159c-1.063.833-2.444,1.3-3.233,2.4a9.8,9.8,0,0,0-1.069,2.91,10.331,10.331,0,0,1-6.6,6.466,14.162,14.162,0,0,1-9.409-.367,9.634,9.634,0,0,1-4.789-3.491,5.115,5.115,0,0,1-.1-5.666c.658-.882,1.715-1.589,1.814-2.685.208-2.225-3.529-3.052-3.672-5.283-.1-1.551,1.606-2.548,3.091-3.019s3.25-1.047,3.672-2.543c.526-1.847-1.375-3.392-2.187-5.135a5.6,5.6,0,0,1,1.123-5.984,7.945,7.945,0,0,1,5.82-2.356c1.655-.005,3.381.389,4.932-.192,1.94-.729,3.052-2.8,3.485-4.828s.362-4.137.822-6.159c1.523-6.636,8.708-9.836,14.692-11.442,3.074-.827,5.65-1.71,8.888-.7,1.7.526,3.48,1.754,3.567,3.54A3.063,3.063,0,0,1,141.956,27.441Z" transform="translate(-94.407 -19.333)" fill="#d83b1d"/>
    </g>
    <g id="Group_7561" data-name="Group 7561" transform="translate(63.429 378.922)">
      <path id="Path_8536" data-name="Path 8536" d="M119.27,89.7a38.143,38.143,0,0,1-4.346,4.433c-3.518,3.513-5.869,8-8.916,11.93A41.66,41.66,0,0,1,76.795,121.83c-1.682.132-3.507.208-4.811,1.282-.712.586-1.189,1.414-1.874,2.033-1.858,1.666-4.685,1.419-7.157,1.069q-1.529,14.377-4.006,28.638A38.338,38.338,0,0,1,46.458,118.8a4.128,4.128,0,0,1,1.173-2.488,4.456,4.456,0,0,1,3.206-.537c7.1.586,14.33.581,21.235-1.173,12.67-3.217,23.081-11.968,33.154-20.309a94.637,94.637,0,0,1,10.028-7.551c.844-.526,4.329-3.118,5.228-2.488C121.785,85.175,119.845,88.885,119.27,89.7Z" transform="translate(14.997 -63.927)" fill="#d1d3d4" opacity="0.67" style="mix-blend-mode: multiply;isolation: isolate"/>
      <g id="Group_7559" data-name="Group 7559" transform="translate(0 118.044)">
        <g id="Group_7558" data-name="Group 7558">
          <g id="Group_7557" data-name="Group 7557">
            <g id="Group_7556" data-name="Group 7556">
              <line id="Line_351" data-name="Line 351" x1="59.186" transform="translate(41.404 37.885)" fill="none" stroke="#6d6e71" stroke-miterlimit="10" stroke-width="0.676"/>
              <line id="Line_352" data-name="Line 352" x1="59.187" transform="translate(30.753 109.945)" fill="none" stroke="#6d6e71" stroke-miterlimit="10" stroke-width="0.676"/>
              <line id="Line_353" data-name="Line 353" x1="59.186" transform="translate(36.079 73.915)" fill="none" stroke="#6d6e71" stroke-miterlimit="10" stroke-width="0.676"/>
              <line id="Line_354" data-name="Line 354" x1="59.186" transform="translate(20.103 182.005)" fill="none" stroke="#6d6e71" stroke-miterlimit="10" stroke-width="0.676"/>
              <line id="Line_355" data-name="Line 355" x1="59.187" transform="translate(25.428 145.975)" fill="none" stroke="#6d6e71" stroke-miterlimit="10" stroke-width="0.676"/>
              <line id="Line_356" data-name="Line 356" x1="59.186" transform="translate(14.778 218.035)" fill="none" stroke="#6d6e71" stroke-miterlimit="10" stroke-width="0.676"/>
              <line id="Line_357" data-name="Line 357" x1="59.186" transform="translate(20.103 182.005)" fill="none" stroke="#6d6e71" stroke-miterlimit="10" stroke-width="0.676"/>
              <line id="Line_358" data-name="Line 358" x1="59.187" transform="translate(9.452 254.064)" fill="none" stroke="#6d6e71" stroke-miterlimit="10" stroke-width="0.676"/>
              <line id="Line_359" data-name="Line 359" x1="46.729" y2="316.161" transform="translate(0 1.856)" fill="none" stroke="#6d6e71" stroke-miterlimit="10" stroke-width="0.676"/>
              <path id="Path_8537" data-name="Path 8537" d="M45.471,420.022,92.2,102.006V389.232" transform="translate(13.716 -102.006)" fill="none" stroke="#6d6e71" stroke-miterlimit="10" stroke-width="0.676"/>
            </g>
          </g>
        </g>
      </g>
      <g id="Group_7560" data-name="Group 7560" transform="translate(23.951)">
        <path id="Path_8538" data-name="Path 8538" d="M46.208,126.589c1.008,1.551,3.129,1.841,4.976,1.934A115.609,115.609,0,0,0,69.4,128c.559-.066,1.255-.258,1.326-.817s-.548-.9-1.063-1.1A86.393,86.393,0,0,0,53.7,121.6c-1.666-.3-5.02-1.474-6.581-.543C45.539,122,45.3,125.191,46.208,126.589Z" transform="translate(-9.29 99.817)" fill="#091a4c"/>
        <path id="Path_8539" data-name="Path 8539" d="M42.35,127.01a4.576,4.576,0,0,0,3.721.921c1.66-.11,3.343.077,5.02.082a54.365,54.365,0,0,0,10.363-.981c.718-.137,1.633-.614,1.4-1.31a1.282,1.282,0,0,0-.723-.647A41.573,41.573,0,0,0,51.584,121.4c-2.411-.488-7.661-1.984-9.683.027C40.6,122.725,41.134,125.876,42.35,127.01Z" transform="translate(-29.615 98.464)" fill="#091a4c"/>
        <path id="Path_8540" data-name="Path 8540" d="M46.082,98.009c-6.6,8.077-6.483,19.1-6.077,29.224,1.134,28.238,7.031,96.178,7.031,96.178,1.973,2.811,6.866,2.554,9.8.6,2.165-31.937.5-59.134,4.663-90.9l10.045,91.854s7.091,1.693,9.8-.7c1.315-1.156,4.532-105.708-3.058-126.455Z" transform="translate(-35.434 -2.749)" fill="#a7a9ac"/>
        <path id="Path_8541" data-name="Path 8541" d="M45.052,145.335c-.652,8.362-1.288,16.725-1.8,25.1-.225,3.71-.636,11.179-1.014,14.872a9.309,9.309,0,0,0,3.9-1.414c1.836-27.137.943-51.95,3.178-77.124C49.315,106.767,45.638,137.794,45.052,145.335Z" transform="translate(-24.732 37.368)" fill="#939598"/>
        <path id="Path_8542" data-name="Path 8542" d="M51.363,124.921c1.611,18.314.932,36.82,1.419,55.183.395,14.735.953,29.465,1.238,44.206l.066-.044c1.315-1.156,4.532-105.708-3.058-126.455l-5.1.027A111,111,0,0,1,51.363,124.921Z" transform="translate(-8.17 -2.749)" fill="#939598"/>
        <path id="Path_8543" data-name="Path 8543" d="M44.888,83.242a4.407,4.407,0,0,0,1.655,3.074c.236.186.521.438.416.718a.7.7,0,0,1-.263.274c-.619.438-1.244.871-1.863,1.31Z" transform="translate(-13.093 -68.022)" fill="#e8a679"/>
        <rect id="Rectangle_17101" data-name="Rectangle 17101" width="10.292" height="12.151" transform="translate(16.332 24.887)" fill="#eab18b"/>
        <path id="Path_8544" data-name="Path 8544" d="M64.623,99.2c-.17,2.888-.784,7.047-2.937,8.971-2.51,2.247-6.45,1.765-9.552.46a19.626,19.626,0,0,1-9.431-7.99,14.728,14.728,0,0,1-1.348-12.116,11.826,11.826,0,0,1,9.113-7.754C61.861,79.118,65.11,90.818,64.623,99.2Z" transform="translate(-32.017 -79.811)" fill="#f7be97"/>
        <path id="Path_8545" data-name="Path 8545" d="M53.468,84.064a60.4,60.4,0,0,0-8.593,1.841c-1.238.318-2.444.723-3.639,1.151a20.259,20.259,0,0,0,8.083,6.1,11.1,11.1,0,0,0,7.5.718,8.476,8.476,0,0,1-1.458-1.48C53.348,89.785,53.381,87.1,53.468,84.064Z" transform="translate(-29.203 -64.339)" fill="#eab18b"/>
        <path id="Path_8546" data-name="Path 8546" d="M63.112,81.837a8.106,8.106,0,0,1,3.135,1.94,3.7,3.7,0,0,1,.964,3.43,4.7,4.7,0,0,1-2.06,2.4,12.832,12.832,0,0,1-8.362,2.071,9.728,9.728,0,0,1,1.726,4.888,1.313,1.313,0,0,0-2.269.663,1.526,1.526,0,0,0,2.192,1.3,14.288,14.288,0,0,1-4.455,11.031,18.706,18.706,0,0,1-11.743-9.853,17.089,17.089,0,0,1-1.545-11.031c.9-3.721,2.992-4.954,6.335-6.417a21.64,21.64,0,0,1,7.486-1.765A20.728,20.728,0,0,1,63.112,81.837Z" transform="translate(-33.236 -80.465)" fill="#091a4c"/>
        <path id="Path_8547" data-name="Path 8547" d="M46.653,152.3c6.231.444,33.312-.225,36.409-.115,0,0,10.593-35.587,1.271-55.6C82.5,92.658,76.129,90.422,72,89.1s-9.99-1.562-14.286-2.121c-7.6-.986-18.676,1.425-18.676,13.42C39.041,103.558,47.206,146.542,46.653,152.3Z" transform="translate(-39.041 -52.186)" fill="#00b681"/>
        <path id="Path_8548" data-name="Path 8548" d="M51.9,110.466a58.058,58.058,0,0,1-5.381,11.919c-.159.247-.312.493-.471.74,2.8-.038,4.888-.055,5.617-.027A142.793,142.793,0,0,0,56.647,93.27,109.888,109.888,0,0,1,51.9,110.466Z" transform="translate(-7.646 -23.097)" fill="#0a8f6d"/>
        <path id="Path_8549" data-name="Path 8549" d="M95.133,84.963c-5.031,9.853-14.051,14.7-24.2,16.325-7.4,1.184-14.873.208-22.259-1.3a35.732,35.732,0,0,1,3.852,16.374,52.151,52.151,0,0,0,18.193-2.921A52.755,52.755,0,0,0,99.884,87.6C97.38,86.591,96.87,87.023,95.133,84.963Z" transform="translate(4.114 -60.312)" fill="#f7be97"/>
        <path id="Path_8550" data-name="Path 8550" d="M88.748,92.666c-3.529-.685-8.971-1.94-12.45-2.745-11.037-2.559-24.117-4.433-35.236-2.258l26.183,20.117c8.16,3.683,14.177,5.031,23.114,4.663C90.3,110.158,90.82,97.033,88.748,92.666Z" transform="translate(-29.987 -52.501)" fill="#00b681"/>
        <path id="Path_8551" data-name="Path 8551" d="M57.2,90.564a6.094,6.094,0,0,1,3.885-6.581,11.536,11.536,0,0,1-1.469,2.839A24.662,24.662,0,0,1,67.6,84.109a1.457,1.457,0,0,1,1.058.11,1.326,1.326,0,0,1,.389,1.266A7.227,7.227,0,0,1,65.373,90.7a21.553,21.553,0,0,1-6.214,2.181Z" transform="translate(41.974 -64.702)" fill="#f7be97"/>
      </g>
    </g>
    <g id="Group_7583" data-name="Group 7583" transform="translate(240.041 219.382)">
      <g id="Group_7568" data-name="Group 7568" transform="translate(57.563 178.98)">
        <g id="Group_7562" data-name="Group 7562" transform="translate(5.63)">
          <path id="Path_8552" data-name="Path 8552" d="M82.615,94.807a13.057,13.057,0,0,1-4.115-.948l.389-8.74L90.3,84.012l-.455,10.346c-.269.038-.537.071-.806.1A34.541,34.541,0,0,1,82.615,94.807Z" transform="translate(-78.122 -84.012)" fill="#e8a679"/>
          <path id="Path_8553" data-name="Path 8553" d="M82.925,86.757a34.539,34.539,0,0,0,6.422-.345c.269-.033.537-.066.806-.1L89.7,96.561,78.431,94.182l.378-8.373A13.057,13.057,0,0,0,82.925,86.757Z" transform="translate(-78.431 -75.962)" fill="#e6e7e8"/>
        </g>
        <g id="Group_7567" data-name="Group 7567" transform="translate(0 12.083)">
          <path id="Path_8554" data-name="Path 8554" d="M80.539,89.817a35.34,35.34,0,0,0,2.526-3.6c3.458,2.285,7.425,2.269,11.469,1.891a17.389,17.389,0,0,0,1.655,5.463,3.633,3.633,0,0,0,.247.51,6.748,6.748,0,0,0,.57.954,5.8,5.8,0,0,0,.712.959,7.691,7.691,0,0,0,.751.828c.269.3.553.564.838.838.263.263.553.515.827.756.23.23.46.455.7.658.033.038.071.055.1.093.269.247.543.488.844.718a45.429,45.429,0,0,0,5.8,4.22,7.135,7.135,0,0,1,1.8,1.354,3.345,3.345,0,0,1-.137,4.2c-1.2,1.266-3.222.455-4.433-.088-8.461-3.677-18.122-8-26.517-11.826C75.629,96.525,79.728,90.765,80.539,89.817Z" transform="translate(-77.381 -86.217)" fill="#1d5dc5"/>
          <path id="Path_8555" data-name="Path 8555" d="M109.09,101.946c-1.206,1.03-3.091.3-4.247-.208-8.461-3.7-18.128-8-26.528-11.837a1.624,1.624,0,0,1-.855-1.934Z" transform="translate(-77.404 -78.377)" fill="#a7a9ac"/>
          <g id="Group_7563" data-name="Group 7563" transform="translate(21.257 12.949)">
            <path id="Path_8556" data-name="Path 8556" d="M81.377,90.81a.407.407,0,0,0,.219.2.6.6,0,0,0,.532-.055l2.3-1.655c-.3-.23-.575-.471-.844-.718l-2.039,1.441A.565.565,0,0,0,81.377,90.81Z" transform="translate(-81.283 -88.58)" fill="#a7a9ac"/>
          </g>
          <g id="Group_7564" data-name="Group 7564" transform="translate(19.673 11.442)">
            <path id="Path_8557" data-name="Path 8557" d="M81.067,90.524a.672.672,0,0,0,.241.2.555.555,0,0,0,.537-.077l2.23-1.589c-.274-.241-.564-.493-.827-.756l-1.984,1.414A.621.621,0,0,0,81.067,90.524Z" transform="translate(-80.994 -88.305)" fill="#a7a9ac"/>
          </g>
          <g id="Group_7565" data-name="Group 7565" transform="translate(18.18 9.776)">
            <path id="Path_8558" data-name="Path 8558" d="M80.807,90.138a.453.453,0,0,0,.225.2.55.55,0,0,0,.553-.066l2.044-1.441A7.692,7.692,0,0,1,82.879,88l-1.891,1.326A.616.616,0,0,0,80.807,90.138Z" transform="translate(-80.721 -88.001)" fill="#a7a9ac"/>
          </g>
          <g id="Group_7566" data-name="Group 7566" transform="translate(16.711 7.864)">
            <path id="Path_8559" data-name="Path 8559" d="M80.54,89.937a.44.44,0,0,0,.225.192.554.554,0,0,0,.526-.055l2.077-1.469a6.747,6.747,0,0,1-.57-.953l-2.088,1.491A.6.6,0,0,0,80.54,89.937Z" transform="translate(-80.453 -87.652)" fill="#a7a9ac"/>
          </g>
        </g>
      </g>
      <g id="Group_7573" data-name="Group 7573" transform="translate(102.367 134.354)">
        <path id="Path_8560" data-name="Path 8560" d="M87.2,88.152c8.083.186,17.344.334,25.427.389,1.162.022,3.069-.016,3.562-1.326a2.655,2.655,0,0,0-1.408-3.146,6.655,6.655,0,0,0-1.923-.427,43.785,43.785,0,0,1-6.159-1.293c-.323-.077-.63-.17-.932-.263a.951.951,0,0,1-.115-.038c-.268-.071-.537-.164-.8-.263-.307-.093-.63-.186-.937-.3-.323-.115-.647-.225-.97-.356a7.574,7.574,0,0,1-.9-.373,5.629,5.629,0,0,1-.915-.488,6.1,6.1,0,0,1-.8-.526,3.328,3.328,0,0,1-.378-.3,13.707,13.707,0,0,1-1.6-1.534c-.477-.6-.614-1.441-1.315-1.858a3,3,0,0,0-2.307.153.421.421,0,0,1-.153.038,4.012,4.012,0,0,1-2.1-.093,31.8,31.8,0,0,0-5.2.148c-.307,0-.575,3.48-1.162,5.294C85.812,82.551,84.628,88.092,87.2,88.152Z" transform="translate(-85.58 -75.868)" fill="#1d5dc5"/>
        <path id="Path_8561" data-name="Path 8561" d="M115.9,78.272c-.586,1.14-2.356,1.195-3.463,1.184-8.083-.077-17.349-.208-25.438-.4A1.423,1.423,0,0,1,85.622,77.9Z" transform="translate(-85.39 -66.772)" fill="#a7a9ac"/>
        <g id="Group_7569" data-name="Group 7569" transform="translate(19.003 6.217)">
          <path id="Path_8562" data-name="Path 8562" d="M89.281,79.343a.4.4,0,0,0,.247.077.5.5,0,0,0,.4-.208l1.238-1.945c-.323-.077-.63-.17-.932-.263l-1.107,1.7A.439.439,0,0,0,89.281,79.343Z" transform="translate(-89.047 -77.003)" fill="#a7a9ac"/>
        </g>
        <g id="Group_7570" data-name="Group 7570" transform="translate(17.192 5.62)">
          <path id="Path_8563" data-name="Path 8563" d="M88.931,79.212a.613.613,0,0,0,.269.077.486.486,0,0,0,.4-.225l1.2-1.874c-.307-.093-.63-.186-.937-.3L88.794,78.56A.475.475,0,0,0,88.931,79.212Z" transform="translate(-88.717 -76.894)" fill="#a7a9ac"/>
        </g>
        <g id="Group_7571" data-name="Group 7571" transform="translate(15.371 4.891)">
          <path id="Path_8564" data-name="Path 8564" d="M88.605,78.986a.45.45,0,0,0,.252.077.479.479,0,0,0,.416-.225l1.107-1.7a7.567,7.567,0,0,1-.9-.373l-1.025,1.567A.476.476,0,0,0,88.605,78.986Z" transform="translate(-88.385 -76.761)" fill="#a7a9ac"/>
        </g>
        <g id="Group_7572" data-name="Group 7572" transform="translate(13.56 3.877)">
          <path id="Path_8565" data-name="Path 8565" d="M88.278,78.971a.4.4,0,0,0,.247.077.5.5,0,0,0,.4-.208L90.048,77.1a6.106,6.106,0,0,1-.8-.526l-1.123,1.759A.455.455,0,0,0,88.278,78.971Z" transform="translate(-88.054 -76.576)" fill="#a7a9ac"/>
        </g>
      </g>
      <path id="Path_8566" data-name="Path 8566" d="M73.374,96.935c8.872-8.116,19.936-15.842,29.838-22.709,9.261-6.422,23.268-14.615,33.444-8.729,12.544,7.261,15.388,50.476,16.418,66.981q-5.951,1.085-11.9,2.165c-7.047-17.722-12.1-26.161-14.314-45.067-13.377,14.1-34.145,22.265-49.423,27.246Z" transform="translate(-37.893 2.953)" fill="#4c4c75"/>
      <path id="Path_8567" data-name="Path 8567" d="M142.846,118.09l-4.926.893c-7.047-17.722-12.1-26.161-14.314-45.067-13.377,14.1-34.145,22.265-49.423,27.246l-.082-.384c18.166-8.834,34.5-21.268,50.766-33.811A105.372,105.372,0,0,0,142.846,118.09Z" transform="translate(-34.641 18.612)" fill="#39395c"/>
      <path id="Path_8568" data-name="Path 8568" d="M73.532,60.37l-1.507.9c-.066-.307-.148-.6-.214-.9Z" transform="translate(-44.895 -10.946)" fill="#a7a9ac"/>
      <g id="Group_7574" data-name="Group 7574" transform="translate(28.868 51.259)">
        <path id="Path_8569" data-name="Path 8569" d="M101.781,83.942,90.876,85.777c-8.746-2.329-14.209-8.7-17.629-15.914,3.321-1.469,6.51-3.381,9.782-4.483A51.205,51.205,0,0,0,101.781,83.942Z" transform="translate(-67.33 -39.757)" fill="#e8a679"/>
        <path id="Path_8570" data-name="Path 8570" d="M81.591,60.7c1.217,10.708,3.677,17.881,8.034,25.372-3.277,1.107-9.53,4.236-12.85,5.7-6.088-12.828-4.389-29.257-4.389-29.257Z" transform="translate(-72.167 -60.705)" fill="#ce7413"/>
      </g>
      <path id="Path_8571" data-name="Path 8571" d="M88.364,88.718c-4.252,2.576-13.305,2.071-18.714.964,5.343-7.606,15.574-13.552,22.517-20.374C94.633,76.4,96.107,84.011,88.364,88.718Z" transform="translate(-54.576 29.095)" fill="#e86464"/>
      <path id="Path_8572" data-name="Path 8572" d="M72.854,68.477c6.055-8.746,16.182-11.546,26.249-8.2,5.5,1.83,8.6,7.957,7.365,26.172-.389,5.688-1.633,15.273-.395,20.84.68,3.063,1.973,6.543.121,9.091-1.682,2.323-4.724,2.471-7,3.907-2.691,1.693-4.992,4.428-7.5,6.494-1.134.937-14.807,13.585-14.412,13.8-6.362-3.485-8.625-13.5-8.4-20.084C69.2,111.456,62.158,83.925,72.854,68.477Z" transform="translate(-66.899 -17.497)" fill="#ef8e1b"/>
      <g id="Group_7575" data-name="Group 7575" transform="translate(2.59 105.045)">
        <path id="Path_8573" data-name="Path 8573" d="M68.78,78.707c.537-4.992,3.233-6.044,8.006-6.253,15.059-.669,29.8-2.126,44.93-1.425,4.367.2,9.261.762,12,4.11,1.978,2.422,2.313,5.721,2.543,8.812a501.121,501.121,0,0,1,.707,61.863c-4.346,1.392-8.779,1.688-15.388,2.055-3.091-12.182-9.343-56.027-9.365-56.027-7.524.2-13.157.46-20.747,1.019-5.507.405-11.338.356-16.16-2.285A12.2,12.2,0,0,1,68.78,78.707Z" transform="translate(-61.354 -69.073)" fill="#4c4c75"/>
        <path id="Path_8574" data-name="Path 8574" d="M114.8,74.18l6.5,61.759-.871.049c-3.091-12.182-9.343-56.027-9.365-56.027-7.524.2-13.157.46-20.747,1.019-5.507.406-11.338.356-16.16-2.285a12.9,12.9,0,0,1-5.184-5.2C82.326,81.085,99.522,72.832,114.8,74.18Z" transform="translate(-60.209 -57.192)" fill="#39395c"/>
        <path id="Path_8575" data-name="Path 8575" d="M93.292,70.52c-6.62,5.4-13.87,11.3-17.262,16.127-2.948-1.611-6.039-7.08-8.658-13.2A145.416,145.416,0,0,1,93.292,70.52Z" transform="translate(-67.372 -70.52)" fill="#ef8e1b"/>
      </g>
      <path id="Path_8576" data-name="Path 8576" d="M77.3,70.08c.614.055,1.222.082,1.83.159A4.146,4.146,0,0,1,77.3,70.08Z" transform="translate(-20.287 32.554)" fill="#d1cdc9"/>
      <g id="Group_7578" data-name="Group 7578" transform="translate(21.495)">
        <g id="Group_7577" data-name="Group 7577">
          <path id="Path_8577" data-name="Path 8577" d="M79.592,54.261a21.378,21.378,0,0,1,2.2,6.932,11.782,11.782,0,0,1-1.277,7.075A75.891,75.891,0,0,0,75.12,54.431Z" transform="translate(-51.566 -38.314)" fill="#d83b1d"/>
          <path id="Path_8578" data-name="Path 8578" d="M76.321,88.055h0a6.914,6.914,0,0,1-5-8.467L78.146,54.43l13.618,3.562L84.946,83.145A7.066,7.066,0,0,1,76.321,88.055Z" transform="translate(-69.639 -37.557)" fill="#f7be97"/>
          <path id="Path_8579" data-name="Path 8579" d="M72.281,67.647a20.66,20.66,0,0,1-.312-6.094,23.073,23.073,0,0,1,.745-4.647,11.415,11.415,0,0,1,3.222,1.332,27.3,27.3,0,0,0,3.425,1.386c1.633.586,3.277,1.123,4.915,1.671L81.362,72.052a6.827,6.827,0,0,1-1.792,3.041C75.832,74.453,73.131,71.214,72.281,67.647Z" transform="translate(-66.055 -26.465)" fill="#e8a679"/>
          <g id="Group_7576" data-name="Group 7576" transform="translate(0.591 9.277)">
            <path id="Path_8580" data-name="Path 8580" d="M81.645,89.5c13.826,7.261,21.728-26.112,7.727-33.888C73.485,46.792,68.526,63.516,73.452,77.09,75.2,81.9,76.976,87.047,81.645,89.5Z" transform="translate(-67.806 -52.561)" fill="#f7be97"/>
            <path id="Path_8581" data-name="Path 8581" d="M75.026,75.956a7.392,7.392,0,0,1-1.26,2.948c.247-.323-1-3.277-1.129-3.737C71.644,71.6,70.647,67.934,71,64.251a11.918,11.918,0,0,1,.948-3.655c3.425-7.7,13.842-9.5,20.9-5.447a21.681,21.681,0,0,1,4.126,3.041,9.19,9.19,0,0,1,2.817,4.768,5.533,5.533,0,0,1-1.556,5.135c-4.126,3.683-9.245-.9-12.637-3.1-1.666-1.074-4.066-1.9-5.485-.526-1.995,1.934-2.28,6.5-2.208,9.228.005.241-1.162.307-1.206-.044-.088-.674.016-1.233-.575-1.463-.17-.066-1.293-.564-1.063.022A6.322,6.322,0,0,1,75.026,75.956Z" transform="translate(-70.93 -53.044)" fill="#d83b1d"/>
          </g>
          <path id="Path_8582" data-name="Path 8582" d="M73.931,57.42a1.818,1.818,0,0,0-.877-.9,1.082,1.082,0,0,0-1.2.208,1.484,1.484,0,0,0-.132,1.386,11.416,11.416,0,0,0,1.693,3.129Z" transform="translate(-67.26 -28.606)" fill="#f7be97"/>
          <path id="Path_8583" data-name="Path 8583" d="M92.329,70.631a2.085,2.085,0,0,1,.126.219c.521,1.08-.049,2.34-.614,3.4-.871,1.644-1.825,3.381-3.474,4.291-3.162,1.754-6.932-.115-9.486-2.077a18.489,18.489,0,0,1-5.924-8.05,17.886,17.886,0,0,1-.049-12.27,3.65,3.65,0,0,1,.871,2.214c.071,1.025-.395,6.587,2.9,9.979,1.458,1.5,4.154,1.573,6.148,1.441,2.45-.164,4.926-.937,7.376-.406A3.337,3.337,0,0,1,92.329,70.631Z" transform="translate(-66.226 -29.861)" fill="#d83b1d"/>
          <path id="Path_8584" data-name="Path 8584" d="M78.977,64.174a19.592,19.592,0,0,0,1.534-7.7c-.005-1.748-.4-3.737-1.918-4.658-1.6-.97-3.754-.279-5.217.882-1.8,1.441-3.047,3.83-2.367,6.006,1.063,3.408,6.028,4.57,6.85,8.039Z" transform="translate(-70.822 -51.351)" fill="#d83b1d"/>
          <path id="Path_8585" data-name="Path 8585" d="M79.126,59.1a1.745,1.745,0,0,1,.493,2.066,1.047,1.047,0,0,1-.669.6.988.988,0,0,1-.789-.225,2.725,2.725,0,0,1-.543-.63,5.4,5.4,0,0,1-1.195.893,1.872,1.872,0,0,1-1.452.137,1.092,1.092,0,0,1-.734-1.156,1.525,1.525,0,0,1,.543-.8C75.756,59.135,77.926,58.149,79.126,59.1Z" transform="translate(-55.583 -18.386)" fill="#f7be97"/>
        </g>
        <path id="Path_8586" data-name="Path 8586" d="M76.554,57.174c-.356,1.628-.7,3.387.006,4.9.126.269.29.57.175.844a.907.907,0,0,1-.608.416,5.186,5.186,0,0,1-1.189.2" transform="translate(-52.386 -25.264)" fill="none" stroke="#e8a679" stroke-linecap="round" stroke-miterlimit="10" stroke-width="0.084"/>
        <path id="Path_8587" data-name="Path 8587" d="M75.854,57.395a1.326,1.326,0,0,1-1.858.2" transform="translate(-56.601 -24.274)" fill="none" stroke="#39395c" stroke-linecap="round" stroke-miterlimit="10" stroke-width="0.084"/>
        <path id="Path_8588" data-name="Path 8588" d="M77.13,57.448a1.307,1.307,0,0,1-1.436.29" transform="translate(-48.994 -24.037)" fill="none" stroke="#39395c" stroke-linecap="round" stroke-miterlimit="10" stroke-width="0.084"/>
        <path id="Path_8589" data-name="Path 8589" d="M78.92,57.081a10.028,10.028,0,0,0-5.206.488" transform="translate(-57.865 -26.333)" fill="none" stroke="#39395c" stroke-linecap="round" stroke-miterlimit="10" stroke-width="0.106"/>
        <path id="Path_8590" data-name="Path 8590" d="M78.142,57.112a9.468,9.468,0,0,0-2.581,0" transform="translate(-49.59 -25.937)" fill="none" stroke="#39395c" stroke-linecap="round" stroke-miterlimit="10" stroke-width="0.106"/>
      </g>
      <g id="Group_7579" data-name="Group 7579" transform="translate(26.845 80.517)">
        <rect id="Rectangle_17102" data-name="Rectangle 17102" width="24.271" height="2.389" transform="translate(0 24.527)" fill="#808285"/>
        <path id="Path_8591" data-name="Path 8591" d="M117.955,92.961H74.329l6.22-23.9a4.069,4.069,0,0,1,3.957-3.014h38.217a1.721,1.721,0,0,1,1.688,2.137Z" transform="translate(-60.46 -66.044)" fill="#a7a9ac"/>
        <path id="Path_8592" data-name="Path 8592" d="M80.549,69.027l-6.22,23.9h2.707l7-26.879A4.047,4.047,0,0,0,80.549,69.027Z" transform="translate(-60.46 -66.013)" fill="#808285"/>
        <ellipse id="Ellipse_140" data-name="Ellipse 140" cx="2.047" cy="2.01" rx="2.047" ry="2.01" transform="translate(39.388 10.596)" fill="#fff" opacity="0.88"/>
      </g>
      <g id="Group_7582" data-name="Group 7582" transform="translate(4.339 47.241)">
        <path id="Path_8593" data-name="Path 8593" d="M82.246,64.43c.9,8.45,3.7,28.978,3.7,28.978,6.713-2.006,13.311-1.841,20-3.3l-1.622,6.187c-8.91,2.526-17.371,5.721-18.867,6.132-2.636.74-5.694.647-7.869-1-1.951-1.485-2.85-3.913-3.578-6.231-2.756-8.762-5.179-17.492-6.132-26.4C73.418,67.625,75.884,64.435,82.246,64.43Z" transform="translate(-66.854 -39.999)" fill="#f7be97"/>
        <g id="Group_7581" data-name="Group 7581">
          <path id="Path_8594" data-name="Path 8594" d="M67.9,76.967c.416-5.157.816-13.382,4.926-15.881,6.209-3.776,12.226,2.773,12.615,8.773.444,6.806,1.671,13.294,2.362,19.793-7.058.005-13.475.1-19.624,1.386A75.765,75.765,0,0,1,67.9,76.967Z" transform="translate(-67.691 -59.972)" fill="#ef8e1b"/>
          <path id="Path_8595" data-name="Path 8595" d="M67.9,75.111c.367-4.526.718-11.42,3.584-14.725-3.036,9.124-2.066,19-1.337,28.435-.658.11-1.315.225-1.967.362A75.765,75.765,0,0,1,67.9,75.111Z" transform="translate(-67.691 -58.116)" fill="#ce7413"/>
          <g id="Group_7580" data-name="Group 7580" transform="translate(18.039 13.055)">
            <path id="Path_8596" data-name="Path 8596" d="M71.043,63.034c-.022-.225-.038-.455-.06-.68C71,62.579,71.021,62.8,71.043,63.034Z" transform="translate(-70.983 -62.354)" fill="#e6e7e8"/>
            <path id="Path_8597" data-name="Path 8597" d="M71.007,62.478c.559,5.42,1.452,10.686,2.011,15.947-.69,0-1.354.011-2.028.011A150.3,150.3,0,0,0,71.007,62.478Z" transform="translate(-70.947 -61.798)" fill="#ffa92f"/>
          </g>
        </g>
      </g>
      <path id="Path_8598" data-name="Path 8598" d="M96.222,83.992a1.154,1.154,0,0,1,.416.51c.422.838.055,1.951.055,2.839v2.7s-6.6,3.7-17.9,2.192c-.241-.033-.921-4.532-.97-4.943-.29-2.532,3.814-1.578,5.376-1.622,1.989-.055,3.973-.175,5.951-.395a26.313,26.313,0,0,0,5.337-1.019C95.131,84.047,95.739,83.691,96.222,83.992Z" transform="translate(-18.041 94.358)" fill="#39395c"/>
      <path id="Path_8599" data-name="Path 8599" d="M100.389,77.936a3.722,3.722,0,0,1-.833,2.767,4.576,4.576,0,0,1-2.51,1c-3.436.6-6.9,1.08-10.379,1.436-.422-1.441-.849-2.882-1.271-4.324a1.847,1.847,0,0,1-.1-.953c.181-.712,1.08-.937,1.819-1.036,4.2-.559,8.943-1.841,13.168-1.688A18.2,18.2,0,0,1,100.389,77.936Z" transform="translate(15.367 55.144)" fill="#39395c"/>
    </g>
    <g id="Group_7597" data-name="Group 7597" transform="translate(126.972 216.171)" opacity="0.39">
      <path id="Path_8638" data-name="Path 8638" d="M88.533,59.758c-.269,0-.532.022-.8.038a11.272,11.272,0,0,0-21.618-1.671A14.878,14.878,0,0,0,46.266,72.191l.016.378h56.679A14.531,14.531,0,0,0,88.533,59.758Z" transform="translate(-46.266 -50.765)" fill="#3e7fdd"/>
    </g>
    <g id="Group_7599" data-name="Group 7599" transform="translate(187.793 135.084)" opacity="0.75">
      <path id="Path_8640" data-name="Path 8640" d="M145.608,49.728a16.162,16.162,0,0,0-11.667,4.965,17.757,17.757,0,0,0-14.522-7.732,17.022,17.022,0,0,0-4.537.636c-2.466-6.751-9.606-11.628-18.029-11.628-8.746,0-16.095,5.266-18.281,12.423-.477-.033-.959-.071-1.452-.071A19.76,19.76,0,0,0,57.365,68.08c0,.269.027.532.038.795H161.588a16.181,16.181,0,0,0-15.979-19.147Z" transform="translate(-57.365 -35.968)" fill="#3279e0"/>
    </g>
    <g id="Group_7602" data-name="Group 7602" transform="translate(28.251 105.553)">
      <g id="Group_7601" data-name="Group 7601">
        <path id="Path_8642" data-name="Path 8642" d="M101.737,41.084a12.223,12.223,0,0,0-4.62.91A17.252,17.252,0,0,0,82.2,33.675a17.65,17.65,0,0,0-8.971,2.433,16.348,16.348,0,0,0-28.353,7.968,14.722,14.722,0,0,0-1.781-.121,14.915,14.915,0,0,0-14.84,13.437H113.31a12.24,12.24,0,0,0-11.574-16.308Z" transform="translate(-28.251 -30.579)" fill="#e6e7e8"/>
      </g>
    </g>
  </g>
</svg>
