<?xml version="1.0" encoding="utf-8"?>
<svg version="1.1" xmlns:xlink="http://www.w3.org/1999/xlink" width="41px" height="41px" xmlns="http://www.w3.org/2000/svg">
  <g transform="matrix(1 0 0 1 -1198 1 )">
    <path d="M 40.03367003367 30.6464646464646  C 40.6778900112233 31.290684624018  41 32.0729517396184  41 32.993265993266  C 41 33.9135802469136  40.6778900112233 34.695847362514  40.03367003367 35.3400673400673  L 35.3400673400673 40.03367003367  C 34.695847362514 40.6778900112233  33.9135802469136 41  32.993265993266 41  C 32.0729517396184 41  31.290684624018 40.6778900112233  30.6464646464646 40.03367003367  L 20.5 29.8872053872054  L 10.3535353535354 40.03367003367  C 9.70931537598204 40.6778900112233  8.92704826038159 41  8.00673400673401 41  C 7.08641975308642 41  6.30415263748597 40.6778900112233  5.65993265993266 40.03367003367  L 0.966329966329966 35.3400673400673  C 0.322109988776656 34.695847362514  0 33.9135802469136  0 32.993265993266  C 0 32.0729517396184  0.322109988776656 31.290684624018  0.966329966329966 30.6464646464646  L 11.1127946127946 20.5  L 0.966329966329966 10.3535353535354  C 0.322109988776656 9.70931537598204  0 8.92704826038159  0 8.00673400673401  C 0 7.08641975308642  0.322109988776656 6.30415263748596  0.966329966329966 5.65993265993266  L 5.65993265993266 0.966329966329966  C 6.30415263748597 0.322109988776654  7.08641975308642 0  8.00673400673401 0  C 8.92704826038159 0  9.70931537598204 0.322109988776654  10.3535353535354 0.966329966329966  L 20.5 11.1127946127946  L 30.6464646464646 0.966329966329966  C 31.290684624018 0.322109988776654  32.0729517396184 0  32.993265993266 0  C 33.9135802469136 0  34.695847362514 0.322109988776654  35.3400673400673 0.966329966329966  L 40.03367003367 5.65993265993266  C 40.6778900112233 6.30415263748596  41 7.08641975308642  41 8.00673400673401  C 41 8.92704826038159  40.6778900112233 9.70931537598204  40.03367003367 10.3535353535354  L 29.8872053872054 20.5  L 40.03367003367 30.6464646464646  Z " fill-rule="nonzero" fill="#000000" stroke="none" transform="matrix(1 0 0 1 1198 -1 )" />
  </g>
</svg>