<svg width="14" height="14" viewBox="0 0 14 14" fill="none" xmlns="http://www.w3.org/2000/svg">
<path d="M10.9947 11.8205L6.87059 7.69611L2.7476 11.8205C2.63806 11.9299 2.48952 11.9914 2.33467 11.9914C2.17982 11.9913 2.03133 11.93 1.92188 11.8205C1.81242 11.7109 1.75092 11.5617 1.75098 11.4069C1.75103 11.252 1.81263 11.1039 1.92216 10.9944L6.04516 6.87124L1.92216 2.74917C1.868 2.69497 1.82506 2.6297 1.79577 2.5589C1.76647 2.4881 1.75138 2.41221 1.7514 2.33559C1.75143 2.25897 1.76656 2.18306 1.79591 2.11228C1.82525 2.04151 1.86825 1.97732 1.92244 1.92316C1.97664 1.869 2.04099 1.82599 2.11179 1.79669C2.18258 1.7674 2.25847 1.75223 2.33509 1.75226C2.41171 1.75229 2.48755 1.76735 2.55833 1.79669C2.62911 1.82604 2.69344 1.8701 2.7476 1.9243L6.86938 6.04637L10.9942 1.91974C11.0483 1.8655 11.1127 1.82263 11.1835 1.79327C11.2543 1.76392 11.3302 1.74884 11.4069 1.74884C11.4835 1.74884 11.5594 1.76392 11.6303 1.79327C11.7011 1.82263 11.7654 1.8655 11.8196 1.91974C11.8742 1.97363 11.9176 2.03807 11.9472 2.10887C11.9768 2.17967 11.9921 2.25543 11.9921 2.33217C11.9921 2.40892 11.9768 2.48582 11.9472 2.55662C11.9176 2.62742 11.8742 2.69072 11.8196 2.74461L7.69425 6.87124L11.8196 10.9979C11.9007 11.0794 11.9558 11.1835 11.9781 11.2964C12.0004 11.4092 11.9889 11.5262 11.9449 11.6325C11.901 11.7388 11.8266 11.8292 11.7311 11.8934C11.6356 11.9575 11.5233 11.992 11.4083 11.9925C11.3314 11.9925 11.2553 11.9776 11.1844 11.9481C11.1134 11.9185 11.0489 11.875 10.9947 11.8205Z" fill="#E61A1A"/>
</svg>
