<svg id="Chart_Example_2" data-name="Chart Example 2" xmlns="http://www.w3.org/2000/svg" width="386" height="288.025" viewBox="0 0 386 288.025">
  <g id="Lines" transform="translate(37.787 11.504)">
    <g id="Chart_Line" data-name="Chart / Line" transform="translate(0 250.295)">
      <rect id="Chart_Line-2" data-name="Chart / Line" width="348.213" height="1" fill="#ebeaef"/>
    </g>
    <g id="Chart_Line-3" data-name="Chart / Line" transform="translate(0 171.52)">
      <rect id="Chart_Line-4" data-name="Chart / Line" width="348.213" height="1" fill="#ebeaef"/>
    </g>
    <g id="Chart_Line-5" data-name="Chart / Line" transform="translate(0 85.728)">
      <rect id="Chart_Line-6" data-name="Chart / Line" width="348.213" height="1" fill="#ebeaef"/>
    </g>
    <g id="Chart_Line-7" data-name="Chart / Line" transform="translate(0)">
      <rect id="Chart_Line-8" data-name="Chart / Line" width="348.213" height="1" fill="#ebeaef"/>
    </g>
  </g>
  <g id="X_axis_-_Days" data-name="X axis - Days" transform="translate(54.328 276.545)">
    <text id="Chart_Number" data-name="Chart Number" transform="translate(-0.328 7.481)" fill="#4c4c4c" font-size="9" font-family="SourceSansPro-Regular, Source Sans Pro"><tspan x="0" y="0">Mon</tspan></text>
    <text id="Chart_Number-2" data-name="Chart Number" transform="translate(72.672 7.481)" fill="#4c4c4c" font-size="9" font-family="SourceSansPro-Regular, Source Sans Pro"><tspan x="0" y="0">Tue</tspan></text>
    <text id="Chart_Number-3" data-name="Chart Number" transform="translate(289.672 7.481)" fill="#4c4c4c" font-size="9" font-family="SourceSansPro-Regular, Source Sans Pro"><tspan x="0" y="0">Fri</tspan></text>
    <text id="Chart_Number-4" data-name="Chart Number" transform="translate(143.672 7.481)" fill="#4c4c4c" font-size="9" font-family="SourceSansPro-Regular, Source Sans Pro"><tspan x="0" y="0">Wed</tspan></text>
    <text id="Chart_Number-5" data-name="Chart Number" transform="translate(217.672 7.481)" fill="#4c4c4c" font-size="9" font-family="SourceSansPro-Regular, Source Sans Pro"><tspan x="0" y="0">Thu</tspan></text>
  </g>
  <g id="Y_Axis_-_Customers" data-name="Y Axis - Customers">
    <text id="Chart_Number-6" data-name="Chart Number" transform="translate(8.22 263.412)" fill="#4c4c4c" font-size="10" font-family="SourceSansPro-Regular, Source Sans Pro"><tspan x="0" y="0">0</tspan></text>
    <text id="Chart_Number-7" data-name="Chart Number" transform="translate(0 94.983)" fill="#4c4c4c" font-size="10" font-family="SourceSansPro-Regular, Source Sans Pro"><tspan x="0" y="0">60</tspan></text>
    <text id="Chart_Number-8" data-name="Chart Number" transform="translate(0 10)" fill="#4c4c4c" font-size="10" font-family="SourceSansPro-Regular, Source Sans Pro"><tspan x="0" y="0">90</tspan></text>
    <text id="Chart_Number-9" data-name="Chart Number" transform="translate(0 179.966)" fill="#4c4c4c" font-size="10" font-family="SourceSansPro-Regular, Source Sans Pro"><tspan x="0" y="0">30</tspan></text>
  </g>
  <g id="Target" transform="translate(41.432 55.941)">
    <g id="Chart_Label" data-name="Chart / Label" transform="translate(296.568 -2.284)">
      <g id="Chart_Label-2" data-name="Chart / Label" transform="translate(0)">
        <rect id="Rectangle_16971" width="48" height="21" rx="10.5" transform="translate(0)" fill="#f8f8fa"/>
        <text id="Target-2" data-name="Target" transform="translate(12.188 12.102)" fill="#4c4c4c" font-size="9" font-family="SourceSansPro-Regular, Source Sans Pro"><tspan x="0" y="0">Target</tspan></text>
      </g>
    </g>
    <g id="Chart_Target_Line" data-name="Chart / Target Line" transform="translate(0 7.604)">
      <path id="Chart_Target_Line-2" data-name="Chart / Target Line" d="M296.568,1,0,1.5" transform="translate(0 -1)" fill="#d8d8d8" stroke="#0279ff" stroke-linecap="round" stroke-linejoin="round" stroke-miterlimit="10" stroke-width="2" stroke-dasharray="0 8"/>
    </g>
  </g>
  <g id="Bar2" transform="translate(56.348 -16.767)">
    <path id="Op_component_1-14" d="M0,0H216.779a9,9,0,0,1,9,9V9a9,9,0,0,1-9,9H0a0,0,0,0,1,0,0V0A0,0,0,0,1,0,0Z" transform="translate(-2.349 278.782) rotate(-90)" fill="#0279ff"/>
  </g>
  <g id="Bar2-2" data-name="Bar2" transform="translate(128.348 0.653)">
    <path id="Op_component_1-14-2" data-name="Op_component_1-14" d="M0,0H199.358a9,9,0,0,1,9,9V9a9,9,0,0,1-9,9H0a0,0,0,0,1,0,0V0A0,0,0,0,1,0,0Z" transform="translate(-2.349 261.361) rotate(-90)" fill="#0279ff"/>
  </g>
  <g id="Bar2-3" data-name="Bar2" transform="translate(199.348 30.592)">
    <path id="Op_component_1-14-3" data-name="Op_component_1-14" d="M0,0H169.42a9,9,0,0,1,9,9V9a9,9,0,0,1-9,9H0a0,0,0,0,1,0,0V0A0,0,0,0,1,0,0Z" transform="translate(-2.349 231.423) rotate(-90)" fill="#0279ff"/>
  </g>
</svg>
