<svg xmlns="http://www.w3.org/2000/svg" width="26" height="26" viewBox="0 0 26 26">
  <g id="Group_7711" data-name="Group 7711" transform="translate(-1213 -3718.001)">
    <path id="Path_8285" data-name="Path 8285" d="M-1914.241-314h-9.862a.9.9,0,0,0-.9.9v9.867a.9.9,0,0,0,.892.892h9.871a.891.891,0,0,0,.892-.892V-313.1A.9.9,0,0,0-1914.241-314Zm-.9,9.862h-8.069v-8.069h8.069Z" transform="translate(3138 4032.001)" fill="#9e9e9e"/>
    <path id="Path_8286" data-name="Path 8286" d="M-1898.241-314h-9.862a.9.9,0,0,0-.9.9v9.867a.892.892,0,0,0,.892.892h9.871a.891.891,0,0,0,.892-.892V-313.1A.9.9,0,0,0-1898.241-314Zm-.9,9.862h-8.069v-8.069h8.069Z" transform="translate(3136.345 4032.001)" fill="#9e9e9e"/>
    <path id="Path_8287" data-name="Path 8287" d="M-1914.241-298h-9.862a.9.9,0,0,0-.9.9v9.867a.9.9,0,0,0,.892.892h9.871a.891.891,0,0,0,.892-.892V-297.1A.9.9,0,0,0-1914.241-298Zm-.9,9.862h-8.069v-8.069h8.069Z" transform="translate(3138 4030.346)" fill="#9e9e9e"/>
    <path id="Path_8288" data-name="Path 8288" d="M-1898.241-298h-9.862a.9.9,0,0,0-.9.9v9.867a.892.892,0,0,0,.892.892h9.871a.891.891,0,0,0,.892-.892V-297.1A.9.9,0,0,0-1898.241-298Zm-.9,9.862h-8.069v-8.069h8.069Z" transform="translate(3136.345 4030.346)" fill="#9e9e9e"/>
  </g>
</svg>
