<svg width="48" height="50" viewBox="0 0 48 50" fill="none" xmlns="http://www.w3.org/2000/svg">
<g clip-path="url(#clip0_903_70749)">
<path d="M47 23.9035C47 36.549 36.7064 46.807 24 46.807C11.2936 46.807 1 36.549 1 23.9035C1 11.258 11.2936 1 24 1C36.7064 1 47 11.258 47 23.9035Z" stroke="#F7C343" stroke-width="2"/>
<path d="M11.5952 42.7797C11.7796 42.9233 11.9985 42.9986 12.213 42.9986C12.2973 42.9986 12.3811 42.9872 12.4621 42.9629C13.6383 42.6142 13.5765 40.743 13.5109 38.762C13.4778 37.7575 13.441 36.6428 13.5981 35.9383C15.2652 36.5183 21.242 38.514 28.0167 39.8109C28.0354 39.9507 28.0522 40.0914 28.068 40.2316C28.1853 41.2667 28.5967 42.0175 29.1953 42.2903C29.5976 42.473 30.0382 42.4244 30.4372 42.1529C30.7849 41.9164 31.2623 41.6626 31.5597 41.7876C32.1124 42.0203 32.371 43.5071 32.5995 44.8188C32.8988 46.5374 33.2082 48.3142 34.222 49.2706C34.4917 49.5253 34.8513 49.6674 35.2201 49.6674C35.2517 49.6674 35.2833 49.6665 35.3149 49.6646C35.7177 49.6379 36.0955 49.4423 36.3508 49.1275C37.663 47.5081 37.4322 45.6254 37.2282 43.9641C37.0845 42.7969 36.9605 41.7885 37.3604 41.1441C37.4873 40.9767 37.6027 40.814 37.7095 40.6562C38.3474 40.7024 39.9436 40.8059 41.4388 40.8059C41.9431 40.8059 42.4349 40.7935 42.8751 40.7635C42.9014 40.764 42.9277 40.7649 42.9536 40.7649C44.5048 40.7649 44.694 39.541 44.7965 38.877L44.8137 38.7616C45.42 32.9876 43.3736 28.6732 38.5577 25.5723C38.5529 25.5695 38.5486 25.5666 38.5442 25.5637C36.2613 24.2 34.4012 23.8013 33.0147 24.3803C31.9707 24.8163 31.5138 25.6825 31.3428 26.1199L11.5315 32.7887C11.4726 32.8082 11.4223 32.8412 11.3773 32.8798C11.3697 32.886 11.3639 32.8941 11.3567 32.9008C11.3232 32.9327 11.2954 32.968 11.2724 33.0081C11.2638 33.0229 11.2566 33.0372 11.2499 33.0529C11.2327 33.0921 11.2222 33.1336 11.2164 33.177C11.215 33.1889 11.2078 33.1989 11.2073 33.2113C11.1723 33.778 11.0694 34.5359 10.9607 35.3382C10.5608 38.2846 10.1087 41.624 11.5952 42.7797ZM13.4678 34.8803C13.2398 34.7973 12.9831 34.8979 12.8744 35.115C12.4601 35.9406 12.5056 37.3268 12.554 38.794C12.5928 39.9597 12.657 41.9106 12.1853 42.0285C11.1316 41.209 11.5995 37.7532 11.9099 35.466C11.9865 34.8984 12.0593 34.3566 12.1096 33.8748C13.9548 34.4472 19.9001 36.2211 24.5096 36.8164C26.6418 37.1536 27.4358 37.9087 27.7778 38.7959C20.0821 37.2819 13.5348 34.9051 13.4678 34.8803ZM37.7143 33.839C38.1012 32.9289 38.1094 32.0651 37.7401 31.2709C37.0021 29.6859 34.9758 28.854 33.8485 28.491C33.9093 28.0465 33.8317 27.6711 33.6751 27.3548C34.0472 27.5213 34.4744 27.7593 35.0099 28.1237C35.1406 28.2134 35.2938 28.3079 35.461 28.4109C35.87 28.6632 36.3791 28.9771 36.8278 29.4011C38.7392 31.2084 40.9211 33.778 41.0925 37.7088C40.7851 37.8915 40.4417 38.0031 40.0887 38.0084C39.6587 38.0194 39.2655 37.9402 38.9815 37.8596C39.015 37.8162 39.0423 37.7718 39.0849 37.7303C39.5011 37.3296 39.6989 36.8474 39.6572 36.3361C39.5725 35.3015 38.5543 34.3928 37.7143 33.839ZM38.663 38.7549C39.0232 38.8598 39.5308 38.9671 40.1031 38.9624C40.4542 38.9571 40.7999 38.8837 41.127 38.7573C41.1529 39.115 41.219 39.5071 41.3808 39.851C40.2305 39.8481 39.0126 39.7847 38.254 39.7365C38.4408 39.3692 38.5739 39.0387 38.663 38.7549ZM42.8842 39.8105C42.3401 39.7928 42.0767 39.5405 42.0676 38.1858C42.1447 38.1171 42.2185 38.0446 42.2889 37.9683C42.5829 37.6497 42.9388 37.5075 43.2232 37.5991C43.546 37.7036 43.7726 38.1081 43.853 38.71L43.8497 38.7329C43.7251 39.5343 43.5886 39.8338 42.8842 39.8105ZM33.3973 25.2551C34.4696 24.8149 36.0769 25.2036 38.0438 26.378C42.0298 28.9465 43.9699 32.4143 43.9541 36.9199C43.8209 36.8216 43.6763 36.7425 43.5182 36.6914C43.0254 36.5321 42.4756 36.6385 41.9982 36.9643C41.6035 33.0921 39.4163 30.5335 37.4868 28.709C36.9672 28.2172 36.4112 27.8743 35.9643 27.5991C35.8111 27.5046 35.6708 27.4183 35.5501 27.3358C34.0793 26.3341 33.2154 26.1166 32.4443 26.0531C32.6277 25.7712 32.9266 25.4483 33.3973 25.2551ZM29.9999 29.3391C30.0813 30.1686 29.1666 30.7023 28.3735 31.0062C26.7711 31.4274 25.8607 31.1126 25.5431 30.6761C25.2639 30.2912 25.3444 29.6887 25.7534 29.0081L28.9727 27.9244C29.2739 28.0613 29.9334 28.6604 29.9999 29.3391ZM24.5317 29.4197C24.3344 30.1056 24.4062 30.7381 24.7678 31.2351C25.2065 31.839 26.0015 32.1533 27.0125 32.1533C27.51 32.1533 28.0603 32.077 28.6451 31.9215C28.6609 31.9172 28.6762 31.912 28.692 31.9063C30.7025 31.144 31.032 30.0389 30.9539 29.2456C30.8893 28.5878 30.5066 27.9845 30.0636 27.5571L31.7379 26.9933C32.0808 27.0949 33.0233 27.4588 32.8998 28.3603C32.8341 28.8306 33.1076 29.2719 33.5482 29.4092C34.3461 29.6573 36.267 30.3732 36.8709 31.6716C37.1252 32.2187 37.1128 32.8059 36.8321 33.4665C36.6616 33.8681 36.8029 34.3432 37.1688 34.5965C38.0883 35.2314 38.6611 35.9106 38.7023 36.4129C38.7138 36.5555 38.697 36.7763 38.4188 37.0444C38.1199 37.332 37.9255 37.6778 37.8565 38.0451C37.777 38.4725 37.5069 39.3683 36.5706 40.6056C35.9682 41.5715 36.1181 42.7902 36.2766 44.0809C36.4662 45.6264 36.6626 47.2243 35.6051 48.5289C35.5156 48.6386 35.3901 48.7044 35.2507 48.7135C35.1133 48.7206 34.9816 48.6748 34.8801 48.5789C34.0966 47.8406 33.8025 46.1492 33.5429 44.6571C33.2336 42.8799 32.9673 41.3454 31.9328 40.9099C31.7585 40.8369 31.5751 40.8002 31.3816 40.8002C30.9439 40.8002 30.453 40.9881 29.8965 41.3664C29.7245 41.4837 29.6326 41.4418 29.5943 41.4241C29.3701 41.322 29.1058 40.8808 29.0181 40.1086C28.9894 39.8558 28.9573 39.5867 28.9085 39.312C28.908 39.3096 28.908 39.3072 28.907 39.3048C28.6604 37.9268 27.9463 36.3938 24.6466 35.8724C20.6558 35.3573 15.6382 33.9425 13.2384 33.2218L24.5317 29.4197Z" fill="#E61A1A"/>
<path d="M25.3441 33.7455C25.4547 33.2819 25.3647 32.8059 25.0826 32.368C24.642 31.6835 23.768 31.1536 22.7446 30.9508C22.0046 30.8054 21.2681 30.9203 20.668 31.2762C20.1258 31.5976 19.7422 32.0889 19.6421 32.5903C19.4376 33.6139 20.4151 34.5512 22.019 34.8693C22.3715 34.939 22.7129 34.9723 23.0353 34.9723C24.2349 34.9723 25.1616 34.5101 25.3441 33.7455ZM24.4126 33.5242C24.3341 33.8538 23.4337 34.1763 22.2067 33.933C21.0894 33.7117 20.5032 33.1708 20.5818 32.7753C20.6172 32.5984 20.7896 32.3141 21.1584 32.0951C21.3701 31.9692 21.6905 31.8409 22.1138 31.8409C22.2513 31.8409 22.3993 31.8543 22.5578 31.8857C23.3197 32.0365 23.9782 32.4185 24.2766 32.8822C24.4169 33.1002 24.4624 33.3162 24.4126 33.5242Z" fill="#E61A1A"/>
<path d="M34.2117 36.6175C33.0772 36.6175 32.1543 37.6478 32.1543 38.9142C32.1543 40.1343 33.0561 41.499 34.263 41.499C35.4502 41.499 36.3716 40.0938 36.3716 38.8846C36.3721 37.6559 35.3827 36.6175 34.2117 36.6175ZM34.2634 40.545C33.7041 40.545 33.1126 39.707 33.1126 38.9142C33.1126 38.1739 33.6059 37.5715 34.2122 37.5715C34.7811 37.5715 35.4147 38.1105 35.4147 38.8846C35.4143 39.676 34.8118 40.545 34.2634 40.545Z" fill="#E61A1A"/>
<path d="M30.5238 36.0012C30.9295 36.2807 31.394 36.4219 31.8849 36.4219C32.2144 36.4219 32.5563 36.358 32.8997 36.2297C33.3259 36.0699 33.7373 35.9826 34.1003 35.9058C35.1046 35.6936 36.1429 35.4737 36.1429 33.7298C36.1429 32.9151 35.824 32.1548 35.2679 31.643C34.8384 31.2471 34.0414 30.7977 32.6933 30.9036C30.2034 31.0997 29.3198 32.5488 29.3198 33.7298C29.3193 34.5917 29.8035 35.5047 30.5238 36.0012ZM32.7685 31.8552C32.8806 31.8462 32.9893 31.8419 33.0946 31.8419C33.7436 31.8419 34.255 32.0102 34.6176 32.3437C34.9782 32.6752 35.1851 33.1808 35.1851 33.7298C35.1851 34.7009 34.8877 34.7639 33.9016 34.9724C33.5055 35.0563 33.0558 35.1512 32.5621 35.3363C31.9955 35.549 31.4931 35.509 31.0688 35.2166C30.5492 34.8583 30.2777 34.1972 30.2777 33.7298C30.2772 32.6785 31.2087 31.9778 32.7685 31.8552Z" fill="#E61A1A"/>
<path d="M6.85693 12.1807H6.75693V12.2807V13.2632V13.3632H6.85693H7.62005V20.4088H6.85693H6.75693V20.5088V21.4912V21.5912H6.85693H9.84086H9.94086V21.4912V20.5088V20.4088H9.84086H8.95444V17.907H11.789H11.832L11.8616 17.8759L13.1439 16.525L13.1714 16.496V16.4561V13.6316V13.5917L13.1439 13.5627L11.8616 12.2119L11.832 12.1807H11.789H6.85693ZM14.428 20.4088H14.328V20.5088V21.4912V21.5912H14.428H17.5352H17.6352V21.4912V20.5088V20.4088H17.5352H16.6488V13.3632H17.5352H17.6352V13.2632V12.2807V12.1807H17.5352H14.428H14.328V12.2807V13.2632V13.3632H14.428H15.3144V20.4088H14.428ZM20.3046 14.7877H20.4046V14.6877V13.3632H23.6096L18.9878 20.4542L18.9716 20.4791V20.5088V21.4912V21.5912H19.0716H25.0641H25.1641V21.4912V19.0842V18.9842H25.0641H24.0777H23.9777V19.0842V20.4088H20.5262L25.1479 13.3178L25.1641 13.2929V13.2632V12.2807V12.1807H25.0641H19.3182H19.2182V12.2807V14.6877V14.7877H19.3182H20.3046ZM27.6498 14.7877H27.7498V14.6877V13.3632H30.9547L26.333 20.4542L26.3168 20.4791V20.5088V21.4912V21.5912H26.4168H32.4093H32.5093V21.4912V19.0842V18.9842H32.4093H31.4229H31.3229V19.0842V20.4088H27.8714L32.4931 13.3178L32.5093 13.2929V13.2632V12.2807V12.1807H32.4093H26.6634H26.5634V12.2807V14.6877V14.7877H26.6634H27.6498ZM35.4882 12.1807H35.3882V12.2807V13.2632V13.3632H35.4882H35.9211L33.8108 20.4088H33.2688H33.1688V20.5088V21.4912V21.5912H33.2688H35.8828H35.9828V21.4912V20.5088V20.4088H35.8828H35.1541L35.6613 18.7175H38.6074L39.1146 20.4088H38.3858H38.2858V20.5088V21.4912V21.5912H38.3858H40.9999H41.0998V21.4912V20.5088V20.4088H40.9999H40.4578L38.3475 13.3632H38.7804H38.8804V13.2632V12.2807V12.1807H38.7804H35.4882ZM11.254 16.6509H8.95444V13.4368H11.2658L11.911 14.1019V15.9853L11.254 16.6509ZM38.2514 17.5351H36.0169L37.1286 13.7966L38.2514 17.5351Z" fill="#F7C343" stroke="white" stroke-width="0.2"/>
</g>
<defs>
<clipPath id="clip0_903_70749">
<rect width="48" height="50" fill="white"/>
</clipPath>
</defs>
</svg>
