<svg width="24" height="24" viewBox="0 0 24 24" fill="none" xmlns="http://www.w3.org/2000/svg">
<rect width="24" height="24" rx="12" fill="#F8F8FA"/>
<path d="M10.1728 17.5V17.004L11.9008 16.892H12.1568L13.8048 17.004V17.5H10.1728ZM11.5807 17.5C11.5914 17.2013 11.5968 16.8547 11.5968 16.46C11.6074 16.0653 11.6128 15.66 11.6128 15.244C11.6128 14.8173 11.6128 14.4333 11.6128 14.092V13.292C11.6128 12.7907 11.6128 12.3213 11.6128 11.884C11.6128 11.4467 11.6021 11.0253 11.5807 10.62L10.0928 10.588V10.14L12.2048 9.676L12.4608 9.756L12.4448 11.628V14.092C12.4448 14.4333 12.4448 14.8173 12.4448 15.244C12.4448 15.66 12.4448 16.0653 12.4448 16.46C12.4554 16.8547 12.4661 17.2013 12.4768 17.5H11.5807ZM11.9328 7.596C11.7408 7.596 11.5701 7.52667 11.4208 7.388C11.2714 7.24933 11.1968 7.07867 11.1968 6.876C11.1968 6.66267 11.2714 6.48667 11.4208 6.348C11.5701 6.20933 11.7408 6.14 11.9328 6.14C12.1461 6.14 12.3221 6.20933 12.4608 6.348C12.6101 6.48667 12.6848 6.66267 12.6848 6.876C12.6848 7.07867 12.6101 7.24933 12.4608 7.388C12.3221 7.52667 12.1461 7.596 11.9328 7.596Z" fill="#1A1F22"/>
</svg>
