<svg width="22" height="20" viewBox="0 0 22 20" fill="none" xmlns="http://www.w3.org/2000/svg">
<path d="M10.9999 6.75001C11.1677 6.74834 11.334 6.78155 11.4883 6.8475C11.636 6.91108 11.7703 7.00213 11.8841 7.11584C11.9978 7.2296 12.0889 7.36392 12.1524 7.51166C12.2184 7.66593 12.2516 7.83222 12.2499 7.99999C12.2516 8.16776 12.2184 8.33405 12.1524 8.48832C12.0889 8.63607 11.9978 8.77039 11.8841 8.88415C11.7703 8.99785 11.636 9.08891 11.4883 9.15248C11.334 9.21844 11.1677 9.25164 10.9999 9.24998C10.8322 9.25164 10.6659 9.21844 10.5116 9.15248C10.3639 9.08891 10.2295 8.99785 10.1158 8.88415C10.0021 8.77039 9.91103 8.63607 9.84745 8.48832C9.7815 8.33405 9.74829 8.16776 9.74996 7.99999C9.74829 7.83222 9.7815 7.66593 9.84745 7.51166C9.91103 7.36392 10.0021 7.2296 10.1158 7.11584C10.2295 7.00213 10.3639 6.91108 10.5116 6.8475C10.6659 6.78155 10.8322 6.74834 10.9999 6.75001ZM16.6249 9.24998C17.2104 9.2459 17.7904 9.3622 18.3291 9.59164C18.8487 9.8121 19.3212 10.1304 19.7207 10.5291C20.1195 10.9287 20.4378 11.4011 20.6582 11.9208C20.8877 12.4594 21.004 13.0395 20.9999 13.6249C21.004 14.2104 20.8877 14.7904 20.6582 15.3291C20.4378 15.8487 20.1195 16.3212 19.7207 16.7207C19.3212 17.1195 18.8487 17.4378 18.3291 17.6582C17.7904 17.8877 17.2104 18.004 16.6249 17.9999C16.0395 18.004 15.4594 17.8877 14.9208 17.6582C14.4011 17.4378 13.9286 17.1195 13.5291 16.7207C13.1303 16.3212 12.8121 15.8487 12.5916 15.3291C12.3622 14.7904 12.2459 14.2104 12.2499 13.6249C12.2459 13.0395 12.3622 12.4594 12.5916 11.9208C12.8121 11.4011 13.1303 10.9287 13.5291 10.5291C13.9286 10.1304 14.4011 9.8121 14.9208 9.59164C15.4594 9.3622 16.0395 9.2459 16.6249 9.24998ZM13.4999 13.6249C13.4975 14.0426 13.5806 14.4564 13.7441 14.8408C13.8998 15.214 14.1261 15.5535 14.4108 15.8408C14.698 16.1254 15.0376 16.3517 15.4108 16.5074C15.7947 16.6701 16.2079 16.7526 16.6249 16.7499C16.9292 16.7502 17.2319 16.7058 17.5232 16.6182C17.8143 16.5312 18.0906 16.4011 18.3432 16.2324L14.0174 11.9066C13.8487 12.1592 13.7187 12.4356 13.6316 12.7266C13.544 13.018 13.4996 13.3207 13.4999 13.6249ZM19.2324 15.3441C19.4011 15.0915 19.5312 14.8151 19.6182 14.5241C19.7059 14.2324 19.7503 13.9295 19.7499 13.6249C19.7519 13.2091 19.6668 12.7975 19.4999 12.4166C19.3391 12.0471 19.1105 11.711 18.8257 11.4258C18.5402 11.1403 18.2035 10.911 17.8332 10.75C17.4524 10.5831 17.0407 10.4979 16.6249 10.5C16.3206 10.4997 16.018 10.544 15.7266 10.6316C15.4356 10.7187 15.1592 10.8488 14.9066 11.0175L19.2324 15.3441ZM7.24997 7.99999C7.24577 8.46593 7.33062 8.92838 7.49997 9.36248C7.66536 9.78097 7.90473 10.1663 8.20663 10.5C8.50845 10.8337 8.86705 11.1114 9.26579 11.32C9.6781 11.5364 10.1266 11.6754 10.5891 11.73C10.7142 11.7432 10.84 11.7499 10.9658 11.75H11.3416C11.1996 12.1544 11.1046 12.5738 11.0583 12.9999C10.0873 13.0024 9.12023 12.876 8.18246 12.6241C7.25878 12.3748 6.36492 12.0258 5.51664 11.5833C4.66189 11.1369 3.85374 10.6066 3.10416 9.99997C2.34934 9.39188 1.6456 8.72299 1 7.99999C1.63941 7.28365 2.33616 6.62063 3.08332 6.01751C3.83156 5.41152 4.63799 4.88116 5.49081 4.43419C6.33733 3.98936 7.22945 3.63732 8.15163 3.3842C9.07952 3.12886 10.0376 2.99964 10.9999 3.00004C11.9747 2.99745 12.9459 3.11727 13.8908 3.3567C14.8133 3.59123 15.706 3.93038 16.5516 4.36753C17.4007 4.80787 18.201 5.33663 18.9391 5.94501C19.6902 6.56242 20.3804 7.25058 20.9999 7.99999L20.1116 8.88832L20.0332 8.80082C19.3487 7.99851 18.5882 7.26427 17.7624 6.60834C16.9334 5.95638 16.0141 5.42837 15.0333 5.04086C15.3446 5.46915 15.5865 5.94387 15.7499 6.44751C15.9152 6.94844 15.9996 7.47251 15.9999 7.99999V8.05833C15.5738 8.10461 15.1544 8.19968 14.7499 8.34166V7.99999C14.7529 7.4996 14.6516 7.00408 14.4524 6.54501C14.2614 6.1005 13.988 5.69616 13.6466 5.35335C13.3038 5.01195 12.8995 4.73853 12.4549 4.54753C11.9959 4.34841 11.5003 4.24709 10.9999 4.25003C10.4996 4.24709 10.004 4.34841 9.54496 4.54753C9.10044 4.73853 8.6961 5.01195 8.35329 5.35335C8.01189 5.69616 7.73847 6.1005 7.54747 6.54501C7.34835 7.00408 7.24703 7.4996 7.24997 7.99999ZM6.8883 10.8416C6.59619 10.4288 6.37119 9.97229 6.22164 9.48915C6.07332 9.00672 5.9986 8.5047 5.99997 7.99999C5.99967 7.49512 6.07553 6.99309 6.22497 6.51084C6.37453 6.02769 6.59952 5.57123 6.89164 5.15835C6.11667 5.49359 5.37739 5.90594 4.68498 6.38918C3.99079 6.87301 3.33648 7.41167 2.72832 7.99999C3.33539 8.58847 3.98858 9.1274 4.68165 9.61164C5.3741 10.0946 6.11337 10.5067 6.8883 10.8416Z" fill="#0054B2"/>
</svg>
