<svg id="ic_alldevices-32px" xmlns="http://www.w3.org/2000/svg" width="32" height="24" viewBox="0 0 32 24">
  <path id="ic_alldevices-32px-2" data-name="ic_alldevices-32px" d="M30.019,24H13.987a1.93,1.93,0,0,1-.768-.158,2.036,2.036,0,0,1-1.063-1.063A1.914,1.914,0,0,1,12,22V20H1.9A1.9,1.9,0,0,1,0,18.094,3.47,3.47,0,0,1,.179,17a2.574,2.574,0,0,1,.555-.953L4,12.609V0H26V8h4.013a1.885,1.885,0,0,1,.753.156,2.081,2.081,0,0,1,.634.422,2.038,2.038,0,0,1,.437.625A1.815,1.815,0,0,1,32,9.969V21.984a2.011,2.011,0,0,1-.587,1.43,2.017,2.017,0,0,1-.633.429A1.915,1.915,0,0,1,30.019,24ZM14,10V22H30V10ZM5.437,14h0l-3.219,3.39a.8.8,0,0,0-.148.289A1.775,1.775,0,0,0,2,18H12V14H5.437ZM6,2V12h6V10a1.914,1.914,0,0,1,.157-.781,2.025,2.025,0,0,1,.429-.633,2.052,2.052,0,0,1,.634-.43A1.929,1.929,0,0,1,13.981,8H24V2ZM24,20H20V18h4v2Z" transform="translate(0 0)" fill="#fff"/>
</svg>
