<?xml version="1.0" encoding="utf-8"?>
<!-- Generator: Adobe Illustrator 24.2.1, SVG Export Plug-In . SVG Version: 6.00 Build 0)  -->
<svg version="1.1" id="Layer_1" xmlns="http://www.w3.org/2000/svg" xmlns:xlink="http://www.w3.org/1999/xlink" x="0px" y="0px"
	 viewBox="0 0 30 30" style="enable-background:new 0 0 30 30;" xml:space="preserve">
<style type="text/css">
	.st0{fill:#0279FF;}
</style>
<path class="st0" d="M17.1,27c-0.2,0-0.4-0.1-0.6-0.2c-0.2-0.2-0.2-0.4-0.2-0.6v-9.1c0-0.2,0.1-0.4,0.2-0.6s0.4-0.2,0.6-0.2h9.1
	c0.2,0,0.4,0.1,0.6,0.2s0.2,0.4,0.2,0.6v9.1c0,0.2-0.1,0.4-0.2,0.6c-0.2,0.2-0.4,0.2-0.6,0.2L17.1,27z M17.9,25.3h7.4v-7.4h-7.4
	L17.9,25.3z M3.8,27c-0.2,0-0.4-0.1-0.6-0.2C3.1,26.6,3,26.4,3,26.2v-9.1c0-0.2,0.1-0.4,0.2-0.6s0.4-0.2,0.6-0.2h9.1
	c0.2,0,0.4,0.1,0.6,0.2s0.2,0.4,0.2,0.6v9.1c0,0.2-0.1,0.4-0.2,0.6c-0.2,0.2-0.4,0.2-0.6,0.2L3.8,27z M4.7,25.3h7.5v-7.4H4.7
	L4.7,25.3z M17.1,13.8c-0.1,0-0.2,0-0.3-0.1c-0.1,0-0.2-0.1-0.3-0.2c-0.1-0.1-0.1-0.2-0.2-0.3c0-0.1-0.1-0.2-0.1-0.3V3.8
	c0-0.2,0.1-0.4,0.2-0.6S16.9,3,17.1,3h9.1c0.2,0,0.4,0.1,0.6,0.2S27,3.6,27,3.8v9.1c0,0.1,0,0.2-0.1,0.3c0,0.1-0.1,0.2-0.2,0.3
	c-0.1,0.1-0.2,0.1-0.3,0.2c-0.1,0-0.2,0.1-0.3,0.1L17.1,13.8z M17.9,12.1h7.4V4.7h-7.4L17.9,12.1z M3.8,13.8c-0.2,0-0.4-0.1-0.6-0.2
	C3.1,13.4,3,13.2,3,12.9V3.8c0-0.2,0.1-0.4,0.2-0.6S3.6,3,3.8,3h9.1c0.2,0,0.4,0.1,0.6,0.2s0.2,0.4,0.2,0.6v9.1
	c0,0.2-0.1,0.4-0.2,0.6c-0.2,0.2-0.4,0.2-0.6,0.2L3.8,13.8z M4.7,12.1h7.5V4.7H4.7L4.7,12.1z"/>
</svg>
