<svg width="19" height="18" viewBox="0 0 19 18" fill="none" xmlns="http://www.w3.org/2000/svg">
<path d="M0.00415039 9C0.00415039 7.21997 0.531638 5.47995 1.5206 3.99991C2.50956 2.51986 3.91558 1.3663 5.56016 0.685111C7.20474 0.00392246 9.01404 -0.174338 10.7599 0.172929C12.5058 0.520195 14.1103 1.37739 15.369 2.63606C16.6277 3.89474 17.4839 5.49834 17.8312 7.24417C18.1785 8.99 18.0003 10.7996 17.3191 12.4441C16.6379 14.0887 15.485 15.4943 14.0049 16.4832C12.5248 17.4722 10.7845 18 9.0044 18C6.61738 18 4.32764 17.0518 2.63977 15.3639C0.951896 13.6761 0.00415039 11.387 0.00415039 9ZM1.20418 9C1.20418 10.5427 1.66196 12.0507 2.51906 13.3334C3.37616 14.6162 4.59425 15.6159 6.01955 16.2062C7.44485 16.7966 9.01361 16.9511 10.5267 16.6501C12.0398 16.3492 13.4297 15.6063 14.5206 14.5154C15.6114 13.4246 16.3536 12.0347 16.6546 10.5217C16.9556 9.00863 16.8008 7.44035 16.2105 6.01509C15.6201 4.58983 14.6208 3.37163 13.3381 2.51455C12.0554 1.65748 10.5471 1.2 9.0044 1.2C6.93624 1.20191 4.95298 2.02433 3.49057 3.4867C2.02816 4.94907 1.20609 6.9319 1.20418 9Z" fill="#0279FF"/>
<path d="M9.01019 6.04451L4.76743 10.2873L5.61596 11.1358L9.01016 7.74159L12.4043 11.1357L13.2528 10.2872L9.01019 6.04451Z" fill="#0279FF"/>
</svg>
