<svg width="18" height="18" viewBox="0 0 18 18" fill="none" xmlns="http://www.w3.org/2000/svg">
<path d="M16.2471 17.6977L8.99837 10.4504L1.75169 17.6977C1.55917 17.89 1.29808 17.9981 1.02591 17.998C0.753739 17.9979 0.49276 17.8902 0.300376 17.6977C0.107991 17.5052 -9.60747e-05 17.2431 6.40787e-08 16.971C9.62029e-05 16.6989 0.108356 16.4386 0.300876 16.2462L7.54756 9.001L0.300876 1.75776C0.205684 1.66252 0.130215 1.54783 0.0787235 1.42342C0.0272318 1.29902 0.0007034 1.16567 0.000751003 1.03103C0.000798606 0.896396 0.0273941 0.763007 0.0789738 0.638639C0.130553 0.51427 0.206118 0.401474 0.301377 0.306306C0.396636 0.211138 0.509731 0.135563 0.634168 0.0840841C0.758604 0.0326053 0.891989 0.00595841 1.02666 0.00600601C1.16133 0.0060536 1.29462 0.0325174 1.41902 0.0840841C1.54342 0.135651 1.6565 0.213073 1.75169 0.308308L8.99624 7.55155L16.2461 0.3003C16.3413 0.204997 16.4544 0.129662 16.5788 0.0780781C16.7033 0.0264944 16.8367 0 16.9715 0C17.1062 0 17.2396 0.0264944 17.3641 0.0780781C17.4885 0.129662 17.6016 0.204997 17.6969 0.3003C17.7929 0.394993 17.8691 0.508225 17.9212 0.632633C17.9732 0.75704 18 0.890173 18 1.02503C18 1.15988 17.9732 1.29501 17.9212 1.41942C17.8691 1.54383 17.7929 1.65506 17.6969 1.74975L10.4461 9.001L17.6969 16.2523C17.8394 16.3956 17.9363 16.5785 17.9755 16.7768C18.0147 16.975 17.9944 17.1806 17.9171 17.3674C17.8399 17.5541 17.7091 17.7131 17.5413 17.8258C17.3735 17.9385 17.1761 17.9992 16.974 18C16.8388 18 16.7051 17.9738 16.5803 17.9219C16.4556 17.87 16.3423 17.7935 16.2471 17.6977Z" fill="#0279FF"/>
</svg>
