<svg width="17" height="16" viewBox="0 0 17 16" fill="none" xmlns="http://www.w3.org/2000/svg">
<path d="M15.2774 14.8864L8.79658 8.99445L2.31759 14.8864C2.14546 15.0427 1.91203 15.1306 1.66869 15.1305C1.42535 15.1304 1.19202 15.0429 1.02002 14.8864C0.848016 14.7299 0.751379 14.5168 0.751465 14.2956C0.751551 14.0743 0.848342 13.8627 1.02047 13.7064L7.49946 7.81606L1.02047 1.92739C0.93536 1.84996 0.867885 1.75672 0.821849 1.65558C0.775812 1.55444 0.752094 1.44603 0.752136 1.33657C0.752179 1.22711 0.775957 1.11867 0.822072 1.01756C0.868188 0.916447 0.935747 0.824746 1.02091 0.747376C1.10608 0.670005 1.2072 0.608563 1.31845 0.566711C1.4297 0.52486 1.54896 0.503196 1.66936 0.503235C1.78977 0.503274 1.90894 0.524788 2.02016 0.566711C2.13138 0.608635 2.23248 0.671578 2.31759 0.749003L8.79468 6.63768L15.2765 0.742493C15.3616 0.665012 15.4627 0.603766 15.574 0.561829C15.6853 0.519892 15.8046 0.498352 15.925 0.498352C16.0455 0.498352 16.1648 0.519892 16.2761 0.561829C16.3873 0.603766 16.4885 0.665012 16.5736 0.742493C16.6595 0.819476 16.7276 0.911533 16.7741 1.01267C16.8206 1.11382 16.8446 1.22205 16.8446 1.33169C16.8446 1.44132 16.8206 1.55118 16.7741 1.65232C16.7276 1.75347 16.6595 1.84389 16.5736 1.92088L10.0909 7.81606L16.5736 13.7112C16.701 13.8278 16.7876 13.9765 16.8227 14.1377C16.8577 14.2989 16.8396 14.466 16.7705 14.6178C16.7015 14.7697 16.5845 14.8989 16.4345 14.9905C16.2845 15.0822 16.108 15.1315 15.9273 15.1321C15.8065 15.1321 15.6869 15.1109 15.5753 15.0687C15.4638 15.0265 15.3625 14.9643 15.2774 14.8864Z" fill="#0279FF"/>
</svg>
