<svg width="20" height="10" viewBox="0 0 20 10" fill="none" xmlns="http://www.w3.org/2000/svg">
<path d="M10 1.83947e-05C10.9634 -0.00176636 11.9225 0.126332 12.8517 0.38085C13.7738 0.63397 14.666 0.986011 15.5125 1.43084C16.3642 1.8771 17.169 2.40752 17.915 3.01417C18.6605 3.62097 19.3576 4.28492 20 4.99999C19.3606 5.71792 18.6639 6.38261 17.9167 6.98748C17.17 7.59316 16.3652 8.12352 15.5142 8.57081C14.6676 9.01564 13.7755 9.36768 12.8533 9.6208C11.9236 9.8749 10.9638 10.0024 10 9.99996C9.03665 10.0017 8.07745 9.87365 7.14833 9.61913C6.22615 9.36601 5.33403 9.01397 4.4875 8.56914C3.6365 8.1215 2.83128 7.59176 2.08333 6.98748C1.33375 6.3853 0.63679 5.7204 0 4.99999C0.639414 4.28364 1.33617 3.62062 2.08333 3.0175C2.83157 2.41151 3.63801 1.88114 4.49083 1.43418C5.33736 0.989345 6.22949 0.637303 7.15167 0.384183C8.07956 0.128836 9.03761 -0.00038092 10 1.83947e-05ZM13.75 4.99999C13.7529 4.4996 13.6516 4.00408 13.4525 3.545C13.2615 3.10049 12.9881 2.69615 12.6467 2.35334C12.3039 2.01194 11.8995 1.73851 11.455 1.54751C10.9959 1.34839 10.5004 1.24707 10 1.25001C9.4996 1.24707 9.00408 1.34839 8.545 1.54751C8.10048 1.73851 7.69614 2.01194 7.35333 2.35334C7.01193 2.69615 6.7385 3.10049 6.5475 3.545C6.34838 4.00408 6.24706 4.4996 6.25 4.99999C6.24706 5.50038 6.34838 5.9959 6.5475 6.45498C6.7385 6.8995 7.01193 7.30384 7.35333 7.64664C7.69614 7.98805 8.10048 8.26147 8.545 8.45247C9.00408 8.65159 9.4996 8.75291 10 8.74997C10.5004 8.75291 10.9959 8.65159 11.455 8.45247C11.8995 8.26147 12.3039 7.98805 12.6467 7.64664C12.9881 7.30384 13.2615 6.8995 13.4525 6.45498C13.6516 5.9959 13.7529 5.50038 13.75 4.99999ZM1.72833 4.99999C2.33772 5.59018 2.99068 6.13366 3.68167 6.62582C4.37284 7.11783 5.11623 7.532 5.89833 7.86081C5.6063 7.44426 5.38135 6.98452 5.23167 6.49832C5.07898 6.0135 5.00087 5.50829 5 4.99999C4.99989 4.49127 5.07716 3.98548 5.22917 3.5C5.37885 3.0138 5.6038 2.55406 5.89583 2.13751C5.11373 2.46632 4.37034 2.88049 3.67917 3.3725C2.98898 3.86529 2.33686 4.40933 1.72833 4.99999ZM14.1017 7.86164C14.8838 7.53283 15.6272 7.11866 16.3183 6.62665C17.0093 6.13422 17.6623 5.59047 18.2717 4.99999C17.6623 4.4098 17.0093 3.86632 16.3183 3.37417C15.6272 2.88216 14.8838 2.46798 14.1017 2.13917C14.3937 2.55572 14.6187 3.01546 14.7683 3.50167C14.921 3.98649 14.9991 4.4917 15 4.99999C15.0001 5.50872 14.9228 6.0145 14.7708 6.49998C14.6203 6.98605 14.3945 7.44551 14.1017 7.86164ZM10 6.24998C9.83223 6.25165 9.66594 6.21844 9.51167 6.15249C9.36392 6.08891 9.2296 5.99786 9.11583 5.88415C9.00213 5.77039 8.91107 5.63607 8.8475 5.48832C8.78154 5.33405 8.74834 5.16776 8.75 4.99999C8.74834 4.83222 8.78154 4.66593 8.8475 4.51166C8.91107 4.36391 9.00213 4.22959 9.11583 4.11583C9.2296 4.00213 9.36392 3.91107 9.51167 3.8475C9.66594 3.78154 9.83223 3.74834 10 3.75C10.1678 3.74834 10.3341 3.78154 10.4883 3.8475C10.6361 3.91107 10.7704 4.00213 10.8842 4.11583C10.9979 4.22959 11.0889 4.36391 11.1525 4.51166C11.2185 4.66593 11.2517 4.83222 11.25 4.99999C11.2517 5.16776 11.2185 5.33405 11.1525 5.48832C11.0889 5.63607 10.9979 5.77039 10.8842 5.88415C10.7704 5.99786 10.6361 6.08891 10.4883 6.15249C10.3341 6.21844 10.1678 6.25165 10 6.24998Z" fill="#808080"/>
</svg>
