<svg width="24" height="24" viewBox="0 0 24 24" fill="none" xmlns="http://www.w3.org/2000/svg">
<path d="M0 12C0.00330898 8.81842 1.26884 5.76827 3.51855 3.51855C5.76827 1.26884 8.81842 0.00330898 12 0C15.1815 0.00344108 18.2318 1.26886 20.4814 3.51855C22.7311 5.76825 23.9966 8.81846 24 12C23.9964 15.1815 22.7311 18.2318 20.4814 20.4814C18.2318 22.7311 15.1815 23.9964 12 24C8.81846 23.9966 5.76825 22.7311 3.51855 20.4814C1.26886 18.2318 0.00344108 15.1815 0 12ZM1.6001 12C1.60314 14.7573 2.6997 17.4009 4.64941 19.3506C6.59913 21.3003 9.24268 22.3969 12 22.3999C14.7573 22.3967 17.4009 21.3003 19.3506 19.3506C21.3003 17.4009 22.3967 14.7573 22.3999 12C22.3967 9.24272 21.3003 6.5991 19.3506 4.64941C17.4009 2.69972 14.7573 1.60327 12 1.6001C9.24268 1.60314 6.59913 2.6997 4.64941 4.64941C2.6997 6.59913 1.60314 9.24268 1.6001 12Z" fill="#E61A1A"/>
<path d="M15.9947 16.8205L11.8706 12.6961L7.7476 16.8205C7.63806 16.9299 7.48952 16.9914 7.33467 16.9914C7.17982 16.9913 7.03133 16.93 6.92188 16.8205C6.81242 16.7109 6.75092 16.5617 6.75098 16.4069C6.75103 16.252 6.81263 16.1039 6.92216 15.9944L11.0452 11.8712L6.92216 7.74917C6.868 7.69497 6.82506 7.6297 6.79577 7.5589C6.76647 7.4881 6.75138 7.41221 6.7514 7.33559C6.75143 7.25897 6.76656 7.18306 6.79591 7.11228C6.82525 7.04151 6.86825 6.97732 6.92244 6.92316C6.97664 6.869 7.04099 6.82599 7.11179 6.79669C7.18258 6.7674 7.25847 6.75223 7.33509 6.75226C7.41171 6.75229 7.48755 6.76735 7.55833 6.79669C7.62911 6.82604 7.69344 6.8701 7.7476 6.9243L11.8694 11.0464L15.9942 6.91974C16.0483 6.8655 16.1127 6.82263 16.1835 6.79327C16.2543 6.76392 16.3302 6.74884 16.4069 6.74884C16.4835 6.74884 16.5594 6.76392 16.6303 6.79327C16.7011 6.82263 16.7654 6.8655 16.8196 6.91974C16.8742 6.97363 16.9176 7.03807 16.9472 7.10887C16.9768 7.17967 16.9921 7.25543 16.9921 7.33217C16.9921 7.40892 16.9768 7.48582 16.9472 7.55662C16.9176 7.62742 16.8742 7.69072 16.8196 7.74461L12.6943 11.8712L16.8196 15.9979C16.9007 16.0794 16.9558 16.1835 16.9781 16.2964C17.0004 16.4092 16.9889 16.5262 16.9449 16.6325C16.901 16.7388 16.8266 16.8292 16.7311 16.8934C16.6356 16.9575 16.5233 16.992 16.4083 16.9925C16.3314 16.9925 16.2553 16.9776 16.1844 16.9481C16.1134 16.9185 16.0489 16.875 15.9947 16.8205V16.8205Z" fill="#E61A1A"/>
</svg>
