<svg width="20" height="15" viewBox="0 0 20 15" fill="none" xmlns="http://www.w3.org/2000/svg">
<path d="M9.99995 3.75001C10.1677 3.74834 10.334 3.78155 10.4883 3.8475C10.636 3.91108 10.7703 4.00213 10.8841 4.11584C10.9978 4.2296 11.0889 4.36392 11.1524 4.51166C11.2184 4.66593 11.2516 4.83222 11.2499 4.99999C11.2516 5.16776 11.2184 5.33405 11.1524 5.48832C11.0889 5.63607 10.9978 5.77039 10.8841 5.88415C10.7703 5.99785 10.636 6.08891 10.4883 6.15248C10.334 6.21844 10.1677 6.25164 9.99995 6.24998C9.83218 6.25164 9.66589 6.21844 9.51162 6.15248C9.36387 6.08891 9.22955 5.99785 9.11579 5.88415C9.00208 5.77039 8.91103 5.63607 8.84745 5.48832C8.78149 5.33405 8.74829 5.16776 8.74995 4.99999C8.74829 4.83222 8.78149 4.66593 8.84745 4.51166C8.91103 4.36392 9.00208 4.2296 9.11579 4.11584C9.22955 4.00213 9.36387 3.91108 9.51162 3.8475C9.66589 3.78155 9.83218 3.74834 9.99995 3.75001V3.75001ZM15.6249 6.24998C16.2104 6.2459 16.7904 6.3622 17.3291 6.59164C17.8487 6.8121 18.3212 7.13037 18.7207 7.52914C19.1195 7.92868 19.4378 8.40113 19.6582 8.92079C19.8877 9.45943 20.004 10.0395 19.9999 10.6249C20.004 11.2104 19.8877 11.7904 19.6582 12.3291C19.4378 12.8487 19.1195 13.3212 18.7207 13.7207C18.3212 14.1195 17.8487 14.4378 17.3291 14.6582C16.7904 14.8877 16.2104 15.004 15.6249 14.9999C15.0395 15.004 14.4594 14.8877 13.9208 14.6582C13.4011 14.4378 12.9286 14.1195 12.5291 13.7207C12.1303 13.3212 11.8121 12.8487 11.5916 12.3291C11.3622 11.7904 11.2459 11.2104 11.2499 10.6249C11.2459 10.0395 11.3622 9.45943 11.5916 8.92079C11.8121 8.40113 12.1303 7.92868 12.5291 7.52914C12.9286 7.13037 13.4011 6.8121 13.9208 6.59164C14.4594 6.3622 15.0395 6.2459 15.6249 6.24998V6.24998ZM12.4999 10.6249C12.4975 11.0426 12.5806 11.4564 12.7441 11.8408C12.8998 12.214 13.1261 12.5535 13.4108 12.8408C13.698 13.1254 14.0376 13.3517 14.4108 13.5074C14.7947 13.6701 15.2079 13.7526 15.6249 13.7499C15.9292 13.7502 16.2319 13.7058 16.5232 13.6182C16.8143 13.5312 17.0906 13.4011 17.3432 13.2324L13.0174 8.90662C12.8487 9.15923 12.7187 9.4356 12.6316 9.72661C12.544 10.018 12.4996 10.3207 12.4999 10.6249V10.6249ZM18.2324 12.3441C18.4011 12.0915 18.5312 11.8151 18.6182 11.5241C18.7059 11.2324 18.7503 10.9295 18.7499 10.6249C18.7519 10.2091 18.6668 9.79749 18.4999 9.41662C18.3391 9.04708 18.1105 8.71098 17.8257 8.42579C17.5402 8.1403 17.2035 7.91104 16.8332 7.74997C16.4524 7.5831 16.0407 7.49794 15.6249 7.49997C15.3206 7.49968 15.018 7.54404 14.7266 7.63163C14.4356 7.71872 14.1592 7.84876 13.9066 8.01746L18.2324 12.3441ZM6.24997 4.99999C6.24577 5.46593 6.33062 5.92838 6.49997 6.36248C6.66536 6.78097 6.90473 7.16628 7.20663 7.49997C7.50845 7.83374 7.86705 8.11137 8.26579 8.31996C8.6781 8.53644 9.12664 8.6754 9.58912 8.72996C9.71423 8.74322 9.83996 8.7499 9.96578 8.74996H10.3416C10.1996 9.1544 10.1046 9.57381 10.0583 9.99995C9.08727 10.0024 8.12023 9.87603 7.18246 9.62412C6.25878 9.37477 5.36492 9.02578 4.51664 8.58329C3.66189 8.13695 2.85374 7.60656 2.10416 6.99997C1.34934 6.39188 0.645601 5.72299 0 4.99999C0.639411 4.28365 1.33616 3.62063 2.08332 3.01751C2.83156 2.41152 3.63799 1.88116 4.49081 1.43419C5.33733 0.989364 6.22945 0.637323 7.15163 0.384205C8.07952 0.128858 9.03757 -0.000358068 9.99995 4.12453e-05C10.9747 -0.00255332 11.9459 0.117272 12.8908 0.356704C13.8133 0.591235 14.706 0.930375 15.5516 1.36753C16.4007 1.80787 17.201 2.33663 17.9391 2.94501C18.6902 3.56242 19.3804 4.25058 19.9999 4.99999L19.1116 5.88832L19.0332 5.80082C18.3487 4.99851 17.5882 4.26427 16.7624 3.60834C15.9334 2.95638 15.0141 2.42837 14.0333 2.04086C14.3446 2.46915 14.5865 2.94387 14.7499 3.44751C14.9152 3.94844 14.9996 4.47251 14.9999 4.99999V5.05833C14.5738 5.10461 14.1544 5.19968 13.7499 5.34166V4.99999C13.7529 4.4996 13.6515 4.00408 13.4524 3.54501C13.2614 3.1005 12.988 2.69616 12.6466 2.35335C12.3038 2.01195 11.8995 1.73853 11.4549 1.54753C10.9959 1.34841 10.5003 1.24709 9.99995 1.25003C9.49955 1.24709 9.00403 1.34841 8.54496 1.54753C8.10044 1.73853 7.6961 2.01195 7.35329 2.35335C7.01189 2.69616 6.73847 3.1005 6.54747 3.54501C6.34835 4.00408 6.24703 4.4996 6.24997 4.99999V4.99999ZM5.8883 7.84163C5.59619 7.42876 5.37119 6.97229 5.22164 6.48915C5.07332 6.00672 4.9986 5.5047 4.99997 4.99999C4.99967 4.49512 5.07553 3.99309 5.22497 3.51084C5.37453 3.02769 5.59952 2.57123 5.89164 2.15835C5.11667 2.49359 4.37739 2.90594 3.68498 3.38918C2.9908 3.87301 2.33648 4.41167 1.72832 4.99999C2.33539 5.58847 2.98858 6.1274 3.68165 6.61164C4.3741 7.09459 5.11337 7.50666 5.8883 7.84163V7.84163Z" fill="#808080"/>
</svg>
