<svg width="48" height="48" viewBox="0 0 48 48" fill="none" xmlns="http://www.w3.org/2000/svg">
<path d="M48 24C47.9934 30.3632 45.4623 36.4635 40.9629 40.9629C36.4635 45.4623 30.3632 47.9934 24 48C17.6369 47.9931 11.5365 45.4623 7.03711 40.9629C2.53773 36.4635 0.00688171 30.3631 0 24C0.00714493 17.637 2.53778 11.5364 7.03711 7.03711C11.5364 2.53778 17.637 0.00714493 24 0C30.3631 0.00688171 36.4635 2.53773 40.9629 7.03711C45.4623 11.5365 47.9931 17.6369 48 24ZM44.7998 24C44.7937 18.4854 42.6006 13.1983 38.7012 9.29883C34.8017 5.39939 29.5146 3.20628 24 3.2002C18.4854 3.20655 13.1982 5.39945 9.29883 9.29883C5.39945 13.1982 3.20655 18.4854 3.2002 24C3.20655 29.5146 5.39945 34.8018 9.29883 38.7012C13.1982 42.6006 18.4854 44.7935 24 44.7998C29.5146 44.7937 34.8017 42.6006 38.7012 38.7012C42.6006 34.8017 44.7937 29.5146 44.7998 24ZM26.2158 12.5996V15.7998H23.0156V12.5996H26.2158ZM26.2158 19L26.2158 35H23.0156L23.0156 19H26.2158Z" fill="#0279FF"/>
</svg>
