<svg xmlns="http://www.w3.org/2000/svg" xmlns:xlink="http://www.w3.org/1999/xlink" width="39" height="12.196" viewBox="0 0 39 12.196">
  <defs>
    <clipPath id="clip">
      <use xlink:href="#fill"/>
    </clipPath>
    <clipPath id="clip-2">
      <use xlink:href="#fill-2"/>
    </clipPath>
    <clipPath id="clip-3">
      <use xlink:href="#fill-3"/>
    </clipPath>
    <clipPath id="clip-4">
      <use xlink:href="#fill-4"/>
    </clipPath>
  </defs>
  <g id="ic_modem" transform="translate(246 -823.592)">
    <g id="Rectangle_392" data-name="Rectangle 392" transform="translate(-246 823.592)" fill="none" stroke="#fff" stroke-miterlimit="10" stroke-width="2">
      <rect width="39" height="12.196" rx="3.509" stroke="none"/>
      <rect x="1" y="1" width="37" height="10.196" rx="2.509" fill="none"/>
    </g>
    <g id="Rectangle_393" data-name="Rectangle 393" transform="translate(-227.056 828.046)" fill="none" stroke="#fff" stroke-miterlimit="10" stroke-width="2">
      <rect id="fill" width="1.192" height="3.405" rx="0.596" stroke="none"/>
      <path d="M0,1h1.191886305809021M1,0v3.4053897857666016M1.191886305809021,2.4053897857666016h-1.191886305809021M0.191886305809021,3.4053897857666016v-3.4053897857666016" fill="none" clip-path="url(#clip)"/>
    </g>
    <g id="Rectangle_394" data-name="Rectangle 394" transform="translate(-222.255 828.046)" fill="none" stroke="#fff" stroke-miterlimit="10" stroke-width="2">
      <rect id="fill-2" width="1.192" height="3.405" rx="0.596" stroke="none"/>
      <path d="M0,1h1.191886305809021M1,0v3.4053897857666016M1.191886305809021,2.4053897857666016h-1.191886305809021M0.191886305809021,3.4053897857666016v-3.4053897857666016" fill="none" clip-path="url(#clip-2)"/>
    </g>
    <g id="Rectangle_395" data-name="Rectangle 395" transform="translate(-217.453 828.046)" fill="none" stroke="#fff" stroke-miterlimit="10" stroke-width="2">
      <rect id="fill-3" width="1.192" height="3.405" rx="0.596" stroke="none"/>
      <path d="M0,1h1.191886305809021M1,0v3.4053897857666016M1.191886305809021,2.4053897857666016h-1.191886305809021M0.191886305809021,3.4053897857666016v-3.4053897857666016" fill="none" clip-path="url(#clip-3)"/>
    </g>
    <g id="Rectangle_396" data-name="Rectangle 396" transform="translate(-213.118 828.046)" fill="none" stroke="#fff" stroke-miterlimit="10" stroke-width="2">
      <rect id="fill-4" width="1.192" height="3.405" rx="0.596" stroke="none"/>
      <path d="M0,1h1.191886305809021M1,0v3.4053897857666016M1.191886305809021,2.4053897857666016h-1.191886305809021M0.191886305809021,3.4053897857666016v-3.4053897857666016" fill="none" clip-path="url(#clip-4)"/>
    </g>
  </g>
</svg>
