<svg width="18" height="18" viewBox="0 0 18 18" fill="none" xmlns="http://www.w3.org/2000/svg">
<path d="M0 9C0 7.21997 0.527488 5.47995 1.51645 3.99991C2.50541 2.51986 3.91143 1.3663 5.55601 0.685111C7.20059 0.00392246 9.00989 -0.174338 10.7558 0.172929C12.5016 0.520195 14.1062 1.37739 15.3649 2.63606C16.6236 3.89474 17.4798 5.49834 17.827 7.24417C18.1743 8.99 17.9961 10.7996 17.3149 12.4441C16.6337 14.0887 15.4809 15.4943 14.0008 16.4832C12.5207 17.4722 10.7803 18 9.00025 18C6.61323 18 4.32349 17.0518 2.63562 15.3639C0.947745 13.6761 0 11.387 0 9ZM1.20003 9C1.20003 10.5427 1.65781 12.0507 2.51491 13.3334C3.37201 14.6162 4.5901 15.6159 6.0154 16.2062C7.4407 16.7966 9.00946 16.9511 10.5226 16.6501C12.0356 16.3492 13.4255 15.6063 14.5164 14.5154C15.6073 13.4246 16.3495 12.0347 16.6505 10.5217C16.9514 9.00863 16.7967 7.44035 16.2063 6.01509C15.6159 4.58983 14.6167 3.37163 13.334 2.51455C12.0512 1.65748 10.543 1.2 9.00025 1.2C6.93209 1.20191 4.94883 2.02433 3.48642 3.4867C2.02401 4.94907 1.20194 6.9319 1.20003 9ZM3.6001 9.6V8.4H14.4004V9.6H3.6001Z" fill="#808080"/>
</svg>
