<svg id="SvgjsSvg1011" width="288" height="288" xmlns="http://www.w3.org/2000/svg" version="1.1" xmlns:xlink="http://www.w3.org/1999/xlink" xmlns:svgjs="http://svgjs.com/svgjs"><defs id="SvgjsDefs1012"></defs><g id="SvgjsG1013"><svg xmlns="http://www.w3.org/2000/svg" width="288" height="288" fill="none" viewBox="0 0 30 30"><path fill="#ffffff" d="M17.064 27C16.8457 26.9998 16.6364 26.9129 16.482 26.7586C16.3277 26.6042 16.2409 26.3949 16.2406 26.1766V17.0686C16.2406 16.8483 16.3281 16.637 16.4839 16.4812C16.6397 16.3254 16.8511 16.2378 17.0714 16.2378H26.1692C26.3896 16.2378 26.6009 16.3254 26.7567 16.4812C26.9125 16.637 27 16.8483 27 17.0686V26.1775C27 26.3958 26.9134 26.605 26.7592 26.7594C26.6049 26.9138 26.3958 27.0007 26.1775 27.0009L17.064 27ZM17.8948 25.344H25.3412V17.8948H17.8975L17.8948 25.344ZM3.82246 27C3.605 26.9978 3.39706 26.9105 3.24329 26.7567C3.08951 26.6029 3.00216 26.395 3 26.1775V17.0686C3 16.8483 3.08753 16.637 3.24333 16.4812C3.39913 16.3254 3.61044 16.2378 3.83077 16.2378H12.9342C13.1545 16.2378 13.3658 16.3254 13.5216 16.4812C13.6774 16.637 13.7649 16.8483 13.7649 17.0686V26.1775C13.7647 26.3958 13.6779 26.6051 13.5235 26.7595C13.3691 26.9139 13.1598 27.0007 12.9415 27.0009L3.82246 27ZM4.65323 25.344H12.1034V17.8948H4.656L4.65323 25.344ZM17.064 13.7575C16.9558 13.7577 16.8487 13.7364 16.7488 13.6951C16.6488 13.6538 16.558 13.5931 16.4815 13.5166C16.405 13.4402 16.3444 13.3493 16.303 13.2494C16.2617 13.1494 16.2405 13.0423 16.2406 12.9342V3.83077C16.2406 3.61044 16.3281 3.39913 16.4839 3.24333C16.6397 3.08753 16.8511 3 17.0714 3H26.1692C26.3896 3 26.6009 3.08753 26.7567 3.24333C26.9125 3.39913 27 3.61044 27 3.83077V12.9378C27.0001 13.0459 26.9789 13.153 26.9377 13.2529C26.8964 13.3528 26.8358 13.4435 26.7594 13.52C26.683 13.5965 26.5923 13.6571 26.4925 13.6985C26.3926 13.7399 26.2856 13.7612 26.1775 13.7612L17.064 13.7575ZM17.8948 12.1034H25.3412V4.65415H17.8975L17.8948 12.1034ZM3.82246 13.7575C3.6044 13.7568 3.39548 13.6698 3.24138 13.5155C3.08727 13.3612 3.00049 13.1522 3 12.9342V3.83077C3 3.61044 3.08753 3.39913 3.24333 3.24333C3.39913 3.08753 3.61044 3 3.83077 3H12.9342C13.1545 3 13.3658 3.08753 13.5216 3.24333C13.6774 3.39913 13.7649 3.61044 13.7649 3.83077V12.9378C13.7649 13.1562 13.6782 13.3657 13.5238 13.5201C13.3693 13.6745 13.1599 13.7612 12.9415 13.7612L3.82246 13.7575ZM4.65323 12.1034H12.1034V4.65415H4.656L4.65323 12.1034Z" class="colorgray svgShape"></path></svg></g></svg>