<svg id="ic_overview" xmlns="http://www.w3.org/2000/svg" width="32" height="25" viewBox="0 0 32 25">
  <path id="Shape" d="M21.36,25H10.69V22.73h4.25V20.46H0V0H32V20.46H17.09V22.73h4.27V25ZM2.14,11.89v6.32H29.82V11.59H24.57l-1.26,1.73a.75.75,0,0,1-.606.31H22.68a.758.758,0,0,1-.61-.36L20.4,10.56,18.48,16.21a.738.738,0,0,1-.7.51H17.77a.735.735,0,0,1-.68-.61L15.51,7.95,13.57,12.68a.768.768,0,0,1-.65.46l-.052,0a.729.729,0,0,1-.648-.392L10.77,10.12,9.48,11.63a.727.727,0,0,1-.558.26H2.14ZM15.764,4.6c.025,0,.049,0,.074,0a.753.753,0,0,1,.662.6l1.52,7.82,1.53-4.48a.731.731,0,0,1,.62-.51c.025,0,.051,0,.077,0a.756.756,0,0,1,.643.354l1.92,3.12.821-1.13a.719.719,0,0,1,.591-.31H29.87V2.28L2.14,2.31V10.4H8.57l1.77-2.07a.738.738,0,0,1,.566-.264c.024,0,.049,0,.074,0a.772.772,0,0,1,.59.39l1.21,2.2,2.29-5.59A.748.748,0,0,1,15.764,4.6Z" transform="translate(0 0)" fill="#0279ff"/>
</svg>
