<svg width="24" height="24" viewBox="0 0 24 24" fill="none" xmlns="http://www.w3.org/2000/svg">
<path d="M11.9974 24C9.22925 23.9982 6.54678 23.0396 4.40442 21.2867C2.26205 19.5337 0.79151 17.0942 0.241895 14.3812C-0.307719 11.6683 0.0973828 8.84879 1.38858 6.40031C2.67978 3.95183 4.77768 2.02492 7.32693 0.945982C10.2592 -0.292652 13.5634 -0.315783 16.5127 0.881677C19.462 2.07914 21.8148 4.3991 23.0535 7.3312C24.2922 10.2633 24.3153 13.5673 23.1178 16.5165C21.9203 19.4657 19.6002 21.8183 16.668 23.057C15.1904 23.6823 13.6019 24.0031 11.9974 24ZM11.9974 3.10615C9.79921 3.10934 7.68051 3.92883 6.05232 5.40565C4.42414 6.88248 3.40252 8.91137 3.18566 11.0988C2.96879 13.2862 3.57212 15.4761 4.87863 17.2439C6.18513 19.0117 8.10168 20.2312 10.2565 20.6659C12.4113 21.1006 14.6508 20.7196 16.5405 19.5966C18.4303 18.4737 19.8356 16.6889 20.4838 14.5886C21.1321 12.4882 20.9771 10.2219 20.0489 8.22938C19.1207 6.23682 17.4855 4.66 15.4605 3.8048C14.3649 3.34129 13.187 3.10366 11.9974 3.10615Z" fill="#666666"/>
<path d="M0.586983 8.29258C-0.195826 10.7027 -0.195657 13.2989 0.587465 15.7089C1.37059 18.1189 2.89646 20.2192 4.94639 21.7086C6.99632 23.198 9.46508 24.0001 11.9988 24C14.5326 23.9999 17.0013 23.1975 19.0511 21.7079C21.1009 20.2183 22.6266 18.118 23.4095 15.7079C24.1924 13.2978 24.1923 10.7016 23.4093 8.29155C22.6262 5.88147 21.1004 3.78119 19.0506 2.2917C17.0007 0.802208 14.532 -1.57222e-05 11.9982 2.31098e-10C11.5894 0.00404588 11.1986 0.169327 10.9109 0.459917C10.6232 0.750508 10.4619 1.14292 10.4619 1.55186C10.4619 1.9608 10.6232 2.35321 10.9109 2.6438C11.1986 2.93439 11.5894 3.09967 11.9982 3.10372C13.8769 3.10363 15.7075 3.6984 17.2274 4.80279C18.7474 5.90719 19.8788 7.46449 20.4594 9.25151C21.04 11.0385 21.04 12.9635 20.4595 14.7506C19.879 16.5376 18.7477 18.0949 17.2278 19.1994C15.7078 20.3039 13.8773 20.8987 11.9986 20.8987C10.1199 20.8987 8.28938 20.3038 6.76947 19.1994C5.24956 18.0949 4.11827 16.5375 3.53776 14.7505C2.95724 12.9634 2.95729 11.0385 3.53791 9.25145C3.60088 9.05764 3.62507 8.85333 3.60909 8.65017C3.59311 8.44701 3.53728 8.24899 3.44479 8.06742C3.35229 7.88584 3.22494 7.72426 3.07001 7.59191C2.91508 7.45956 2.7356 7.35902 2.54181 7.29604C2.34803 7.23306 2.14375 7.20887 1.94062 7.22485C1.73749 7.24083 1.5395 7.29667 1.35795 7.38918C0.991289 7.57601 0.713855 7.90087 0.586679 8.29228L0.586983 8.29258Z" fill="#1E90FF"/>
</svg>
