<svg width="48" height="48" viewBox="0 0 48 48" fill="none" xmlns="http://www.w3.org/2000/svg">
<path d="M0 24C0.00661796 17.6368 2.53767 11.5365 7.03711 7.03711C11.5365 2.53767 17.6368 0.00661796 24 0C30.3631 0.00688216 36.4635 2.53773 40.9629 7.03711C45.4623 11.5365 47.9931 17.6369 48 24C47.9929 30.363 45.4622 36.4636 40.9629 40.9629C36.4636 45.4622 30.363 47.9929 24 48C17.6369 47.9931 11.5365 45.4623 7.03711 40.9629C2.53773 36.4635 0.00688216 30.3631 0 24Z" fill="#E61A1A"/>
<path d="M34.9602 14.9602L32.8388 12.8388L24 21.6777L15.1612 12.8388L13.0398 14.9602L21.8787 23.799L13.0398 32.6378L15.1612 34.7591L24 25.9203L32.8388 34.7591L34.9602 32.6378L26.1213 23.799L34.9602 14.9602Z" fill="white"/>
</svg>
