<svg width="22" height="18" viewBox="0 0 22 18" fill="none" xmlns="http://www.w3.org/2000/svg">
<path d="M21.0404 5.06531C19.9934 3.14286 18.2978 1.62656 16.2365 0.769501C14.1752 -0.0875618 11.873 -0.233537 9.7141 0.355943C7.9414 0.809513 6.34545 1.75825 5.12483 3.0841C3.90421 4.40995 3.11275 6.05438 2.84904 7.81277L1.38964 6.00457C1.32686 5.92663 1.24878 5.86143 1.15998 5.81272C1.07119 5.76402 0.973401 5.73276 0.872127 5.72072C0.770854 5.70869 0.668154 5.71611 0.569845 5.74258C0.471536 5.76905 0.379551 5.81404 0.299196 5.87498C0.218617 5.93583 0.151143 6.0115 0.100796 6.09765C0.050448 6.18379 0.0181927 6.27872 0.00577087 6.37698C-0.00665098 6.47525 0.00101764 6.57493 0.0284199 6.67031C0.0558221 6.76568 0.102414 6.85488 0.165453 6.93278L2.95584 10.3905C2.97821 10.4118 3.00208 10.4316 3.02733 10.4497C3.06117 10.4846 3.09872 10.5159 3.13931 10.5432C3.17997 10.569 3.22302 10.5912 3.26786 10.6095C3.31875 10.6311 3.37188 10.6473 3.4264 10.6577C3.4461 10.6577 3.46378 10.6738 3.48347 10.6758C3.51144 10.6773 3.53939 10.6773 3.56736 10.6758C3.57679 10.6747 3.58612 10.673 3.59532 10.6707C3.61351 10.6737 3.63182 10.6757 3.65024 10.6768C3.68798 10.6683 3.7251 10.6572 3.76121 10.6436C3.79662 10.6353 3.83126 10.6242 3.86483 10.6105C3.91819 10.589 3.96867 10.5613 4.01515 10.5281C4.02966 10.5181 4.04624 10.514 4.05868 10.504L7.47931 7.77058C7.55796 7.70762 7.62298 7.63025 7.67075 7.5429C7.71853 7.45554 7.74805 7.35992 7.75768 7.2615C7.76731 7.16307 7.75693 7.06377 7.72693 6.96928C7.69694 6.87478 7.64798 6.78694 7.58294 6.71077C7.45139 6.557 7.26227 6.46007 7.05708 6.44124C6.85188 6.42241 6.64733 6.48321 6.48832 6.61032L4.34173 8.3251C4.5079 6.79867 5.14993 5.35754 6.1825 4.1937C7.21506 3.02986 8.58907 2.19856 10.1214 1.81054C11.9364 1.3107 13.8734 1.4294 15.6089 2.14681C17.3445 2.86423 18.7736 4.13693 19.6576 5.75243C20.4774 7.34608 20.6664 9.17555 20.189 10.8951C19.7115 12.6146 18.6006 14.1051 17.0663 15.0848C15.4943 16.1257 13.6013 16.6126 11.7035 16.4642C9.80579 16.3157 8.01804 15.5409 6.63864 14.2691C6.4884 14.1324 6.28837 14.059 6.08241 14.0651C5.87646 14.0711 5.68131 14.156 5.53985 14.3012C5.46971 14.3731 5.415 14.4577 5.37865 14.5502C5.3423 14.6427 5.32505 14.7412 5.32804 14.8401C5.33102 14.939 5.35412 15.0364 5.39598 15.1266C5.43785 15.2169 5.49763 15.2982 5.57199 15.3661C7.40734 17.0542 9.84037 17.9968 12.3707 18C14.3537 17.9976 16.2901 17.4185 17.9296 16.3375C19.7803 15.1519 21.1187 13.3504 21.6919 11.2734C22.265 9.19642 22.0333 6.9879 21.0404 5.06531Z" fill="#4c4c4c"/>
</svg>
