<svg xmlns="http://www.w3.org/2000/svg" width="24" height="24" fill="none" style=""><rect id="backgroundrect" width="100%" height="100%" x="0" y="0" fill="none" stroke="none"/>

<g class="currentLayer" style=""><title>Layer 1</title><path d="M11.9999 8.75001C12.1677 8.74834 12.334 8.78155 12.4883 8.8475C12.636 8.91108 12.7703 9.00213 12.8841 9.11584C12.9978 9.2296 13.0889 9.36392 13.1524 9.51166C13.2184 9.66593 13.2516 9.83222 13.2499 9.99999C13.2516 10.1678 13.2184 10.3341 13.1524 10.4883C13.0889 10.6361 12.9978 10.7704 12.8841 10.8842C12.7703 10.9979 12.636 11.0889 12.4883 11.1525C12.334 11.2184 12.1677 11.2516 11.9999 11.25C11.8322 11.2516 11.6659 11.2184 11.5116 11.1525C11.3639 11.0889 11.2295 10.9979 11.1158 10.8842C11.0021 10.7704 10.911 10.6361 10.8475 10.4883C10.7815 10.3341 10.7483 10.1678 10.75 9.99999C10.7483 9.83222 10.7815 9.66593 10.8475 9.51166C10.911 9.36392 11.0021 9.2296 11.1158 9.11584C11.2295 9.00213 11.3639 8.91108 11.5116 8.8475C11.6659 8.78155 11.8322 8.74834 11.9999 8.75001ZM17.6249 11.25C18.2104 11.2459 18.7904 11.3622 19.3291 11.5916C19.8487 11.8121 20.3212 12.1304 20.7207 12.5291C21.1195 12.9287 21.4378 13.4011 21.6582 13.9208C21.8877 14.4594 22.004 15.0395 21.9999 15.6249C22.004 16.2104 21.8877 16.7904 21.6582 17.3291C21.4378 17.8487 21.1195 18.3212 20.7207 18.7207C20.3212 19.1195 19.8487 19.4378 19.3291 19.6582C18.7904 19.8877 18.2104 20.004 17.6249 19.9999C17.0395 20.004 16.4594 19.8877 15.9208 19.6582C15.4011 19.4378 14.9286 19.1195 14.5291 18.7207C14.1303 18.3212 13.8121 17.8487 13.5916 17.3291C13.3622 16.7904 13.2459 16.2104 13.2499 15.6249C13.2459 15.0395 13.3622 14.4594 13.5916 13.9208C13.8121 13.4011 14.1303 12.9287 14.5291 12.5291C14.9286 12.1304 15.4011 11.8121 15.9208 11.5916C16.4594 11.3622 17.0395 11.2459 17.6249 11.25ZM14.4999 15.6249C14.4975 16.0426 14.5806 16.4564 14.7441 16.8408C14.8998 17.214 15.1261 17.5535 15.4108 17.8408C15.698 18.1254 16.0376 18.3517 16.4108 18.5074C16.7947 18.6701 17.2079 18.7526 17.6249 18.7499C17.9292 18.7502 18.2319 18.7058 18.5232 18.6182C18.8143 18.5312 19.0906 18.4011 19.3432 18.2324L15.0174 13.9066C14.8487 14.1592 14.7187 14.4356 14.6316 14.7266C14.544 15.018 14.4996 15.3207 14.4999 15.6249ZM20.2324 17.3441C20.4011 17.0915 20.5312 16.8151 20.6182 16.5241C20.7059 16.2324 20.7503 15.9295 20.7499 15.6249C20.7519 15.2091 20.6668 14.7975 20.4999 14.4166C20.3391 14.0471 20.1105 13.711 19.8257 13.4258C19.5402 13.1403 19.2035 12.911 18.8332 12.75C18.4524 12.5831 18.0407 12.4979 17.6249 12.5C17.3206 12.4997 17.018 12.544 16.7266 12.6316C16.4356 12.7187 16.1592 12.8488 15.9066 13.0175L20.2324 17.3441ZM8.24997 9.99999C8.24577 10.4659 8.33062 10.9284 8.49997 11.3625C8.66536 11.781 8.90473 12.1663 9.20663 12.5C9.50845 12.8337 9.86705 13.1114 10.2658 13.32C10.6781 13.5364 11.1266 13.6754 11.5891 13.73C11.7142 13.7432 11.84 13.7499 11.9658 13.75H12.3416C12.1996 14.1544 12.1046 14.5738 12.0583 14.9999C11.0873 15.0024 10.1202 14.876 9.18246 14.6241C8.25878 14.3748 7.36492 14.0258 6.51664 13.5833C5.66189 13.1369 4.85374 12.6066 4.10416 12C3.34934 11.3919 2.6456 10.723 2 9.99999C2.63941 9.28365 3.33616 8.62063 4.08332 8.01751C4.83156 7.41152 5.63799 6.88116 6.49081 6.43419C7.33733 5.98936 8.22945 5.63732 9.15163 5.3842C10.0795 5.12886 11.0376 4.99964 11.9999 5.00004C12.9747 4.99745 13.9459 5.11727 14.8908 5.3567C15.8133 5.59123 16.706 5.93038 17.5516 6.36753C18.4007 6.80787 19.201 7.33663 19.9391 7.94501C20.6902 8.56242 21.3804 9.25058 21.9999 9.99999L21.1116 10.8883L21.0332 10.8008C20.3487 9.99851 19.5882 9.26427 18.7624 8.60834C17.9334 7.95638 17.0141 7.42837 16.0333 7.04086C16.3446 7.46915 16.5865 7.94387 16.7499 8.44751C16.9152 8.94844 16.9996 9.47251 16.9999 9.99999V10.0583C16.5738 10.1046 16.1544 10.1997 15.7499 10.3417V9.99999C15.7529 9.4996 15.6516 9.00408 15.4524 8.54501C15.2614 8.1005 14.988 7.69616 14.6466 7.35335C14.3038 7.01195 13.8995 6.73853 13.4549 6.54753C12.9959 6.34841 12.5003 6.24709 11.9999 6.25003C11.4996 6.24709 11.004 6.34841 10.545 6.54753C10.1004 6.73853 9.6961 7.01195 9.35329 7.35335C9.01189 7.69616 8.73847 8.1005 8.54747 8.54501C8.34835 9.00408 8.24703 9.4996 8.24997 9.99999ZM7.8883 12.8416C7.59619 12.4288 7.37119 11.9723 7.22164 11.4891C7.07332 11.0067 6.9986 10.5047 6.99997 9.99999C6.99967 9.49512 7.07553 8.99309 7.22497 8.51084C7.37453 8.02769 7.59952 7.57123 7.89164 7.15835C7.11667 7.49359 6.37739 7.90594 5.68498 8.38918C4.99079 8.87301 4.33648 9.41167 3.72832 9.99999C4.33539 10.5885 4.98858 11.1274 5.68165 11.6116C6.3741 12.0946 7.11337 12.5067 7.8883 12.8416Z" fill="#0279ff" id="svg_1" class="selected" fill-opacity="1"/></g></svg>