<svg id="SvgjsSvg1011" width="288" height="288" xmlns="http://www.w3.org/2000/svg" version="1.1" xmlns:xlink="http://www.w3.org/1999/xlink" xmlns:svgjs="http://svgjs.com/svgjs"><defs id="SvgjsDefs1012"></defs><g id="SvgjsG1013"><svg xmlns="http://www.w3.org/2000/svg" width="288" height="288" fill="none" viewBox="0 0 24 24"><path fill="#0054b2" d="M20.9999 5.94452C21.0001 6.3302 20.9255 6.71226 20.7802 7.06952C20.6343 7.43197 20.4161 7.76091 20.1389 8.03626L8.56347 19.611L2.99999 20.9999L4.38899 15.4365L15.9637 3.86103C16.239 3.58384 16.568 3.36565 16.9304 3.21978C17.2877 3.07447 17.6697 2.99985 18.0554 3.00004C18.4482 2.99786 18.8372 3.07729 19.1977 3.23329C19.5469 3.38309 19.8646 3.5979 20.1337 3.86628C20.402 4.13537 20.6169 4.453 20.7667 4.80228C20.9227 5.16277 21.0021 5.55173 20.9999 5.94452ZM5.86498 15.5505C6.46981 15.7456 7.01965 16.0815 7.46922 16.5307C7.9184 16.9803 8.25437 17.5301 8.44947 18.135L17.9504 8.62501L15.3749 6.04952L5.86498 15.5505ZM4.54649 19.4505L7.43772 18.7297C7.37994 18.4622 7.28369 18.2046 7.15197 17.9647C7.0241 17.7299 6.8635 17.5145 6.67498 17.325C6.4851 17.1355 6.26918 16.9742 6.03373 16.8457C5.79388 16.714 5.5362 16.6178 5.26873 16.56L4.54649 19.4505ZM18.7499 7.82551C18.8964 7.67901 19.0372 7.54126 19.1722 7.41226C19.3038 7.28673 19.4243 7.14996 19.5322 7.00352C19.6372 6.86083 19.7215 6.70404 19.7827 6.53777C19.8476 6.34997 19.8788 6.15218 19.8749 5.95352C19.8767 5.71024 19.8274 5.46929 19.7302 5.24628C19.6358 5.03003 19.5017 4.83338 19.3349 4.66653C19.1681 4.49971 18.9714 4.36564 18.7552 4.27128C18.5322 4.17403 18.2912 4.12472 18.0479 4.12653C17.8493 4.12266 17.6515 4.15389 17.4637 4.21878C17.2974 4.27994 17.1406 4.36427 16.9979 4.46928C16.8515 4.57718 16.7147 4.69763 16.5892 4.82928C16.4602 4.96428 16.3224 5.10503 16.1759 5.25153L18.7499 7.82551Z" class="colorgray svgShape"></path></svg></g></svg>