<svg width="24" height="24" viewBox="0 0 24 24" fill="none" xmlns="http://www.w3.org/2000/svg">
<path d="M3 12C3 10.22 3.52749 8.47995 4.51645 6.99991C5.50541 5.51986 6.91143 4.3663 8.55601 3.68511C10.2006 3.00392 12.0099 2.82566 13.7558 3.17293C15.5016 3.5202 17.1062 4.37739 18.3649 5.63606C19.6236 6.89474 20.4798 8.49834 20.827 10.2442C21.1743 11.99 20.9961 13.7996 20.3149 15.4441C19.6337 17.0887 18.4809 18.4943 17.0008 19.4832C15.5207 20.4722 13.7803 21 12.0002 21C9.61323 21 7.32349 20.0518 5.63562 18.3639C3.94775 16.6761 3 14.387 3 12ZM4.20003 12C4.20003 13.5427 4.65781 15.0507 5.51491 16.3334C6.37201 17.6162 7.5901 18.6159 9.0154 19.2062C10.4407 19.7966 12.0095 19.9511 13.5226 19.6501C15.0356 19.3492 16.4255 18.6063 17.5164 17.5154C18.6073 16.4246 19.3495 15.0347 19.6505 13.5217C19.9514 12.0086 19.7967 10.4404 19.2063 9.01509C18.6159 7.58983 17.6167 6.37163 16.334 5.51455C15.0512 4.65748 13.543 4.2 12.0002 4.2C9.93209 4.20191 7.94883 5.02433 6.48642 6.4867C5.02401 7.94907 4.20194 9.9319 4.20003 12ZM11.4002 17.4V12.6H6.6001V11.4H11.4002V6.6H12.6003V11.4H17.4004V12.6H12.6003V17.4H11.4002Z" fill="#808080"/>
</svg>
