<svg id="SvgjsSvg1016" width="288" height="288" xmlns="http://www.w3.org/2000/svg" version="1.1" xmlns:xlink="http://www.w3.org/1999/xlink" xmlns:svgjs="http://svgjs.com/svgjs"><defs id="SvgjsDefs1017"></defs><g id="SvgjsG1018"><svg xmlns="http://www.w3.org/2000/svg" width="288" height="288" fill="none" viewBox="0 0 24 24"><path fill="#0054b2" d="M7.07639 22C6.82902 22.0013 6.58438 21.9509 6.35677 21.8518C6.13761 21.7594 5.93836 21.6234 5.77083 21.4518C5.60181 21.2822 5.46733 21.0797 5.37587 20.8563C5.27927 20.625 5.22989 20.376 5.2309 20.1245V5.74921H4V4.50011H8.92361V3.24923C8.92189 3.08152 8.95465 2.91529 9.0191 2.76107C9.08317 2.61317 9.17343 2.47873 9.28559 2.36467C9.39718 2.25059 9.52898 2.15987 9.67448 2.09745C9.82631 2.03084 9.99018 1.99765 10.1554 2.00013H13.8464C14.0116 1.99765 14.1754 2.03084 14.3273 2.09745C14.4728 2.15987 14.6046 2.25059 14.7161 2.36467C14.8283 2.47873 14.9194 2.61317 14.9835 2.76107C15.0479 2.91529 15.0798 3.08152 15.0781 3.24923V4.50011H20V5.74921H18.7691V20.1245C18.7701 20.376 18.7207 20.625 18.6241 20.8563C18.5326 21.0792 18.3988 21.2816 18.2309 21.4518C18.0624 21.623 17.8627 21.759 17.6432 21.8518C17.4156 21.9509 17.171 22.0013 16.9236 22H7.07639ZM6.46181 20.1245C6.46138 20.2066 6.47806 20.288 6.50955 20.3635C6.54104 20.439 6.58673 20.5072 6.64497 20.5637C6.70098 20.6223 6.76876 20.6687 6.84288 20.6999C6.917 20.7312 6.99622 20.7467 7.07639 20.7454H16.9236C17.0038 20.7467 17.083 20.7312 17.1571 20.6999C17.2312 20.6687 17.299 20.6223 17.355 20.5637C17.4133 20.5072 17.459 20.439 17.4905 20.3635C17.5219 20.288 17.5386 20.2066 17.5382 20.1245V5.74921H6.46181V20.1245ZM10.1545 4.50011H13.8455V3.24923H10.1545V4.50011ZM13.8516 18.2491V8.24919H15.0747V18.2491H13.8516ZM11.388 18.2491V8.24919H12.6102V18.2491H11.388ZM8.92535 18.2491V8.24919H10.1484V18.2491H8.92535Z" class="colorgray svgShape"></path></svg></g></svg>