<svg width="15" height="15" viewBox="0 0 15 15" fill="none" xmlns="http://www.w3.org/2000/svg">
<path d="M0 7.5C0 3.35786 3.35786 0 7.5 0C11.6421 0 15 3.35786 15 7.5C15 11.6421 11.6421 15 7.5 15C3.35786 15 0 11.6421 0 7.5Z" fill="white"/>
<circle cx="7.5" cy="7.5" r="5.9" fill="white" stroke="#0279FF" stroke-width="1.2"/>
<path d="M8.32031 11H6.66992V5.7168H8.32031V11ZM6.57227 4.35449C6.57227 4.12012 6.6569 3.92806 6.82617 3.77832C6.99544 3.62858 7.21517 3.55371 7.48535 3.55371C7.75553 3.55371 7.97526 3.62858 8.14453 3.77832C8.3138 3.92806 8.39844 4.12012 8.39844 4.35449C8.39844 4.58887 8.3138 4.78092 8.14453 4.93066C7.97526 5.0804 7.75553 5.15527 7.48535 5.15527C7.21517 5.15527 6.99544 5.0804 6.82617 4.93066C6.6569 4.78092 6.57227 4.58887 6.57227 4.35449Z" fill="#0279FF"/>
</svg>
