<svg xmlns="http://www.w3.org/2000/svg" width="30" height="20" viewBox="0 0 30 20">
  <path id="Path_7817" data-name="Path 7817" d="M29.3-6.543a1.709,1.709,0,0,1,.308.412,3.008,3.008,0,0,1,.22.511,3.57,3.57,0,0,1,.132.547,3.242,3.242,0,0,1,.044.5,1.716,1.716,0,0,1-.146.71,1.846,1.846,0,0,1-.4.575,1.909,1.909,0,0,1-.593.391,1.866,1.866,0,0,1-.732.142H1.875a1.866,1.866,0,0,1-.732-.142,1.909,1.909,0,0,1-.593-.391,1.846,1.846,0,0,1-.4-.575A1.716,1.716,0,0,1,0-4.568a3.242,3.242,0,0,1,.044-.5,3.57,3.57,0,0,1,.132-.547A3.008,3.008,0,0,1,.4-6.131,1.709,1.709,0,0,1,.7-6.543L3.75-9.5V-22.75h22.5V-9.5ZM5.625-10.023h18.75V-20.932H5.625Zm22.5,5.455a1.847,1.847,0,0,0-.059-.4.73.73,0,0,0-.176-.362L24.917-8.2H5.083L2.109-5.335a.73.73,0,0,0-.176.362,1.847,1.847,0,0,0-.059.4Z" transform="translate(0 22.75)" fill="#9e9e9e"/>
</svg>
