<svg width="118" height="62" viewBox="0 0 118 62" fill="none" xmlns="http://www.w3.org/2000/svg">
<path d="M103.909 44.8768V42.8705C105.613 42.8682 107.296 42.4873 108.837 41.755C110.379 41.0227 111.743 39.9569 112.831 38.6331C113.919 37.3094 114.705 35.7602 115.134 34.0953C115.562 32.4305 115.623 30.6908 115.311 28.9997C114.999 27.3087 114.322 25.7076 113.328 24.3101C112.335 22.9126 111.049 21.753 109.562 20.9134C108.075 20.0738 106.423 19.5749 104.723 19.452C103.024 19.3291 101.318 19.5852 99.7274 20.2022L98.8166 20.5575L98.4508 19.6449C97.745 17.8862 96.6618 16.3072 95.2791 15.0217C93.8964 13.7362 92.2486 12.7761 90.4543 12.2105C88.66 11.6449 86.7638 11.4879 84.9022 11.7507C83.0406 12.0136 81.2599 12.6897 79.6881 13.7305L78.4943 14.5247L78.1769 13.1314C77.4273 9.87222 75.5274 7.00023 72.8325 5.05244C70.1377 3.10464 66.8323 2.21441 63.5345 2.54819C60.2367 2.88196 57.1722 4.4169 54.914 6.86599C52.6558 9.31509 51.3585 12.5107 51.2646 15.8552V16.935L50.202 16.8236C49.8224 16.7887 49.4429 16.7678 49.0427 16.7678C45.9624 16.7641 43.0066 17.9944 40.824 20.1886C38.6415 22.3828 37.4105 25.3617 37.4014 28.4712H35.4209C35.4245 24.8362 36.8551 21.3509 39.3992 18.7786C41.9434 16.2063 45.3937 14.7568 48.9943 14.7476H49.3187C49.6533 11.1331 51.2128 7.74578 53.7341 5.15727C56.2553 2.56876 59.5839 0.937539 63.1582 0.53889C66.7325 0.140242 70.3336 0.998568 73.3538 2.96903C76.3739 4.93949 78.6283 7.90143 79.7365 11.355C81.4849 10.4155 83.4033 9.84225 85.3766 9.66966C87.35 9.49707 89.3375 9.72871 91.2199 10.3507C93.1024 10.9726 94.8409 11.9721 96.3313 13.2891C97.8217 14.6061 99.0332 16.2135 99.8931 18.0148C101.187 17.6107 102.534 17.4064 103.889 17.4087C107.496 17.4087 110.955 18.8553 113.506 21.4303C116.057 24.0053 117.49 27.4977 117.49 31.1393C117.49 34.7809 116.057 38.2733 113.506 40.8483C110.955 43.4232 107.496 44.8699 103.889 44.8699L103.909 44.8768Z" fill="#FF7600"/>
<path d="M0.0410156 38.6351H3.34639C3.34639 41.2962 4.83692 42.9054 7.33493 42.9054C9.51552 42.9054 10.7162 41.8813 10.7162 40.0353C10.7162 38.4888 10.0262 37.6946 7.73517 36.7611L4.46429 35.4166C1.93868 34.4204 0.620665 32.5744 0.620665 29.9551C0.620665 26.6182 3.25669 24.3333 7.04511 24.3333C11.0336 24.3333 13.6766 26.8829 13.6766 30.7422H10.3505C10.3505 28.4921 9.14979 27.2034 6.9002 27.2034C5.00944 27.2034 3.91914 28.1995 3.91914 29.7461C3.91914 31.1393 4.89213 32.0867 7.24522 33.055L10.2056 34.2811C12.7312 35.333 13.994 37.1512 13.994 39.9308C13.994 43.4139 11.3235 45.8103 7.33493 45.8103C2.71154 45.8312 0.0410156 43.2258 0.0410156 38.6351Z" fill="#333333"/>
<path d="M16.168 40.2722V31.6967H19.3215V39.478C19.3215 41.6724 20.0116 42.9611 22.0818 42.9611C24.4694 42.9611 25.325 41.3519 25.325 39.3944V31.7315H28.4579V45.3297H25.2629V43.4279C24.8556 44.1615 24.2502 44.7632 23.5171 45.1628C22.7841 45.5624 21.9537 45.7435 21.1226 45.685C18.2036 45.685 16.168 43.9295 16.168 40.2722Z" fill="#333333"/>
<path d="M45.668 38.5167C45.668 42.6965 42.9699 45.685 39.0918 45.685C38.2523 45.7003 37.4219 45.5084 36.6727 45.126C35.9235 44.7436 35.2781 44.1822 34.7927 43.4906V48.7153H31.6943V31.6967H34.7927V33.5428C35.3151 32.8311 36.0018 32.2591 36.7932 31.8767C37.5846 31.4942 38.4566 31.3128 39.3333 31.3484C43.1148 31.3484 45.668 34.2185 45.668 38.5167ZM42.5352 38.5167C42.5352 35.967 40.9342 34.1837 38.6363 34.1837C36.3384 34.1837 34.6754 35.9392 34.6754 38.5167C34.6754 41.0942 36.2832 42.8428 38.6363 42.8428C40.9894 42.8428 42.5352 41.0594 42.5352 38.5167Z" fill="#333333"/>
<path d="M61.9327 38.5167C61.9327 42.6965 59.2345 45.685 55.3633 45.685C54.5241 45.6991 53.6941 45.5067 52.9451 45.1244C52.196 44.742 51.5505 44.1813 51.0642 43.4906V48.7153H47.959V31.6967H51.0642V33.5428C51.5834 32.8379 52.2637 32.2703 53.0471 31.8882C53.8305 31.5061 54.6938 31.3209 55.5634 31.3484C59.3795 31.3484 61.9327 34.2185 61.9327 38.5167ZM58.8067 38.5167C58.8067 35.967 57.1989 34.1837 54.901 34.1837C52.6031 34.1837 50.9469 35.9392 50.9469 38.5167C50.9469 41.0942 52.5479 42.8428 54.901 42.8428C57.2541 42.8428 58.8067 41.0594 58.8067 38.5167Z" fill="#333333"/>
<path d="M63.2236 38.5166C63.2236 34.504 65.8666 31.3483 70.2829 31.3483C74.6993 31.3483 77.3422 34.504 77.3422 38.5166C77.3422 42.5292 74.6993 45.6849 70.2829 45.6849C65.8666 45.6849 63.2236 42.4943 63.2236 38.5166ZM74.2163 38.5166C74.2163 36.0296 72.8362 34.1835 70.2829 34.1835C67.7297 34.1835 66.3496 36.0296 66.3496 38.5166C66.3496 41.0035 67.7297 42.8426 70.2829 42.8426C72.8362 42.8426 74.2163 41.0035 74.2163 38.5166Z" fill="#333333"/>
<path d="M79.6328 45.3296V31.6966H82.7657V34.3299C82.9567 33.5271 83.4127 32.8139 84.0585 32.3075C84.7044 31.8011 85.5018 31.5316 86.3195 31.5433C86.7345 31.5306 87.1495 31.5703 87.5547 31.6618V34.5876C87.1451 34.5355 86.7322 34.5145 86.3195 34.5249C84.1113 34.5249 82.7657 36.2247 82.7657 39.3247V45.3505L79.6328 45.3296Z" fill="#333333"/>
<path d="M97.6227 42.4944V45.2809C96.8559 45.4043 96.0805 45.4649 95.3041 45.4621C93.779 45.4621 90.9705 45.2531 90.9705 40.6623V34.3648H88.7002V31.6967H90.9705V27.5726H94.0965V31.6967H97.1672V34.3648H94.0965V39.9796C94.0965 42.3481 94.7865 42.6407 96.0493 42.6407C96.5766 42.63 97.1023 42.5811 97.6227 42.4944Z" fill="#333333"/>
<path d="M37.2215 57.6391C37.3508 57.7122 37.4753 57.7936 37.5942 57.8829C37.5942 57.7993 37.6356 57.7227 37.6494 57.6391H37.2215ZM31.0524 54.337C31.293 54.0608 31.5895 53.8398 31.9219 53.6892C32.2905 53.5222 32.691 53.439 33.095 53.4454C33.3956 53.4418 33.6945 53.4913 33.9783 53.5916C34.2307 53.6829 34.4645 53.8198 34.6683 53.9957C34.8096 54.1165 34.9327 54.2573 35.034 54.4137C35.657 54.0753 36.2443 53.6738 36.7868 53.2155C36.628 53.0085 36.4501 52.8172 36.2555 52.6442C35.8489 52.2893 35.3811 52.013 34.8753 51.8292C34.2715 51.6205 33.6365 51.5192 32.9984 51.5296C32.3087 51.517 31.6243 51.6523 30.9903 51.9267C30.4294 52.1742 29.9236 52.533 29.5027 52.9818C29.0819 53.4306 28.7547 53.9601 28.5406 54.5391C28.1037 55.7207 28.1037 57.0217 28.5406 58.2033C28.7533 58.7807 29.0823 59.3073 29.5067 59.7498C29.9482 60.1947 30.4739 60.5453 31.0524 60.7809C31.7082 61.0551 32.4129 61.1903 33.1226 61.1779C33.7067 61.1817 34.2873 61.0875 34.8408 60.8993C35.3397 60.7291 35.8063 60.4747 36.2209 60.1469C36.3826 60.0114 36.5348 59.8648 36.6764 59.7081C36.1191 59.2517 35.518 58.8527 34.8822 58.5168C34.8002 58.6089 34.7075 58.6908 34.6062 58.7606C34.4109 58.9069 34.1944 59.0221 33.9645 59.102C33.7249 59.1864 33.4729 59.2288 33.2192 59.2274C32.8031 59.2352 32.3897 59.157 32.0047 58.9975C31.6667 58.8558 31.3622 58.6435 31.1113 58.3745C30.8604 58.1056 30.6686 57.7861 30.5487 57.437C30.417 57.071 30.3516 56.684 30.3554 56.2946C30.3545 55.9241 30.4175 55.5564 30.5418 55.2078C30.6541 54.8867 30.8276 54.5909 31.0524 54.337Z" fill="#0B38DB"/>
<path d="M43.8322 54.3929V60.7252H41.8449V59.8336C41.7599 59.9878 41.6529 60.1286 41.5274 60.2515C41.394 60.3815 41.2429 60.4917 41.0789 60.5789C40.9038 60.674 40.7186 60.7488 40.5269 60.8019C40.3314 60.8569 40.1294 60.8851 39.9265 60.8855C39.4989 60.8909 39.0752 60.803 38.6844 60.6277C38.3158 60.4659 37.9845 60.2287 37.7114 59.9311C37.435 59.6272 37.2236 59.2692 37.0904 58.8792C36.9378 58.4576 36.863 58.0113 36.8695 57.5625C36.863 57.1115 36.9379 56.663 37.0904 56.239C37.2236 55.849 37.435 55.4909 37.7114 55.187C37.9863 54.8915 38.3172 54.6546 38.6844 54.4904C39.0752 54.3151 39.4989 54.2272 39.9265 54.2327C40.1294 54.2331 40.3314 54.2612 40.5269 54.3163C40.7178 54.3746 40.9027 54.4516 41.0789 54.5461C41.2435 54.641 41.3944 54.7582 41.5274 54.8945C41.6509 55.014 41.7577 55.1499 41.8449 55.2985V54.3929H43.8322ZM40.3819 59.1787C40.5914 59.1794 40.7986 59.1343 40.9892 59.0464C41.167 58.9629 41.3265 58.8445 41.4584 58.6981C41.5935 58.5477 41.6989 58.3728 41.769 58.1825C41.8407 57.9838 41.878 57.7741 41.8794 57.5625C41.8787 57.351 41.8413 57.1411 41.769 56.9425C41.6789 56.7498 41.555 56.5751 41.4032 56.427C41.2715 56.2785 41.1121 56.1578 40.934 56.0718C40.7408 55.9892 40.5331 55.9466 40.3233 55.9466C40.1135 55.9466 39.9058 55.9892 39.7126 56.0718C39.5345 56.1578 39.375 56.2785 39.2433 56.427C39.111 56.5782 39.008 56.753 38.9397 56.9425C38.864 57.1402 38.8265 57.3507 38.8293 57.5625C38.8272 57.7744 38.8647 57.9847 38.9397 58.1825C39.0048 58.3736 39.1081 58.5491 39.2433 58.6981C39.3753 58.8445 39.5348 58.9629 39.7126 59.0464C39.9088 59.1501 40.126 59.2073 40.3474 59.2136L40.3819 59.1787Z" fill="#0B38DB"/>
<path d="M45.5439 51.5505H47.5313V60.753H45.5439V51.5505Z" fill="#0B38DB"/>
<path d="M48.9249 52.2889C48.923 52.1198 48.9548 51.952 49.0185 51.7956C49.0821 51.6391 49.1763 51.4972 49.2954 51.3783C49.4146 51.2593 49.5561 51.1658 49.7118 51.1032C49.8675 51.0407 50.034 51.0104 50.2015 51.0141C50.3763 51.0137 50.5496 51.0468 50.7121 51.1116C50.8644 51.174 51.0028 51.2663 51.1193 51.3833C51.2365 51.4986 51.3302 51.6358 51.3953 51.7874C51.4578 51.9471 51.4906 52.1172 51.4919 52.2889C51.4919 52.4586 51.4591 52.6266 51.3953 52.7835C51.3285 52.9341 51.2349 53.071 51.1193 53.1876C50.9998 53.3102 50.8567 53.4068 50.6989 53.4715C50.5411 53.5361 50.3718 53.5676 50.2015 53.5638C49.9512 53.5625 49.7066 53.4881 49.4973 53.3497C49.2879 53.2113 49.1227 53.0146 49.0215 52.7835C48.9577 52.6266 48.9249 52.4586 48.9249 52.2889ZM49.2147 54.3788H51.2021V60.7112H49.2147V54.3788Z" fill="#0B38DB"/>
<path d="M58.7304 60.7252H56.4256L55.3974 58.8861L54.3693 60.7252H52.0645L54.2243 57.5346L52.1059 54.3928H54.4107L55.3974 56.1762L56.3842 54.3928H58.6959L56.5843 57.5346L58.7304 60.7252Z" fill="#0B38DB"/>
<path d="M69.4747 58.4541C69.3506 58.8775 69.1545 59.2759 68.895 59.6314C68.6333 59.9953 68.3139 60.3131 67.9496 60.5719C67.562 60.8416 67.1363 61.0506 66.6868 61.1919C66.1958 61.3481 65.6835 61.4257 65.1687 61.4218C64.4701 61.4343 63.7767 61.2991 63.133 61.0247C62.555 60.7768 62.0335 60.4117 61.6011 59.9519C61.1831 59.4989 60.8551 58.9692 60.635 58.3914C60.4125 57.7899 60.3003 57.1526 60.3038 56.5105C60.3022 55.8845 60.4144 55.2635 60.635 54.6784C60.843 54.1061 61.1568 53.5789 61.5597 53.1249C61.9743 52.6658 62.4766 52.2961 63.0364 52.0381C63.652 51.7579 64.321 51.6176 64.9962 51.6271C65.5908 51.6186 66.1828 51.7081 66.7489 51.8919C67.2299 52.0434 67.6808 52.2792 68.0807 52.5885C68.4525 52.8765 68.7664 53.2335 69.0054 53.6404C69.2354 54.0534 69.4007 54.4999 69.4954 54.964H68.55C68.4679 54.6121 68.3305 54.2757 68.1429 53.9678C67.9597 53.661 67.7264 53.3878 67.4528 53.1597C67.1457 52.9265 66.8031 52.7454 66.4384 52.6233C66.0206 52.4931 65.5852 52.4297 65.148 52.4352C64.5852 52.4244 64.0269 52.5386 63.5126 52.7696C63.0485 52.9811 62.6327 53.287 62.2912 53.6683C61.9597 54.0469 61.7042 54.487 61.539 54.964C61.365 55.451 61.2763 55.9649 61.2768 56.4826C61.2718 57.0179 61.3654 57.5494 61.5528 58.0501C61.7276 58.5394 62.0022 58.9863 62.3588 59.3619C62.7154 59.7375 63.1461 60.0334 63.623 60.2305C64.1641 60.4613 64.747 60.5752 65.3343 60.5649C66.0382 60.5576 66.7254 60.3473 67.3148 59.9588C67.5955 59.7671 67.8447 59.532 68.0531 59.2622C68.2625 59.0047 68.4259 58.7124 68.5362 58.3984L69.4747 58.4541Z" fill="#FF7600"/>
<path d="M71.1377 51.8292H72.0003V61.2198H71.1377V51.8292Z" fill="#FF7600"/>
<path d="M76.7555 61.3661C76.3204 61.3714 75.8886 61.2885 75.4858 61.1222C75.1212 60.9571 74.7927 60.7203 74.5197 60.4256C74.2504 60.1389 74.0373 59.8032 73.8918 59.4364C73.7467 59.0541 73.6742 58.6476 73.6779 58.2382C73.6753 57.8289 73.7478 57.4226 73.8918 57.04C74.0354 56.67 74.2502 56.3323 74.5238 56.0466C74.7974 55.7608 75.1244 55.5326 75.4858 55.375C75.8886 55.2088 76.3204 55.1259 76.7555 55.1312C77.1951 55.1266 77.6312 55.2095 78.039 55.375C78.4121 55.536 78.748 55.7732 79.0258 56.0717C79.2969 56.3557 79.5082 56.6922 79.6469 57.0609C79.793 57.4431 79.8679 57.8494 79.8677 58.2591C79.8692 58.6689 79.7943 59.0754 79.6469 59.4573C79.5052 59.8315 79.2896 60.1727 79.0132 60.4601C78.7368 60.7475 78.4053 60.9752 78.039 61.1292C77.6307 61.2924 77.1946 61.3729 76.7555 61.3661ZM76.7555 60.5649C77.0758 60.5701 77.3935 60.506 77.6871 60.3768C77.9477 60.2573 78.1822 60.0868 78.3772 59.8753C78.5667 59.6705 78.7206 59.435 78.8326 59.1786C78.9383 58.8935 78.992 58.5914 78.9913 58.287C78.9908 57.9826 78.9371 57.6807 78.8326 57.3953C78.7257 57.1236 78.5715 56.8735 78.3772 56.6568C78.1822 56.4453 77.9477 56.2748 77.6871 56.1553C77.3943 56.0311 77.08 55.9672 76.7624 55.9672C76.4449 55.9672 76.1305 56.0311 75.8377 56.1553C75.5777 56.2758 75.3433 56.4461 75.1477 56.6568C74.9576 56.8741 74.8079 57.1243 74.7061 57.3953C74.5983 57.6798 74.5444 57.9823 74.5473 58.287C74.5433 58.5917 74.5971 58.8944 74.7061 59.1786C74.8131 59.4344 74.9625 59.67 75.1477 59.8753C75.3532 60.0994 75.6033 60.2773 75.8815 60.3973C76.1597 60.5174 76.4599 60.5768 76.7624 60.5719L76.7555 60.5649Z" fill="#FF7600"/>
<path d="M86.7751 55.2775V61.2197H85.9125V59.9101C85.7309 60.3506 85.4199 60.7244 85.0213 60.981C84.6228 61.2376 84.1559 61.3647 83.6836 61.3451C83.3236 61.3555 82.9657 61.2866 82.6348 61.1431C82.3631 61.0203 82.1259 60.8312 81.9447 60.5928C81.7627 60.3648 81.6288 60.1016 81.5514 59.8195C81.4597 59.4696 81.4156 59.1086 81.4203 58.7467V55.2635H82.3035V58.5168C82.3004 58.7935 82.3305 59.0695 82.3932 59.3388C82.4481 59.5727 82.549 59.793 82.69 59.9867C82.8302 60.1688 83.0095 60.3165 83.2144 60.4186C83.4596 60.5371 83.7294 60.5945 84.0011 60.5858C84.2822 60.5957 84.5617 60.5376 84.8162 60.4164C85.0706 60.2953 85.2927 60.1145 85.464 59.8892C85.6201 59.678 85.7413 59.4428 85.8228 59.1925C85.8994 58.9253 85.9388 58.6487 85.9401 58.3705V55.3262L86.7751 55.2775Z" fill="#FF7600"/>
<path d="M93.7794 59.9728C93.5849 60.3932 93.2701 60.7451 92.8754 60.9829C92.4612 61.2412 91.9822 61.3742 91.4953 61.3661C91.0692 61.3708 90.6466 61.2878 90.2532 61.1223C89.8876 60.9588 89.5589 60.7218 89.2871 60.4256C89.0219 60.1383 88.8135 59.8026 88.673 59.4364C88.5256 59.0545 88.4507 58.6481 88.4522 58.2382C88.452 57.8285 88.5268 57.4223 88.673 57.04C88.8119 56.673 89.0206 56.337 89.2871 56.0508C89.5585 55.7542 89.8873 55.5171 90.2532 55.3542C90.6466 55.1886 91.0692 55.1057 91.4953 55.1104C91.9811 55.1032 92.4592 55.2335 92.8754 55.4865C93.2733 55.7235 93.589 56.0787 93.7794 56.5036V51.8292H94.642V61.2198H93.7794V59.9728ZM91.5367 60.565C91.857 60.5701 92.1747 60.506 92.4683 60.3769C92.7326 60.2601 92.9709 60.0907 93.1689 59.8789C93.3669 59.667 93.5206 59.417 93.6207 59.1438C93.7264 58.8587 93.7801 58.5566 93.7794 58.2522C93.7789 57.9478 93.7252 57.6459 93.6207 57.3605C93.519 57.0878 93.3668 56.8372 93.1722 56.622C92.9746 56.4135 92.7407 56.2434 92.4821 56.1205C92.1885 55.9913 91.8708 55.9272 91.5505 55.9324C91.2348 55.9279 90.9218 55.992 90.6328 56.1205C90.3708 56.2376 90.1359 56.4084 89.9427 56.622C89.7505 56.839 89.5986 57.0891 89.4942 57.3605C89.3897 57.6459 89.3359 57.9478 89.3355 58.2522C89.3348 58.5566 89.3885 58.8587 89.4942 59.1438C89.6037 59.3999 89.7553 59.6355 89.9427 59.8405C90.1359 60.0541 90.3708 60.2249 90.6328 60.342C90.9149 60.4805 91.2231 60.5565 91.5367 60.565Z" fill="#FF7600"/>
<path d="M99.6311 53.5569C99.6321 53.7602 99.5928 53.9616 99.5155 54.1494C99.4382 54.3371 99.3246 54.5074 99.1812 54.6502C99.0379 54.793 98.8677 54.9054 98.6807 54.9808C98.4937 55.0563 98.2936 55.0932 98.0923 55.0895C97.6915 55.0895 97.3071 54.9288 97.0237 54.6426C96.7403 54.3565 96.5811 53.9685 96.5811 53.5639C96.5811 53.1592 96.7403 52.7712 97.0237 52.4851C97.3071 52.199 97.6915 52.0382 98.0923 52.0382C98.2927 52.0336 98.492 52.0695 98.6786 52.1437C98.8651 52.2179 99.035 52.3291 99.1784 52.4705C99.3217 52.612 99.4356 52.781 99.5134 52.9676C99.5911 53.1541 99.6312 53.3545 99.6311 53.5569ZM96.9261 53.5569C96.9214 53.715 96.9484 53.8724 97.0054 54.0198C97.0623 54.1671 97.1481 54.3014 97.2576 54.4145C97.3671 54.5276 97.4981 54.6173 97.6426 54.6783C97.7872 54.7392 97.9425 54.77 98.0992 54.769C98.4176 54.769 98.723 54.6413 98.9482 54.414C99.1734 54.1867 99.2999 53.8784 99.2999 53.5569C99.2999 53.2354 99.1734 52.9271 98.9482 52.6998C98.723 52.4725 98.4176 52.3448 98.0992 52.3448C97.9425 52.3438 97.7872 52.3746 97.6426 52.4355C97.4981 52.4965 97.3671 52.5862 97.2576 52.6993C97.1481 52.8124 97.0623 52.9467 97.0054 53.094C96.9484 53.2414 96.9214 53.3988 96.9261 53.5569ZM97.8508 54.3371H97.5057V52.8185C97.6946 52.7834 97.8864 52.767 98.0785 52.7697C98.2602 52.7562 98.442 52.7948 98.6029 52.8812C98.6498 52.9228 98.687 52.9744 98.7121 53.0321C98.7371 53.0899 98.7493 53.1525 98.7478 53.2155C98.7419 53.301 98.7082 53.382 98.6521 53.4462C98.596 53.5104 98.5205 53.5542 98.4373 53.5708C98.5115 53.6023 98.5762 53.653 98.6247 53.7178C98.6731 53.7827 98.7037 53.8594 98.7133 53.94C98.73 54.0728 98.7672 54.2021 98.8237 54.3232H98.4442C98.3906 54.2053 98.3512 54.0814 98.3269 53.954C98.3269 53.7868 98.2096 53.7102 98.0164 53.7102H97.8508V54.3371ZM97.8508 53.4733H98.0164C98.2096 53.4733 98.3683 53.4106 98.3683 53.2504C98.3683 53.0902 98.2648 53.0205 98.044 53.0205C97.9797 53.0143 97.915 53.0143 97.8508 53.0205V53.4733Z" fill="#FF7600"/>
</svg>
