<svg width="147" height="48" viewBox="0 0 147 48" fill="none" xmlns="http://www.w3.org/2000/svg">
<path d="M16.9226 41.127C17.1655 41.2569 17.4004 41.4009 17.626 41.5583C17.626 41.4122 17.6963 41.2731 17.7245 41.127H16.9226ZM5.7816 35.214C6.22504 34.7376 6.76084 34.3544 7.3571 34.087C8.02034 33.7931 8.74045 33.6459 9.46715 33.6557C10.0102 33.6517 10.5501 33.7388 11.0637 33.9131C11.844 34.1832 12.5167 34.6925 12.9839 35.367C14.1056 34.7757 15.1657 34.0767 16.149 33.28C15.8675 32.9088 15.5469 32.5683 15.1924 32.2644C14.4521 31.6113 13.5928 31.1037 12.6604 30.7687C11.5667 30.3912 10.4143 30.2076 9.25614 30.2261C8.00788 30.2004 6.76837 30.4376 5.61983 30.9218C4.60197 31.3574 3.68392 31.9926 2.92113 32.7889C2.15833 33.5851 1.56661 34.5261 1.18169 35.5548C0.787075 36.5836 0.586817 37.6754 0.590881 38.7757C0.58748 39.8999 0.792497 41.0151 1.19576 42.0661C1.58413 43.0869 2.17749 44.0192 2.94007 44.807C3.74084 45.6136 4.69766 46.2524 5.75346 46.6853C7.9447 47.5441 10.3706 47.618 12.6111 46.894C13.5089 46.5919 14.3466 46.1376 15.0869 45.5514C15.383 45.3152 15.6583 45.0545 15.9098 44.7722C14.9181 43.9735 13.8484 43.2744 12.7166 42.6853C12.5633 42.8433 12.3962 42.9876 12.2172 43.1166C11.8618 43.3765 11.468 43.5806 11.0497 43.7218C10.6178 43.8704 10.1636 43.9457 9.70629 43.9444C8.94952 43.958 8.19794 43.8183 7.49777 43.534C6.88421 43.2749 6.33115 42.8936 5.87303 42.414C5.42253 41.9379 5.07756 41.3739 4.86021 40.7583C4.62641 40.1111 4.50975 39.4282 4.51557 38.7409C4.51413 38.1051 4.61625 37.4733 4.81801 36.8696C5.02553 36.2602 5.35303 35.6975 5.7816 35.214Z" fill="#0B38DB"/>
<path d="M28.9074 35.36V46.6087H25.3203V45.0226C25.1732 45.2962 24.9833 45.5451 24.7577 45.76C24.5123 45.9888 24.2381 46.1852 23.9418 46.3444C23.6233 46.5098 23.2887 46.6426 22.943 46.7409C22.5881 46.8394 22.2215 46.8909 21.8528 46.8939C21.0779 46.9026 20.3103 46.746 19.6021 46.4348C18.936 46.1463 18.3373 45.7248 17.8437 45.1965C17.3434 44.6567 16.9582 44.0226 16.7113 43.3322C16.1769 41.814 16.1769 40.1617 16.7113 38.6435C16.9603 37.952 17.3452 37.316 17.8437 36.7722C18.3376 36.246 18.9363 35.8268 19.6021 35.5409C20.3103 35.2297 21.0779 35.0731 21.8528 35.0818C22.2217 35.0814 22.5888 35.1329 22.943 35.2348C23.2913 35.3316 23.6266 35.4694 23.9418 35.6452C24.242 35.8067 24.5169 36.0106 24.7577 36.2505C24.9761 36.4562 25.1654 36.6902 25.3203 36.9461V35.36H28.9074ZM22.5773 43.8609C22.9585 43.8641 23.3358 43.7833 23.6815 43.6244C24.0037 43.4754 24.2929 43.265 24.5326 43.0052C24.7765 42.7405 24.9653 42.4308 25.0882 42.0939C25.2218 41.7403 25.2886 41.3654 25.2852 40.9878C25.2892 40.6125 25.2224 40.2398 25.0882 39.8887C24.9603 39.5542 24.772 39.2454 24.5326 38.9774C24.2951 38.7134 24.0055 38.5004 23.6815 38.3513C23.3335 38.1955 22.9558 38.1149 22.5738 38.1149C22.1917 38.1149 21.814 38.1955 21.466 38.3513C21.1421 38.5004 20.8524 38.7134 20.6149 38.9774C20.3779 39.2472 20.1899 39.5555 20.0593 39.8887C19.9251 40.2398 19.8583 40.6125 19.8623 40.9878C19.8589 41.3654 19.9257 41.7403 20.0593 42.0939C20.1849 42.4296 20.3734 42.7387 20.6149 43.0052C20.8546 43.265 21.1439 43.4754 21.466 43.6244C21.8161 43.7851 22.1983 43.866 22.5843 43.8609H22.5773Z" fill="#0B38DB"/>
<path d="M31.9746 30.2748H35.5828V46.6087H31.9746V30.2748Z" fill="#0B38DB"/>
<path d="M38.1287 31.6314C38.1228 31.3321 38.1783 31.0348 38.292 30.7573C38.4056 30.4799 38.575 30.2282 38.7899 30.0174C39.0064 29.8037 39.2645 29.6355 39.5486 29.5231C39.8327 29.4107 40.1369 29.3564 40.4427 29.3635C40.7583 29.3627 41.0711 29.4218 41.3641 29.5374C41.6394 29.6525 41.8918 29.8151 42.1097 30.0174C42.3184 30.2151 42.4857 30.4515 42.602 30.7131C42.7209 30.9951 42.7807 31.298 42.7779 31.6035C42.7808 31.9023 42.7209 32.1984 42.602 32.4731C42.4841 32.7338 42.317 32.9699 42.1097 33.1687C41.8938 33.3901 41.6348 33.5659 41.3483 33.6855C41.0618 33.8051 40.7537 33.8659 40.4427 33.8644C40.1359 33.8658 39.8321 33.8048 39.5502 33.6851C39.2683 33.5654 39.0143 33.3897 38.8039 33.1687C38.584 32.9639 38.4083 32.7172 38.2874 32.4434C38.1665 32.1696 38.103 31.8745 38.1006 31.5757L38.1287 31.6314ZM38.6844 35.3601H42.2925V46.6088H38.6844V35.3601Z" fill="#0B38DB"/>
<path d="M55.8949 46.6087H51.724L49.8601 43.3461L47.9963 46.6087H43.8184L47.736 40.9391L43.8887 35.3739H48.0666L49.8601 38.553L51.6466 35.3739H55.8245L52.0053 40.9391L55.8949 46.6087Z" fill="#0B38DB"/>
<path d="M75.364 42.5809C75.1376 43.3306 74.7832 44.0364 74.3161 44.6679C73.8415 45.317 73.2588 45.8815 72.5929 46.3374C71.891 46.817 71.1205 47.1898 70.307 47.4435C69.4196 47.7191 68.494 47.8553 67.5639 47.847C66.2951 47.8732 65.0349 47.6362 63.8643 47.1514C62.8191 46.7126 61.8778 46.0635 61.1001 45.2453C60.336 44.4428 59.7428 43.4965 59.3558 42.4627C58.5585 40.3375 58.5585 38 59.3558 35.8748C59.7347 34.8512 60.305 33.9073 61.0368 33.0922C61.8237 32.2371 62.7859 31.5577 63.8593 31.0994C64.9327 30.6412 66.0925 30.4146 67.2615 30.4348C68.3398 30.417 69.4138 30.5744 70.4406 30.9009C71.3134 31.177 72.1301 31.6032 72.8531 32.1601C73.5118 32.6943 74.061 33.3484 74.4708 34.087C74.8919 34.8194 75.1933 35.6129 75.364 36.4383H73.6549C73.4977 35.8134 73.2464 35.2154 72.9094 34.6644C72.5662 34.1295 72.1305 33.6586 71.6222 33.2731C71.07 32.8538 70.4491 32.5314 69.7865 32.3201C69.0298 32.0801 68.2389 31.9627 67.4443 31.9722C66.4249 31.9546 65.414 32.1588 64.4832 32.5705C63.6447 32.9467 62.8931 33.4889 62.2747 34.1635C61.6727 34.8371 61.207 35.6188 60.9032 36.4661C60.5933 37.3329 60.4363 38.2459 60.439 39.1653C60.4326 40.1145 60.5994 41.0572 60.9313 41.9479C61.2477 42.8129 61.7425 43.6034 62.3842 44.2693C63.0259 44.9351 63.8006 45.4617 64.6591 45.8157C65.6392 46.2184 66.6926 46.4173 67.7538 46.4001C69.0341 46.3977 70.2858 46.0253 71.355 45.3288C71.8563 44.9983 72.3064 44.5976 72.6913 44.1392C73.0731 43.6891 73.3665 43.1724 73.5564 42.6157L75.364 42.5809Z" fill="#FF7600"/>
<path d="M78.374 30.8174H79.9355V47.513H78.374V30.8174Z" fill="#FF7600"/>
<path d="M88.5592 47.7495C87.7698 47.7594 86.9867 47.6078 86.2593 47.3043C85.6019 47.0261 85.0075 46.6205 84.511 46.1116C84.0146 45.6026 83.6261 45.0006 83.3685 44.3408C83.1092 43.6749 82.9757 42.9675 82.9746 42.2539C82.9727 41.5264 83.1062 40.8048 83.3685 40.1252C83.6222 39.469 84.0073 38.8704 84.5009 38.3652C85.0033 37.8577 85.6005 37.4514 86.2593 37.1687C86.9873 36.8676 87.7703 36.7184 88.5592 36.7304C89.3549 36.7198 90.1445 36.8689 90.8803 37.1687C91.5504 37.4458 92.1578 37.8526 92.6668 38.3652C93.1581 38.8707 93.5409 39.4694 93.7922 40.1252C94.0602 40.8034 94.1962 41.5257 94.1931 42.2539C94.1929 42.9682 94.0569 43.6762 93.7922 44.3408C93.5375 44.9949 93.1551 45.593 92.6668 46.1008C92.1619 46.62 91.5536 47.0298 90.8803 47.3043C90.145 47.6064 89.3554 47.7579 88.5592 47.7495ZM88.5592 46.3165C89.1119 46.3286 89.661 46.2258 90.1711 46.0149C90.6811 45.804 91.1408 45.4897 91.5203 45.0921C91.8749 44.7148 92.1519 44.273 92.3362 43.7913C92.5338 43.2905 92.6317 42.7566 92.6246 42.2191C92.6297 41.6795 92.5319 41.1437 92.3362 40.64C92.1539 40.1531 91.8767 39.7064 91.5203 39.3252C91.1408 38.9277 90.6811 38.6133 90.1711 38.4024C89.661 38.1915 89.1119 38.0888 88.5592 38.1008C87.988 38.0922 87.4217 38.2061 86.8993 38.4348C86.4208 38.6438 85.9901 38.9468 85.6333 39.3252C85.2836 39.7101 85.0093 40.1559 84.8244 40.64C84.6323 41.1447 84.5345 41.6798 84.5361 42.2191C84.5332 42.7563 84.6309 43.2893 84.8244 43.7913C85.0109 44.2704 85.2851 44.7114 85.6333 45.0921C85.9901 45.4706 86.4208 45.7735 86.8993 45.9826C87.4217 46.2112 87.988 46.3251 88.5592 46.3165Z" fill="#FF7600"/>
<path d="M106.712 36.9321V47.4852H105.151V45.2173C104.832 45.9467 104.313 46.5732 103.653 47.026C102.905 47.5401 102.009 47.8012 101.099 47.7704C100.452 47.7823 99.81 47.659 99.2144 47.4087C98.7035 47.1929 98.2524 46.8589 97.8992 46.4347C97.5724 46.0226 97.3332 45.5493 97.1958 45.0434C97.0309 44.4216 96.9551 43.78 96.9708 43.1373V36.946H98.5603V42.6852C98.5538 43.1745 98.6081 43.6628 98.7221 44.1391C98.8223 44.5574 99.0091 44.9506 99.2707 45.2939C99.5197 45.6231 99.8455 45.888 100.22 46.066C100.66 46.271 101.141 46.3711 101.627 46.3582C102.166 46.3691 102.7 46.2497 103.181 46.0104C103.609 45.7885 103.982 45.4747 104.272 45.0921C104.563 44.7039 104.785 44.2684 104.926 43.8052C105.068 43.3333 105.142 42.8437 105.144 42.3513V36.9321H106.712Z" fill="#FF7600"/>
<path d="M119.4 45.273C119.045 46.0182 118.475 46.6426 117.761 47.0678C117.011 47.5306 116.142 47.7719 115.257 47.7635C114.484 47.7696 113.718 47.618 113.007 47.3183C112.347 47.0414 111.753 46.6315 111.262 46.1148C110.779 45.6048 110.399 45.0072 110.144 44.3548C109.879 43.6901 109.743 42.9822 109.743 42.2678C109.74 41.5396 109.876 40.8174 110.144 40.1391C110.395 39.4809 110.778 38.8797 111.27 38.3716C111.762 37.8635 112.353 37.4591 113.007 37.1826C113.719 36.8852 114.485 36.736 115.257 36.7444C116.142 36.739 117.009 36.9801 117.761 37.44C118.481 37.8642 119.052 38.4951 119.4 39.2487V30.9009H120.976V47.5965H119.407L119.4 45.273ZM115.335 46.3165C115.913 46.3258 116.486 46.2119 117.016 45.9826C117.497 45.7701 117.931 45.4678 118.296 45.0922C118.65 44.7149 118.928 44.2731 119.112 43.7913C119.305 43.2894 119.403 42.7563 119.4 42.2191C119.402 41.6798 119.304 41.1447 119.112 40.64C118.93 40.1531 118.652 39.7064 118.296 39.3252C117.931 38.9496 117.497 38.6473 117.016 38.4348C116.486 38.2144 115.917 38.1009 115.342 38.1009C114.767 38.1009 114.198 38.2144 113.668 38.4348C113.192 38.6457 112.764 38.9484 112.409 39.3252C112.055 39.7068 111.78 40.1535 111.6 40.64C111.408 41.1447 111.31 41.6798 111.312 42.2191C111.309 42.7563 111.407 43.2894 111.6 43.7913C111.782 44.2727 112.056 44.7146 112.409 45.0922C112.764 45.469 113.192 45.7717 113.668 45.9826C114.197 46.2125 114.771 46.3264 115.349 46.3165H115.335Z" fill="#FF7600"/>
<path d="M130 33.8782C130.019 34.4321 129.869 34.9787 129.571 35.448C129.273 35.9174 128.841 36.2881 128.328 36.5126C127.816 36.7371 127.248 36.8053 126.696 36.7084C126.145 36.6114 125.635 36.3538 125.232 35.9685C124.829 35.5832 124.552 35.0878 124.436 34.5457C124.32 34.0036 124.37 33.4395 124.58 32.9258C124.79 32.412 125.15 31.972 125.615 31.662C126.079 31.3521 126.627 31.1864 127.187 31.1861C127.551 31.1768 127.914 31.2395 128.253 31.3704C128.593 31.5012 128.903 31.6977 129.165 31.9484C129.427 32.199 129.635 32.4988 129.779 32.8301C129.922 33.1615 129.998 33.5178 130 33.8782ZM125.077 33.8782C125.089 34.2881 125.224 34.6853 125.463 35.0201C125.702 35.355 126.036 35.6127 126.422 35.7611C126.809 35.9095 127.231 35.942 127.636 35.8546C128.041 35.7671 128.411 35.5636 128.7 35.2694C128.989 34.9752 129.183 34.6033 129.26 34.2003C129.336 33.7973 129.291 33.3809 129.13 33.0032C128.968 32.6255 128.698 32.3032 128.352 32.0765C128.007 31.8498 127.602 31.7289 127.187 31.7287C126.906 31.7313 126.629 31.7894 126.371 31.8994C126.113 32.0094 125.88 32.1692 125.686 32.3693C125.491 32.5695 125.339 32.8061 125.238 33.0652C125.137 33.3243 125.09 33.6007 125.098 33.8782H125.077ZM126.758 35.2695H126.125V32.5982C126.471 32.5376 126.822 32.5096 127.173 32.5148C127.499 32.4894 127.826 32.557 128.115 32.7095C128.202 32.7815 128.272 32.8722 128.318 32.9746C128.364 33.0771 128.386 33.1887 128.383 33.3009C128.37 33.4515 128.309 33.5941 128.207 33.7071C128.106 33.82 127.97 33.8972 127.82 33.9269C127.956 33.98 128.074 34.0691 128.163 34.1844C128.251 34.2998 128.305 34.437 128.319 34.5809C128.342 34.8226 128.409 35.0582 128.516 35.2765H127.813C127.703 35.0575 127.63 34.8227 127.595 34.5809C127.546 34.2887 127.384 34.1565 127.032 34.1565H126.737L126.758 35.2695ZM126.758 33.7391H127.06C127.405 33.7391 127.686 33.6278 127.686 33.3496C127.686 33.0713 127.503 32.9391 127.11 32.9391C126.993 32.9279 126.875 32.9279 126.758 32.9391V33.7391Z" fill="#FF7600"/>
<path d="M132.539 18.4487C131.088 18.4478 129.644 18.6611 128.256 19.0818C127.333 17.1938 126.034 15.5098 124.437 14.1306C122.839 12.7515 120.977 11.7057 118.961 11.056C116.945 10.4063 114.817 10.1662 112.705 10.3499C110.593 10.5336 108.54 11.1375 106.67 12.1253C105.484 8.50278 103.071 5.39585 99.8378 3.32877C96.6047 1.26168 92.7496 0.360997 88.923 0.778701C85.0965 1.19641 81.5327 2.90693 78.8332 5.62161C76.1337 8.3363 74.4637 11.8889 74.105 15.68H73.7533C70.9137 15.6818 68.1364 16.5037 65.7624 18.0447C63.3885 19.5858 61.5211 21.7789 60.3896 24.3548H62.7459C63.8015 22.3731 65.3836 20.7137 67.322 19.5553C69.2604 18.3969 71.4815 17.7834 73.7463 17.7809C74.162 17.7803 74.5776 17.8013 74.9912 17.8435L76.1306 17.9548V16.8209C76.2011 13.291 77.5771 9.90909 79.9983 7.31485C82.4196 4.72061 85.7181 3.09398 89.27 2.74268C92.822 2.39138 96.3809 3.33976 99.2736 5.40842C102.166 7.47708 104.192 10.5226 104.968 13.9687L105.306 15.4435L106.586 14.6087C108.269 13.5172 110.176 12.8082 112.17 12.5326C114.163 12.2571 116.194 12.422 118.115 13.0153C120.037 13.6087 121.802 14.6158 123.282 15.9642C124.763 17.3127 125.924 18.969 126.68 20.8139L127.074 21.774L128.045 21.3983C129.749 20.7466 131.578 20.4742 133.401 20.6006C135.224 20.727 136.997 21.249 138.593 22.1296C140.189 23.0102 141.569 24.2277 142.635 25.6956C143.702 27.1634 144.428 28.8456 144.763 30.6226C145.098 32.3995 145.033 34.2276 144.572 35.9768C144.112 37.726 143.267 39.3534 142.099 40.7434C140.931 42.1334 139.467 43.2517 137.813 44.019C136.158 44.7862 134.353 45.1835 132.525 45.1826V47.2696C136.332 47.1868 139.955 45.633 142.618 42.9408C145.28 40.2487 146.771 36.6323 146.771 32.8661C146.771 29.1 145.28 25.4836 142.618 22.7914C139.955 20.0992 136.332 18.5454 132.525 18.4626L132.539 18.4487Z" fill="#FF7600"/>
</svg>
