<svg width="114" height="63" viewBox="0 0 114 63" fill="none" xmlns="http://www.w3.org/2000/svg">
<g clip-path="url(#clip0_6284_10391)">
<path d="M99.6536 45.826V43.7672C106.189 43.7672 111.507 38.3634 111.507 31.7192C111.507 25.075 106.189 19.6745 99.6536 19.6745C98.1835 19.6745 96.7485 19.9441 95.3903 20.4799L94.4603 20.8436L94.0864 19.9051C92.0921 14.9008 87.3718 11.6664 82.0571 11.6664C79.5132 11.6664 77.0523 12.4133 74.9367 13.8292L73.719 14.6443L73.3931 13.1992C71.9357 6.74654 66.3589 2.24237 59.8362 2.24237C52.2396 2.24237 46.1322 8.28257 45.9309 15.9952L45.9021 17.1058L44.8155 16.9922C44.432 16.9532 44.0453 16.9337 43.6331 16.9337C37.1007 16.9337 31.7859 22.3342 31.7859 28.9719H29.7598C29.7598 21.1976 35.9821 14.8748 43.6331 14.8748C43.7449 14.8748 43.8568 14.8748 43.9686 14.8781C44.3138 11.0494 45.9756 7.4967 48.7113 4.7851C51.7058 1.81696 55.656 0.183502 59.8362 0.183502C66.8479 0.183502 72.9041 4.72989 75.0038 11.3969C77.1674 10.2213 79.5803 9.60752 82.0571 9.60752C87.8768 9.60752 93.0829 12.9621 95.5724 18.2359C96.8891 17.8235 98.257 17.6157 99.6536 17.6157C107.308 17.6157 113.533 23.9416 113.533 31.7192C113.533 39.4968 107.308 45.826 99.6536 45.826Z" fill="#FF7600"/>
<path d="M31.5974 58.9326C31.7284 59.0073 31.8562 59.0917 31.9809 59.1794C32 59.0982 32.0192 59.017 32.0352 58.9326H31.5974ZM25.3239 55.5098C25.5636 55.2338 25.8576 55.0162 26.2091 54.8473C26.5575 54.6817 26.9602 54.5973 27.4108 54.5973C27.7399 54.5973 28.0372 54.646 28.3088 54.7467C28.5805 54.8473 28.8138 54.9837 29.0119 55.1591C29.1557 55.2857 29.2836 55.4286 29.389 55.5877C30.025 55.237 30.6194 54.8311 31.1723 54.3635C31.0125 54.1524 30.8336 53.9543 30.6322 53.7757C30.2391 53.425 29.7597 53.1457 29.1973 52.9378C28.6348 52.73 27.9956 52.6261 27.2765 52.6261C26.5159 52.6261 25.832 52.7625 25.2312 53.0385C24.6272 53.3146 24.1158 53.6815 23.6972 54.1394C23.2753 54.5973 22.9557 55.1266 22.7352 55.7209C22.5147 56.3152 22.4028 56.9354 22.4028 57.5849C22.4028 58.2344 22.5147 58.8871 22.7416 59.4879C22.9685 60.0919 23.2945 60.6212 23.7259 61.0759C24.1542 61.5305 24.6783 61.8942 25.2951 62.1638C25.9119 62.4333 26.6118 62.5697 27.4012 62.5697C28.0404 62.5697 28.6252 62.4755 29.1557 62.2872C29.6862 62.0988 30.1528 61.839 30.5523 61.511C30.7217 61.3714 30.8751 61.2188 31.0189 61.0597C30.4596 60.605 29.862 60.2088 29.2196 59.8711C29.1333 59.962 29.0407 60.0432 28.9384 60.1179C28.7403 60.2673 28.5197 60.3842 28.28 60.4686C28.0404 60.5531 27.7879 60.5953 27.5226 60.5953C27.0528 60.5953 26.6374 60.5173 26.2794 60.3582C25.9215 60.2023 25.6147 59.9848 25.3622 59.7087C25.1097 59.4327 24.918 59.1144 24.7902 58.7507C24.6623 58.387 24.5984 57.9973 24.5984 57.5817C24.5984 57.1952 24.6591 56.8218 24.7838 56.4613C24.9084 56.1008 25.0906 55.7826 25.3303 55.5098H25.3239Z" fill="#0B38DB"/>
<path d="M38.3439 55.5975V62.1053H36.3113V61.1863C36.2314 61.3389 36.1259 61.4818 35.9917 61.6117C35.8575 61.7416 35.7073 61.8553 35.5347 61.9494C35.3621 62.0436 35.1735 62.1216 34.969 62.18C34.7645 62.2385 34.5599 62.2677 34.3586 62.2677C33.8984 62.2677 33.4733 62.18 33.0898 62.0047C32.7031 61.8293 32.374 61.5922 32.0991 61.2902C31.8243 60.9882 31.6133 60.6278 31.4599 60.2088C31.3097 59.7899 31.233 59.3385 31.233 58.8514C31.233 58.3643 31.3097 57.9129 31.4599 57.494C31.6101 57.0751 31.8243 56.7146 32.0991 56.4126C32.374 56.1106 32.7031 55.8735 33.0898 55.6982C33.4765 55.5228 33.8984 55.4351 34.3586 55.4351C34.5631 55.4351 34.7645 55.4643 34.969 55.5228C35.1735 55.5813 35.3621 55.6592 35.5347 55.7599C35.7073 55.8605 35.8607 55.9774 35.9917 56.1106C36.1259 56.247 36.2314 56.3866 36.3113 56.5295V55.5975H38.3439ZM34.7837 60.5141C35.0138 60.5141 35.2215 60.4686 35.4068 60.3777C35.5922 60.2868 35.752 60.1699 35.8862 60.0205C36.0205 59.8711 36.1227 59.6957 36.1994 59.4944C36.2761 59.2931 36.3113 59.0787 36.3113 58.8514C36.3113 58.6241 36.2729 58.4163 36.1994 58.2182C36.1227 58.0201 36.0205 57.8447 35.8862 57.6921C35.752 57.5395 35.5954 57.416 35.4068 57.3284C35.2215 57.2374 35.0138 57.192 34.7837 57.192C34.5535 57.192 34.3458 57.2374 34.1605 57.3284C33.9751 57.4193 33.8153 57.5395 33.6811 57.6921C33.5468 57.8447 33.4446 58.0201 33.3679 58.2182C33.2912 58.4163 33.256 58.6273 33.256 58.8514C33.256 59.0755 33.2944 59.2898 33.3679 59.4944C33.4446 59.6957 33.5468 59.8711 33.6811 60.0205C33.8153 60.1699 33.9719 60.29 34.1605 60.3777C34.3458 60.4686 34.5535 60.5141 34.7837 60.5141Z" fill="#0B38DB"/>
<path d="M40.0729 52.6553H42.1055V62.1086H40.0729V52.6553Z" fill="#0B38DB"/>
<path d="M43.5404 53.438C43.5404 53.0677 43.665 52.7592 43.9111 52.5059C44.1572 52.2526 44.4704 52.1292 44.8411 52.1292C45.0265 52.1292 45.1991 52.1617 45.3589 52.2299C45.5187 52.2981 45.6593 52.389 45.7775 52.5059C45.8958 52.6229 45.9916 52.7625 46.0556 52.9249C46.1227 53.0872 46.1546 53.2593 46.1546 53.438C46.1546 53.6166 46.1227 53.7854 46.0556 53.9446C45.9884 54.1037 45.8958 54.2401 45.7775 54.3635C45.6593 54.4836 45.5187 54.581 45.3589 54.646C45.1991 54.7142 45.0265 54.7467 44.8411 54.7467C44.6558 54.7467 44.4832 54.7142 44.3298 54.646C44.1732 54.5778 44.039 54.4836 43.9175 54.3635C43.7993 54.2433 43.7034 54.1037 43.6395 53.9446C43.5724 53.7887 43.5404 53.6198 43.5404 53.438ZM43.8312 55.5975H45.8638V62.1053H43.8312V55.5975Z" fill="#0B38DB"/>
<path d="M53.5499 62.1053H51.1977L50.1463 60.2153L49.0948 62.1053H46.7427L48.9478 58.8254L46.781 55.5975H49.1332L50.1431 57.4355L51.153 55.5975H53.5052L51.3511 58.8254L53.5435 62.1053H53.5499Z" fill="#0B38DB"/>
<path d="M64.5117 59.7737C64.3839 60.2056 64.1889 60.6083 63.9205 60.9785C63.6552 61.3519 63.3292 61.6734 62.9521 61.9429C62.5718 62.2125 62.1436 62.4268 61.6642 62.5827C61.1848 62.7386 60.6703 62.8165 60.1174 62.8165C59.3408 62.8165 58.6473 62.6801 58.0369 62.4106C57.4264 62.141 56.9055 61.7708 56.4773 61.3097C56.049 60.8453 55.7198 60.3095 55.4929 59.7055C55.266 59.0982 55.1542 58.4552 55.1542 57.7765C55.1542 57.0978 55.266 56.497 55.4865 55.8962C55.7071 55.2955 56.0235 54.7629 56.4357 54.2985C56.848 53.8341 57.3497 53.4639 57.941 53.1814C58.5322 52.9021 59.2001 52.7625 59.9416 52.7625C60.6095 52.7625 61.2072 52.8534 61.7313 53.032C62.2554 53.2106 62.7092 53.4542 63.0863 53.7627C63.4667 54.0712 63.7734 54.4349 64.0099 54.8571C64.2464 55.2792 64.4126 55.7339 64.5117 56.221H63.5497C63.4603 55.854 63.3196 55.5098 63.1279 55.1948C62.9393 54.8766 62.6964 54.6038 62.4024 54.3667C62.1084 54.1329 61.7664 53.9478 61.3701 53.8146C60.9771 53.6815 60.536 53.6166 60.0471 53.6166C59.4239 53.6166 58.8678 53.7302 58.3788 53.9608C57.8898 54.1913 57.4776 54.4966 57.1388 54.883C56.8 55.2695 56.5412 55.7111 56.3654 56.2112C56.1896 56.7113 56.1002 57.2342 56.1002 57.7765C56.1002 58.3448 56.1928 58.8839 56.3782 59.3872C56.5636 59.8938 56.832 60.3355 57.1836 60.7154C57.5351 61.0954 57.9665 61.4006 58.4779 61.6247C58.9892 61.8488 59.5709 61.9624 60.2196 61.9624C60.5904 61.9624 60.9483 61.9072 61.2966 61.7968C61.645 61.6864 61.9614 61.5338 62.2458 61.3422C62.5303 61.1506 62.7827 60.92 62.9969 60.6537C63.2142 60.3874 63.3772 60.0919 63.4858 59.7704H64.5021L64.5117 59.7737Z" fill="#FF7600"/>
<path d="M66.2087 52.9671H67.0908V62.6119H66.2087V52.9671Z" fill="#FF7600"/>
<path d="M71.9453 62.7645C71.4659 62.7645 71.0345 62.6801 70.651 62.5112C70.2674 62.3424 69.9351 62.1086 69.6602 61.8163C69.3854 61.5208 69.1713 61.183 69.0243 60.7966C68.874 60.4102 68.8005 60.001 68.8005 59.5691C68.8005 59.1372 68.874 58.7247 69.0243 58.3351C69.1745 57.9454 69.3854 57.6044 69.6602 57.3154C69.9351 57.0263 70.2643 56.7958 70.651 56.6269C71.0345 56.458 71.4659 56.3704 71.9453 56.3704C72.4247 56.3704 72.8593 56.4548 73.2524 56.6269C73.6455 56.7958 73.9811 57.0263 74.2559 57.3154C74.5307 57.6044 74.7449 57.9454 74.8919 58.3351C75.0421 58.7247 75.1156 59.1372 75.1156 59.5691C75.1156 60.001 75.0421 60.4102 74.8919 60.7966C74.7417 61.183 74.5307 61.524 74.2559 61.8163C73.9811 62.1118 73.6455 62.3424 73.2524 62.5112C72.8593 62.6801 72.4215 62.7645 71.9453 62.7645ZM71.9453 61.9364C72.2968 61.9364 72.6132 61.8715 72.8945 61.7448C73.1757 61.6149 73.4154 61.4428 73.6135 61.2285C73.8117 61.0142 73.9651 60.7609 74.0737 60.4783C74.1824 60.1926 74.2367 59.8906 74.2367 59.5691C74.2367 59.2476 74.1824 58.9423 74.0737 58.6533C73.9651 58.3643 73.8117 58.111 73.6135 57.8966C73.4154 57.6823 73.1757 57.5102 72.8945 57.3803C72.6132 57.2504 72.2968 57.1887 71.9453 57.1887C71.5937 57.1887 71.2901 57.2537 71.0089 57.3803C70.7277 57.5102 70.4912 57.6823 70.2962 57.8966C70.1013 58.111 69.9511 58.3643 69.8424 58.6533C69.7337 58.9423 69.6794 59.2476 69.6794 59.5691C69.6794 59.8906 69.7337 60.1926 69.8424 60.4783C69.9511 60.7641 70.1013 61.0142 70.2962 61.2285C70.4912 61.4428 70.7277 61.6182 71.0089 61.7448C71.2901 61.8747 71.6001 61.9364 71.9453 61.9364Z" fill="#FF7600"/>
<path d="M82.1689 56.5068V62.6119H81.2868V61.2902C81.1142 61.7026 80.833 62.0534 80.4463 62.3359C80.0564 62.6217 79.577 62.7646 79.0081 62.7646C78.6023 62.7646 78.2475 62.6964 77.9439 62.5567C77.6403 62.4203 77.3942 62.232 77.2057 61.9917C77.0235 61.7611 76.8925 61.4948 76.8062 61.1928C76.7199 60.8908 76.6783 60.5238 76.6783 60.0887V56.5068H77.5732V59.8289C77.5732 60.1309 77.6051 60.4134 77.6691 60.67C77.733 60.9265 77.8352 61.1506 77.9727 61.3389C78.1133 61.5273 78.2923 61.6767 78.5096 61.7871C78.7269 61.8975 78.9922 61.9527 79.3085 61.9527C79.6441 61.9527 79.9349 61.8845 80.1842 61.7514C80.4335 61.6182 80.638 61.4429 80.801 61.222C80.964 61.0012 81.0855 60.7544 81.1685 60.4784C81.2484 60.2023 81.29 59.9231 81.29 59.6373V56.51H82.1721L82.1689 56.5068Z" fill="#FF7600"/>
<path d="M89.3149 61.3292C89.1167 61.7611 88.8099 62.1086 88.3913 62.3683C87.9758 62.6314 87.506 62.7613 86.9819 62.7613C86.5217 62.7613 86.0966 62.6768 85.7131 62.508C85.3296 62.3391 85.0004 62.1053 84.7288 61.813C84.4571 61.5208 84.2462 61.1798 84.0992 60.7933C83.949 60.4069 83.8755 59.9977 83.8755 59.5658C83.8755 59.1339 83.949 58.7215 84.0992 58.3318C84.2494 57.9421 84.4571 57.6011 84.7288 57.3121C85.0004 57.0231 85.3264 56.7925 85.7131 56.6237C86.0966 56.4548 86.5185 56.3671 86.9819 56.3671C87.506 56.3671 87.9758 56.497 88.3913 56.7535C88.8067 57.0101 89.1135 57.3608 89.3149 57.7992V52.9638H90.1969V62.6087H89.3149V61.3259V61.3292ZM87.0234 61.9364C87.375 61.9364 87.6914 61.8715 87.9726 61.7448C88.2538 61.6149 88.4935 61.4428 88.6917 61.2285C88.8898 61.0142 89.0432 60.7609 89.1519 60.4783C89.2605 60.1926 89.3149 59.8906 89.3149 59.5691C89.3149 59.2476 89.2605 58.9423 89.1519 58.6533C89.0432 58.3643 88.8898 58.111 88.6917 57.8966C88.4935 57.6823 88.2538 57.5102 87.9726 57.3803C87.6914 57.2504 87.375 57.1887 87.0234 57.1887C86.6719 57.1887 86.3683 57.2537 86.087 57.3803C85.8058 57.5102 85.5693 57.6823 85.3744 57.8966C85.1794 58.111 85.0292 58.3643 84.9205 58.6533C84.8119 58.9423 84.7576 59.2476 84.7576 59.5691C84.7576 59.8906 84.8119 60.1926 84.9205 60.4783C85.0292 60.7641 85.1794 61.0142 85.3744 61.2285C85.5693 61.4428 85.8058 61.6182 86.087 61.7448C86.3683 61.8747 86.6783 61.9364 87.0234 61.9364Z" fill="#FF7600"/>
<path d="M95.2848 54.7369C95.2848 55.6202 94.6009 56.3152 93.7125 56.3152C92.824 56.3152 92.1305 55.6202 92.1305 54.7369C92.1305 53.8536 92.8336 53.1782 93.7125 53.1782C94.5913 53.1782 95.2848 53.8731 95.2848 54.7369ZM92.5268 54.7369C92.5268 55.4319 93.0317 55.9807 93.7252 55.9807C94.4187 55.9807 94.8949 55.4286 94.8949 54.7467C94.8949 54.0647 94.3996 53.4932 93.7157 53.4932C93.0317 53.4932 92.5268 54.055 92.5268 54.7369ZM93.4728 55.5553H93.118V53.9965C93.2586 53.9673 93.4536 53.9478 93.7061 53.9478C93.9969 53.9478 94.1279 53.9965 94.2398 54.0615C94.3229 54.1264 94.39 54.2531 94.39 54.4024C94.39 54.5746 94.259 54.7077 94.0736 54.7629V54.7824C94.2238 54.8408 94.3069 54.9545 94.3548 55.1623C94.4028 55.3994 94.4283 55.4936 94.4667 55.552H94.0832C94.0352 55.4936 94.0097 55.3539 93.9617 55.1721C93.933 55 93.8403 54.9253 93.6453 54.9253H93.476V55.552L93.4728 55.5553ZM93.4824 54.672H93.6517C93.8467 54.672 94.0065 54.6038 94.0065 54.4447C94.0065 54.3018 93.9042 54.2076 93.6805 54.2076C93.5878 54.2076 93.5207 54.2173 93.4856 54.2271V54.6752L93.4824 54.672Z" fill="#FF7600"/>
<path d="M0.654785 39.4124H4.01685C4.01685 42.1435 5.53808 43.7931 8.082 43.7931C10.3031 43.7931 11.5335 42.741 11.5335 40.851C11.5335 39.2597 10.8017 38.4511 8.49108 37.4899L5.15778 36.1097C2.5851 35.09 1.23963 33.2 1.23963 30.5274C1.23963 27.1046 3.93056 24.7632 7.79118 24.7632C11.8563 24.7632 14.5473 27.3742 14.5473 31.336H11.1852C11.1852 29.0239 9.95798 27.7054 7.67613 27.7054C5.74582 27.7054 4.63365 28.7251 4.63365 30.3163C4.63365 31.7582 5.62757 32.7162 8.02448 33.7066L11.0382 34.9666C13.6109 36.048 14.8988 37.9088 14.8988 40.76C14.8988 44.3614 12.1791 46.7938 8.11396 46.7938C3.37767 46.7938 0.657982 44.1211 0.657982 39.4091L0.654785 39.4124Z" fill="#333333"/>
<path d="M30.2199 40.3736H20.1017C20.188 42.5948 21.5942 43.7964 23.9048 43.7964C25.4836 43.7964 26.42 43.2865 26.9473 42.2052H30.1655C29.7565 44.8161 27.1838 46.6476 23.908 46.6476C19.6096 46.6476 16.9474 43.8256 16.9474 39.2955C16.9474 34.7653 19.6383 31.9433 23.7898 31.9433C27.6791 31.9433 30.3125 34.6452 30.3125 38.5745C30.3125 39.1461 30.2838 39.5942 30.2263 40.3769L30.2199 40.3736ZM27.1774 37.8828C27.1486 35.7201 25.9182 34.5218 23.7258 34.5218C21.5335 34.5218 20.1273 35.9019 20.0985 37.8828H27.1742H27.1774Z" fill="#333333"/>
<path d="M32.9396 46.2839V32.2973H36.1259V34.9991C36.6244 33.0182 38.2607 32.1187 39.7532 32.1187C40.2517 32.1187 40.6608 32.1479 41.0092 32.2388V35.2394C40.5106 35.181 40.2485 35.181 39.7532 35.181C37.5001 35.181 36.1259 36.9216 36.1259 40.1041V46.2872H32.9396V46.2839Z" fill="#333333"/>
<path d="M47.941 46.2839L42.035 32.2973H45.4578L49.2289 41.9031L53.0001 32.2973H56.4229L50.5169 46.2839H47.9442H47.941Z" fill="#333333"/>
<path d="M57.8258 27.858C57.8258 26.5071 58.791 25.4257 60.1939 25.4257C61.5969 25.4257 62.5621 26.5071 62.5621 27.858C62.5621 29.209 61.5969 30.2904 60.1939 30.2904C58.791 30.2904 57.8258 29.209 57.8258 27.858ZM58.6152 46.2872V32.3005H61.7727V46.2872H58.6152Z" fill="#333333"/>
<path d="M64.1121 39.2922C64.1121 34.9407 66.656 31.9401 70.8969 31.9401C74.7 31.9401 77.0681 34.0704 77.359 37.2821H74.1727C73.8211 35.6908 72.8272 34.8498 70.8969 34.8498C68.6438 34.8498 67.2983 36.441 67.2983 39.2922C67.2983 42.1435 68.6438 43.7347 70.8969 43.7347C72.8272 43.7347 73.8211 42.9228 74.1727 41.455H77.359C77.0649 44.5758 74.6968 46.6476 70.8969 46.6476C66.656 46.6476 64.1121 43.647 64.1121 39.2955V39.2922Z" fill="#333333"/>
<path d="M92.8302 40.3736H82.7121C82.7984 42.5948 84.2045 43.7964 86.5152 43.7964C88.0939 43.7964 89.0303 43.2865 89.5576 42.2052H92.7759C92.3668 44.8161 89.7941 46.6476 86.5184 46.6476C82.2199 46.6476 79.5577 43.8256 79.5577 39.2955C79.5577 34.7653 82.2487 31.9433 86.4001 31.9433C90.2895 31.9433 92.9229 34.6452 92.9229 38.5745C92.9229 39.1461 92.8941 39.5942 92.8366 40.3769L92.8302 40.3736ZM89.7877 37.8828C89.759 35.7201 88.5286 34.5218 86.3362 34.5218C84.1438 34.5218 82.7376 35.9019 82.7089 37.8828H89.7845H89.7877Z" fill="#333333"/>
</g>
<defs>
<clipPath id="clip0_6284_10391">
<rect width="113" height="63" fill="white" transform="translate(0.654785)"/>
</clipPath>
</defs>
</svg>
