<svg width="157" height="62" viewBox="0 0 157 62" fill="none" xmlns="http://www.w3.org/2000/svg">
<path d="M0.262695 35.5261C0.262695 29.5586 4.23797 24.5753 10.9279 24.5753C17.6178 24.5753 21.6008 29.5586 21.6008 35.5261C21.6008 41.4936 17.6178 46.5001 10.9279 46.5001C4.23797 46.5001 0.262695 41.4858 0.262695 35.5261ZM18.0509 35.5261C18.0509 31.2016 15.5141 27.6521 10.9433 27.6521C6.37255 27.6521 3.79713 31.2016 3.86673 35.5261C3.93634 39.8506 6.36481 43.4001 10.9279 43.4001C15.4909 43.4001 18.0586 39.8506 18.0354 35.5261H18.0509Z" fill="#333333"/>
<path d="M38.3067 39.0135C38.3067 43.307 35.5379 46.3217 31.5549 46.3217C30.6925 46.3368 29.8394 46.1407 29.0698 45.7504C28.3002 45.3601 27.6373 44.7873 27.1388 44.082V52.2272H23.9756V32.0772H27.162V33.945C27.6951 33.2214 28.3965 32.6391 29.2052 32.2488C30.0139 31.8585 30.9054 31.6719 31.8024 31.7052C35.6848 31.7052 38.3067 34.627 38.3067 39.0135ZM35.0971 39.0135C35.0971 36.4172 33.442 34.596 31.0831 34.596C28.7243 34.596 27.0228 36.3862 27.0228 39.0135C27.0228 41.6407 28.6701 43.4 31.0831 43.4C33.4961 43.4 35.0971 41.6097 35.0971 39.0135Z" fill="#333333"/>
<path d="M53.0084 40.083H42.815C42.9001 42.2917 44.3154 43.4852 46.682 43.4852C48.2752 43.4852 49.2188 42.9815 49.7756 41.9352H53.0239C52.6063 44.5315 50.0154 46.3527 46.713 46.3527C42.3819 46.3527 39.6982 43.5472 39.6982 39.0445C39.6982 34.5417 42.4129 31.7362 46.597 31.7362C47.4726 31.6893 48.3482 31.8276 49.167 32.142C49.9858 32.4565 50.7294 32.9401 51.3495 33.5614C51.9695 34.1827 52.4521 34.9278 52.7659 35.7483C53.0797 36.5688 53.2177 37.4463 53.1708 38.3237C53.1012 38.8662 53.0703 39.308 53.0084 40.083ZM49.9148 37.6107C49.9148 35.464 48.6465 34.2705 46.4345 34.2705C44.2226 34.2705 42.846 35.65 42.815 37.6107H49.9148Z" fill="#333333"/>
<path d="M55.4531 45.9574V32.0617H58.6705V34.7432C58.8638 33.9217 59.3308 33.1907 59.9944 32.6708C60.658 32.151 61.4786 31.8732 62.3209 31.8834C62.7468 31.8728 63.1724 31.9118 63.5893 31.9997V34.9834C63.1681 34.9383 62.7444 34.9202 62.3209 34.9292C60.0549 34.9292 58.6705 36.6574 58.6705 39.8194V45.9574H55.4531Z" fill="#333333"/>
<path d="M63.8828 39.0136C63.8828 34.9293 66.4505 31.7053 70.7197 31.7053C71.5672 31.6824 72.4066 31.8759 73.1589 32.2677C73.9111 32.6596 74.5515 33.2368 75.0198 33.9451V32.0618H78.2062V45.9576H75.0198V44.0821C74.5189 44.785 73.8556 45.356 73.0865 45.746C72.3174 46.1361 71.4655 46.3336 70.6037 46.3218C66.2107 46.3218 63.8828 43.0978 63.8828 39.0136ZM75.1667 39.0136C75.1667 36.6266 73.8442 34.5961 71.1064 34.5961C68.6005 34.5961 67.0924 36.4793 67.0924 39.0136C67.0924 41.5478 68.6392 43.4233 71.1064 43.4233C73.8442 43.4001 75.1667 41.4006 75.1667 39.0136Z" fill="#333333"/>
<path d="M89.4588 43.0978V45.9575C88.6711 46.0839 87.8745 46.1461 87.0767 46.1435C85.5299 46.1435 82.622 45.9343 82.622 41.2455V34.7743H80.3018V32.0618H82.622V27.9H85.847V32.1005H88.9948V34.813H85.847V40.5403C85.847 42.9583 86.5818 43.2528 87.8501 43.2528C88.3893 43.238 88.9267 43.1862 89.4588 43.0978Z" fill="#333333"/>
<path d="M90.8746 27.652C90.8777 27.179 91.0205 26.7175 91.2849 26.3258C91.5493 25.934 91.9236 25.6295 92.3606 25.4506C92.7975 25.2717 93.2775 25.2265 93.7401 25.3206C94.2026 25.4148 94.627 25.6441 94.9597 25.9796C95.2924 26.3151 95.5184 26.7418 95.6094 27.2059C95.7004 27.67 95.6521 28.1508 95.4708 28.5874C95.2895 29.0241 94.9832 29.3972 94.5905 29.6597C94.1979 29.9221 93.7364 30.0622 93.2644 30.0622C92.9467 30.072 92.6303 30.0162 92.3349 29.8983C92.0395 29.7805 91.7714 29.603 91.5473 29.377C91.3232 29.151 91.1479 28.8813 91.0322 28.5845C90.9165 28.2878 90.8628 27.9703 90.8746 27.652ZM91.648 45.9575V32.0617H94.8267V45.9575H91.648Z" fill="#333333"/>
<path d="M97.208 39.0134C97.208 34.9292 99.9226 31.7052 104.455 31.7052C108.987 31.7052 111.709 34.9292 111.709 39.0134C111.709 43.0977 108.995 46.3217 104.455 46.3217C99.9149 46.3217 97.208 43.0977 97.208 39.0134ZM108.5 39.0134C108.5 36.4792 107.053 34.5959 104.455 34.5959C101.856 34.5959 100.418 36.4792 100.418 39.0134C100.418 41.5477 101.864 43.3999 104.455 43.3999C107.046 43.3999 108.5 41.5477 108.5 39.0134Z" fill="#333333"/>
<path d="M114.068 45.9575V32.0617H117.278V33.9992C117.741 33.2386 118.403 32.6197 119.193 32.2098C119.982 31.7999 120.869 31.6147 121.756 31.6742C125.058 31.6742 126.768 33.5497 126.768 37.1922V45.9575H123.558V38.75C123.558 35.7972 122.785 34.5185 120.549 34.5185C118.454 34.5185 117.278 35.9212 117.278 38.3935V45.9575H114.068Z" fill="#333333"/>
<path d="M128.972 41.695H132.189C132.189 42.8885 133.334 43.7255 134.989 43.7255C136.195 43.7255 136.961 43.0668 136.961 42.0825C136.961 41.3075 136.636 40.8348 135.167 40.4473L132.421 39.6723C131.552 39.4723 130.778 38.9773 130.231 38.2711C129.684 37.5649 129.398 36.6909 129.42 35.7973C129.42 33.4723 131.624 31.713 134.695 31.713C138.051 31.713 140.109 33.356 140.109 36.0375H136.953C136.953 34.875 136.071 34.1853 134.563 34.1853C133.419 34.1853 132.591 34.782 132.591 35.619C132.591 36.456 133.032 36.8745 134.3 37.231L137.046 38.006C137.948 38.2043 138.756 38.706 139.334 39.4279C139.912 40.1498 140.227 41.0483 140.225 41.974C140.225 44.6865 138.129 46.2985 134.811 46.2985C131.493 46.2985 128.972 44.3533 128.972 41.695Z" fill="#333333"/>
<path d="M143.024 45.322V43.276C144.774 43.2723 146.502 42.8829 148.085 42.1356C149.668 41.3883 151.067 40.3013 152.184 38.9516C153.301 37.6019 154.109 36.0226 154.549 34.3255C154.989 32.6284 155.051 30.8551 154.731 29.1312C154.411 27.4073 153.717 25.775 152.697 24.3499C151.678 22.9249 150.358 21.742 148.831 20.885C147.304 20.0281 145.608 19.518 143.863 19.391C142.118 19.264 140.366 19.5231 138.732 20.15L137.796 20.5143L137.417 19.5843C136.692 17.791 135.58 16.181 134.159 14.8703C132.739 13.5595 131.046 12.5806 129.203 12.004C127.36 11.4274 125.412 11.2674 123.5 11.5356C121.588 11.8037 119.759 12.4933 118.144 13.5548L116.922 14.3298L116.59 12.896C115.835 9.55373 113.885 6.60395 111.108 4.60344C108.332 2.60293 104.921 1.69009 101.518 2.03721C98.1163 2.38433 94.9586 3.9674 92.6414 6.48761C90.3242 9.00783 89.0078 12.2909 88.9406 15.717V16.8175L87.8501 16.709C86.1889 16.5339 84.5096 16.7111 82.9212 17.2292C81.3329 17.7472 79.8711 18.5944 78.631 19.7157C77.3909 20.8371 76.4002 22.2074 75.7233 23.7376C75.0465 25.2679 74.6986 26.9237 74.7023 28.5975H72.6992C72.7053 24.8961 74.1727 21.3474 76.781 18.7264C79.3893 16.1055 82.9266 14.6252 86.6204 14.6088H86.953C87.3012 10.9272 88.905 7.47839 91.4942 4.8433C94.0835 2.2082 97.4999 0.547867 101.168 0.141981C104.836 -0.263905 108.532 0.609465 111.632 2.61497C114.733 4.62047 117.049 7.63554 118.191 11.1523C119.986 10.1943 121.957 9.60982 123.984 9.43378C126.011 9.25774 128.052 9.49382 129.986 10.1278C131.919 10.7619 133.705 11.7808 135.236 13.1234C136.767 14.4661 138.011 16.1048 138.894 17.9413C140.225 17.5313 141.609 17.3248 143.001 17.329C146.706 17.329 150.258 18.8037 152.878 21.4285C155.497 24.0534 156.969 27.6134 156.969 31.3255C156.969 35.0376 155.497 38.5977 152.878 41.2225C150.258 43.8474 146.706 45.322 143.001 45.322H143.024Z" fill="#FF7600"/>
<path d="M75.8623 58.125C75.9958 58.2004 76.1249 58.2832 76.249 58.373C76.249 58.2878 76.249 58.2103 76.3032 58.125H75.8623ZM69.5514 54.7228C69.7985 54.4451 70.1017 54.2232 70.4408 54.0718C70.8187 53.8976 71.2315 53.8127 71.6473 53.8238C71.9553 53.8184 72.2617 53.8683 72.5522 53.971C72.8141 54.0596 73.0559 54.1992 73.2637 54.3818C73.4077 54.507 73.5351 54.6503 73.6427 54.808C74.2796 54.4631 74.8806 54.0555 75.437 53.5913C75.2771 53.3769 75.0957 53.1795 74.8956 53.0023C74.4756 52.6376 73.9935 52.3514 73.4725 52.1575C72.8504 51.9444 72.1965 51.8396 71.539 51.8475C70.832 51.8365 70.1307 51.9766 69.4818 52.2583C68.8968 52.5122 68.3702 52.8842 67.935 53.351C67.513 53.7996 67.1821 54.326 66.9605 54.901C66.5119 56.1083 66.5119 57.437 66.9605 58.6443C67.1842 59.2219 67.5207 59.7488 67.9505 60.1943C68.3892 60.6531 68.9152 61.0194 69.4973 61.2715C70.1683 61.5511 70.8898 61.6883 71.6164 61.6745C72.2181 61.6808 72.8167 61.5865 73.3875 61.3955C73.894 61.2174 74.3672 60.9554 74.7873 60.6205C74.9537 60.4834 75.1112 60.3358 75.2591 60.1788C74.6954 59.726 74.0893 59.3289 73.4493 58.993C73.3613 59.0838 73.2655 59.1668 73.1632 59.241C72.9623 59.3889 72.7408 59.5064 72.5058 59.5898C72.2573 59.6774 71.9958 59.7219 71.7324 59.7215C71.3028 59.7273 70.8766 59.6456 70.4795 59.4813C70.154 59.3449 69.8574 59.1477 69.6055 58.9C69.3483 58.6274 69.153 58.3022 69.0332 57.9468C68.901 57.5764 68.8355 57.1854 68.8399 56.792C68.8386 56.4122 68.9013 56.0349 69.0255 55.676C69.137 55.3222 69.3155 54.9933 69.5514 54.7073V54.7228Z" fill="#0B38DB"/>
<path d="M82.6527 54.8003V61.225H80.611V60.3183C80.5213 60.4713 80.4121 60.612 80.2861 60.7368C80.1494 60.871 79.9929 60.9834 79.8221 61.07C79.642 61.166 79.4529 61.2439 79.2575 61.3025C79.0558 61.3574 78.8478 61.3861 78.6388 61.3878C78.1994 61.3941 77.7638 61.3042 77.3627 61.1243C76.9867 60.9579 76.6475 60.7182 76.365 60.419C76.0846 60.1041 75.8667 59.7385 75.7231 59.3418C75.4243 58.4703 75.4243 57.5239 75.7231 56.6525C75.8667 56.2558 76.0846 55.8902 76.365 55.5753C76.6475 55.2761 76.9867 55.0364 77.3627 54.87C77.7638 54.6901 78.1994 54.6001 78.6388 54.6065C78.8478 54.6082 79.0558 54.6369 79.2575 54.6918C79.4529 54.7504 79.642 54.8283 79.8221 54.9243C79.9918 55.0189 80.148 55.1362 80.2861 55.273C80.4086 55.4009 80.5175 55.5411 80.611 55.6915V54.7693L82.6527 54.8003ZM79.0719 59.675C79.2878 59.6773 79.5016 59.6323 79.6984 59.5433C79.8798 59.4568 80.0427 59.3357 80.1779 59.1868C80.3168 59.0364 80.4246 58.8599 80.495 58.6675C80.5727 58.4621 80.612 58.244 80.611 58.0243C80.6114 57.8096 80.572 57.5968 80.495 57.3965C80.4231 57.2048 80.3155 57.0286 80.1779 56.8773C80.0417 56.7177 79.8718 56.5904 79.6805 56.5047C79.4893 56.4189 79.2814 56.3767 79.0719 56.3813C78.8536 56.3798 78.6375 56.4247 78.4377 56.513C78.2556 56.6018 78.0927 56.7256 77.9582 56.8773C77.823 57.029 77.718 57.2053 77.6489 57.3965C77.5718 57.5968 77.5325 57.8096 77.5328 58.0243C77.5318 58.244 77.5711 58.4621 77.6489 58.6675C77.717 58.8593 77.8221 59.0357 77.9582 59.1868C78.0956 59.3332 78.258 59.454 78.4377 59.5433C78.6375 59.6315 78.8536 59.6764 79.0719 59.675Z" fill="#0B38DB"/>
<path d="M84.3936 51.8785H86.4431V61.225H84.3936V51.8785Z" fill="#0B38DB"/>
<path d="M87.8809 52.6535C87.8798 52.4809 87.9132 52.3099 87.9791 52.1504C88.045 51.991 88.1421 51.8463 88.2646 51.725C88.3871 51.6037 88.5326 51.5081 88.6925 51.444C88.8524 51.3799 89.0235 51.3484 89.1957 51.3515C89.5476 51.3496 89.8864 51.4859 90.1392 51.7313C90.2562 51.8501 90.3505 51.9893 90.4176 52.142C90.4858 52.3038 90.5201 52.4779 90.5182 52.6535C90.5208 52.8267 90.4865 52.9984 90.4176 53.1573C90.3505 53.31 90.2562 53.4492 90.1392 53.568C90.0173 53.6903 89.8728 53.7877 89.7138 53.8548C89.5488 53.9201 89.3731 53.9543 89.1957 53.9555C89.0181 53.955 88.8423 53.9208 88.6775 53.8548C88.3704 53.7121 88.1238 53.465 87.9814 53.1573C87.9162 52.9973 87.8821 52.8263 87.8809 52.6535ZM88.1748 54.8003H90.2243V61.225H88.167L88.1748 54.8003Z" fill="#0B38DB"/>
<path d="M97.951 61.225H95.5844L94.5326 59.3495L93.473 61.225H91.1064L93.3261 57.97L91.1451 54.7693H93.5117L94.5326 56.5905L95.5457 54.7693H97.9124L95.7468 57.97L97.951 61.225Z" fill="#0B38DB"/>
<path d="M108.988 58.9388C108.862 59.3715 108.66 59.7783 108.392 60.14C108.125 60.5122 107.795 60.8348 107.418 61.0933C107.023 61.3711 106.587 61.5855 106.126 61.7288C104.925 62.0894 103.638 62.0292 102.476 61.5583C101.888 61.3088 101.361 60.9362 100.929 60.4655C100.5 60.0193 100.164 59.4925 99.939 58.9155C99.4904 57.6949 99.4904 56.3541 99.939 55.1335C100.159 54.5628 100.481 54.0374 100.89 53.5835C101.326 53.1137 101.852 52.7368 102.437 52.4753C103.068 52.189 103.755 52.0461 104.448 52.0568C105.059 52.0477 105.668 52.1393 106.25 52.328C106.746 52.4843 107.209 52.7285 107.619 53.0488C107.994 53.348 108.309 53.7163 108.547 54.1338C108.781 54.558 108.951 55.0152 109.05 55.49H108.083C107.994 55.1316 107.851 54.7891 107.658 54.4748C107.466 54.1598 107.22 53.8816 106.931 53.6533C106.62 53.411 106.269 53.2248 105.894 53.103C105.464 52.9682 105.015 52.9028 104.564 52.9093C103.986 52.8958 103.413 53.0123 102.886 53.2503C102.407 53.4615 101.98 53.7734 101.633 54.1648C101.292 54.5496 101.03 54.997 100.859 55.4823C100.686 55.9807 100.598 56.5045 100.596 57.0323C100.593 57.5794 100.687 58.1226 100.875 58.6365C101.043 59.1228 101.306 59.5707 101.648 59.954C102.017 60.3437 102.462 60.6525 102.955 60.8608C103.511 61.0927 104.109 61.2062 104.711 61.194C105.078 61.1949 105.443 61.14 105.794 61.0313C106.13 60.9255 106.45 60.7743 106.745 60.5818C107.035 60.3907 107.295 60.1583 107.518 59.892C107.739 59.6354 107.907 59.3378 108.013 59.0163L108.988 58.9388Z" fill="#FF7600"/>
<path d="M110.696 52.1885H111.578V61.7597H110.696V52.1885Z" fill="#FF7600"/>
<path d="M116.466 61.907C116.021 61.9124 115.579 61.8281 115.167 61.659C114.793 61.4961 114.454 61.2618 114.169 60.9693C113.891 60.6761 113.673 60.3312 113.527 59.954C113.374 59.5669 113.298 59.1536 113.303 58.7373C113.299 58.3185 113.375 57.9028 113.527 57.5128C113.669 57.1338 113.888 56.7882 114.169 56.4975C114.454 56.2067 114.793 55.975 115.167 55.8155C115.577 55.6403 116.02 55.5532 116.466 55.5598C116.917 55.5533 117.365 55.6404 117.781 55.8155C118.161 55.9717 118.506 56.2037 118.794 56.4975C119.075 56.7882 119.294 57.1338 119.436 57.5128C119.585 57.9039 119.661 58.3188 119.66 58.7373C119.661 59.1533 119.585 59.5659 119.436 59.954C119.29 60.3312 119.072 60.6761 118.794 60.9693C118.506 61.2646 118.161 61.4991 117.781 61.659C117.363 61.8281 116.916 61.9124 116.466 61.907ZM116.466 61.0855C116.795 61.0906 117.122 61.0273 117.425 60.8995C117.694 60.7746 117.938 60.6012 118.144 60.388C118.349 60.1635 118.507 59.8999 118.608 59.613C118.718 59.3261 118.773 59.0212 118.771 58.714C118.772 58.4044 118.717 58.0971 118.608 57.8073C118.508 57.52 118.35 57.2562 118.144 57.0323C117.938 56.8191 117.694 56.6457 117.425 56.5208C117.122 56.3931 116.795 56.3297 116.466 56.3348C116.142 56.3301 115.821 56.3934 115.523 56.5208C115.255 56.6445 115.014 56.8181 114.811 57.0323C114.608 57.2565 114.452 57.5203 114.355 57.8073C114.244 58.0967 114.186 58.4039 114.185 58.714C114.185 59.0217 114.243 59.3266 114.355 59.613C114.453 59.8995 114.609 60.1631 114.811 60.388C115.014 60.6023 115.255 60.7759 115.523 60.8995C115.821 61.0269 116.142 61.0903 116.466 61.0855Z" fill="#FF7600"/>
<path d="M126.76 55.6992V61.7597H125.871V60.45C125.691 60.8696 125.4 61.2316 125.028 61.4962C124.602 61.7852 124.096 61.9317 123.582 61.9147C123.213 61.922 122.848 61.8534 122.507 61.7132C122.207 61.5895 121.942 61.3955 121.733 61.1475C121.547 60.9199 121.41 60.6559 121.331 60.3725C121.238 60.0159 121.194 59.6483 121.2 59.2797V55.7225H122.105V59.0162C122.102 59.2979 122.133 59.5789 122.197 59.8532C122.251 60.0953 122.357 60.3227 122.507 60.5197C122.647 60.707 122.83 60.8584 123.04 60.9615C123.283 61.0726 123.547 61.1282 123.814 61.1242C124.119 61.1333 124.422 61.0668 124.696 60.9305C124.94 60.805 125.151 60.6246 125.314 60.4035C125.488 60.1725 125.615 59.909 125.685 59.6285C125.769 59.36 125.81 59.0803 125.809 58.7992V55.6992H126.76Z" fill="#FF7600"/>
<path d="M133.952 60.4887C133.75 60.9156 133.427 61.2738 133.024 61.5195C132.597 61.7824 132.103 61.9169 131.601 61.907C131.164 61.9109 130.73 61.8265 130.325 61.659C129.953 61.4963 129.617 61.262 129.335 60.9692C128.777 60.3614 128.47 59.5634 128.477 58.7372C128.476 58.3188 128.552 57.9038 128.701 57.5127C128.846 57.1371 129.061 56.7926 129.335 56.4975C129.617 56.2075 129.954 55.9758 130.325 55.8155C130.728 55.6416 131.163 55.5545 131.601 55.5597C132.102 55.5536 132.595 55.6878 133.024 55.9472C133.432 56.1901 133.756 56.5526 133.952 56.9857V52.1885H134.834V61.7597H133.952V60.4887ZM131.632 61.0855C131.961 61.0924 132.288 61.029 132.591 60.8995C132.862 60.7746 133.109 60.6013 133.318 60.388C133.518 60.1593 133.675 59.8969 133.782 59.613C133.892 59.326 133.947 59.0212 133.945 58.714C133.946 58.4043 133.891 58.097 133.782 57.8072C133.676 57.5228 133.518 57.2602 133.318 57.0322C133.109 56.8189 132.862 56.6456 132.591 56.5207C132.288 56.3912 131.961 56.3278 131.632 56.3347C131.309 56.3492 130.993 56.431 130.704 56.575C130.433 56.6961 130.188 56.87 129.985 57.0865C129.784 57.3126 129.629 57.5758 129.529 57.8615C129.42 58.1513 129.365 58.4586 129.366 58.7682C129.364 59.0754 129.419 59.3803 129.529 59.6672C129.63 59.9522 129.785 60.2152 129.985 60.4422C130.188 60.6587 130.433 60.8326 130.704 60.9537C131.004 61.0615 131.322 61.1064 131.64 61.0855H131.632Z" fill="#FF7600"/>
<path d="M139.985 53.9477C139.985 54.3588 139.822 54.753 139.532 55.0437C139.242 55.3344 138.849 55.4977 138.438 55.4977C138.028 55.4977 137.635 55.3344 137.345 55.0437C137.055 54.753 136.892 54.3588 136.892 53.9477C136.892 53.5366 137.055 53.1424 137.345 52.8517C137.635 52.561 138.028 52.3977 138.438 52.3977C138.849 52.3977 139.242 52.561 139.532 52.8517C139.822 53.1424 139.985 53.5366 139.985 53.9477ZM137.209 53.9477C137.205 54.1087 137.233 54.2689 137.292 54.4187C137.35 54.5686 137.439 54.7051 137.551 54.82C137.664 54.935 137.798 55.0261 137.947 55.0879C138.095 55.1497 138.254 55.181 138.415 55.18C138.573 55.179 138.73 55.1463 138.875 55.0839C139.02 55.0214 139.151 54.9304 139.261 54.8163C139.37 54.7022 139.456 54.5672 139.513 54.4193C139.569 54.2715 139.596 54.1138 139.591 53.9555C139.591 53.6389 139.465 53.3353 139.242 53.1115C139.019 52.8877 138.716 52.762 138.4 52.762C138.084 52.762 137.781 52.8877 137.558 53.1115C137.334 53.3353 137.209 53.6389 137.209 53.9555V53.9477ZM138.16 54.7227H137.804V53.1727C138 53.1337 138.2 53.1155 138.4 53.1185C138.585 53.1071 138.77 53.1474 138.933 53.2347C138.983 53.2764 139.023 53.3286 139.049 53.3876C139.076 53.4466 139.089 53.5109 139.088 53.5757C139.08 53.6623 139.043 53.7438 138.985 53.8081C138.926 53.8723 138.849 53.9159 138.763 53.9322C138.841 53.961 138.909 54.0111 138.96 54.0769C139.01 54.1427 139.041 54.2215 139.049 54.3042C139.062 54.4388 139.099 54.5701 139.158 54.6917H138.771C138.713 54.5719 138.674 54.4438 138.655 54.312C138.655 54.1492 138.531 54.0717 138.33 54.0717H138.16V54.7227ZM138.16 53.847H138.33C138.531 53.847 138.694 53.7772 138.694 53.6222C138.694 53.4672 138.585 53.382 138.361 53.382C138.294 53.3748 138.227 53.3748 138.16 53.382V53.847Z" fill="#FF7600"/>
</svg>
