<svg width="16" height="20" viewBox="0 0 16 20" fill="none" xmlns="http://www.w3.org/2000/svg">
<path d="M3.07639 20C2.82902 20.0013 2.58438 19.9509 2.35677 19.8518C2.13761 19.7594 1.93836 19.6234 1.77083 19.4518C1.60181 19.2822 1.46733 19.0797 1.37587 18.8563C1.27927 18.625 1.22989 18.376 1.2309 18.1245V3.74921H0V2.50011H4.92361V1.24923C4.92189 1.08152 4.95465 0.915292 5.0191 0.761066C5.08317 0.613169 5.17343 0.478728 5.28559 0.364673C5.39718 0.250594 5.52898 0.159866 5.67448 0.0974523C5.82631 0.0308409 5.99018 -0.00235361 6.15538 0.000129734H9.84635C10.0116 -0.00235361 10.1754 0.0308409 10.3273 0.0974523C10.4728 0.159866 10.6046 0.250594 10.7161 0.364673C10.8283 0.478728 10.9194 0.613169 10.9835 0.761066C11.0479 0.915292 11.0798 1.08152 11.0781 1.24923V2.50011H16V3.74921H14.7691V18.1245C14.7701 18.376 14.7207 18.625 14.6241 18.8563C14.5326 19.0792 14.3988 19.2816 14.2309 19.4518C14.0624 19.623 13.8627 19.759 13.6432 19.8518C13.4156 19.9509 13.171 20.0013 12.9236 20H3.07639ZM2.46181 18.1245C2.46138 18.2066 2.47806 18.288 2.50955 18.3635C2.54104 18.439 2.58673 18.5072 2.64497 18.5637C2.70098 18.6223 2.76876 18.6687 2.84288 18.6999C2.917 18.7312 2.99622 18.7467 3.07639 18.7454H12.9236C13.0038 18.7467 13.083 18.7312 13.1571 18.6999C13.2312 18.6687 13.299 18.6223 13.355 18.5637C13.4133 18.5072 13.459 18.439 13.4905 18.3635C13.5219 18.288 13.5386 18.2066 13.5382 18.1245V3.74921H2.46181V18.1245ZM6.15451 2.50011H9.84549V1.24923H6.15451V2.50011ZM9.85156 16.2491V6.24919H11.0747V16.2491H9.85156ZM7.38802 16.2491V6.24919H8.61024V16.2491H7.38802ZM4.92535 16.2491V6.24919H6.14844V16.2491H4.92535Z" fill="#0279FF"/>
</svg>
