<?xml version="1.0" encoding="utf-8"?>
<!-- Generator: Adobe Illustrator 24.2.1, SVG Export Plug-In . SVG Version: 6.00 Build 0)  -->
<svg version="1.1" id="Layer_1" xmlns="http://www.w3.org/2000/svg" xmlns:xlink="http://www.w3.org/1999/xlink" x="0px" y="0px"
	 viewBox="0 0 14 17" style="enable-background:new 0 0 14 17;" xml:space="preserve">
<style type="text/css">
	.st0{fill:#0279FF;}
</style>
<path class="st0" d="M0.7,17c-0.2,0-0.4-0.1-0.5-0.2C0.1,16.6,0,16.5,0,16.3V0.7c0-0.1,0-0.2,0.1-0.3c0-0.1,0.1-0.2,0.2-0.2
	c0.1-0.1,0.1-0.1,0.2-0.2C0.5,0,0.6,0,0.7,0h12.5c0.2,0,0.4,0.1,0.5,0.2C13.9,0.4,14,0.5,14,0.7v15.5c0,0.2-0.1,0.4-0.2,0.5
	c-0.1,0.1-0.3,0.2-0.5,0.2H0.7z M1.5,15.5h11.1V1.5H1.5V15.5z M3.7,12.4c-0.2,0-0.4-0.1-0.5-0.2C3,12,2.9,11.8,2.9,11.6
	s0.1-0.4,0.2-0.5c0.1-0.1,0.3-0.2,0.5-0.2h4.8c0.2,0,0.4,0.1,0.5,0.2c0.1,0.1,0.2,0.3,0.2,0.5c0,0.2-0.1,0.4-0.2,0.5
	s-0.3,0.2-0.5,0.2H3.7z M3.7,8.6c-0.2,0-0.4-0.1-0.5-0.2C3,8.3,2.9,8.1,2.9,7.9c0-0.2,0.1-0.4,0.2-0.5c0.1-0.1,0.3-0.2,0.5-0.2h5.8
	c0.2,0,0.4,0.1,0.5,0.2c0.1,0.1,0.2,0.3,0.2,0.5c0,0.2-0.1,0.4-0.2,0.5C9.9,8.5,9.7,8.6,9.5,8.6H3.7z M3.7,4.9
	c-0.2,0-0.4-0.1-0.5-0.2C3,4.5,2.9,4.3,2.9,4.2C2.9,4.1,3,4,3,3.9c0-0.1,0.1-0.2,0.2-0.2c0.1-0.1,0.1-0.1,0.2-0.2
	c0.1,0,0.2-0.1,0.3-0.1h4.1c0.2,0,0.4,0.1,0.5,0.2C8.4,3.8,8.5,4,8.5,4.2c0,0.2-0.1,0.4-0.2,0.5C8.2,4.8,8,4.9,7.8,4.9H3.7z"/>
</svg>
