<svg id="SvgjsSvg1001" width="288" height="288" xmlns="http://www.w3.org/2000/svg" version="1.1" xmlns:xlink="http://www.w3.org/1999/xlink" xmlns:svgjs="http://svgjs.com/svgjs"><defs id="SvgjsDefs1002"></defs><g id="SvgjsG1008" transform="matrix(0.9167,0,0,0.9167,10.850288300323498,23.08084168701174)"><svg xmlns="http://www.w3.org/2000/svg" width="288" height="288" viewBox="0 0 52 52"><defs><clipPath id="a"><path fill="none" d="M26,0A26,26,0,1,1,0,26,26,26,0,0,1,26,0Z" data-name="Path 7857"></path></clipPath></defs><g clip-path="url(#a)" data-name="Group 6328" fill="#000000" class="color000 svgShape"><path fill="#ff8066" d="M26,0A26,26,0,1,1,0,26,26,26,0,0,1,26,0Z" data-name="Path 7835" class="color0279ff svgShape"></path><g data-name="Group 6250" transform="translate(-17.607 5.965)" fill="#000000" class="color000 svgShape"><path fill="#5484c6" d="M4121.73,1599.58l-5.157-9.32a1.731,1.731,0,0,1,1.423-2.566l1.993-.107a1.731,1.731,0,0,1,1.633.939l2.539,4.953Z" data-name="Path 7836" transform="translate(-4049.094 -1509.324)" class="color5484c6 svgShape"></path><path fill="#5484c6" d="M3908.985,1455.717l-6.128,27.657,8.331,1.242,5.931-22.452Z" data-name="Path 7837" transform="translate(-3885.84 -1408.491)" class="color5484c6 svgShape"></path><path fill="#8fd1d3" d="M3977.348,1433.257a10.737,10.737,0,0,0-10.7-11.615H3938.16a10.737,10.737,0,0,0-10.721,11.313l4.987,43.454h39.752Z" data-name="Path 7838" transform="translate(-3904.624 -1382.434)" class="color8fd1d3 svgShape"></path><path fill="#5484c6" d="M4054.893,1421.642h-4.477c-5.166,17.6-6.985,36.087-7.589,54.767h20.938l1.829-43.152A10.737,10.737,0,0,0,4054.893,1421.642Z" data-name="Path 7839" transform="translate(-3992.87 -1382.434)" class="color5484c6 svgShape"></path><path fill="#5484c6" d="M3942.938,1421.642h-4.779a10.737,10.737,0,0,0-10.722,11.313l4.987,43.454h10.6A148.292,148.292,0,0,1,3942.938,1421.642Z" data-name="Path 7840" transform="translate(-3904.623 -1382.434)" class="color5484c6 svgShape"></path><path fill="none" stroke="#ffffff" stroke-linecap="round" stroke-linejoin="round" stroke-width=".5" d="M4014.01,1427.057a5.673,5.673,0,0,1-5.53,4.863l-5.82.064a5.658,5.658,0,0,1-5.358-3.863" data-name="Path 7841" transform="translate(-3958.059 -1386.575)" class="colorStrokefff svgStroke"></path><path fill="#ebaa6e" d="M4006.305,1362.576v4.985a3.24,3.24,0,0,0,3.276,3.24l5.755-.064a3.241,3.241,0,0,0,3.2-3.24v-17.3Z" data-name="Path 7842" transform="translate(-3964.943 -1327.8)" class="colorebaa6e svgShape"></path><rect width="21.372" height="30.022" fill="#ebaa6e" data-name="Rectangle 16991" rx="10.686" transform="translate(31.897 4.858)" class="colorebaa6e svgShape"></rect><path fill="none" stroke="#050708" stroke-linecap="round" stroke-linejoin="round" stroke-width=".25" d="M4021.61,1372.475a10.69,10.69,0,0,1-10.119,7.244" data-name="Path 7843" transform="translate(-3968.909 -1344.838)" class="colorStroke050708 svgStroke"></path><path fill="#262362" d="M3974.314,1260.768h-.956a2.368,2.368,0,0,0-2.485-2.064l-5.09.4a5.854,5.854,0,0,1-4.58-1.814,8.69,8.69,0,0,0-6.1-2.263c-4.178,0-7.565,2.472-7.565,5.522v1.3a4.743,4.743,0,0,0,4.63,4.849h18.292l2.089,12.935h1.687a1.888,1.888,0,0,0,1.843-1.93v-15.092A1.8,1.8,0,0,0,3974.314,1260.768Z" data-name="Path 7844" transform="translate(-3920.002 -1255.03)" class="color262362 svgShape"></path><path fill="#050708" d="M4018.225,1336.017a.792.792,0,1,1-.792-.792A.792.792,0,0,1,4018.225,1336.017Z" data-name="Path 7845" transform="translate(-3972.846 -1316.353)" class="color050708 svgShape"></path><path fill="#050708" d="M3976.1,1336.017a.791.791,0,1,1-.792-.792A.791.791,0,0,1,3976.1,1336.017Z" data-name="Path 7846" transform="translate(-3940.638 -1316.353)" class="color050708 svgShape"></path><path fill="none" stroke="#db681b" stroke-linecap="round" stroke-linejoin="round" stroke-width=".5" d="M3989.576,1379.382a2.879,2.879,0,0,0,3.418-.031" data-name="Path 7847" transform="translate(-3952.15 -1350.093)" class="colorStrokedb681b svgStroke"></path><path fill="none" stroke="#db681b" stroke-linecap="round" stroke-linejoin="round" stroke-width=".5" d="M3992.43,1338.014h-2a.848.848,0,0,1-.848-.9c.131-2.047.509-7.74.509-7.74" data-name="Path 7848" transform="translate(-3952.15 -1311.877)" class="colorStrokedb681b svgStroke"></path><path fill="none" stroke="#050708" stroke-linecap="round" stroke-linejoin="round" stroke-width=".5" d="M3973.806,1327.005a1.968,1.968,0,0,1,2.112.015" data-name="Path 7849" transform="translate(-3940.091 -1309.837)" class="colorStroke050708 svgStroke"></path><path fill="none" stroke="#050708" stroke-linecap="round" stroke-linejoin="round" stroke-width=".5" d="M4014.4,1327.005a1.967,1.967,0,0,1,2.112.015" data-name="Path 7850" transform="translate(-3971.129 -1309.837)" class="colorStroke050708 svgStroke"></path><path fill="#262362" d="M3950.681,1288.355c1.942,3.136,7.688,4.521,11.993,4.677a20.357,20.357,0,0,0,12.194-3.553,64.425,64.425,0,0,0-21.942-3.2Z" data-name="Path 7851" transform="translate(-3922.409 -1278.906)" class="color262362 svgShape"></path><circle cx="1.899" cy="1.899" r="1.899" fill="#ebaa6e" data-name="Ellipse 105" transform="translate(49.471 16.972)" class="colorebaa6e svgShape"></circle><path fill="#5484c6" d="M4075.448,1448.576l10.276,38.808a4.747,4.747,0,0,1-4.588,5.962H4056.9l15.555-6.95,2.071-5.1-9.054-24.3Z" data-name="Path 7852" transform="translate(-4003.631 -1403.03)" class="color5484c6 svgShape"></path><path fill="#ebaa6e" d="M4030.464,1608.494h-33.626v-6.2l28.627-3.128Z" data-name="Path 7853" transform="translate(-3957.704 -1518.177)" class="colorebaa6e svgShape"></path><path fill="none" stroke="#464379" stroke-linecap="round" stroke-linejoin="round" stroke-width="1.322" d="M4121.73,1599.58l-5.157-9.32a1.731,1.731,0,0,1,1.423-2.566l1.993-.107a1.731,1.731,0,0,1,1.633.939l2.539,4.953" data-name="Path 7854" transform="translate(-4049.094 -1509.324)" class="colorStroke464379 svgStroke"></path><line x1="6.411" y1="16.503" fill="none" stroke="#464379" stroke-linecap="round" stroke-linejoin="round" stroke-width="1.322" data-name="Line 281" transform="translate(64.484 61.758)" class="colorStroke464379 svgStroke"></line><path fill="none" stroke="#464379" stroke-linecap="round" stroke-linejoin="round" stroke-width="1.322" d="M4064.468,1504.325l6.786.756-.593,5.333a3.416,3.416,0,0,1-3.771,3.015h0a3.415,3.415,0,0,1-3.016-3.771Z" data-name="Path 7855" transform="translate(-4008.947 -1445.66)" class="colorStroke464379 svgStroke"></path><line x2="1.23" y2="12.475" fill="none" stroke="#464379" stroke-linecap="round" stroke-linejoin="round" stroke-width="1.322" data-name="Line 282" transform="translate(25.378 55.522)" class="colorStroke464379 svgStroke"></line><path fill="#706f6f" d="M4024.092,1638.4h-16.937v3.874h16.938a1.937,1.937,0,0,0,1.938-1.937h0A1.937,1.937,0,0,0,4024.092,1638.4Z" data-name="Path 7856" transform="translate(-3965.592 -1548.184)" class="color706f6f svgShape"></path><rect width="47.085" height="30.864" fill="#f1f2f1" data-name="Rectangle 16992" rx="9.1" transform="translate(0 63.228)" class="colorf1f2f1 svgShape"></rect><circle cx="1.836" cy="1.836" r="1.836" fill="#bbbdbf" data-name="Ellipse 106" transform="translate(21.707 75.279)" class="colorbbbdbf svgShape"></circle></g></g></svg></g></svg>