<?xml version="1.0" encoding="utf-8"?>
<!-- Generator: Adobe Illustrator 24.2.1, SVG Export Plug-In . SVG Version: 6.00 Build 0)  -->
<svg version="1.1" id="Layer_1" xmlns="http://www.w3.org/2000/svg" xmlns:xlink="http://www.w3.org/1999/xlink" x="0px" y="0px"
	 viewBox="0 0 24 24" style="enable-background:new 0 0 24 24;" xml:space="preserve">
<style type="text/css">
	.st0{fill:#0279FF;}
</style>
<path class="st0" d="M7,17c-0.1-0.1-0.2-0.3-0.2-0.4c0-0.2,0-0.3,0.1-0.5C7,16,7.1,15.9,7.2,15.9c0.1,0,0.1-0.1,0.2-0.1
	c0.1,0,0.2,0,0.2,0c0.1,0,0.1,0.1,0.2,0.1c0.6,0.6,1.4,1.1,2.3,1.4c0.8,0.3,1.7,0.4,2.6,0.3l0.2,0c1.2-0.2,2.4-0.7,3.3-1.6
	c0.9-0.9,1.4-2.1,1.6-3.4l-1.4,1.3c-0.1,0.1-0.1,0.1-0.2,0.1c-0.1,0-0.2,0-0.2,0c-0.1,0-0.2,0-0.2-0.1c-0.1,0-0.1-0.1-0.2-0.2
	c-0.1-0.1-0.1-0.3-0.1-0.5c0-0.2,0.1-0.3,0.2-0.4l2.5-2.2c0,0,0,0,0,0c0,0,0.1,0,0.1-0.1c0,0,0.1,0,0.1,0c0,0,0,0,0.1,0
	c0,0,0,0,0.1,0c0,0,0,0,0.1,0c0,0,0,0,0,0c0.1,0,0.1,0,0.1,0c0,0,0,0,0.1,0c0,0,0.1,0.1,0.1,0.1c0,0,0,0,0,0l2,2.7
	C21,13.7,21,13.8,21,14c0,0.2-0.1,0.3-0.2,0.4c-0.1,0.1-0.1,0.1-0.2,0.1c-0.1,0-0.2,0-0.2,0c-0.1,0-0.2,0-0.2-0.1
	c-0.1,0-0.1-0.1-0.2-0.2l-1-1.4c-0.2,1.5-0.9,3-2,4c-1.1,1.1-2.5,1.8-3.9,1.9l-0.2,0c-0.3,0-0.6,0.1-0.9,0.1C10.1,19,8.4,18.3,7,17z
	 M5.3,13.3C5.3,13.3,5.3,13.3,5.3,13.3c-0.1-0.1-0.2-0.1-0.2-0.2c0,0,0,0,0,0l-2-2.7C3,10.3,3,10.2,3,10c0-0.2,0.1-0.3,0.2-0.4
	c0.1-0.1,0.1-0.1,0.2-0.1c0.1,0,0.2,0,0.2,0c0.1,0,0.2,0,0.2,0.1c0.1,0,0.1,0.1,0.2,0.2l1,1.4c0.2-1.3,0.7-2.5,1.5-3.5
	c0.5-0.7,1.2-1.3,2-1.7c0.8-0.4,1.6-0.7,2.5-0.8l0.2,0C11.5,5,11.8,5,12,5c1.8,0,3.6,0.7,4.9,2c0.1,0.1,0.2,0.3,0.2,0.4
	c0,0.2,0,0.3-0.2,0.5C16.9,8,16.9,8,16.8,8.1c-0.1,0-0.1,0.1-0.2,0.1c-0.1,0-0.2,0-0.2,0c-0.1,0-0.1-0.1-0.2-0.1
	C15,6.9,13.5,6.3,12,6.3c-0.2,0-0.4,0-0.7,0l-0.2,0C10.4,6.4,9.7,6.6,9.1,7C8.4,7.3,7.9,7.8,7.4,8.4c-0.7,0.9-1.1,1.9-1.2,3l1.5-1.3
	C7.8,10.1,7.8,10,7.9,10c0.1,0,0.2,0,0.2,0c0.1,0,0.2,0,0.2,0.1c0.1,0,0.1,0.1,0.2,0.2c0.1,0.1,0.1,0.3,0.1,0.5
	c0,0.2-0.1,0.3-0.2,0.4l-2.5,2.1c0,0,0,0,0,0c-0.1,0.1-0.2,0.1-0.3,0.1c0,0,0,0,0,0C5.5,13.4,5.4,13.3,5.3,13.3z"/>
</svg>
