<svg width="24" height="24" viewBox="0 0 24 24" fill="none" xmlns="http://www.w3.org/2000/svg">
<path d="M7.02294 16.9662C6.90593 16.8494 6.83589 16.6909 6.82684 16.5227C6.8178 16.3545 6.87048 16.1891 6.97424 16.0595C7.02531 15.9978 7.08781 15.9475 7.15806 15.9114C7.22832 15.8752 7.3048 15.854 7.38309 15.8491C7.46138 15.8443 7.53988 15.8561 7.61379 15.8833C7.68771 15.9105 7.75555 15.9529 7.81337 16.0078C8.46181 16.6399 9.23663 17.1157 10.0827 17.4022C10.9287 17.6886 11.8252 17.7785 12.7085 17.6649L12.8906 17.6475C14.1314 17.4971 15.2867 16.9158 16.1682 15.998C17.0498 15.0802 17.6059 13.8799 17.746 12.5927L16.2992 13.8776C16.2396 13.9309 16.1701 13.971 16.095 13.9953C16.0199 14.0196 15.9407 14.0276 15.8625 14.0189C15.7842 14.0102 15.7087 13.9847 15.6402 13.9445C15.5717 13.9042 15.512 13.8501 15.4646 13.785C15.3643 13.6536 15.3166 13.4871 15.3317 13.3202C15.3468 13.1533 15.4234 12.9994 15.5455 12.8896L17.9965 10.7154C18.0117 10.7044 18.028 10.6959 18.0452 10.6888C18.0782 10.6648 18.113 10.6437 18.1493 10.6257C18.1839 10.6113 18.2199 10.6006 18.2566 10.5938C18.2766 10.588 18.2961 10.5805 18.315 10.5718C18.3367 10.5732 18.3584 10.5759 18.3797 10.5802C18.3962 10.5802 18.4156 10.5718 18.4313 10.5718C18.4466 10.5742 18.4612 10.5809 18.4734 10.5908C18.5258 10.5957 18.5768 10.611 18.6234 10.6364C18.6429 10.6465 18.6624 10.6597 18.6789 10.6698C18.7241 10.7002 18.7645 10.7374 18.7988 10.7807C18.8085 10.79 18.8251 10.7932 18.8349 10.8088L20.8658 13.5306C20.9661 13.6635 21.0131 13.832 20.9969 13.9999C20.9807 14.1678 20.9025 14.3224 20.7788 14.432C20.719 14.4852 20.6492 14.5248 20.5739 14.549C20.4986 14.5731 20.4195 14.5814 20.3412 14.5725C20.2629 14.5636 20.1872 14.5378 20.1187 14.4973C20.0503 14.4569 19.9906 14.4024 19.9433 14.3371L18.9032 12.9435C18.6978 14.4779 18.0065 15.8979 16.9382 16.9807C15.8698 18.0634 14.4849 18.7478 13.0009 18.9256L12.8156 18.9438C12.5266 18.9798 12.236 18.9987 11.9449 19C10.1158 18.989 8.35811 18.2626 7.02294 16.9662ZM5.33625 13.3027C5.31762 13.2927 5.29998 13.2808 5.28371 13.267C5.22832 13.2354 5.17893 13.1936 5.1376 13.144C5.13085 13.1347 5.11798 13.1306 5.11123 13.1205L3.13214 10.464C3.03263 10.3305 2.98652 10.1617 3.00342 9.99389C3.02032 9.82605 3.09899 9.67186 3.22296 9.56253C3.28298 9.51019 3.35257 9.47132 3.42766 9.44786C3.50275 9.4244 3.58172 9.41659 3.65964 9.42583C3.73756 9.43508 3.81278 9.46058 3.88082 9.50102C3.94886 9.54146 4.00824 9.59621 4.05531 9.66126L5.0693 11.0237C5.25148 9.75493 5.75622 8.55932 6.53169 7.55991C7.08165 6.84857 7.76495 6.25989 8.54026 5.82992C9.31557 5.39995 10.1669 5.13775 11.0428 5.05834L11.2115 5.04619C11.483 5.00994 11.7568 4.99516 12.0304 5.00138C13.8509 5.00425 15.6018 5.72712 16.9255 7.02299C17.044 7.13847 17.1151 7.2974 17.1242 7.46574C17.1333 7.63408 17.0796 7.79902 16.9742 7.92747C16.9234 7.98952 16.8609 8.04083 16.7906 8.07708C16.7203 8.11333 16.6434 8.13401 16.565 8.1386C16.4866 8.14318 16.4081 8.13149 16.3343 8.10366C16.2605 8.07584 16.1929 8.03257 16.1357 7.97684C15.0082 6.88393 13.522 6.27726 11.9786 6.2795C11.7548 6.27929 11.5312 6.29309 11.309 6.32127L11.1402 6.33191C10.4213 6.39692 9.72263 6.61241 9.08625 6.96527C8.44988 7.31813 7.889 7.80077 7.43765 8.38465C6.76733 9.24193 6.34081 10.2767 6.20615 11.3715L7.71138 10.1078C7.77222 10.056 7.84261 10.0178 7.91828 9.99541C7.99396 9.97299 8.07333 9.96654 8.15136 9.97718C8.22939 9.98782 8.30448 10.015 8.37199 10.0569C8.43951 10.0989 8.49807 10.1546 8.54392 10.221C8.64075 10.3562 8.68413 10.5245 8.66531 10.6918C8.6465 10.8591 8.56691 11.0131 8.44267 11.1216L5.93699 13.2215C5.93024 13.2277 5.91754 13.2259 5.90404 13.2321C5.82309 13.2999 5.72487 13.342 5.62134 13.3529C5.60556 13.3579 5.58892 13.3598 5.57245 13.3589C5.4908 13.3576 5.41037 13.3383 5.33625 13.3027Z" fill="#808080"/>
</svg>
