<svg width="143" height="67" viewBox="0 0 143 67" fill="none" xmlns="http://www.w3.org/2000/svg">
<path d="M18.1235 48.2997C18.3835 48.4472 18.6356 48.6083 18.8787 48.7823C18.9165 48.6214 18.9571 48.4642 18.9861 48.2997H18.1235ZM5.7624 41.6611C6.24835 41.1181 6.84113 40.6813 7.50367 40.3779C8.24836 40.0443 9.05764 39.8795 9.8735 39.8954C10.4749 39.8882 11.0729 39.9856 11.6409 40.1833C12.508 40.4849 13.2552 41.057 13.7723 41.8156C15.0202 41.1432 16.1975 40.3474 17.2866 39.4401C16.9714 39.0245 16.6149 38.6419 16.2225 38.2981C15.3894 37.5851 14.4301 37.0344 13.3943 36.6746C12.1777 36.2552 10.8972 36.051 9.6105 36.0714C8.22479 36.048 6.85002 36.3203 5.57781 36.8701C4.45022 37.3615 3.43316 38.0751 2.58734 38.9682C1.74152 39.8612 1.08426 40.9155 0.654781 42.0682C0.217749 43.2226 -0.00413796 44.4473 9.64775e-05 45.6818C-0.00536282 46.9429 0.220913 48.1945 0.667655 49.3739C1.09834 50.5204 1.75767 51.5673 2.60558 52.451C3.48348 53.3541 4.53444 54.0709 5.69564 54.5586C8.12695 55.5183 10.8165 55.6017 13.3026 54.7944C14.2994 54.4557 15.2298 53.9462 16.052 53.2887C16.3793 53.021 16.6856 52.7287 16.9685 52.4144C15.8662 51.5315 14.6794 50.7596 13.4252 50.1101C13.2538 50.2858 13.0683 50.4473 12.8707 50.5928C12.4746 50.8824 12.0378 51.1118 11.5746 51.2736C11.0946 51.4408 10.5896 51.5248 10.0814 51.5221C9.24269 51.5388 8.4095 51.3829 7.63357 51.0641C6.95365 50.779 6.3412 50.3544 5.8359 49.8176C5.3306 49.2807 4.94372 48.6437 4.70033 47.9478C4.44386 47.2205 4.31541 46.4543 4.32071 45.683C4.31896 44.943 4.44299 44.208 4.68747 43.5094C4.92109 42.8288 5.28634 42.2007 5.7624 41.6611Z" fill="#0B38DB"/>
<path d="M31.4205 41.8308V54.4525H27.414V52.6706C27.2497 52.9772 27.0377 53.2555 26.7858 53.4953C26.5163 53.7542 26.2122 53.9746 25.8822 54.1501C25.5287 54.3386 25.1556 54.4878 24.7695 54.5948C24.3779 54.7072 23.9725 54.7646 23.5651 54.7654C22.7046 54.775 21.852 54.6009 21.0642 54.2547C20.3261 53.9298 19.6623 53.4575 19.1134 52.8668C18.5586 52.2596 18.1312 51.5473 17.8567 50.772C17.2626 49.0679 17.2626 47.213 17.8567 45.5088C18.1312 44.7334 18.5585 44.021 19.1134 43.4137C19.6625 42.8233 20.3263 42.351 21.0642 42.0258C21.8519 41.6794 22.7046 41.5054 23.5651 41.5152C23.9725 41.5163 24.3778 41.5734 24.7695 41.6852C25.1573 41.7932 25.5309 41.9472 25.8822 42.1437C26.213 42.3285 26.517 42.5575 26.7858 42.8245C27.0313 43.0652 27.2426 43.3384 27.414 43.6365V41.8293L31.4205 41.8308ZM24.4027 51.3616C24.8275 51.3679 25.2483 51.2785 25.6337 51.0999C25.9903 50.9325 26.3106 50.6966 26.5763 50.4057C26.8443 50.1075 27.0531 49.7609 27.1916 49.3847C27.3408 48.9869 27.4162 48.5653 27.414 48.1404C27.42 47.3125 27.1219 46.5112 26.5763 45.8885C26.3133 45.5913 25.9926 45.3508 25.6337 45.1815C25.2463 45.0089 24.827 44.9198 24.4029 44.9198C23.9789 44.9198 23.5595 45.0089 23.1722 45.1815C22.8132 45.3507 22.4925 45.5912 22.2296 45.8885C21.6841 46.5113 21.3859 47.3125 21.3915 48.1404C21.3892 48.5653 21.4647 48.987 21.6143 49.3847C21.7525 49.7611 21.9613 50.1077 22.2296 50.4057C22.4952 50.6967 22.8155 50.9326 23.1722 51.0999C23.5574 51.2789 23.978 51.3687 24.4027 51.3628V51.3616Z" fill="#0B38DB"/>
<path d="M34.8241 36.1227H38.8307V54.4524H34.8241V36.1227Z" fill="#0B38DB"/>
<path d="M41.6587 37.6413C41.6512 37.306 41.7123 36.9727 41.8385 36.662C41.9646 36.3512 42.1531 36.0695 42.3923 35.8344C42.6316 35.5937 42.9177 35.4045 43.233 35.2784C43.5482 35.1524 43.8859 35.0921 44.2252 35.1013C44.9127 35.0949 45.5753 35.3581 46.0711 35.8344C46.3085 36.0642 46.4959 36.3406 46.6212 36.6464C46.7525 36.9615 46.8194 37.2999 46.8178 37.6413C46.8203 37.9787 46.7533 38.3129 46.6212 38.6233C46.4917 38.9267 46.3049 39.2022 46.0711 39.4349C45.8353 39.6709 45.5551 39.8579 45.2467 39.985C44.9226 40.1176 44.5754 40.1843 44.2252 40.1812C43.8793 40.1852 43.5362 40.1184 43.217 39.985C42.6054 39.7224 42.1179 39.235 41.8554 38.6233C41.7233 38.3129 41.6563 37.9787 41.6587 37.6413ZM42.235 41.8308H46.2416V54.4525H42.235V41.8308Z" fill="#0B38DB"/>
<path d="M61.3767 54.4524H56.7416L54.6725 50.7864L52.6039 54.4524H47.9696L52.318 48.0893L48.0496 41.8307H52.6847L54.6745 45.3921L56.6647 41.8307H61.2998L57.0576 48.0893L61.3767 54.4524Z" fill="#0B38DB"/>
<path d="M81.7728 64.4082C81.7619 64.5911 81.7873 64.7743 81.8475 64.9473C81.9078 65.1204 82.0017 65.2798 82.1238 65.4163C82.2431 65.5372 82.3863 65.6319 82.5442 65.6942C82.7022 65.7565 82.8715 65.7852 83.0411 65.7783C83.311 65.787 83.5748 65.6965 83.7827 65.5241C83.8806 65.442 83.9585 65.3385 84.0104 65.2218C84.0624 65.105 84.0871 64.9779 84.0827 64.8501C84.0872 64.7099 84.054 64.571 83.9866 64.448C83.9196 64.3355 83.831 64.2374 83.726 64.1593C83.6054 64.0699 83.4742 63.9957 83.3355 63.9384C83.1847 63.8745 83.0218 63.8082 82.8485 63.7402C82.486 63.6043 82.1406 63.4684 81.8122 63.3325C81.5056 63.2092 81.2178 63.0435 80.9572 62.8402C80.7183 62.6509 80.5217 62.4137 80.3801 62.1437C80.2272 61.8304 80.1533 61.4844 80.165 61.1359C80.1584 60.8004 80.2383 60.4689 80.397 60.1733C80.5491 59.8972 80.7596 59.6577 81.0139 59.4715C81.2822 59.2772 81.5834 59.1332 81.9031 59.0465C82.2435 58.9518 82.5953 58.9043 82.9486 58.9053C83.3691 58.8973 83.7875 58.9662 84.1832 59.1087C84.5141 59.229 84.8156 59.4182 85.0679 59.6637C85.2981 59.8918 85.4776 60.1658 85.5947 60.468C85.7126 60.7752 85.7721 61.1017 85.7701 61.4308H83.9359C83.9529 61.13 83.8626 60.833 83.6809 60.5927C83.5906 60.4893 83.4778 60.4079 83.3511 60.3549C83.2244 60.3019 83.0873 60.2787 82.9502 60.2871C82.7078 60.2804 82.4697 60.3518 82.271 60.4909C82.1767 60.5612 82.1016 60.654 82.0524 60.7609C82.0032 60.8677 81.9816 60.9852 81.9895 61.1025C81.9856 61.2248 82.012 61.3461 82.0663 61.4557C82.1206 61.5653 82.2012 61.6597 82.3008 61.7307C82.5525 61.9081 82.8291 62.0475 83.1216 62.1441C83.4465 62.2575 83.775 62.3802 84.1072 62.5121C84.4246 62.6362 84.7251 62.7998 85.0016 62.9991C85.2624 63.1882 85.4836 63.4267 85.6526 63.7009C85.8298 64.0046 85.9182 64.3519 85.9076 64.7034C85.9142 65.0771 85.8387 65.4478 85.6864 65.7891C85.545 66.0992 85.3339 66.3724 85.0695 66.5874C84.7913 66.81 84.472 66.9754 84.1297 67.0744C83.7398 67.1876 83.3353 67.2429 82.9293 67.2385C82.5272 67.2418 82.1273 67.1787 81.7458 67.0515C81.3944 66.9358 81.0707 66.749 80.7948 66.5026C80.5229 66.2557 80.3084 65.9521 80.1666 65.6134C80.0093 65.231 79.9321 64.8204 79.9398 64.407L81.7728 64.4082Z" fill="#333333"/>
<path d="M87.5699 59.1084H89.404V64.3178C89.403 64.4936 89.4338 64.6681 89.4949 64.8329C89.5516 64.9897 89.6382 65.1339 89.7499 65.2576C89.8594 65.3787 89.992 65.4768 90.14 65.5459C90.2997 65.6197 90.474 65.6566 90.6499 65.6537C90.8212 65.6559 90.9911 65.6217 91.1482 65.5534C91.3053 65.4851 91.4462 65.3843 91.5616 65.2576C91.6728 65.1336 91.7592 64.9895 91.8161 64.8329C91.8772 64.6681 91.908 64.4936 91.907 64.3178V59.1084H93.7412V64.3291C93.7443 64.7207 93.6712 65.1091 93.526 65.4728C93.3876 65.8205 93.1773 66.135 92.9087 66.3957C92.6283 66.6639 92.2974 66.8735 91.9351 67.0125C91.5244 67.169 91.0877 67.2459 90.6483 67.2389C90.2112 67.246 89.7768 67.1691 89.3687 67.0125C89.0084 66.8727 88.6793 66.6631 88.4003 66.3957C88.132 66.1348 87.9218 65.8204 87.7834 65.4728C87.638 65.1092 87.565 64.7207 87.5683 64.3291L87.5699 59.1084Z" fill="#333333"/>
<path d="M95.701 59.1084H99.019C99.4271 59.1027 99.8319 59.1819 100.208 59.3409C100.549 59.4866 100.859 59.6982 101.119 59.9635C101.372 60.2249 101.571 60.5347 101.702 60.8743C101.974 61.5814 101.974 62.3641 101.702 63.0712C101.571 63.4111 101.373 63.7211 101.119 63.9828C100.859 64.2481 100.549 64.4597 100.208 64.6054C99.8319 64.7644 99.4271 64.8435 99.019 64.8378H97.5351V67.0344H95.701V59.1084ZM98.7922 63.3439C98.9722 63.3459 99.1502 63.307 99.313 63.2304C99.4662 63.1591 99.6031 63.057 99.7152 62.9305C99.8265 62.8021 99.913 62.6542 99.9701 62.4942C100.09 62.1575 100.09 61.7896 99.9701 61.453C99.9129 61.293 99.8264 61.145 99.7152 61.0167C99.603 60.8903 99.4661 60.7881 99.313 60.7166C99.1502 60.6401 98.9722 60.6013 98.7922 60.6032H97.5351V63.3439H98.7922Z" fill="#333333"/>
<path d="M103.458 59.1084H106.775C107.184 59.1027 107.589 59.1819 107.965 59.3409C108.306 59.4867 108.616 59.6983 108.876 59.9635C109.13 60.2251 109.328 60.5351 109.459 60.8751C109.731 61.5822 109.731 62.365 109.459 63.072C109.328 63.412 109.13 63.722 108.876 63.9836C108.616 64.2488 108.306 64.4604 107.965 64.6062C107.589 64.7652 107.184 64.8444 106.775 64.8386H105.292V67.0351H103.458V59.1084ZM106.549 63.3439C106.729 63.3461 106.908 63.3072 107.071 63.2304C107.225 63.1594 107.362 63.0573 107.474 62.9305C107.585 62.8022 107.672 62.6542 107.729 62.4942C107.849 62.1576 107.849 61.7895 107.729 61.453C107.671 61.2929 107.585 61.145 107.474 61.0167C107.362 60.89 107.225 60.7878 107.071 60.7166C106.908 60.6398 106.729 60.6011 106.549 60.6032H105.292V63.3439H106.549Z" fill="#333333"/>
<path d="M115.02 67.239C114.413 67.249 113.811 67.1315 113.253 66.894C112.753 66.6787 112.303 66.3649 111.928 65.9711C111.566 65.5871 111.285 65.1347 111.101 64.6404C110.724 63.6289 110.724 62.5151 111.101 61.5036C111.285 61.0093 111.566 60.5569 111.928 60.173C112.303 59.7785 112.753 59.4639 113.253 59.2481C114.384 58.7881 115.649 58.7881 116.78 59.2481C117.277 59.4651 117.726 59.7796 118.1 60.173C118.461 60.557 118.742 61.0094 118.926 61.5036C119.304 62.515 119.304 63.629 118.926 64.6404C118.742 65.1346 118.461 65.5871 118.1 65.9711C117.726 66.3638 117.277 66.6776 116.78 66.894C116.224 67.1317 115.624 67.2493 115.02 67.239ZM115.02 65.5858C115.356 65.5916 115.689 65.5199 115.993 65.3763C116.273 65.2424 116.522 65.0515 116.724 64.8157C116.925 64.5786 117.081 64.3058 117.182 64.0114C117.394 63.4027 117.394 62.7405 117.182 62.1318C117.081 61.8374 116.925 61.5647 116.724 61.3275C116.521 61.0921 116.273 60.9012 115.993 60.7669C115.687 60.6292 115.355 60.558 115.019 60.558C114.684 60.558 114.352 60.6292 114.046 60.7669C113.766 60.9012 113.517 61.0921 113.315 61.3275C113.113 61.5645 112.958 61.8373 112.857 62.1318C112.645 62.7404 112.645 63.4028 112.857 64.0114C112.957 64.306 113.113 64.5788 113.315 64.8157C113.517 65.0515 113.766 65.2424 114.046 65.3763C114.35 65.52 114.683 65.5917 115.02 65.5858Z" fill="#333333"/>
<path d="M120.896 59.1084H124.225C124.633 59.1026 125.038 59.1818 125.414 59.3409C125.756 59.4866 126.066 59.6982 126.326 59.9635C126.58 60.2252 126.778 60.5352 126.909 60.8751C127.046 61.2252 127.115 61.5979 127.113 61.9737C127.119 62.5098 126.976 63.0371 126.7 63.4967C126.427 63.9515 126.022 64.3127 125.539 64.533L127.124 67.0352H124.995L123.591 64.8386H122.73V67.0352H120.896V59.1084ZM123.988 63.3439C124.167 63.3459 124.345 63.307 124.508 63.2304C124.662 63.1593 124.799 63.0572 124.91 62.9305C125.022 62.8023 125.109 62.6543 125.165 62.4942C125.286 62.1576 125.286 61.7895 125.165 61.453C125.108 61.2928 125.022 61.1449 124.91 61.0167C124.798 60.8901 124.662 60.7879 124.508 60.7166C124.345 60.64 124.167 60.6013 123.988 60.6032H122.73V63.3439H123.988Z" fill="#333333"/>
<path d="M129.784 60.6941H127.995V59.1084H133.419V60.6941H131.621V67.0351H129.786L129.784 60.6941Z" fill="#333333"/>
<path d="M82.9808 49.9271C82.7298 50.7673 82.3366 51.5582 81.8183 52.2655C81.2892 52.9904 80.6436 53.6224 79.9077 54.1358C79.1294 54.6762 78.2735 55.0953 77.3694 55.3785C76.3836 55.6875 75.3557 55.8409 74.3227 55.8329C72.9155 55.8574 71.5187 55.5888 70.2209 55.0443C69.0728 54.5554 68.0365 53.8377 67.1751 52.9349C66.3137 52.0321 65.6454 50.9633 65.211 49.7935C64.762 48.5981 64.5356 47.3306 64.543 46.0536C64.5394 44.8082 64.7612 43.5725 65.1977 42.4061C65.6193 41.2638 66.254 40.212 67.0681 39.3064C67.8998 38.3914 68.9088 37.6552 70.0339 37.1422C71.2716 36.5839 72.6172 36.3055 73.9749 36.327C75.1713 36.309 76.3627 36.4856 77.5025 36.8498C78.4692 37.1617 79.3735 37.6411 80.1743 38.2661C80.9114 38.8503 81.5285 39.5716 81.9916 40.3902C82.4564 41.2154 82.79 42.1079 82.9804 43.0356H81.0836C80.9097 42.3339 80.6302 41.6626 80.2547 41.0449C79.8792 40.4284 79.395 39.8852 78.8255 39.4416C78.2152 38.971 77.5282 38.6093 76.7947 38.3726C75.9526 38.1044 75.0729 37.9737 74.1892 37.9854C73.058 37.9652 71.9361 38.1932 70.9025 38.6533C69.9727 39.075 69.1402 39.6847 68.4575 40.4437C67.7873 41.1963 67.2699 42.072 66.9341 43.0222C66.2301 45.0165 66.2396 47.1934 66.9611 49.1815C67.3136 50.1525 67.8638 51.0398 68.5767 51.7874C69.2897 52.5349 70.1499 53.1265 71.1032 53.5247C72.1905 53.9771 73.3595 54.1999 74.5371 54.1793C75.2574 54.1803 75.9738 54.0718 76.6616 53.8576C77.324 53.6545 77.9539 53.3575 78.5319 52.9756C79.089 52.6052 79.5887 52.1549 80.015 51.6393C80.4372 51.1326 80.763 50.553 80.9766 49.929L82.9808 49.9271Z" fill="#FF7600"/>
<path d="M86.3211 36.7272H88.0584V55.4321H86.3211V36.7272Z" fill="#FF7600"/>
<path d="M97.6237 55.7268C96.7481 55.7404 95.8791 55.5722 95.0717 55.2329C94.3371 54.9192 93.6736 54.4601 93.1209 53.8834C92.5772 53.3124 92.1506 52.6405 91.865 51.9056C91.5697 51.1479 91.4203 50.341 91.4247 49.5277C91.4211 48.7101 91.5705 47.899 91.865 47.1362C92.1464 46.3993 92.5735 45.7268 93.1209 45.1589C93.6768 44.5893 94.3398 44.1354 95.0717 43.823C95.879 43.4833 96.748 43.3148 97.6237 43.3283C98.5079 43.3167 99.3852 43.485 100.202 43.823C100.945 44.1306 101.617 44.5849 102.18 45.1589C102.727 45.7267 103.154 46.3992 103.435 47.1362C103.731 47.8988 103.881 48.7099 103.878 49.5277C103.882 50.3412 103.732 51.148 103.435 51.9056C103.15 52.6406 102.723 53.3125 102.18 53.8834C101.62 54.4646 100.947 54.924 100.202 55.2329C99.3851 55.5705 98.5078 55.7385 97.6237 55.7268ZM97.6237 54.1239C98.2668 54.1344 98.9046 54.0067 99.4941 53.7494C100.028 53.5132 100.51 53.1726 100.91 52.7477C101.305 52.3256 101.613 51.8309 101.819 51.2911C102.035 50.7285 102.144 50.1304 102.141 49.5277C102.143 48.9207 102.034 48.3183 101.819 47.7507C101.617 47.2038 101.307 46.7031 100.908 46.2785C100.508 45.8539 100.028 45.514 99.4941 45.2791C98.9046 45.022 98.2668 44.8944 97.6237 44.9048C96.9894 44.8961 96.3606 45.0237 95.7799 45.2791C95.2487 45.5136 94.7713 45.8547 94.3772 46.2812C93.9879 46.7095 93.684 47.2083 93.4821 47.7507C93.2667 48.3183 93.1576 48.9207 93.1603 49.5277C93.1567 50.1304 93.2659 50.7285 93.4821 51.2911C93.6862 51.8286 93.9899 52.3228 94.3772 52.7477C94.7711 53.1743 95.2486 53.5153 95.7799 53.7494C96.3606 54.0046 96.9895 54.1319 97.6237 54.1226V54.1239Z" fill="#FF7600"/>
<path d="M117.771 43.5943V55.4321H116.034V52.8668C115.682 53.685 115.108 54.3885 114.377 54.8977C113.546 55.4695 112.553 55.7597 111.545 55.7257C110.825 55.7413 110.11 55.6043 109.447 55.3236C108.881 55.0796 108.382 54.704 107.991 54.2281C107.627 53.7693 107.359 53.2423 107.203 52.6782C107.02 51.9808 106.934 51.2614 106.949 50.5405V43.5943H108.712V50.0345C108.708 50.5834 108.77 51.1308 108.899 51.6644C109.009 52.1328 109.214 52.5738 109.501 52.9602C109.78 53.3282 110.141 53.6257 110.556 53.8288C111.05 54.057 111.589 54.1672 112.133 54.1505C112.73 54.1646 113.322 54.0316 113.856 53.7632C114.333 53.5157 114.749 53.1642 115.072 52.7346C115.396 52.3002 115.641 51.8114 115.793 51.2912C115.953 50.7627 116.034 50.2135 116.035 49.6614V43.5943H117.771Z" fill="#FF7600"/>
<path d="M131.853 52.9468C131.461 53.7846 130.828 54.4867 130.036 54.9643C129.201 55.4765 128.237 55.7405 127.257 55.7256C126.399 55.7359 125.548 55.5677 124.759 55.2318C124.027 54.92 123.367 54.4606 122.822 53.8822C122.285 53.3084 121.863 52.6371 121.579 51.9045C121.283 51.1469 121.133 50.34 121.137 49.5266C121.133 48.7088 121.283 47.8976 121.579 47.135C121.859 46.4004 122.281 45.7284 122.822 45.1577C123.371 44.5865 124.03 44.1321 124.759 43.8218C125.548 43.4854 126.399 43.317 127.257 43.3271C128.235 43.3123 129.198 43.5716 130.036 44.0755C130.834 44.5513 131.469 45.2597 131.853 46.1059V36.7272H133.592V55.4321H131.855L131.853 52.9468ZM127.337 54.1226C127.98 54.1332 128.618 54.0055 129.208 53.7483C129.742 53.512 130.223 53.1714 130.624 52.7466C131.018 52.3244 131.327 51.8297 131.532 51.29C131.749 50.7274 131.858 50.1293 131.854 49.5266C131.857 48.9195 131.748 48.3171 131.532 47.7495C131.331 47.2026 131.021 46.7019 130.621 46.2773C130.222 45.8527 129.741 45.5129 129.208 45.2779C128.618 45.0208 127.98 44.8931 127.337 44.9035C126.703 44.8948 126.074 45.0225 125.493 45.2779C124.962 45.5124 124.485 45.8535 124.091 46.2801C123.702 46.7085 123.398 47.2073 123.196 47.7495C122.98 48.3171 122.871 48.9195 122.874 49.5266C122.87 50.1293 122.979 50.7274 123.196 51.29C123.4 51.8273 123.704 52.3215 124.091 52.7466C124.484 53.1733 124.962 53.5142 125.493 53.7483C126.074 54.0038 126.703 54.1315 127.337 54.1226Z" fill="#FF7600"/>
<path d="M19.2251 35.6322L17.9101 35.0571C19.5522 31.2973 22.2551 28.0979 25.6878 25.8509C29.1204 23.6038 33.1339 22.4066 37.2367 22.4057C37.6863 22.4057 38.1427 22.4206 38.6008 22.4499C38.571 21.9927 38.5561 21.5363 38.5561 21.0863C38.5566 16.3702 40.1379 11.7904 43.0473 8.07872C45.9567 4.36703 50.0263 1.73764 54.6057 0.610811C59.1852 -0.516019 64.0102 -0.0752539 68.3098 1.8626C72.6093 3.80045 76.1352 7.1236 78.324 11.301C82.9072 9.74731 87.8852 9.8166 92.4233 11.4972C96.9615 13.1779 100.784 16.3676 103.25 20.5317C108.573 19.1539 114.225 19.9111 118.998 22.6417C123.772 25.3722 127.289 29.86 128.8 35.1476L127.42 35.5417C126.71 33.0585 125.518 30.7395 123.912 28.7175C122.305 26.6955 120.315 25.0102 118.056 23.758C115.798 22.5057 113.314 21.7112 110.748 21.4197C108.182 21.1283 105.584 21.3456 103.102 22.0595L102.554 22.2164L102.277 21.7193C99.9895 17.6093 96.3046 14.4556 91.8907 12.8304C87.4769 11.2052 82.6266 11.2163 78.2202 12.8616L77.609 13.0905L77.3235 12.5034C75.3812 8.50318 72.1399 5.27992 68.1288 3.36013C64.1178 1.44034 59.5743 0.937533 55.2406 1.93388C50.9069 2.93022 47.0392 5.36676 44.2693 8.84551C41.4994 12.3242 39.9912 16.6395 39.991 21.0863C39.9915 21.7796 40.0283 22.4723 40.1012 23.1617L40.1936 24.042L39.313 23.9503C38.6232 23.8779 37.9302 23.8412 37.2367 23.8405C33.413 23.8413 29.6725 24.9573 26.4733 27.0517C23.2742 29.1461 20.7553 32.1279 19.2251 35.6322Z" fill="#FF7600"/>
<path d="M142.998 39.8021C143.015 40.4201 142.847 41.0291 142.515 41.5511C142.184 42.0731 141.704 42.4844 141.138 42.7322C140.572 42.98 139.944 43.0532 139.336 42.9422C138.727 42.8313 138.166 42.5414 137.724 42.1096C137.281 41.6777 136.978 41.1237 136.852 40.5183C136.726 39.9129 136.784 39.2837 137.018 38.7114C137.252 38.139 137.651 37.6496 138.165 37.3056C138.678 36.9615 139.283 36.7786 139.901 36.7803C140.304 36.7723 140.704 36.8446 141.078 36.9927C141.453 37.1408 141.794 37.3618 142.082 37.643C142.37 37.9242 142.6 38.2599 142.757 38.6306C142.914 39.0012 142.996 39.3995 142.998 39.8021ZM137.562 39.8021C137.553 40.117 137.607 40.4305 137.721 40.7241C137.835 41.0176 138.008 41.285 138.228 41.5103C138.448 41.7356 138.712 41.9141 139.003 42.0352C139.293 42.1562 139.606 42.2174 139.921 42.2149C140.231 42.2137 140.537 42.1501 140.822 42.0281C141.107 41.9061 141.365 41.7281 141.579 41.5047C141.794 41.2812 141.962 41.0169 142.073 40.7274C142.183 40.4379 142.235 40.1291 142.224 39.8193C142.237 39.5061 142.186 39.1934 142.075 38.9001C141.965 38.6068 141.796 38.3387 141.579 38.1121C141.363 37.8855 141.102 37.7049 140.814 37.581C140.526 37.4572 140.216 37.3928 139.903 37.3916C139.589 37.3903 139.279 37.4523 138.989 37.5738C138.7 37.6953 138.439 37.8738 138.22 38.0987C138.002 38.3237 137.831 38.5903 137.718 38.8827C137.605 39.1752 137.552 39.4874 137.562 39.8008V39.8021ZM139.423 41.3869H138.723V38.3647C139.106 38.2973 139.495 38.2666 139.884 38.2727C140.248 38.2428 140.613 38.3196 140.934 38.4938C141.03 38.5752 141.106 38.677 141.157 38.7918C141.208 38.9066 141.233 39.0315 141.229 39.157C141.216 39.3264 141.147 39.4866 141.034 39.6132C140.921 39.7398 140.769 39.8257 140.602 39.8575V39.8942C140.753 39.955 140.884 40.0558 140.981 40.1857C141.079 40.3157 141.139 40.4697 141.155 40.6313C141.185 40.894 141.26 41.1495 141.377 41.3869H140.621C140.504 41.1546 140.423 40.9061 140.38 40.6497C140.325 40.318 140.138 40.1704 139.753 40.1704H139.422L139.423 41.3869ZM139.442 39.6733H139.773C140.16 39.6733 140.474 39.5438 140.474 39.231C140.474 38.9547 140.273 38.7701 139.83 38.7701C139.7 38.7673 139.571 38.7797 139.443 38.8071L139.442 39.6733Z" fill="#0B38DB"/>
</svg>
