<svg width="22" height="20" viewBox="0 0 22 20" fill="none" xmlns="http://www.w3.org/2000/svg">
<g clip-path="url(#clip0_598_5936)">
<path d="M11 5.00002C11.9634 4.99823 12.9225 5.12633 13.8517 5.38085C14.7738 5.63397 15.666 5.98601 16.5125 6.43084C17.3642 6.8771 18.169 7.40752 18.915 8.01417C19.6605 8.62097 20.3576 9.28492 21 9.99999C20.3606 10.7179 19.6639 11.3826 18.9167 11.9875C18.17 12.5932 17.3652 13.1235 16.5142 13.5708C15.6676 14.0156 14.7755 14.3677 13.8533 14.6208C12.9236 14.8749 11.9638 15.0024 11 15C10.0366 15.0017 9.07745 14.8737 8.14833 14.6191C7.22615 14.366 6.33403 14.014 5.4875 13.5691C4.6365 13.1215 3.83128 12.5918 3.08333 11.9875C2.33375 11.3853 1.63679 10.7204 1 9.99999C1.63941 9.28364 2.33617 8.62062 3.08333 8.0175C3.83157 7.41151 4.63801 6.88114 5.49083 6.43418C6.33736 5.98935 7.22949 5.6373 8.15167 5.38418C9.07956 5.12884 10.0376 4.99962 11 5.00002ZM14.75 9.99999C14.7529 9.4996 14.6516 9.00408 14.4525 8.545C14.2615 8.10049 13.9881 7.69615 13.6467 7.35334C13.3039 7.01194 12.8995 6.73851 12.455 6.54751C11.9959 6.34839 11.5004 6.24707 11 6.25001C10.4996 6.24707 10.0041 6.34839 9.545 6.54751C9.10048 6.73851 8.69614 7.01194 8.35333 7.35334C8.01193 7.69615 7.7385 8.10049 7.5475 8.545C7.34838 9.00408 7.24706 9.4996 7.25 9.99999C7.24706 10.5004 7.34838 10.9959 7.5475 11.455C7.7385 11.8995 8.01193 12.3038 8.35333 12.6466C8.69614 12.988 9.10048 13.2615 9.545 13.4525C10.0041 13.6516 10.4996 13.7529 11 13.75C11.5004 13.7529 11.9959 13.6516 12.455 13.4525C12.8995 13.2615 13.3039 12.988 13.6467 12.6466C13.9881 12.3038 14.2615 11.8995 14.4525 11.455C14.6516 10.9959 14.7529 10.5004 14.75 9.99999ZM2.72833 9.99999C3.33772 10.5902 3.99068 11.1337 4.68167 11.6258C5.37284 12.1178 6.11623 12.532 6.89833 12.8608C6.6063 12.4443 6.38135 11.9845 6.23167 11.4983C6.07898 11.0135 6.00087 10.5083 6 9.99999C5.99989 9.49127 6.07716 8.98548 6.22917 8.5C6.37885 8.0138 6.6038 7.55406 6.89583 7.13751C6.11373 7.46632 5.37034 7.88049 4.67917 8.3725C3.98898 8.86529 3.33686 9.40933 2.72833 9.99999ZM15.1017 12.8616C15.8838 12.5328 16.6272 12.1187 17.3183 11.6266C18.0093 11.1342 18.6623 10.5905 19.2717 9.99999C18.6623 9.4098 18.0093 8.86632 17.3183 8.37417C16.6272 7.88216 15.8838 7.46798 15.1017 7.13917C15.3937 7.55572 15.6187 8.01546 15.7683 8.50167C15.921 8.98649 15.9991 9.4917 16 9.99999C16.0001 10.5087 15.9228 11.0145 15.7708 11.5C15.6203 11.986 15.3945 12.4455 15.1017 12.8616ZM11 11.25C10.8322 11.2516 10.6659 11.2184 10.5117 11.1525C10.3639 11.0889 10.2296 10.9979 10.1158 10.8842C10.0021 10.7704 9.91107 10.6361 9.8475 10.4883C9.78154 10.3341 9.74834 10.1678 9.75 9.99999C9.74834 9.83222 9.78154 9.66593 9.8475 9.51166C9.91107 9.36391 10.0021 9.22959 10.1158 9.11583C10.2296 9.00213 10.3639 8.91107 10.5117 8.8475C10.6659 8.78154 10.8322 8.74834 11 8.75C11.1678 8.74834 11.3341 8.78154 11.4883 8.8475C11.6361 8.91107 11.7704 9.00213 11.8842 9.11583C11.9979 9.22959 12.0889 9.36391 12.1525 9.51166C12.2185 9.66593 12.2517 9.83222 12.25 9.99999C12.2517 10.1678 12.2185 10.3341 12.1525 10.4883C12.0889 10.6361 11.9979 10.7704 11.8842 10.8842C11.7704 10.9979 11.6361 11.0889 11.4883 11.1525C11.3341 11.2184 11.1678 11.2516 11 11.25Z" fill="#0279FF"/>
</g>
<defs>
<clipPath id="clip0_598_5936">
<rect width="22" height="20" fill="white"/>
</clipPath>
</defs>
</svg>
