<?xml version="1.0" encoding="utf-8"?>
<!-- Generator: Adobe Illustrator 24.2.1, SVG Export Plug-In . SVG Version: 6.00 Build 0)  -->
<svg version="1.1" id="Layer_1" xmlns="http://www.w3.org/2000/svg" xmlns:xlink="http://www.w3.org/1999/xlink" x="0px" y="0px"
	 width="26" height= "18" viewBox="0 0 27 18" style="enable-background:new 0 0 27 18;" xml:space="preserve">
<style type="text/css">
	.st0{fill:#CCCCCC;}
	.st1{fill:#FF8238;}
</style>
<path class="st0" d="M0.6,5.5c1.2-1.2,2.5-2.2,3.9-3C5.9,1.6,7.4,1,8.9,0.6c3-0.8,6.2-0.8,9.3,0c1.5,0.4,3,1,4.4,1.8
	c1.4,0.8,2.7,1.8,3.9,3l-1.1,1.1c-1.1-1.1-2.3-2-3.6-2.8c-1.3-0.7-2.6-1.3-4-1.7c-2.8-0.7-5.7-0.7-8.5,0c-1.4,0.4-2.8,0.9-4,1.7
	C4,4.5,2.8,5.5,1.7,6.6L0.6,5.5z"/>
<path class="st1" d="M3.9,8.7c1.3-1.3,2.8-2.3,4.4-3s3.5-1.1,5.3-1.1c1.8,0,3.6,0.4,5.3,1.1c1.7,0.7,3.2,1.7,4.4,3l-1.1,1.1
	c-1.1-1.1-2.5-2.1-3.9-2.7c-1.5-0.6-3.1-0.9-4.7-0.9c-1.6,0-3.2,0.3-4.7,0.9C7.4,7.8,6.1,8.7,4.9,9.8L3.9,8.7z"/>
<path class="st1" d="M7.1,12c0.6-0.6,1.2-1.1,1.9-1.5c0.7-0.4,1.4-0.7,2.2-0.9c1.5-0.4,3.1-0.4,4.6,0c0.8,0.2,1.5,0.5,2.2,0.9
	c0.7,0.4,1.4,0.9,1.9,1.5l-1.1,1.1c-0.5-0.5-1-0.9-1.6-1.3c-0.6-0.3-1.2-0.6-1.8-0.8c-1.3-0.3-2.6-0.3-3.9,0
	c-0.6,0.2-1.3,0.4-1.8,0.8c-0.6,0.3-1.1,0.8-1.6,1.3L7.1,12z M15.2,13.6c0.2,0.2,0.4,0.5,0.5,0.8c0.2,0.6,0.2,1.2,0,1.8
	c-0.2,0.6-0.7,1-1.3,1.3c-0.3,0.1-0.6,0.2-0.9,0.2s-0.6-0.1-0.9-0.2c-0.4-0.2-0.8-0.5-1-0.9c-0.3-0.4-0.4-0.8-0.4-1.3
	c0-0.5,0.1-0.9,0.4-1.3c0.3-0.4,0.6-0.7,1-0.9c0.4-0.2,0.9-0.2,1.3-0.1C14.4,13.1,14.8,13.3,15.2,13.6L15.2,13.6z"/>
</svg>
