<svg width="26" height="18" viewBox="0 0 28 20" fill="none" xmlns="http://www.w3.org/2000/svg">
<path d="M6.65526 12.4086C7.24913 11.7988 7.92427 11.2739 8.66161 10.8487C9.37188 10.4397 10.1323 10.1246 10.9237 9.91147C12.4878 9.49325 14.1343 9.49325 15.6983 9.91147C16.4899 10.1241 17.2504 10.4391 17.9604 10.8487C18.698 11.2736 19.3732 11.7985 19.9668 12.4086L18.8584 13.5427C18.3637 13.0348 17.8017 12.597 17.1882 12.2416C16.596 11.9004 15.9622 11.6374 15.3025 11.459C13.9996 11.1121 12.6287 11.1121 11.3258 11.459C10.6664 11.6372 10.0328 11.9002 9.44111 12.2416C8.82707 12.5963 8.26501 13.0341 7.77086 13.5427L6.65526 12.4086ZM3.32816 9.01448C4.62594 7.68004 6.17807 6.61932 7.89281 5.89502C9.60755 5.17072 11.4501 4.79752 13.3115 4.79752C15.173 4.79752 17.0155 5.17072 18.7302 5.89502C20.445 6.61932 21.9971 7.68004 23.2949 9.01448L22.1855 10.1486C21.0306 8.96487 19.6505 8.02415 18.1265 7.38186C16.6025 6.73958 14.9653 6.40871 13.3115 6.40871C11.6577 6.40871 10.0206 6.73958 8.49661 7.38186C6.9726 8.02415 5.59248 8.96487 4.43753 10.1486L3.32816 9.01448ZM0 5.62138C1.18715 4.40117 2.53758 3.35124 4.01276 2.5015C5.43319 1.68253 6.9544 1.05242 8.53789 0.627115C11.6654 -0.209038 14.9577 -0.209038 18.0852 0.627115C19.6686 1.05264 21.1898 1.68274 22.6104 2.5015C24.0849 3.35165 25.4349 4.40154 26.622 5.62138L25.5137 6.75551C24.4262 5.63898 23.1892 4.67855 21.8381 3.90163C20.5374 3.15361 19.1453 2.57729 17.6964 2.18705C14.8232 1.42195 11.7998 1.42195 8.9266 2.18705C7.47747 2.57729 6.085 3.15361 4.78395 3.90163C3.43334 4.67889 2.1968 5.63929 1.10943 6.75551L0 5.62138ZM14.9756 14.1057C15.1993 14.3336 15.3746 14.6043 15.4911 14.9016C15.728 15.4904 15.7245 16.1486 15.4814 16.7348C15.2383 17.321 14.775 17.7886 14.191 18.037C13.9098 18.1546 13.6081 18.2151 13.3033 18.2151C12.9985 18.2151 12.6968 18.1546 12.4156 18.037C11.978 17.8509 11.6048 17.5402 11.3424 17.1435C11.0801 16.7469 10.9403 16.2819 10.9403 15.8063C10.9403 15.3308 11.0801 14.8658 11.3424 14.4691C11.6048 14.0725 11.978 13.7618 12.4156 13.5757C12.8455 13.3979 13.3188 13.3533 13.7743 13.4476C14.2298 13.5419 14.6465 13.7708 14.9704 14.1046L14.9756 14.1057Z" fill="#CCCCCC"/>
<path d="M18.1446 10.7481L27.9519 20M18.121 20L27.9519 10.7481" stroke="#CCCCCC" stroke-width="2"/>
<path d="M15.0642 11.6507L18.9201 7.9908L19.831 8.93283L16.2466 12.8112L15.0642 11.6507Z" fill="white"/>
<path d="M17.1255 11.2171L20.8369 14.7317L19.6973 15.8486L16.1585 12.135L17.1255 11.2171Z" fill="white"/>
<path d="M19.831 8.93283L23.4618 12.5285L22.5697 13.4959L18.6389 9.79468L19.831 8.93283Z" fill="white"/>
</svg>
