
<svg width="26" height="18" viewBox="0 0 26 18" fill="none" xmlns="http://www.w3.org/2000/svg">
<style type="text/css">
	.st0{fill:#FF8238;}
</style>
<path class="st0" d="M6.5,12c0.6-0.6,1.2-1.1,1.9-1.5c0.7-0.4,1.4-0.7,2.2-0.9c1.5-0.4,3.1-0.4,4.6,0c0.8,0.2,1.5,0.5,2.2,0.9
	c0.7,0.4,1.4,0.9,1.9,1.5l-1.1,1.1c-0.5-0.5-1-0.9-1.6-1.3c-0.6-0.3-1.2-0.6-1.8-0.8c-1.3-0.3-2.6-0.3-3.9,0
	c-0.6,0.2-1.3,0.4-1.8,0.8c-0.6,0.3-1.1,0.8-1.6,1.3L6.5,12z M3.2,8.7c1.3-1.3,2.8-2.3,4.4-3c1.7-0.7,3.5-1.1,5.3-1.1
	s3.6,0.4,5.3,1.1c1.7,0.7,3.2,1.7,4.4,3l-1.1,1.1c-1.1-1.1-2.5-2.1-3.9-2.7c-1.5-0.6-3.1-0.9-4.7-0.9S9.7,6.5,8.2,7.2
	C6.8,7.8,5.4,8.7,4.3,9.8L3.2,8.7z M0,5.5c1.2-1.2,2.5-2.2,3.9-3C5.3,1.6,6.7,1,8.3,0.6c3-0.8,6.2-0.8,9.3,0c1.5,0.4,3,1,4.4,1.8
	c1.4,0.8,2.7,1.8,3.9,3l-1.1,1.1c-1.1-1.1-2.3-2-3.6-2.8c-1.3-0.7-2.6-1.3-4-1.7c-2.8-0.7-5.7-0.7-8.5,0c-1.4,0.4-2.8,0.9-4,1.7
	C3.3,4.5,2.1,5.5,1.1,6.6L0,5.5z M14.5,13.7c0.2,0.2,0.4,0.5,0.5,0.8c0.2,0.6,0.2,1.2,0,1.8c-0.2,0.6-0.7,1-1.3,1.3
	c-0.3,0.1-0.6,0.2-0.9,0.2s-0.6-0.1-0.9-0.2c-0.4-0.2-0.8-0.5-1-0.9c-0.3-0.4-0.4-0.8-0.4-1.3c0-0.5,0.1-0.9,0.4-1.3
	c0.3-0.4,0.6-0.7,1-0.9c0.4-0.2,0.9-0.2,1.3-0.1C13.8,13.1,14.2,13.4,14.5,13.7L14.5,13.7z"/>
</svg>
