<?xml version="1.0" standalone="no"?>
<!DOCTYPE svg PUBLIC "-//W3C//DTD SVG 20010904//EN"
 "http://www.w3.org/TR/2001/REC-SVG-20010904/DTD/svg10.dtd">
<svg version="1.0" xmlns="http://www.w3.org/2000/svg"
 width="44.000000pt" height="45.000000pt" viewBox="0 0 44.000000 45.000000"
 preserveAspectRatio="xMidYMid meet">

<g transform="translate(0.000000,45.000000) scale(0.100000,-0.100000)"
fill="#000000" stroke="none">
<path d="M156 436 c-52 -19 -86 -45 -114 -86 -97 -143 4 -334 178 -334 228 0
297 305 93 408 -47 24 -112 29 -157 12z m54 -57 l0 -42 -42 7 c-23 4 -44 9
-47 12 -9 8 53 64 71 64 14 0 18 -8 18 -41z m85 11 c16 -16 26 -32 24 -34 -3
-3 -24 -8 -47 -12 l-42 -7 0 42 c0 51 23 55 65 11z m-185 -10 c0 -5 -5 -10
-11 -10 -5 0 -7 5 -4 10 3 6 8 10 11 10 2 0 4 -4 4 -10z m235 0 c3 -5 1 -10
-4 -10 -6 0 -11 5 -11 10 0 6 2 10 4 10 3 0 8 -4 11 -10z m-268 -87 c-10 -46
-14 -53 -35 -53 -18 0 -23 4 -18 16 3 9 6 21 6 27 0 22 41 80 50 71 4 -5 3
-33 -3 -61z m317 29 c7 -15 16 -39 20 -54 6 -24 3 -28 -17 -28 -20 0 -25 7
-34 53 -15 74 1 89 31 29z m-184 -44 l0 -38 -61 0 -62 0 7 42 c4 22 9 44 11
48 2 4 27 2 55 -4 49 -10 50 -10 50 -48z m136 5 l7 -43 -62 0 -61 0 0 38 c0
38 1 39 48 48 26 6 50 7 54 4 4 -3 10 -24 14 -47z m-269 -115 c6 -29 7 -57 3
-62 -9 -9 -50 49 -50 71 0 6 -3 18 -6 27 -5 12 0 16 18 16 21 0 25 -7 35 -52z
m133 14 c0 -38 -1 -38 -50 -48 -28 -6 -53 -8 -55 -4 -2 4 -7 26 -11 48 l-7 42
62 0 61 0 0 -38z m136 -4 c-4 -22 -9 -44 -11 -48 -2 -4 -27 -2 -55 4 -49 10
-50 10 -50 48 l0 38 61 0 62 0 -7 -42z m70 26 c-3 -9 -6 -21 -6 -27 0 -22 -41
-80 -50 -71 -4 5 -3 33 3 62 10 45 14 52 35 52 18 0 23 -4 18 -16z m-206 -124
c0 -49 -20 -53 -62 -13 -34 32 -35 40 -5 46 62 12 67 10 67 -33z m109 24 c9
-8 -53 -64 -71 -64 -14 0 -18 8 -18 41 l0 42 42 -7 c23 -4 44 -9 47 -12z
m-209 -24 c0 -5 -2 -10 -4 -10 -3 0 -8 5 -11 10 -3 6 -1 10 4 10 6 0 11 -4 11
-10z m240 6 c0 -3 -4 -8 -10 -11 -5 -3 -10 -1 -10 4 0 6 5 11 10 11 6 0 10 -2
10 -4z"/>
</g>
</svg>
