<svg width="14" height="14" viewBox="0 0 14 14" fill="none" xmlns="http://www.w3.org/2000/svg">
<path d="M5.71429 3.21429C5.99043 3.21429 6.21429 2.99043 6.21429 2.71429C6.21429 2.43814 5.99043 2.21429 5.71429 2.21429V3.21429ZM11.7857 8.28571C11.7857 8.00957 11.5619 7.78571 11.2857 7.78571C11.0096 7.78571 10.7857 8.00957 10.7857 8.28571H11.7857ZM13 1H13.5V0.5H13V1ZM12.5 5.28571C12.5 5.56186 12.7239 5.78571 13 5.78571C13.2761 5.78571 13.5 5.56186 13.5 5.28571H12.5ZM8.71429 0.5C8.43814 0.5 8.21429 0.723858 8.21429 1C8.21429 1.27614 8.43814 1.5 8.71429 1.5V0.5ZM5.71429 2.21429H1.1V3.21429H5.71429V2.21429ZM0.5 2.81429V12.9H1.5V2.81429H0.5ZM1.1 13.5H11.1857V12.5H1.1V13.5ZM11.7857 12.9V8.28571H10.7857V12.9H11.7857ZM4.35355 10.3536L13.3536 1.35355L12.6464 0.646447L3.64645 9.64645L4.35355 10.3536ZM12.5 1V5.28571H13.5V1H12.5ZM13 0.5H8.71429V1.5H13V0.5ZM11.1857 13.5C11.5171 13.5 11.7857 13.2314 11.7857 12.9H10.7857C10.7857 12.6791 10.9648 12.5 11.1857 12.5V13.5ZM0.5 12.9C0.5 13.2314 0.768624 13.5 1.1 13.5V12.5C1.32092 12.5 1.5 12.6791 1.5 12.9H0.5ZM1.1 2.21429C0.768628 2.21429 0.5 2.48292 0.5 2.81429H1.5C1.5 3.0352 1.32091 3.21429 1.1 3.21429V2.21429Z" fill="#1A1F22"/>
</svg>
