<svg width="13" height="43" viewBox="0 0 13 43" fill="none" xmlns="http://www.w3.org/2000/svg">
<path d="M9.92578 42.7889V39.348C9.53008 39.477 9.11733 39.5444 8.70117 39.548H4.21191C3.94329 39.5471 3.67558 39.5204 3.41211 39.468V42.787H1.61816V38.6279C1.11777 38.2376 0.712197 37.7388 0.432617 37.1691C0.153037 36.5993 0.0064919 35.9736 0.00390625 35.339V5.20801C0.00522949 4.09185 0.44904 3.02179 1.23828 2.23254C2.02752 1.4433 3.09771 0.999248 4.21387 0.997925H8.70312C9.81928 0.999248 10.8895 1.4433 11.6787 2.23254C12.468 3.02179 12.9118 4.09185 12.9131 5.20801V35.3419C12.9128 36.4358 12.4839 37.4861 11.7188 38.2679V42.791L9.92578 42.7889ZM2.00391 5.20996V35.3419C2.00364 35.6321 2.06104 35.9196 2.17188 36.1877C2.28271 36.4559 2.44535 36.6996 2.65039 36.9049C2.85544 37.1102 3.09819 37.2732 3.36621 37.3844C3.63423 37.4956 3.92174 37.5528 4.21191 37.553H8.70117C9.28748 37.5527 9.84909 37.3196 10.2637 36.905C10.6783 36.4904 10.9118 35.9282 10.9121 35.3419V5.21094C10.9113 4.62506 10.6782 4.06353 10.2637 3.64954C9.84912 3.23554 9.28705 3.00293 8.70117 3.00293H4.21191C3.6264 3.00266 3.06479 3.23491 2.65039 3.64856C2.23599 4.06221 2.00275 4.62347 2.00195 5.20898L2.00391 5.20996ZM6.32715 23.4619C5.93696 23.3818 5.58437 23.1736 5.32617 22.8702C5.06797 22.5669 4.91917 22.1859 4.90234 21.788C4.90234 21.758 4.89258 21.734 4.89258 21.708C4.89227 21.3056 5.02799 20.9149 5.27734 20.5991C5.5267 20.2833 5.87513 20.061 6.2666 19.968C6.404 19.9336 6.54489 19.9154 6.68652 19.9139C6.81907 19.9152 6.95165 19.9303 7.08105 19.959C7.527 20.0765 7.91013 20.3614 8.15137 20.7544C8.3926 21.1474 8.4731 21.6184 8.37598 22.0692C8.27886 22.52 8.01155 22.9161 7.62988 23.1749C7.24821 23.4338 6.78192 23.5355 6.32715 23.459V23.4619ZM6.32715 17.3619C5.93268 17.2809 5.57706 17.0689 5.31836 16.7603C5.05966 16.4516 4.91328 16.0646 4.90234 15.662C4.89789 15.6412 4.89412 15.6202 4.89258 15.599C4.89139 15.2425 4.99603 14.8936 5.19336 14.5967C5.39069 14.2998 5.67183 14.0681 6.00098 13.9312C6.33013 13.7942 6.69324 13.758 7.04297 13.8273C7.39269 13.8965 7.71373 14.0681 7.96582 14.3202C8.21792 14.5723 8.38972 14.8936 8.45898 15.2433C8.52825 15.593 8.49147 15.9554 8.35449 16.2845C8.21751 16.6137 7.98638 16.8948 7.68945 17.0922C7.39253 17.2895 7.04304 17.3941 6.68652 17.3929C6.56535 17.394 6.44503 17.3826 6.32617 17.359L6.32715 17.3619Z" fill="#808080"/>
</svg>
