<svg width="37" height="26" viewBox="0 0 37 26" fill="none" xmlns="http://www.w3.org/2000/svg">
<path d="M17.323 24.253C16.7845 24.0226 16.3254 23.6392 16.0028 23.1504C15.6802 22.6615 15.5083 22.0887 15.5083 21.503C15.5083 20.9173 15.6802 20.3444 16.0028 19.8556C16.3254 19.3667 16.7845 18.9833 17.323 18.753C17.8534 18.5337 18.4374 18.4787 18.9993 18.5952C19.5613 18.7116 20.0754 18.994 20.475 19.406C20.7535 19.6865 20.9722 20.0206 21.118 20.388C21.4105 21.1137 21.4068 21.9252 21.1077 22.6482C20.8085 23.3712 20.2378 23.9481 19.518 24.255C19.1712 24.4002 18.799 24.4751 18.423 24.4751C18.047 24.4751 17.6748 24.4002 17.328 24.255L17.323 24.253ZM23.2 17.1C22.4694 16.6796 21.6876 16.3553 20.874 16.135C19.2666 15.7075 17.5754 15.7075 15.968 16.135C15.1543 16.3549 14.3724 16.6793 13.642 17.1C12.8842 17.5362 12.19 18.0746 11.579 18.7L10.207 17.3C10.9395 16.5475 11.7723 15.8997 12.682 15.375C13.558 14.8702 14.4958 14.4813 15.472 14.218C17.4014 13.702 19.4326 13.702 21.362 14.218C22.3383 14.4809 23.2762 14.8698 24.152 15.375C25.0625 15.8988 25.8958 16.5467 26.628 17.3L25.26 18.7C24.6494 18.0753 23.9563 17.537 23.2 17.1ZM18.42 9.90697C16.3793 9.90695 14.3593 10.3152 12.4788 11.1075C10.5983 11.8999 8.89526 13.0605 7.47 14.521L6.106 13.121C7.70717 11.4749 9.62207 10.1664 11.7375 9.27295C13.853 8.37949 16.1261 7.91916 18.4225 7.91916C20.7189 7.91916 22.992 8.37949 25.1075 9.27295C27.2229 10.1664 29.1378 11.4749 30.739 13.121L29.37 14.521C27.9447 13.0605 26.2417 11.8999 24.3612 11.1075C22.4807 10.3152 20.4607 9.90695 18.42 9.90697ZM28.94 6.80697C27.3361 5.88359 25.6191 5.17231 23.832 4.69097C20.2875 3.74684 16.5575 3.74684 13.013 4.69097C11.2242 5.17275 9.5055 5.8847 7.9 6.80897C6.23414 7.76795 4.70901 8.95286 3.368 10.33L2 8.93497C3.46484 7.42969 5.13099 6.1344 6.951 5.08597C8.70313 4.07568 10.5797 3.29845 12.533 2.77397C16.3915 1.74168 20.4535 1.74168 24.312 2.77397C26.2652 3.29884 28.1417 4.07605 29.894 5.08597C31.7133 6.1342 33.3787 7.42915 34.843 8.93397L33.475 10.33C32.1332 8.95248 30.607 7.76754 28.94 6.80897V6.80697Z" fill="#808080"/>
</svg>
