<?xml version="1.0" standalone="no"?>
<!DOCTYPE svg PUBLIC "-//W3C//DTD SVG 20010904//EN"
 "http://www.w3.org/TR/2001/REC-SVG-20010904/DTD/svg10.dtd">
<svg version="1.0" xmlns="http://www.w3.org/2000/svg"
 width="44.000000pt" height="44.000000pt" viewBox="0 0 44.000000 44.000000"
 preserveAspectRatio="xMidYMid meet">

<g transform="translate(0.000000,44.000000) scale(0.100000,-0.100000)"
fill="#000000" stroke="none">
<path d="M135 422 c-61 -21 -115 -58 -115 -78 0 -11 9 -9 33 10 51 39 101 56
167 56 66 0 116 -17 166 -55 19 -14 35 -21 39 -15 9 14 -72 68 -128 85 -65 19
-100 19 -162 -3z"/>
<path d="M160 345 c-26 -8 -57 -26 -70 -40 -29 -31 -10 -33 30 -3 43 32 125
36 178 9 22 -11 44 -25 47 -31 4 -6 11 -8 16 -4 25 15 -57 67 -121 77 -19 3
-55 -1 -80 -8z"/>
<path d="M158 254 c-29 -15 -37 -34 -15 -34 6 0 21 7 31 15 11 8 32 15 46 15
14 0 35 -7 46 -15 34 -25 52 -17 21 10 -33 29 -86 33 -129 9z"/>
<path d="M7 154 c-12 -12 -8 -129 5 -142 19 -19 402 -17 417 2 7 9 11 40 9 78
l-3 63 -211 3 c-115 1 -213 -1 -217 -4z m403 -69 l0 -55 -190 0 -190 0 0 55 0
55 190 0 190 0 0 -55z"/>
<path d="M341 96 c-9 -10 -8 -16 3 -25 10 -9 16 -8 25 3 9 10 8 16 -3 25 -10
9 -16 8 -25 -3z"/>
</g>
</svg>
