<svg width="26" height="18" viewBox="0 0 26 18" fill="none" xmlns="http://www.w3.org/2000/svg">
<path d="M3.22803 8.74326C4.48675 7.44897 5.99219 6.42016 7.65533 5.71765C9.31848 5.01514 11.1056 4.65317 12.911 4.65317C14.7164 4.65317 16.5035 5.01514 18.1667 5.71765C19.8298 6.42016 21.3353 7.44897 22.594 8.74326L21.518 9.84326C20.3978 8.69514 19.0593 7.78272 17.5811 7.15976C16.103 6.5368 14.5151 6.21588 12.911 6.21588C11.3069 6.21588 9.71912 6.5368 8.24097 7.15976C6.76281 7.78272 5.42421 8.69514 4.30402 9.84326L3.22803 8.74326ZM0 5.45224C1.15143 4.26875 2.46123 3.25041 3.89203 2.42624C5.26972 1.63191 6.74515 1.02075 8.28101 0.608247C11.3144 -0.202749 14.5076 -0.202749 17.541 0.608247C19.0768 1.02097 20.5523 1.63211 21.9301 2.42624C23.3603 3.25081 24.6697 4.26911 25.821 5.45224L24.746 6.55225C23.6913 5.46931 22.4915 4.53778 21.181 3.78424C19.9195 3.05873 18.5692 2.49974 17.164 2.12125C14.3772 1.37916 11.4448 1.37916 8.65802 2.12125C7.25249 2.49975 5.90192 3.05873 4.64001 3.78424C3.33004 4.53811 2.1307 5.46962 1.07605 6.55225L0 5.45224Z" fill="#CCCCCC"/>
<path d="M6.45404 12.0012C7.03003 11.4098 7.68486 10.9007 8.40002 10.4882C9.08892 10.0915 9.82646 9.78599 10.5941 9.57925C12.1111 9.17362 13.708 9.17362 15.225 9.57925C15.9928 9.78545 16.7304 10.091 17.4191 10.4882C18.1345 10.9003 18.7893 11.4095 19.3651 12.0012L18.29 13.1012C17.8102 12.6086 17.2651 12.184 16.67 11.8392C16.0957 11.5083 15.4809 11.2532 14.8411 11.0802C13.5774 10.7437 12.2477 10.7437 10.9841 11.0802C10.3445 11.253 9.72998 11.5082 9.15607 11.8392C8.5605 12.1832 8.01529 12.6079 7.53601 13.1012L6.45404 12.0012ZM14.524 13.6462C14.741 13.8673 14.9111 14.1299 15.024 14.4182C15.2538 14.9893 15.2504 15.6277 15.0146 16.1963C14.7789 16.7649 14.3295 17.2183 13.7631 17.4592C13.4903 17.5733 13.1977 17.6321 12.902 17.6321C12.6064 17.6321 12.3137 17.5733 12.041 17.4592C11.6166 17.2787 11.2546 16.9774 11.0002 16.5927C10.7457 16.208 10.6101 15.757 10.6101 15.2957C10.6101 14.8345 10.7457 14.3835 11.0002 13.9988C11.2546 13.6141 11.6166 13.3127 12.041 13.1322C12.4579 12.9598 12.9171 12.9165 13.3589 13.008C13.8007 13.0994 14.2049 13.3214 14.519 13.6452L14.524 13.6462Z" fill="#0179FF"/>
</svg>
