<svg width="20" height="20" viewBox="0 0 20 20" fill="none" xmlns="http://www.w3.org/2000/svg">
<g clip-path="url(#clip0_854_2936)">
<path d="M0 10C0.00275748 7.34868 1.05736 4.8069 2.93213 2.93213C4.8069 1.05736 7.34868 0.00275748 10 0C12.6513 0.00286757 15.1931 1.05739 17.0679 2.93213C18.9426 4.80687 19.9971 7.34872 20 10C19.997 12.6513 18.9426 15.1932 17.0679 17.0679C15.1932 18.9426 12.6513 19.997 10 20C7.34872 19.9971 4.80687 18.9426 2.93213 17.0679C1.05739 15.1931 0.00286757 12.6513 0 10Z" fill="#9E9E9E"/>
<path d="M13.3286 14.0171L9.89184 10.5801L6.45601 14.0171C6.36473 14.1083 6.24094 14.1595 6.1119 14.1595C5.98285 14.1594 5.85912 14.1083 5.7679 14.0171C5.67669 13.9258 5.62544 13.8015 5.62549 13.6724C5.62553 13.5434 5.67686 13.4199 5.76814 13.3287L9.20397 9.89271L5.76814 6.45765C5.72301 6.41249 5.68723 6.35809 5.66281 6.2991C5.6384 6.2401 5.62582 6.17686 5.62584 6.11301C5.62587 6.04916 5.63848 5.9859 5.66293 5.92692C5.68739 5.86794 5.72321 5.81444 5.76838 5.76931C5.81354 5.72418 5.86716 5.68834 5.92616 5.66392C5.98516 5.63951 6.0484 5.62687 6.11225 5.62689C6.1761 5.62692 6.2393 5.63947 6.29828 5.66392C6.35726 5.68838 6.41087 5.72509 6.45601 5.77026L9.89083 9.20532L13.3281 5.76646C13.3733 5.72126 13.4269 5.68554 13.4859 5.66107C13.5449 5.63661 13.6082 5.62405 13.6721 5.62405C13.736 5.62405 13.7992 5.63661 13.8582 5.66107C13.9172 5.68554 13.9709 5.72126 14.016 5.76646C14.0615 5.81137 14.0977 5.86507 14.1223 5.92407C14.147 5.98307 14.1597 6.0462 14.1597 6.11016C14.1597 6.17411 14.147 6.2382 14.1223 6.2972C14.0977 6.3562 14.0615 6.40895 14.016 6.45385L10.5782 9.89271L14.016 13.3316C14.0836 13.3995 14.1295 13.4863 14.1481 13.5803C14.1667 13.6743 14.1571 13.7718 14.1204 13.8604C14.0838 13.949 14.0218 14.0244 13.9422 14.0778C13.8627 14.1313 13.7691 14.16 13.6733 14.1604C13.6092 14.1604 13.5458 14.148 13.4866 14.1234C13.4275 14.0988 13.3738 14.0625 13.3286 14.0171Z" fill="white"/>
</g>
<defs>
<clipPath id="clip0_854_2936">
<rect width="20" height="20" fill="white"/>
</clipPath>
</defs>
</svg>
