<svg xmlns="http://www.w3.org/2000/svg" width="24" height="24" fill="none"><rect id="backgroundrect" width="100%" height="100%" x="0" y="0" fill="none" stroke="none"/>

<g class="currentLayer" style=""><title>Layer 1</title><path d="M12 7.00002C12.9634 6.99823 13.9225 7.12633 14.8517 7.38085C15.7738 7.63397 16.666 7.98601 17.5125 8.43084C18.3642 8.8771 19.169 9.40752 19.915 10.0142C20.6605 10.621 21.3576 11.2849 22 12C21.3606 12.7179 20.6639 13.3826 19.9167 13.9875C19.17 14.5932 18.3652 15.1235 17.5142 15.5708C16.6676 16.0156 15.7755 16.3677 14.8533 16.6208C13.9236 16.8749 12.9638 17.0024 12 17C11.0366 17.0017 10.0775 16.8737 9.14833 16.6191C8.22615 16.366 7.33403 16.014 6.4875 15.5691C5.6365 15.1215 4.83128 14.5918 4.08333 13.9875C3.33375 13.3853 2.63679 12.7204 2 12C2.63941 11.2836 3.33617 10.6206 4.08333 10.0175C4.83157 9.41151 5.63801 8.88114 6.49083 8.43418C7.33736 7.98935 8.22949 7.6373 9.15167 7.38418C10.0796 7.12884 11.0376 6.99962 12 7.00002ZM15.75 12C15.7529 11.4996 15.6516 11.0041 15.4525 10.545C15.2615 10.1005 14.9881 9.69615 14.6467 9.35334C14.3039 9.01194 13.8995 8.73851 13.455 8.54751C12.9959 8.34839 12.5004 8.24707 12 8.25001C11.4996 8.24707 11.0041 8.34839 10.545 8.54751C10.1005 8.73851 9.69614 9.01194 9.35333 9.35334C9.01193 9.69615 8.7385 10.1005 8.5475 10.545C8.34838 11.0041 8.24706 11.4996 8.25 12C8.24706 12.5004 8.34838 12.9959 8.5475 13.455C8.7385 13.8995 9.01193 14.3038 9.35333 14.6466C9.69614 14.988 10.1005 15.2615 10.545 15.4525C11.0041 15.6516 11.4996 15.7529 12 15.75C12.5004 15.7529 12.9959 15.6516 13.455 15.4525C13.8995 15.2615 14.3039 14.988 14.6467 14.6466C14.9881 14.3038 15.2615 13.8995 15.4525 13.455C15.6516 12.9959 15.7529 12.5004 15.75 12ZM3.72833 12C4.33772 12.5902 4.99068 13.1337 5.68167 13.6258C6.37284 14.1178 7.11623 14.532 7.89833 14.8608C7.6063 14.4443 7.38135 13.9845 7.23167 13.4983C7.07898 13.0135 7.00087 12.5083 7 12C6.99989 11.4913 7.07716 10.9855 7.22917 10.5C7.37885 10.0138 7.6038 9.55406 7.89583 9.13751C7.11373 9.46632 6.37034 9.88049 5.67917 10.3725C4.98898 10.8653 4.33686 11.4093 3.72833 12ZM16.1017 14.8616C16.8838 14.5328 17.6272 14.1187 18.3183 13.6266C19.0093 13.1342 19.6623 12.5905 20.2717 12C19.6623 11.4098 19.0093 10.8663 18.3183 10.3742C17.6272 9.88216 16.8838 9.46798 16.1017 9.13917C16.3937 9.55572 16.6187 10.0155 16.7683 10.5017C16.921 10.9865 16.9991 11.4917 17 12C17.0001 12.5087 16.9228 13.0145 16.7708 13.5C16.6203 13.986 16.3945 14.4455 16.1017 14.8616ZM12 13.25C11.8322 13.2516 11.6659 13.2184 11.5117 13.1525C11.3639 13.0889 11.2296 12.9979 11.1158 12.8842C11.0021 12.7704 10.9111 12.6361 10.8475 12.4883C10.7815 12.3341 10.7483 12.1678 10.75 12C10.7483 11.8322 10.7815 11.6659 10.8475 11.5117C10.9111 11.3639 11.0021 11.2296 11.1158 11.1158C11.2296 11.0021 11.3639 10.9111 11.5117 10.8475C11.6659 10.7815 11.8322 10.7483 12 10.75C12.1678 10.7483 12.3341 10.7815 12.4883 10.8475C12.6361 10.9111 12.7704 11.0021 12.8842 11.1158C12.9979 11.2296 13.0889 11.3639 13.1525 11.5117C13.2185 11.6659 13.2517 11.8322 13.25 12C13.2517 12.1678 13.2185 12.3341 13.1525 12.4883C13.0889 12.6361 12.9979 12.7704 12.8842 12.8842C12.7704 12.9979 12.6361 13.0889 12.4883 13.1525C12.3341 13.2184 12.1678 13.2516 12 13.25Z" fill="#0279ff" id="svg_1" class="" fill-opacity="1"/></g></svg>