<svg width="12" height="12" viewBox="0 0 12 12" fill="none" xmlns="http://www.w3.org/2000/svg">
<path d="M4.92857 2.92857C5.20471 2.92857 5.42857 2.70471 5.42857 2.42857C5.42857 2.15243 5.20471 1.92857 4.92857 1.92857V2.92857ZM10.0714 7.07143C10.0714 6.79529 9.84757 6.57143 9.57143 6.57143C9.29529 6.57143 9.07143 6.79529 9.07143 7.07143H10.0714ZM11 1H11.5V0.5H11V1ZM10.5 4.57143C10.5 4.84757 10.7239 5.07143 11 5.07143C11.2761 5.07143 11.5 4.84757 11.5 4.57143H10.5ZM7.42857 0.5C7.15243 0.5 6.92857 0.723858 6.92857 1C6.92857 1.27614 7.15243 1.5 7.42857 1.5V0.5ZM4.92857 1.92857H1.1V2.92857H4.92857V1.92857ZM0.5 2.52857V10.9H1.5V2.52857H0.5ZM1.1 11.5H9.47143V10.5H1.1V11.5ZM10.0714 10.9V7.07143H9.07143V10.9H10.0714ZM3.85355 8.85355L11.3536 1.35355L10.6464 0.646447L3.14645 8.14645L3.85355 8.85355ZM10.5 1V4.57143H11.5V1H10.5ZM11 0.5H7.42857V1.5H11V0.5ZM9.47143 11.5C9.8028 11.5 10.0714 11.2314 10.0714 10.9H9.07143C9.07143 10.6791 9.25052 10.5 9.47143 10.5V11.5ZM0.5 10.9C0.5 11.2314 0.768627 11.5 1.1 11.5V10.5C1.32092 10.5 1.5 10.6791 1.5 10.9H0.5ZM1.1 1.92857C0.768628 1.92857 0.5 2.1972 0.5 2.52857H1.5C1.5 2.74948 1.32091 2.92857 1.1 2.92857V1.92857Z" fill="#808080"/>
</svg>
