<svg width="11" height="11" viewBox="0 0 11 11" fill="none" xmlns="http://www.w3.org/2000/svg">
<path d="M6.875 1C6.66406 1 6.5 0.835938 6.5 0.625C6.5 0.4375 6.66406 0.25 6.875 0.25H10.625C10.8125 0.25 11 0.4375 11 0.625V4.375C11 4.58594 10.8125 4.75 10.625 4.75C10.4141 4.75 10.25 4.58594 10.25 4.375V1.53906L4.88281 6.90625C4.74219 7.04688 4.48438 7.04688 4.34375 6.90625C4.20312 6.76562 4.20312 6.50781 4.34375 6.36719L9.71094 1H6.875ZM0.5 2.125C0.5 1.51562 0.992188 1 1.625 1H4.625C4.8125 1 5 1.1875 5 1.375C5 1.58594 4.8125 1.75 4.625 1.75H1.625C1.41406 1.75 1.25 1.9375 1.25 2.125V9.625C1.25 9.83594 1.41406 10 1.625 10H9.125C9.3125 10 9.5 9.83594 9.5 9.625V6.625C9.5 6.4375 9.66406 6.25 9.875 6.25C10.0625 6.25 10.25 6.4375 10.25 6.625V9.625C10.25 10.2578 9.73438 10.75 9.125 10.75H1.625C0.992188 10.75 0.5 10.2578 0.5 9.625V2.125Z" fill="#1A1F22"/>
</svg>
