<svg xmlns="http://www.w3.org/2000/svg" xmlns:xlink="http://www.w3.org/1999/xlink" width="52" height="52" viewBox="0 0 52 52">
  <defs>
    <clipPath id="clip-path">
      <path id="Path_7740" data-name="Path 7740" d="M26,0A26,26,0,1,1,0,26,26,26,0,0,1,26,0Z" fill="none"/>
    </clipPath>
  </defs>
  <g id="Avatar" clip-path="url(#clip-path)">
    <path id="Path_7718" data-name="Path 7718" d="M26,0A26,26,0,1,1,0,26,26,26,0,0,1,26,0Z" fill="#349885"/>
    <g id="Group_6274" data-name="Group 6274" transform="translate(-408.626 -1296.618)">
      <g id="Group_6265" data-name="Group 6265" transform="translate(398.083 1296.646)">
        <g id="Group_6264" data-name="Group 6264" transform="translate(0 0)">
          <path id="Path_7933" data-name="Path 7933" d="M410.813,1446.032c-2.594,2.769-3.746,6.541-5.281,10.011s-3.829,7-7.449,8.138a23.243,23.243,0,0,0,32.08-8.88,8.867,8.867,0,0,0,1.348-5.81,7.29,7.29,0,0,0-3.108-4.383C423.083,1441.353,415.505,1441.022,410.813,1446.032Z" transform="translate(-398.083 -1407.821)" fill="#262362"/>
          <circle id="Ellipse_113" data-name="Ellipse 113" cx="18.001" cy="18.001" r="18.001" transform="translate(10.773 25.457) rotate(-45)" fill="#262362"/>
          <path id="Path_7934" data-name="Path 7934" d="M446.218,1497.215l6.266,53.887,34.074.118,6.4-54.129a10.053,10.053,0,0,0-10.005-10.626l-26.682-.093A10.054,10.054,0,0,0,446.218,1497.215Z" transform="translate(-434.805 -1441.48)" fill="#f57f25"/>
          <path id="Path_7935" data-name="Path 7935" d="M492.792,1486.385a12.974,12.974,0,0,0,25.313.088Z" transform="translate(-470.383 -1441.491)" fill="#ebaa6e"/>
          <path id="Path_7936" data-name="Path 7936" d="M533.682,1431.251l-.021,5.922a5.731,5.731,0,0,1-5.815,5.71h0a5.731,5.731,0,0,1-5.647-5.75l.048-13.807Z" transform="translate(-492.832 -1393.352)" fill="#ebaa6e"/>
          <path id="Path_7937" data-name="Path 7937" d="M523.709,1423.125a10.009,10.009,0,0,0,9.974,10.044h0a10.057,10.057,0,0,0,1.024-.048l.007-1.936a9.671,9.671,0,0,1-6.264-1.555,10.819,10.819,0,0,1-3.8-4.375C524.039,1424.026,523.709,1423.125,523.709,1423.125Z" transform="translate(-493.984 -1393.199)" fill="#e09a61"/>
          <path id="Path_7938" data-name="Path 7938" d="M531.919,1379.432h0a10.243,10.243,0,0,0,10.279-10.207l.029-8.292a10.243,10.243,0,0,0-10.207-10.279h0a10.243,10.243,0,0,0-10.278,10.207l-.029,8.292A10.243,10.243,0,0,0,531.919,1379.432Z" transform="translate(-492.46 -1337.875)" fill="#f4b980"/>
          <path id="Path_7939" data-name="Path 7939" d="M555.008,1403.059a.741.741,0,1,0,.744-.739A.741.741,0,0,0,555.008,1403.059Z" transform="translate(-517.878 -1377.316)" fill="#262362"/>
          <path id="Path_7940" data-name="Path 7940" d="M594.249,1403.2a.741.741,0,1,0,.744-.739A.741.741,0,0,0,594.249,1403.2Z" transform="translate(-547.834 -1377.42)" fill="#262362"/>
          <path id="Path_7941" data-name="Path 7941" d="M573.551,1439.154a2.7,2.7,0,0,1-4.908-.017Z" transform="translate(-528.287 -1405.422)" fill="#fff"/>
          <path id="Path_7942" data-name="Path 7942" d="M579.806,1399.814c.073.168,1.7,6.715,1.7,6.715l-2.456.506" transform="translate(-536.228 -1375.403)" fill="none" stroke="#050708" stroke-linecap="round" stroke-linejoin="round" stroke-width="0.5"/>
          <path id="Path_7943" data-name="Path 7943" d="M515.034,1408.281a1.652,1.652,0,0,1,1.612-1.645l-.011,3.3A1.652,1.652,0,0,1,515.034,1408.281Z" transform="translate(-487.362 -1380.612)" fill="#f4b980"/>
          <path id="Path_7944" data-name="Path 7944" d="M591.684,1393.205a2.7,2.7,0,0,0-3.863-.239" transform="translate(-542.927 -1369.641)" fill="none" stroke="#050708" stroke-linecap="round" stroke-linejoin="round" stroke-width="0.5"/>
          <path id="Path_7945" data-name="Path 7945" d="M501.938,1345.849c.47-.416.954-.813,1.452-1.183,5.656-4.209,13.737-5.955,20.559-3.109a20.714,20.714,0,0,1-20.87,15.342C501.662,1353.209,500.72,1349.333,501.938,1345.849Z" transform="translate(-476.937 -1329.867)" fill="#262362"/>
        </g>
        <path id="Path_7946" data-name="Path 7946" d="M502.291,1417.762a3.72,3.72,0,1,0,3.384-1" transform="translate(-476.795 -1388.339)" fill="none" stroke="#fff" stroke-linecap="round" stroke-linejoin="round" stroke-width="0.25"/>
        <path id="Path_7947" data-name="Path 7947" d="M511.872,1366.164a21.115,21.115,0,0,1-19.2,7.874" transform="translate(-470.293 -1349.715)" fill="none" stroke="#84a3d6" stroke-linecap="round" stroke-linejoin="round" stroke-width="0.25"/>
        <path id="Path_7948" data-name="Path 7948" d="M424.978,1441.767a12.032,12.032,0,0,0-10.278,4.009c-1.591,1.838-2.574,4.114-3.909,6.146s-3.22,3.93-5.623,4.3" transform="translate(-403.492 -1407.375)" fill="none" stroke="#262362" stroke-linecap="round" stroke-linejoin="round" stroke-width="1.682"/>
      </g>
      <path id="Path_7968" data-name="Path 7968" d="M498.75,1575.492l-25.934,8.441a5.836,5.836,0,0,1-7.268-3.492l-8.907-23.64a6.035,6.035,0,0,1,2.935-7.519h0a7.676,7.676,0,0,1,10.777,4.567l5.529,17.689,21.75-3.008" transform="translate(-44.406 -192.232)" fill="#f57f25"/>
      <path id="Path_7969" data-name="Path 7969" d="M459.93,1520.561h0a7.676,7.676,0,0,1,10.777,4.567l7.982,24.485,21.75-3.008" transform="translate(-47.213 -170.306)" fill="none" stroke="#fff" stroke-linecap="round" stroke-linejoin="round" stroke-width="1.682"/>
      <path id="Path_7970" data-name="Path 7970" d="M507.4,1622.042l-25.934,8.441a5.836,5.836,0,0,1-7.268-3.492l-6.614-17.553" transform="translate(-53.059 -238.782)" fill="none" stroke="#db681b" stroke-linecap="round" stroke-linejoin="round" stroke-width="1.682"/>
    </g>
    <path id="Path_8034" data-name="Path 8034" d="M26,0A26,26,0,1,1,0,26,26,26,0,0,1,26,0Z" transform="translate(854 -380)" fill="none"/>
  </g>
</svg>
