<svg xmlns="http://www.w3.org/2000/svg" xmlns:xlink="http://www.w3.org/1999/xlink" width="52" height="52" viewBox="0 0 52 52">
  <defs>
    <clipPath id="clip-path">
      <path id="Path_7903" data-name="Path 7903" d="M26,0A26,26,0,1,1,0,26,26,26,0,0,1,26,0Z" fill="none"/>
    </clipPath>
  </defs>
  <g id="Group_6330" data-name="Group 6330" transform="translate(-28 -425)">
    <g id="Avatar" transform="translate(28 425)" clip-path="url(#clip-path)">
      <path id="Path_7881" data-name="Path 7881" d="M26,0A26,26,0,1,1,0,26,26,26,0,0,1,26,0Z" fill="#ff8a02"/>
      <g id="Group_6284" data-name="Group 6284" transform="translate(-2129.279 -311.435)">
        <path id="Path_8011" data-name="Path 8011" d="M2138.962,532.928a122.343,122.343,0,0,0,12.288,2.252c-.068-.009-.229-16.285-.306-17.775q-.23-4.478-.615-8.946c-.134-1.552.1-7.514-1.173-8.343-1.69,2.095-2.8,5.086-3.879,7.544a77.514,77.514,0,0,0-6.315,25.269Z" transform="translate(-7 -149.711)" fill="#4176b5"/>
        <path id="Path_8012" data-name="Path 8012" d="M2179.332,484.153V515.3h47.553l-12.438-29.583a23.908,23.908,0,0,0-22.039-14.641h0A13.076,13.076,0,0,0,2179.332,484.153Z" transform="translate(-39.929 -126.026)" fill="#5484c6"/>
        <g id="Group_6288" data-name="Group 6288" transform="translate(2143.294 317.799)">
          <g id="Group_6287" data-name="Group 6287" transform="translate(0)">
            <path id="Path_8013" data-name="Path 8013" d="M2168.183,326.722a7.446,7.446,0,0,1,1.694-5.117,4.54,4.54,0,0,1,5-1.289c1.6-2.238,4.756-2.928,7.432-2.292a20.158,20.158,0,0,1,8.276,4.282,8.647,8.647,0,0,1,2.838,4.985c.572,3.853-3.241,9.537-7.039,10.489a10.969,10.969,0,0,1-5.337-.43,44.845,44.845,0,0,1-9.583-3.361c-1.227-.636-2.136-1.018-2.488-2.361A20.788,20.788,0,0,1,2168.183,326.722Z" transform="translate(-2167.128 -317.799)" fill="#dadada"/>
            <path id="Path_8014" data-name="Path 8014" d="M2277.743,418.308a2.067,2.067,0,1,1-2.349,1.741A2.067,2.067,0,0,1,2277.743,418.308Z" transform="translate(-2254.56 -399.764)" fill="#f4b980"/>
            <path id="Path_8015" data-name="Path 8015" d="M2174.338,362.993h0a10.62,10.62,0,0,0,12-8.557l2.42-12.973a9.685,9.685,0,0,0-8.1-11.356l-2.807-.418a9.686,9.686,0,0,0-11.051,8.508l-1.461,13.116A10.62,10.62,0,0,0,2174.338,362.993Z" transform="translate(-2164.761 -327.41)" fill="#f4b980"/>
            <g id="Group_6284-2" data-name="Group 6284" transform="translate(0.132 11.229)">
              <path id="Path_8016" data-name="Path 8016" d="M2165.044,378.719l.588,12.513,16.487,2.453,4.846-11.579a11.287,11.287,0,0,1-.18,1.7l-1.893,10.289-.5,2.49c-1.115,6.059-6.366,9.274-12.054,8.428h0c-5.689-.846-9.777-5.45-9.079-11.572l.246-2.528,1.184-10.395A11.264,11.264,0,0,1,2165.044,378.719Z" transform="translate(-2163.179 -378.719)" fill="#dadada"/>
              <path id="Path_8017" data-name="Path 8017" d="M2175.412,439.084a6.255,6.255,0,0,0-4.8,1.252c.013,3.664.193,7.272,2.4,10.206a6.5,6.5,0,0,0,.677.14,5.869,5.869,0,1,0,1.725-11.6Z" transform="translate(-2169.244 -427.9)" fill="#dadada"/>
              <ellipse id="Ellipse_119" data-name="Ellipse 119" cx="5.863" cy="6.144" rx="5.863" ry="6.144" transform="translate(4.955 22.859) rotate(-81.539)" fill="#dadada"/>
            </g>
            <g id="Group_6285" data-name="Group 6285" transform="translate(3.556 15.066)">
              <path id="Path_8018" data-name="Path 8018" d="M2187.908,404.619a.749.749,0,0,0-.873.57l1.466.275A.748.748,0,0,0,2187.908,404.619Z" transform="translate(-2186.062 -403.67)" fill="#050708"/>
              <path id="Path_8019" data-name="Path 8019" d="M2243.175,416.49a.749.749,0,0,0-.873.57l1.467.275A.749.749,0,0,0,2243.175,416.49Z" transform="translate(-2231.142 -413.353)" fill="#050708"/>
              <path id="Path_8020" data-name="Path 8020" d="M2242.326,411.623a2.693,2.693,0,0,0-3.437-.822" transform="translate(-2228.358 -408.477)" fill="none" stroke="#808285" stroke-linecap="round" stroke-miterlimit="10" stroke-width="0.5"/>
              <path id="Path_8021" data-name="Path 8021" d="M2185.262,400.439a2.694,2.694,0,0,0-3.5-.455" transform="translate(-2181.757 -399.535)" fill="none" stroke="#808285" stroke-linecap="round" stroke-miterlimit="10" stroke-width="0.5"/>
            </g>
            <path id="Path_8022" data-name="Path 8022" d="M2208.382,408.725l-.979,3.919a1.928,1.928,0,0,0-.085.75,1.314,1.314,0,0,0,.889.964,3.872,3.872,0,0,0,1.36.154" transform="translate(-2199.041 -391.965)" fill="none" stroke="#e2a069" stroke-linecap="round" stroke-linejoin="round" stroke-width="0.5"/>
            <path id="Path_8023" data-name="Path 8023" d="M2196.96,387.4a38.91,38.91,0,0,1,11.287,2.078" transform="translate(-2190.601 -374.57)" fill="none" stroke="#e2a069" stroke-linecap="round" stroke-linejoin="round" stroke-width="0.5"/>
            <path id="Path_8024" data-name="Path 8024" d="M2198.809,378.275a38.912,38.912,0,0,1,11.287,2.078" transform="translate(-2192.11 -367.128)" fill="none" stroke="#e2a069" stroke-linecap="round" stroke-linejoin="round" stroke-width="0.5"/>
            <path id="Path_8025" data-name="Path 8025" d="M2200.659,369.15a38.908,38.908,0,0,1,11.287,2.078" transform="translate(-2193.619 -359.685)" fill="none" stroke="#e2a069" stroke-linecap="round" stroke-linejoin="round" stroke-width="0.5"/>
            <path id="Path_8026" data-name="Path 8026" d="M2185.648,451.728c-.419.234-.352.594-.366,1.1a4.326,4.326,0,0,0,1,3.15,4.9,4.9,0,0,0,2.478,1.251,7.654,7.654,0,0,0,3.551.122,4.589,4.589,0,0,0,2.193-1.194,2.634,2.634,0,0,0,.812-2c-.173-.639-1.09-1.076-1.631-1.318a18.289,18.289,0,0,1-1.721-.745,14.742,14.742,0,0,1-1.4-1.111,4.712,4.712,0,0,1-2.918.426,4.631,4.631,0,0,0-1.868.255A1.184,1.184,0,0,0,2185.648,451.728Z" transform="translate(-2181.074 -426.435)" fill="#f4b980"/>
            <path id="Path_8027" data-name="Path 8027" d="M2202.2,475.536h0a.916.916,0,0,1-.749-1.057l.456-2.673a.916.916,0,0,1,1.057-.749h0a.916.916,0,0,1,.749,1.057l-.456,2.673A.916.916,0,0,1,2202.2,475.536Z" transform="translate(-2194.254 -442.797)" fill="#dadada"/>
            <path id="Path_8028" data-name="Path 8028" d="M2201.381,457.1a2.263,2.263,0,0,0,4.133.714Z" transform="translate(-2194.208 -431.427)" fill="#fff"/>
            <path id="Path_8029" data-name="Path 8029" d="M2208.348,327.748a5.549,5.549,0,0,0,2.727,1.451c2.432.707,4.944,1.119,7.356,1.89a13.631,13.631,0,0,1,6.41,3.886c-.633-2.581-1.348-5.31-3.265-7.15a13.088,13.088,0,0,0-6.052-2.792,12.788,12.788,0,0,0-6.1-.329c-.538.122-1.2.138-1.517.648A2.268,2.268,0,0,0,2208.348,327.748Z" transform="translate(-2199.371 -323.235)" fill="#dadada"/>
            <path id="Path_8030" data-name="Path 8030" d="M2219.978,326.818c-.245,1.153.759,2.194,1.786,2.773,1.978,1.114,4.292,1.416,6.494,1.968s4.484,1.485,5.716,3.392" transform="translate(-2209.346 -325.156)" fill="none" stroke="#fff" stroke-linecap="round" stroke-linejoin="round" stroke-width="0.25"/>
            <path id="Path_8031" data-name="Path 8031" d="M2230.158,326.507a4.4,4.4,0,0,0,2.789,2.483,37.876,37.876,0,0,0,3.755.887,5.685,5.685,0,0,1,3.278,1.892" transform="translate(-2217.68 -324.902)" fill="none" stroke="#fff" stroke-linecap="round" stroke-linejoin="round" stroke-width="0.25"/>
            <g id="Group_6286" data-name="Group 6286" transform="translate(0 12.289)">
              <circle id="Ellipse_120" data-name="Ellipse 120" cx="3.694" cy="3.694" r="3.694" transform="matrix(0.83, -0.557, 0.557, 0.83, 0, 4.115)" fill="none" stroke="#050708" stroke-miterlimit="10" stroke-width="0.5"/>
              <circle id="Ellipse_121" data-name="Ellipse 121" cx="3.694" cy="3.694" r="3.694" transform="translate(10.646 8.796) rotate(-62.868)" fill="none" stroke="#050708" stroke-miterlimit="10" stroke-width="0.5"/>
              <path id="Path_8032" data-name="Path 8032" d="M2209.835,416.468a4.264,4.264,0,0,1,3.186.423" transform="translate(-2201.103 -410.458)" fill="none" stroke="#050708" stroke-miterlimit="10" stroke-width="0.5"/>
            </g>
          </g>
        </g>
      </g>
    </g>
  </g>
</svg>
