<svg xmlns="http://www.w3.org/2000/svg" xmlns:xlink="http://www.w3.org/1999/xlink" width="52" height="52" viewBox="0 0 52 52">
  <defs>
    <clipPath id="clip-path">
      <path id="Path_7926" data-name="Path 7926" d="M26,0A26,26,0,1,1,0,26,26,26,0,0,1,26,0Z" fill="none"/>
    </clipPath>
    <clipPath id="clip-path-2">
      <path id="Path_7995" data-name="Path 7995" d="M3102.13,867l-5.7,35.731h-36.958l-4.447-38.186a9.038,9.038,0,0,1,4.77-9.077l3.123-2.455A17.963,17.963,0,0,0,3093,855l4.7,2.7A9.038,9.038,0,0,1,3102.13,867Z" transform="translate(-3054.965 -853.015)" fill="none"/>
    </clipPath>
  </defs>
  <g id="Group_6331" data-name="Group 6331" transform="translate(-28 -516)">
    <g id="Avatar" transform="translate(28 516)" clip-path="url(#clip-path)">
      <path id="Path_7904" data-name="Path 7904" d="M26,0A26,26,0,1,1,0,26,26,26,0,0,1,26,0Z" fill="#349885"/>
      <g id="Group_6283" data-name="Group 6283" transform="translate(-3049.773 -672.88)">
        <path id="Path_7992" data-name="Path 7992" d="M3172.994,766.074l-.826,35.919h11.763v-47.1Z" transform="translate(-90.893 -59.503)" fill="#262362"/>
        <g id="Group_6282" data-name="Group 6282" transform="translate(3054.611 712.187)">
          <path id="Path_7993" data-name="Path 7993" d="M3120.13,836.388a17.963,17.963,0,0,1-30.082-1.982l8.223-4.321,8.866-1.138Z" transform="translate(-3082.01 -828.947)" fill="#ebaa6e"/>
          <path id="Path_7994" data-name="Path 7994" d="M3101.977,866.265l2.957,37.792H3059.2l-4.535-40.246a7.964,7.964,0,0,1,4.2-8l3.778-2.8A17.963,17.963,0,0,0,3092.731,855l5.349,3.067A7.963,7.963,0,0,1,3101.977,866.265Z" transform="translate(-3054.611 -847.556)" fill="#8fd1d3"/>
          <g id="Group_6281" data-name="Group 6281" transform="translate(0.08 5.459)">
            <g id="Group_6280" data-name="Group 6280" clip-path="url(#clip-path-2)">
              <g id="Group_6279" data-name="Group 6279" transform="translate(-4.253 8.261)">
                <line id="Line_291" data-name="Line 291" x2="56.996" fill="none" stroke="#fff" stroke-miterlimit="10" stroke-width="3.414"/>
                <line id="Line_292" data-name="Line 292" x2="56.996" transform="translate(0 4.425)" fill="none" stroke="#fff" stroke-miterlimit="10" stroke-width="3.414"/>
                <line id="Line_293" data-name="Line 293" x2="56.996" transform="translate(0 8.85)" fill="none" stroke="#fff" stroke-miterlimit="10" stroke-width="3.414"/>
                <line id="Line_294" data-name="Line 294" x2="56.996" transform="translate(0 13.275)" fill="none" stroke="#fff" stroke-miterlimit="10" stroke-width="3.414"/>
                <line id="Line_295" data-name="Line 295" x2="56.996" transform="translate(0 17.701)" fill="none" stroke="#fff" stroke-miterlimit="10" stroke-width="3.414"/>
                <line id="Line_296" data-name="Line 296" x2="56.996" transform="translate(0 22.126)" fill="none" stroke="#fff" stroke-miterlimit="10" stroke-width="3.414"/>
                <line id="Line_297" data-name="Line 297" x2="56.996" transform="translate(0 26.551)" fill="none" stroke="#fff" stroke-miterlimit="10" stroke-width="3.414"/>
                <line id="Line_298" data-name="Line 298" x2="56.996" transform="translate(0 30.976)" fill="none" stroke="#fff" stroke-miterlimit="10" stroke-width="3.414"/>
                <line id="Line_299" data-name="Line 299" x2="56.996" transform="translate(0 35.401)" fill="none" stroke="#fff" stroke-miterlimit="10" stroke-width="3.414"/>
                <line id="Line_300" data-name="Line 300" x2="56.996" transform="translate(0 40.106)" fill="none" stroke="#fff" stroke-miterlimit="10" stroke-width="3.414"/>
              </g>
            </g>
          </g>
        </g>
        <path id="Path_7996" data-name="Path 7996" d="M3088.181,803.526,3077,799.1v-43.67h11.183Z" transform="translate(-17.309 -59.918)" fill="#262362"/>
        <ellipse id="Ellipse_118" data-name="Ellipse 118" cx="16.674" cy="17.516" rx="16.674" ry="17.516" transform="translate(3059.689 677.936)" fill="#262362"/>
        <path id="Path_7997" data-name="Path 7997" d="M3126.215,782.254l.02,5.762a5.576,5.576,0,0,0,5.658,5.556h0a5.576,5.576,0,0,0,5.494-5.595l-.047-13.435Z" transform="translate(-55.363 -74.694)" fill="#ebaa6e"/>
        <path id="Path_7998" data-name="Path 7998" d="M3137.438,774.337a9.739,9.739,0,0,1-9.705,9.773h0a9.846,9.846,0,0,1-1-.047l-.007-1.884a9.41,9.41,0,0,0,6.095-1.513,10.53,10.53,0,0,0,3.7-4.257C3137.117,775.213,3137.438,774.337,3137.438,774.337Z" transform="translate(-55.762 -74.536)" fill="#e09a61"/>
        <path id="Path_7999" data-name="Path 7999" d="M3097.987,728.773h0a9.967,9.967,0,0,1-10-9.932l-.028-8.069a9.967,9.967,0,0,1,9.932-10h0a9.967,9.967,0,0,1,10,9.933l.029,8.068A9.967,9.967,0,0,1,3097.987,728.773Z" transform="translate(-25.783 -17.655)" fill="#f4b980"/>
        <path id="Path_8000" data-name="Path 8000" d="M3136.356,753.218a.936.936,0,0,0-.927.89h1.863A.937.937,0,0,0,3136.356,753.218Z" transform="translate(-62.487 -58.207)" fill="#050708"/>
        <path id="Path_8001" data-name="Path 8001" d="M3095.742,753.4a.932.932,0,0,0-.919.849h1.846A.933.933,0,0,0,3095.742,753.4Z" transform="translate(-31.091 -58.347)" fill="#050708"/>
        <path id="Path_8002" data-name="Path 8002" d="M3102.962,788.008a3.077,3.077,0,0,0,5.945-.021Z" transform="translate(-37.384 -85.09)" fill="#fff"/>
        <path id="Path_8003" data-name="Path 8003" d="M3090.87,745.943a2.627,2.627,0,0,1,3.759-.233" transform="translate(-28.035 -51.874)" fill="none" stroke="#050708" stroke-linecap="round" stroke-linejoin="round" stroke-width="0.5"/>
        <path id="Path_8004" data-name="Path 8004" d="M3130.7,745.943a2.627,2.627,0,0,1,3.759-.233" transform="translate(-58.833 -51.874)" fill="none" stroke="#050708" stroke-linecap="round" stroke-linejoin="round" stroke-width="0.5"/>
        <path id="Path_8005" data-name="Path 8005" d="M3096.894,699.743c-2.451,1.2-5.323.982-8.013,1.429a9.969,9.969,0,0,0-5.028,2.177,5.69,5.69,0,0,0-2,4.935,35.364,35.364,0,0,1,.489-7.584,12.823,12.823,0,0,1,3.406-6.683,10.748,10.748,0,0,1,7.551-2.882,12.6,12.6,0,0,1,4.268.826c.836.315,3.193,1.123,3.471,2.052.271.906-.868,2.681-1.36,3.363A7.559,7.559,0,0,1,3096.894,699.743Z" transform="translate(-21.024 -10.205)" fill="#262362"/>
        <path id="Path_8006" data-name="Path 8006" d="M3159.872,710.883a8.465,8.465,0,0,0,.961,4.392,10.248,10.248,0,0,0,5.494,4.686,23.286,23.286,0,0,0,.728-3.417,12.29,12.29,0,0,0-.3-3.617c-.491-2.1-.558-3.968-2.63-5.477-1.8-1.308-3.336-.34-3.881,1.4A8.345,8.345,0,0,0,3159.872,710.883Z" transform="translate(-81.377 -22.351)" fill="#262362"/>
        <path id="Path_8007" data-name="Path 8007" d="M3177.4,759.187a1.6,1.6,0,0,0-1.568-1.586l.011,3.182A1.6,1.6,0,0,0,3177.4,759.187Z" transform="translate(-93.727 -61.567)" fill="#f4b980"/>
        <path id="Path_8008" data-name="Path 8008" d="M3174.568,769.946a1.2,1.2,0,1,1-1.2-1.2A1.2,1.2,0,0,1,3174.568,769.946Z" transform="translate(-90.893 -70.213)" fill="#fff"/>
        <path id="Path_8009" data-name="Path 8009" d="M3109.117,748.962q-.819,2.735-1.636,5.471a1.51,1.51,0,0,0-.094.678,1.015,1.015,0,0,0,.533.678,3,3,0,0,0,.845.272" transform="translate(-40.796 -54.916)" fill="none" stroke="#050708" stroke-linecap="round" stroke-linejoin="round" stroke-width="0.5"/>
        <path id="Path_8010" data-name="Path 8010" d="M3100.693,701.3c-.706,2.164-2.764,3.63-4.9,4.412s-4.431,1.033-6.619,1.659a9.1,9.1,0,0,0-5.541,3.7" transform="translate(-22.438 -18.064)" fill="none" stroke="#84a3d6" stroke-linecap="round" stroke-linejoin="round" stroke-width="0.25"/>
        <line id="Line_301" data-name="Line 301" y2="27.298" transform="translate(3062.026 709.574)" fill="none" stroke="#84a3d6" stroke-linecap="round" stroke-linejoin="round" stroke-width="0.25"/>
        <line id="Line_302" data-name="Line 302" y2="11.763" transform="translate(3063.732 725.836)" fill="none" stroke="#84a3d6" stroke-linecap="round" stroke-linejoin="round" stroke-width="0.25" opacity="0.62"/>
        <line id="Line_303" data-name="Line 303" y2="21.62" transform="translate(3068.32 718.878)" fill="none" stroke="#84a3d6" stroke-linecap="round" stroke-linejoin="round" stroke-width="0.25" opacity="0.5"/>
      </g>
    </g>
  </g>
</svg>
