<svg xmlns="http://www.w3.org/2000/svg" xmlns:xlink="http://www.w3.org/1999/xlink" width="52" height="52" viewBox="0 0 52 52">
  <defs>
    <clipPath id="clip-path">
      <path id="Path_7880" data-name="Path 7880" d="M26,0A26,26,0,1,1,0,26,26,26,0,0,1,26,0Z" fill="none"/>
    </clipPath>
  </defs>
  <g id="Group_6329" data-name="Group 6329" transform="translate(-28 -341)">
    <g id="Avatar" transform="translate(28 341)" clip-path="url(#clip-path)">
      <path id="Path_7858" data-name="Path 7858" d="M26,0A26,26,0,1,1,0,26,26,26,0,0,1,26,0Z" fill="#82bf00"/>
      <g id="Group_6278" data-name="Group 6278" transform="translate(-2251.1 -1164.729)">
        <g id="Group_6277" data-name="Group 6277" transform="translate(2224.01 1171.591)">
          <path id="Path_7971" data-name="Path 7971" d="M2456.647,1178.767a7.154,7.154,0,0,1-3.385,11.44,29.584,29.584,0,0,0-3-5.359,5.046,5.046,0,0,0,5.34-5.711Z" transform="translate(-2390.309 -1176.865)" fill="#db681b"/>
          <circle id="Ellipse_114" data-name="Ellipse 114" cx="10.307" cy="10.307" r="10.307" transform="translate(75.69 77.765) rotate(-9.217)" fill="#f3746c"/>
          <path id="Path_7972" data-name="Path 7972" d="M2477.771,1352.152l21.767,37.281-14.705,5.317-16.106-27.115Z" transform="translate(-2403.878 -1304.304)" fill="#f3746c"/>
          <path id="Path_7973" data-name="Path 7973" d="M2299.251,1380.949h48.89l2.923-43.19a12.1,12.1,0,0,0-12.084-12.75h-32.107a12.1,12.1,0,0,0-12.061,13.091Z" transform="translate(-2276.02 -1284.354)" fill="#f3746c"/>
          <path id="Path_7974" data-name="Path 7974" d="M2375.275,1338.854a21.677,21.677,0,0,1-7.491.022c-2.445-.571-4.8-2.193-5.531-4.6" transform="translate(-2325.62 -1291.169)" fill="none" stroke="#464379" stroke-linecap="round" stroke-linejoin="round" stroke-width="1.323"/>
          <path id="Path_7975" data-name="Path 7975" d="M2389.714,1269.577v5.618a3.652,3.652,0,0,1-3.693,3.652l-6.487-.073a3.652,3.652,0,0,1-3.611-3.652l-.126-18.736Z" transform="translate(-2335.574 -1233.916)" fill="#f4b980"/>
          <path id="Path_7976" data-name="Path 7976" d="M2377.675,1270.136a12.043,12.043,0,0,0,12.043,12.043h0a12.182,12.182,0,0,0,1.231-.062v-2.33s-4.427.533-7.543-1.845-3.855-3.773-4.593-5.249S2377.675,1270.136,2377.675,1270.136Z" transform="translate(-2336.954 -1244.022)" fill="#ebaa6e"/>
          <path id="Path_7977" data-name="Path 7977" d="M2377.281,1189.8H2392.9a12.009,12.009,0,0,1,4.236,9.16v9.75a12.043,12.043,0,0,1-12.043,12.044h0a12.044,12.044,0,0,1-12.044-12.044l-1.669-9.806C2371.375,1195.232,2374.691,1192.007,2377.281,1189.8Z" transform="translate(-2332.323 -1184.973)" fill="#f4b980"/>
          <g id="Group_6275" data-name="Group 6275" transform="translate(37.347 6.609)">
            <path id="Path_7978" data-name="Path 7978" d="M2367.945,1196.53a3,3,0,0,1,3,3v6.378a2.489,2.489,0,1,0-.565,4.914,2.471,2.471,0,0,0,.565-.07s-.288,4.891-3.7,5.282l-2.306-16.5A3,3,0,0,1,2367.945,1196.53Z" transform="translate(-2364.943 -1196.53)" fill="#db681b"/>
          </g>
          <path id="Path_7979" data-name="Path 7979" d="M2441.7,1243.7a1.877,1.877,0,0,0,0-3.754V1236.2" transform="translate(-2384.016 -1219.079)" fill="none" stroke="#050708" stroke-linecap="round" stroke-linejoin="round" stroke-width="0.5"/>
          <circle id="Ellipse_115" data-name="Ellipse 115" cx="0.892" cy="0.892" r="0.892" transform="translate(49.614 16.658)" fill="#050708"/>
          <circle id="Ellipse_116" data-name="Ellipse 116" cx="0.892" cy="0.892" r="0.892" transform="translate(60.787 16.658)" fill="#050708"/>
          <path id="Path_7980" data-name="Path 7980" d="M2431.917,1273.969a3.254,3.254,0,0,1-5.906,0Z" transform="translate(-2372.481 -1246.839)" fill="#fff"/>
          <path id="Path_7981" data-name="Path 7981" d="M2243.436,1355.615l-18.955,45.743a6.251,6.251,0,0,0-.433,3.081h12.826l14.047-30.9Z" transform="translate(-2224.01 -1306.849)" fill="#f3746c"/>
          <g id="Group_6276" data-name="Group 6276" transform="translate(35.872 49.639)">
            <path id="Path_7982" data-name="Path 7982" d="M2382.584,1416.521h0a6.161,6.161,0,0,0,6.161-6.161v-9.666h-12.322v9.666A6.161,6.161,0,0,0,2382.584,1416.521Z" transform="translate(-2371.906 -1389.622)" fill="#84a3d6"/>
            <line id="Line_289" data-name="Line 289" y1="4.809" transform="translate(15.482 12.43)" fill="none" stroke="#fff" stroke-linecap="round" stroke-linejoin="round" stroke-width="1.323"/>
            <line id="Line_290" data-name="Line 290" y1="1.381" transform="translate(15.482 19.358)" fill="none" stroke="#fff" stroke-linecap="round" stroke-linejoin="round" stroke-width="1.323"/>
            <circle id="Ellipse_117" data-name="Ellipse 117" cx="3.755" cy="3.755" r="3.755" transform="translate(0 15.19) rotate(-13.282)" fill="none" stroke="#84a3d6" stroke-linecap="round" stroke-linejoin="round" stroke-width="3.613"/>
            <path id="Path_7983" data-name="Path 7983" d="M2397.168,1358.909a4.011,4.011,0,0,1,1.886,1.788,2.554,2.554,0,0,1-.126,2.523c-.337.48-.858.8-1.232,1.252a2.607,2.607,0,0,0,.663,3.9" transform="translate(-2387.103 -1358.909)" fill="none" stroke="#fff" stroke-linecap="round" stroke-linejoin="round" stroke-width="1.323"/>
            <path id="Path_7984" data-name="Path 7984" d="M2391.992,1382.4a3.712,3.712,0,0,0,1.628,4.608" transform="translate(-2383.158 -1376.175)" fill="none" stroke="#fff" stroke-linecap="round" stroke-linejoin="round" stroke-width="1.323"/>
          </g>
          <path id="Path_7985" data-name="Path 7985" d="M2273.438,1422.078h-6.747a2.13,2.13,0,0,0-2.13,2.13v6.672l-26.49,16.228a5.383,5.383,0,0,0-2.335,6.182h11.654l22.588-19.047.36-2.1a2.383,2.383,0,0,1,1.386-1.778l.222-.1a3.213,3.213,0,0,0,1.83-2.214l.994-4.3A1.367,1.367,0,0,0,2273.438,1422.078Z" transform="translate(-2232.455 -1355.7)" fill="#f4b980"/>
          <path id="Path_7986" data-name="Path 7986" d="M2373.7,1181.013c.5-.153,1-.307,1.494-.45a4.59,4.59,0,0,0,3.055,1.168H2398.8c2.719,0,2.7-2.346,2.624-5.218a5.218,5.218,0,0,0-1.408-3.437,4.66,4.66,0,0,0-3.4-1.484h-.316a2.315,2.315,0,0,1,.594,1.36,1.131,1.131,0,0,1-.331.946c-.4.262-1.049.028-1.46-.114-.6-.207-1.179-.482-1.777-.7a21.417,21.417,0,0,0-3.69-.987,24.016,24.016,0,0,0-7.067-.335,11.3,11.3,0,0,0-6.4,2.815A7.653,7.653,0,0,0,2373.7,1181.013Z" transform="translate(-2333.991 -1171.591)" fill="#db681b"/>
        </g>
        <path id="Path_7987" data-name="Path 7987" d="M2410.7,1223.281a3.175,3.175,0,0,0-3.756.427" transform="translate(-134.456 -37.678)" fill="none" stroke="#050708" stroke-linecap="round" stroke-linejoin="round" stroke-width="0.5"/>
        <path id="Path_7988" data-name="Path 7988" d="M2453.013,1223.257a3.127,3.127,0,0,0-3.4-.411" transform="translate(-165.82 -37.434)" fill="none" stroke="#050708" stroke-linecap="round" stroke-linejoin="round" stroke-width="0.5"/>
        <path id="Path_7989" data-name="Path 7989" d="M2387.6,1494.89l43.372,1.232a4.762,4.762,0,0,0,4.9-4.76v-1.646a4.761,4.761,0,0,0-5.178-4.743l-40.924,4.575Z" transform="translate(-120.24 -230.323)" fill="#f4b980"/>
        <path id="Path_7990" data-name="Path 7990" d="M2528.738,1458.648a10.057,10.057,0,0,0-8.448,5.352" transform="translate(-217.766 -210.988)" fill="none" stroke="#464379" stroke-linecap="round" stroke-linejoin="round" stroke-width="1.323"/>
        <path id="Path_7991" data-name="Path 7991" d="M2359.014,1499c-.392-.012-19.862,0-19.862,0s2.929-8.107,9.631-8.678,11.786,5.14,11.786,5.14Z" transform="translate(-84.63 -234.24)" fill="#f4b980"/>
      </g>
    </g>
  </g>
</svg>
