<svg id="Date_16px" data-name="Date 16px" xmlns="http://www.w3.org/2000/svg" width="16" height="15" viewBox="0 0 16 15">
  <path id="Path_8294" data-name="Path 8294" d="M-1996-272.01h-2v-1.464c0-.291-.448-.527-1-.527s-1,.236-1,.527v1.464h-6V-273.6c0-.291-.448-.527-1-.527s-1,.236-1,.527v1.588h-2a1,1,0,0,0-1,.995v10.9a1,1,0,0,0,1,.995h14a1,1,0,0,0,1-.995v-10.9A1,1,0,0,0-1996-272.01Zm0,11.9h-14V-270h14Z" transform="translate(2011 274.125)" fill="#9e9e9e"/>
  <rect id="Rectangle_17086" data-name="Rectangle 17086" width="2" height="2" transform="translate(11 6.082)" fill="#9e9e9e"/>
  <rect id="Rectangle_17087" data-name="Rectangle 17087" width="2" height="2" transform="translate(3 6.125)" fill="#9e9e9e"/>
  <rect id="Rectangle_17088" data-name="Rectangle 17088" width="2" height="2" transform="translate(7 6.125)" fill="#9e9e9e"/>
  <rect id="Rectangle_17089" data-name="Rectangle 17089" width="2" height="2" transform="translate(11 10.082)" fill="#9e9e9e"/>
  <rect id="Rectangle_17090" data-name="Rectangle 17090" width="2" height="2" transform="translate(3 10.125)" fill="#9e9e9e"/>
  <rect id="Rectangle_17091" data-name="Rectangle 17091" width="2" height="2" transform="translate(7 10.125)" fill="#9e9e9e"/>
</svg>
