<svg xmlns="http://www.w3.org/2000/svg" width="12.393" height="2.516" viewBox="0 0 12.393 2.516">
  <path id="Path_8038" data-name="Path 8038" d="M0,1.25a1.189,1.189,0,0,0,.38.915,1.348,1.348,0,0,0,.952.351,1.359,1.359,0,0,0,.96-.351,1.189,1.189,0,0,0,.38-.915A1.172,1.172,0,0,0,2.3.347,1.365,1.365,0,0,0,1.332,0,1.353,1.353,0,0,0,.376.347,1.172,1.172,0,0,0,0,1.25Zm4.861,0a1.189,1.189,0,0,0,.38.915,1.348,1.348,0,0,0,.952.351,1.359,1.359,0,0,0,.96-.351,1.189,1.189,0,0,0,.38-.915,1.172,1.172,0,0,0-.376-.9A1.365,1.365,0,0,0,6.192,0a1.353,1.353,0,0,0-.956.347A1.172,1.172,0,0,0,4.861,1.25Zm4.861,0a1.189,1.189,0,0,0,.38.915,1.476,1.476,0,0,0,1.912,0,1.189,1.189,0,0,0,.38-.915,1.172,1.172,0,0,0-.376-.9,1.5,1.5,0,0,0-1.92,0A1.172,1.172,0,0,0,9.721,1.25Z" transform="translate(12.393 2.516) rotate(180)" fill="#4c4c4c"/>
</svg>
