<svg xmlns="http://www.w3.org/2000/svg" width="24" height="18" viewBox="0 0 24 18">
  <path id="ic_alldevices-24px" d="M22.514,18H10.49a1.447,1.447,0,0,1-.576-.118,1.527,1.527,0,0,1-.8-.8A1.436,1.436,0,0,1,9,16.5V15H1.424A1.422,1.422,0,0,1,0,13.57a2.6,2.6,0,0,1,.134-.82,1.931,1.931,0,0,1,.416-.715L3,9.457V0H19.5V6h3.009a1.413,1.413,0,0,1,.565.117,1.561,1.561,0,0,1,.475.317,1.528,1.528,0,0,1,.327.469A1.361,1.361,0,0,1,24,7.477v9.011a1.508,1.508,0,0,1-.44,1.073,1.513,1.513,0,0,1-.475.322A1.436,1.436,0,0,1,22.514,18ZM10.5,7.5v9h12v-9Zm-6.423,3h0L1.663,13.043a.6.6,0,0,0-.111.217,1.332,1.332,0,0,0-.053.24H9v-3H4.078Zm.423-9V9H9V7.5a1.436,1.436,0,0,1,.117-.586,1.519,1.519,0,0,1,.322-.475,1.539,1.539,0,0,1,.475-.323A1.447,1.447,0,0,1,10.486,6H18V1.5ZM18,15H15V13.5h3V15Z" fill="#9e9e9e"/>
</svg>
