<svg width="18" height="20" viewBox="0 0 18 20" fill="none" xmlns="http://www.w3.org/2000/svg">
<path d="M17.25 1.62815H12.75V0.502222C12.75 0.278419 12.414 0.0969098 12 0.0969098C11.586 0.0969098 11.25 0.278419 11.25 0.502222V1.62815H6.75V0.405313C6.75 0.18151 6.414 0 6 0C5.586 0 5.25 0.18151 5.25 0.405313V1.62662H0.75C0.551736 1.62662 0.361553 1.70711 0.221008 1.85051C0.0804633 1.99391 0.000991322 2.18855 0 2.39186V19.2348C0.000991322 19.4381 0.0804633 19.6327 0.221008 19.7761C0.361553 19.9195 0.551736 20 0.75 20H17.25C17.4483 20 17.6384 19.9195 17.779 19.7761C17.9195 19.6327 17.999 19.4381 18 19.2348V2.39186C17.9986 2.18882 17.9189 1.99459 17.7784 1.85152C17.6379 1.70845 17.448 1.62815 17.25 1.62815ZM16.5 18.4711H1.5V4.71218H16.5V18.4711Z" fill="#808080"/>
<path d="M11.25 7.75549H9.75V9.29366H11.25V7.75549Z" fill="#808080"/>
<path d="M14.25 7.75549H12.75V9.29366H14.25V7.75549Z" fill="#808080"/>
<path d="M5.25 7.78845H3.75V9.32662H5.25V7.78845Z" fill="#808080"/>
<path d="M8.25 7.78845H6.75V9.32662H8.25V7.78845Z" fill="#808080"/>
<path d="M11.25 10.8318H9.75V12.37H11.25V10.8318Z" fill="#808080"/>
<path d="M14.25 10.8318H12.75V12.37H14.25V10.8318Z" fill="#808080"/>
<path d="M5.25 10.8649H3.75V12.403H5.25V10.8649Z" fill="#808080"/>
<path d="M8.25 10.8649H6.75V12.403H8.25V10.8649Z" fill="#808080"/>
<path d="M11.25 13.9081H9.75V15.4462H11.25V13.9081Z" fill="#808080"/>
<path d="M14.25 13.9081H12.75V15.4462H14.25V13.9081Z" fill="#808080"/>
<path d="M5.25 13.9412H3.75V15.4793H5.25V13.9412Z" fill="#808080"/>
<path d="M8.25 13.9412H6.75V15.4793H8.25V13.9412Z" fill="#808080"/>
</svg>
