<svg width="18" height="20" viewBox="0 0 18 20" fill="none" xmlns="http://www.w3.org/2000/svg">
<path d="M4.48677 18.3332C4.26002 18.3343 4.03577 18.2923 3.82712 18.2097C3.62622 18.1326 3.44357 18.0193 3.29001 17.8763C3.13508 17.735 3.0118 17.5662 2.92796 17.3801C2.83941 17.1874 2.79415 16.9799 2.79508 16.7703V4.79085H1.66675V3.74993H6.18006V2.70753C6.17848 2.56777 6.20851 2.42925 6.26759 2.30073C6.32632 2.17748 6.40906 2.06544 6.51187 1.9704C6.61417 1.87533 6.73498 1.79973 6.86835 1.74771C7.00754 1.6922 7.15775 1.66454 7.30918 1.66661H10.6926C10.844 1.66454 10.9942 1.6922 11.1334 1.74771C11.2668 1.79973 11.3876 1.87533 11.4899 1.9704C11.5927 2.06544 11.6762 2.17748 11.735 2.30073C11.794 2.42925 11.8233 2.56777 11.8217 2.70753V3.74993H16.3334V4.79085H15.2051V16.7703C15.206 16.9799 15.1607 17.1874 15.0722 17.3801C14.9883 17.5659 14.8656 17.7345 14.7117 17.8763C14.5573 18.019 14.3742 18.1323 14.173 18.2097C13.9644 18.2923 13.7401 18.3343 13.5134 18.3332H4.48677ZM3.9234 16.7703C3.92301 16.8387 3.9383 16.9065 3.96717 16.9694C3.99604 17.0323 4.03792 17.0891 4.0913 17.1362C4.14265 17.1851 4.20478 17.2237 4.27272 17.2498C4.34067 17.2758 4.41329 17.2887 4.48677 17.2877H13.5134C13.5869 17.2887 13.6595 17.2758 13.7274 17.2498C13.7954 17.2237 13.8575 17.1851 13.9089 17.1362C13.9622 17.0891 14.0041 17.0323 14.033 16.9694C14.0619 16.9065 14.0772 16.8387 14.0768 16.7703V4.79085H3.9234V16.7703ZM7.30839 3.74993H10.6918V2.70753H7.30839V3.74993ZM10.6973 15.2074V6.87417H11.8185V15.2074H10.6973ZM8.4391 15.2074V6.87417H9.55947V15.2074H8.4391ZM6.18165 15.2074V6.87417H7.30282V15.2074H6.18165Z" fill="#0279FF"/>
</svg>
