<svg xmlns="http://www.w3.org/2000/svg" width="24" height="24" viewBox="0 0 24 24"><defs><style>.a{fill:#0279ff;}</style></defs><path class="a" d="M12-20.074a3.976,3.976,0,0,1-.293,1.5,3.835,3.835,0,0,1-.855,1.289L-4.582-1.852-12,0l1.852-7.418L5.285-22.852a3.835,3.835,0,0,1,1.289-.855A3.976,3.976,0,0,1,8.074-24a3.782,3.782,0,0,1,1.523.311,4,4,0,0,1,1.248.844,4,4,0,0,1,.844,1.248A3.782,3.782,0,0,1,12-20.074ZM-8.18-7.266A5.35,5.35,0,0,1-6.041-5.959,5.35,5.35,0,0,1-4.734-3.82L7.934-16.5,4.5-19.934Zm-1.758,5.2,3.855-.961a3.775,3.775,0,0,0-.381-1.02A3.76,3.76,0,0,0-7.1-4.9a3.76,3.76,0,0,0-.855-.639,3.775,3.775,0,0,0-1.02-.381ZM9-17.566q.293-.293.563-.551a4.175,4.175,0,0,0,.48-.545,2.509,2.509,0,0,0,.334-.621,2.251,2.251,0,0,0,.123-.779,2.316,2.316,0,0,0-.193-.943,2.517,2.517,0,0,0-.527-.773,2.517,2.517,0,0,0-.773-.527,2.316,2.316,0,0,0-.943-.193,2.251,2.251,0,0,0-.779.123,2.509,2.509,0,0,0-.621.334,4.175,4.175,0,0,0-.545.48q-.258.27-.551.563Z" transform="translate(12 24)"/></svg>