<svg width="48" height="49" viewBox="0 0 48 49" fill="none" xmlns="http://www.w3.org/2000/svg">
<path d="M48 24.5C47.9934 30.8632 45.4623 36.9635 40.9629 41.4629C36.4635 45.9623 30.3632 48.4934 24 48.5C17.6369 48.4931 11.5365 45.9623 7.03711 41.4629C2.53773 36.9635 0.00688171 30.8631 0 24.5C0.00714493 18.137 2.53778 12.0364 7.03711 7.53711C11.5364 3.03778 17.637 0.507145 24 0.5C30.3631 0.506882 36.4635 3.03773 40.9629 7.53711C45.4623 12.0365 47.9931 18.1369 48 24.5ZM44.7998 24.5C44.7937 18.9854 42.6006 13.6983 38.7012 9.79883C34.8017 5.89939 29.5146 3.70628 24 3.7002C18.4854 3.70655 13.1982 5.89945 9.29883 9.79883C5.39945 13.6982 3.20655 18.9854 3.2002 24.5C3.20655 30.0146 5.39945 35.3018 9.29883 39.2012C13.1982 43.1006 18.4854 45.2935 24 45.2998C29.5146 45.2937 34.8017 43.1006 38.7012 39.2012C42.6006 35.3017 44.7937 30.0146 44.7998 24.5ZM26.2158 13.0996V16.2998H23.0156V13.0996H26.2158ZM26.2158 19.5L26.2158 35.5H23.0156L23.0156 19.5H26.2158Z" fill="white"/>
</svg>
