<svg id="ic_modem-24px" xmlns="http://www.w3.org/2000/svg" xmlns:xlink="http://www.w3.org/1999/xlink" width="26" height="10" viewBox="0 0 26 10">
  <defs>
    <clipPath id="clip">
      <use xlink:href="#fill"/>
    </clipPath>
    <clipPath id="clip-2">
      <use xlink:href="#fill-2"/>
    </clipPath>
    <clipPath id="clip-3">
      <use xlink:href="#fill-3"/>
    </clipPath>
    <clipPath id="clip-4">
      <use xlink:href="#fill-4"/>
    </clipPath>
  </defs>
  <g id="Rectangle_392" data-name="Rectangle 392" fill="none" stroke="#9e9e9e" stroke-miterlimit="10" stroke-width="1.5">
    <rect width="26" height="10" rx="3.509" stroke="none"/>
    <rect x="0.75" y="0.75" width="24.5" height="8.5" rx="2.759" fill="none"/>
  </g>
  <g id="Rectangle_395" data-name="Rectangle 395" transform="translate(21 4)" fill="none" stroke="#9e9e9e" stroke-miterlimit="10" stroke-width="1.5">
    <rect id="fill" width="1" height="2" rx="0.5" stroke="none"/>
    <path d="M0,0.75h1M0.75,0v2M1,1.25h-1M0.25,2v-2" fill="none" clip-path="url(#clip)"/>
  </g>
  <g id="Rectangle_17055" data-name="Rectangle 17055" transform="translate(18 4)" fill="none" stroke="#9e9e9e" stroke-miterlimit="10" stroke-width="1.5">
    <rect id="fill-2" width="1" height="2" rx="0.5" stroke="none"/>
    <path d="M0,0.75h1M0.75,0v2M1,1.25h-1M0.25,2v-2" fill="none" clip-path="url(#clip-2)"/>
  </g>
  <g id="Rectangle_17056" data-name="Rectangle 17056" transform="translate(15 4)" fill="none" stroke="#9e9e9e" stroke-miterlimit="10" stroke-width="1.5">
    <rect id="fill-3" width="1" height="2" rx="0.5" stroke="none"/>
    <path d="M0,0.75h1M0.75,0v2M1,1.25h-1M0.25,2v-2" fill="none" clip-path="url(#clip-3)"/>
  </g>
  <g id="Rectangle_17057" data-name="Rectangle 17057" transform="translate(12 4)" fill="none" stroke="#9e9e9e" stroke-miterlimit="10" stroke-width="1.5">
    <rect id="fill-4" width="1" height="2" rx="0.5" stroke="none"/>
    <path d="M0,0.75h1M0.75,0v2M1,1.25h-1M0.25,2v-2" fill="none" clip-path="url(#clip-4)"/>
  </g>
</svg>
