<?xml version="1.0" encoding="utf-8"?>
<!-- Generator: Adobe Illustrator 24.2.1, SVG Export Plug-In . SVG Version: 6.00 Build 0)  -->
<svg version="1.1" id="Layer_1" xmlns="http://www.w3.org/2000/svg" xmlns:xlink="http://www.w3.org/1999/xlink" x="0px" y="0px"
	 viewBox="0 0 27 27" style="enable-background:new 0 0 27 27;" xml:space="preserve">
<style type="text/css">
	.st0{fill:#FFFFFF;}
</style>
<path class="st0" d="M27,13.5c0,3.6-1.4,7-4,9.5c-2.5,2.5-6,4-9.5,4c-3.6,0-7-1.4-9.5-4c-2.5-2.5-4-6-4-9.5c0-3.6,1.4-7,4-9.5
	s6-4,9.5-4c3.6,0,7,1.4,9.5,4C25.6,6.5,27,9.9,27,13.5z M25.2,13.5c0-3.1-1.2-6.1-3.4-8.3s-5.2-3.4-8.3-3.4c-3.1,0-6.1,1.2-8.3,3.4
	s-3.4,5.2-3.4,8.3c0,3.1,1.2,6.1,3.4,8.3s5.2,3.4,8.3,3.4c3.1,0,6.1-1.2,8.3-3.4S25.2,16.6,25.2,13.5z M14.7,7.1v1.8h-1.8V7.1H14.7z
	 M14.7,10.7v9h-1.8v-9H14.7z"/>
</svg>
