<svg width="22" height="18" viewBox="0 0 22 18" fill="none" xmlns="http://www.w3.org/2000/svg">
<path d="M0.959621 5.06531C2.00655 3.14286 3.70221 1.62656 5.76349 0.769501C7.82477 -0.0875618 10.127 -0.233537 12.2859 0.355943C14.0586 0.809513 15.6546 1.75825 16.8752 3.0841C18.0958 4.40995 18.8872 6.05438 19.151 7.81277L20.6104 6.00457C20.6731 5.92663 20.7512 5.86143 20.84 5.81272C20.9288 5.76402 21.0266 5.73276 21.1279 5.72072C21.2291 5.70869 21.3318 5.71611 21.4302 5.74258C21.5285 5.76905 21.6204 5.81404 21.7008 5.87498C21.7814 5.93583 21.8489 6.0115 21.8992 6.09765C21.9496 6.18379 21.9818 6.27872 21.9942 6.37698C22.0067 6.47525 21.999 6.57493 21.9716 6.67031C21.9442 6.76568 21.8976 6.85488 21.8345 6.93278L19.0442 10.3905C19.0218 10.4118 18.9979 10.4316 18.9727 10.4497C18.9388 10.4846 18.9013 10.5159 18.8607 10.5432C18.82 10.569 18.777 10.5912 18.7321 10.6095C18.6812 10.6311 18.6281 10.6473 18.5736 10.6577C18.5539 10.6577 18.5362 10.6738 18.5165 10.6758C18.4886 10.6773 18.4606 10.6773 18.4326 10.6758C18.4232 10.6747 18.4139 10.673 18.4047 10.6707C18.3865 10.6737 18.3682 10.6757 18.3498 10.6768C18.312 10.6683 18.2749 10.6572 18.2388 10.6436C18.2034 10.6353 18.1687 10.6242 18.1352 10.6105C18.0818 10.589 18.0313 10.5613 17.9848 10.5281C17.9703 10.5181 17.9538 10.514 17.9413 10.504L14.5207 7.77058C14.442 7.70762 14.377 7.63025 14.3292 7.5429C14.2815 7.45554 14.2519 7.35992 14.2423 7.2615C14.2327 7.16307 14.2431 7.06377 14.2731 6.96928C14.3031 6.87478 14.352 6.78694 14.4171 6.71077C14.5486 6.557 14.7377 6.46007 14.9429 6.44124C15.1481 6.42241 15.3527 6.48321 15.5117 6.61032L17.6583 8.3251C17.4921 6.79867 16.8501 5.35754 15.8175 4.1937C14.7849 3.02986 13.4109 2.19856 11.8786 1.81054C10.0636 1.3107 8.12664 1.4294 6.39108 2.14681C4.65553 2.86423 3.22636 4.13693 2.34235 5.75243C1.52259 7.34608 1.33358 9.17555 1.81105 10.8951C2.28852 12.6146 3.39939 14.1051 4.9337 15.0848C6.50572 16.1257 8.3987 16.6126 10.2965 16.4642C12.1942 16.3157 13.982 15.5409 15.3614 14.2691C15.5116 14.1324 15.7116 14.059 15.9176 14.0651C16.1235 14.0711 16.3187 14.156 16.4602 14.3012C16.5303 14.3731 16.585 14.4577 16.6214 14.5502C16.6577 14.6427 16.6749 14.7412 16.672 14.8401C16.669 14.939 16.6459 15.0364 16.604 15.1266C16.5621 15.2169 16.5024 15.2982 16.428 15.3661C14.5927 17.0542 12.1596 17.9968 9.62926 18C7.64632 17.9976 5.70986 17.4185 4.07038 16.3375C2.21972 15.1519 0.881275 13.3504 0.308113 11.2734C-0.265049 9.19642 -0.0333233 6.9879 0.959621 5.06531Z" fill="#0279FF"/>
</svg>
