<svg width="18" height="14" viewBox="0 0 18 14" fill="none" xmlns="http://www.w3.org/2000/svg">
<path d="M4.02294 11.9662C3.90593 11.8494 3.83589 11.6909 3.82684 11.5227C3.8178 11.3545 3.87048 11.1891 3.97424 11.0595C4.02531 10.9978 4.08781 10.9475 4.15806 10.9114C4.22832 10.8752 4.3048 10.854 4.38309 10.8491C4.46138 10.8443 4.53988 10.8561 4.61379 10.8833C4.68771 10.9105 4.75555 10.9529 4.81337 11.0078C5.46181 11.6399 6.23663 12.1157 7.08266 12.4022C7.9287 12.6886 8.82523 12.7785 9.70845 12.6649L9.89063 12.6475C11.1314 12.4971 12.2867 11.9158 13.1682 10.998C14.0498 10.0802 14.6059 8.87988 14.746 7.59267L13.2992 8.87763C13.2396 8.93089 13.1701 8.97104 13.095 8.99534C13.0199 9.01964 12.9407 9.02756 12.8625 9.01888C12.7842 9.01021 12.7087 8.98467 12.6402 8.94446C12.5717 8.90424 12.512 8.85011 12.4646 8.78498C12.3643 8.65356 12.3166 8.48709 12.3317 8.3202C12.3468 8.15332 12.4234 7.99939 12.5455 7.88961L14.9965 5.71535C15.0117 5.7044 15.028 5.69591 15.0452 5.68877C15.0782 5.66479 15.113 5.64367 15.1493 5.62574C15.1839 5.61127 15.2199 5.60057 15.2566 5.59384C15.2766 5.58801 15.2961 5.58049 15.315 5.57182C15.3367 5.5732 15.3584 5.57586 15.3797 5.58017C15.3962 5.58017 15.4156 5.57182 15.4313 5.57182C15.4466 5.57415 15.4612 5.58091 15.4734 5.5908C15.5258 5.59571 15.5768 5.61098 15.6234 5.63637C15.6429 5.64648 15.6624 5.65967 15.6789 5.66978C15.7241 5.70024 15.7645 5.73742 15.7988 5.78066C15.8085 5.78999 15.8251 5.79321 15.8349 5.80876L17.8658 8.53057C17.9661 8.66347 18.0131 8.83197 17.9969 8.9999C17.9807 9.16783 17.9025 9.32236 17.7788 9.43201C17.719 9.48517 17.6492 9.52484 17.5739 9.54897C17.4986 9.57309 17.4195 9.5814 17.3412 9.57251C17.2629 9.56362 17.1872 9.53776 17.1187 9.49732C17.0503 9.45688 16.9906 9.40241 16.9433 9.33708L15.9032 7.94353C15.6978 9.47786 15.0065 10.8979 13.9382 11.9807C12.8698 13.0634 11.4849 13.7478 10.0009 13.9256L9.81556 13.9438C9.52661 13.9798 9.23597 13.9987 8.94494 14C7.11585 13.989 5.35811 13.2626 4.02294 11.9662ZM2.33625 8.30274C2.31762 8.29271 2.29998 8.2808 2.28371 8.26704C2.22832 8.2354 2.17893 8.19364 2.1376 8.14402C2.13085 8.13468 2.11798 8.13058 2.11123 8.12047L0.13214 5.46398C0.0326265 5.33045 -0.0134753 5.16173 0.00342289 4.99389C0.0203211 4.82605 0.0989912 4.67186 0.222956 4.56253C0.28298 4.51019 0.352565 4.47132 0.427657 4.44786C0.50275 4.4244 0.581723 4.41659 0.659641 4.42583C0.737558 4.43508 0.81278 4.46058 0.880821 4.50102C0.948862 4.54146 1.00824 4.59621 1.05531 4.66126L2.0693 6.02368C2.25148 4.75493 2.75622 3.55932 3.53169 2.55991C4.08165 1.84857 4.76495 1.25989 5.54026 0.82992C6.31557 0.399946 7.16693 0.137745 8.04282 0.0583369L8.21145 0.046186C8.48297 0.00994084 8.75675 -0.0048385 9.03045 0.0013795C10.8509 0.00424787 12.6018 0.727118 13.9255 2.02299C14.044 2.13847 14.1151 2.2974 14.1242 2.46574C14.1333 2.63408 14.0796 2.79902 13.9742 2.92747C13.9234 2.98952 13.8609 3.04083 13.7906 3.07708C13.7203 3.11333 13.6434 3.13401 13.565 3.1386C13.4866 3.14318 13.4081 3.13149 13.3343 3.10366C13.2605 3.07584 13.1929 3.03257 13.1357 2.97684C12.0082 1.88393 10.522 1.27726 8.97863 1.2795C8.75477 1.27929 8.53125 1.29309 8.30904 1.32127L8.14023 1.33191C7.42131 1.39692 6.72263 1.61241 6.08625 1.96527C5.44988 2.31813 4.889 2.80077 4.43765 3.38465C3.76733 4.24193 3.34081 5.27671 3.20615 6.3715L4.71138 5.1078C4.77222 5.05603 4.84261 5.01782 4.91828 4.99541C4.99396 4.97299 5.07333 4.96654 5.15136 4.97718C5.22939 4.98782 5.30448 5.01498 5.37199 5.05692C5.43951 5.09887 5.49807 5.15463 5.54392 5.22096C5.64075 5.35623 5.68413 5.52448 5.66531 5.69181C5.6465 5.85914 5.56691 6.0131 5.44267 6.12165L2.93699 8.22148C2.93024 8.2277 2.91754 8.22589 2.90404 8.23211C2.82309 8.29992 2.72487 8.34202 2.62134 8.35286C2.60556 8.35787 2.58892 8.35983 2.57245 8.35893C2.4908 8.35757 2.41037 8.33829 2.33625 8.30274Z" fill="#0279FF"/>
</svg>
