<svg xmlns="http://www.w3.org/2000/svg" width="22.563" height="22.498" viewBox="0 0 22.563 22.498">
  <path id="ic_search" d="M.676,22a.707.707,0,0,1-.485-.191.713.713,0,0,1,.029-1L8.628,12.4A7.557,7.557,0,0,1,14.429,0h.007a7.559,7.559,0,0,1,7.11,10.132A7.561,7.561,0,0,1,9.6,13.37L1.192,21.777A.706.706,0,0,1,.676,22ZM14.436,1.376a6.186,6.186,0,1,0,6.188,6.187A6.194,6.194,0,0,0,14.436,1.376Z" transform="translate(0.306 0.25)" fill="#fff" stroke="#fff" stroke-miterlimit="10" stroke-width="0.5"/>
</svg>
