<?xml version="1.0" encoding="utf-8"?>
<!-- Generator: Adobe Illustrator 24.1.3, SVG Export Plug-In . SVG Version: 6.00 Build 0)  -->
<svg version="1.1" id="Layer_1" xmlns="http://www.w3.org/2000/svg" xmlns:xlink="http://www.w3.org/1999/xlink" x="0px" y="0px"
	 viewBox="0 0 22.6 22.5" style="enable-background:new 0 0 22.6 22.5;" xml:space="preserve">
<style type="text/css">
	.st0{fill:#0279FF;stroke:#FFFFFF;stroke-width:0.5;stroke-miterlimit:10;}
</style>
<path id="ic_search" class="st0" d="M21.1,22l-8.4-8.4c-0.7,0.6-1.4,1-2.3,1.3c-3.9,1.4-8.3-0.6-9.7-4.5C0.5,9.6,0.3,8.7,0.3,7.8
	c0-4.2,3.4-7.6,7.6-7.6h0c1.8,0,3.5,0.6,4.8,1.8c3.2,2.7,3.6,7.4,1,10.6l8.4,8.4c0.3,0.3,0.3,0.7,0,1c-0.1,0.1-0.3,0.2-0.5,0.2
	C21.4,22.3,21.2,22.2,21.1,22z M1.7,7.8c0,3.4,2.8,6.2,6.2,6.2c3.4,0,6.2-2.8,6.2-6.2c0-3.4-2.8-6.2-6.2-6.2
	C4.5,1.6,1.7,4.4,1.7,7.8z"/>
</svg>
