<svg width="18" height="18" viewBox="0 0 18 18" fill="none" xmlns="http://www.w3.org/2000/svg">
<path d="M0.536017 7.39137L0.514447 7.24293L0.536018 7.39137L0.536368 7.39132C0.536251 7.39134 0.536134 7.39136 0.536017 7.39137ZM4.63599 11.051L0.836792 7.34767L6.08716 6.58475C6.33144 6.54925 6.54262 6.39582 6.65187 6.17446L8.9999 1.41682L11.3479 6.17446C11.4572 6.39582 11.6684 6.54925 11.9126 6.58475L17.163 7.34767L13.3638 11.051C13.187 11.2233 13.1064 11.4715 13.1481 11.7148L14.045 16.944L9.34891 14.4751C9.13041 14.3602 8.86939 14.3602 8.6509 14.4751L3.95482 16.944L4.85169 11.7148C4.89342 11.4715 4.81276 11.2233 4.63599 11.051ZM17.4638 7.39137C17.4637 7.39136 17.4635 7.39134 17.4634 7.39132L17.4638 7.39137ZM3.6858 17.0854C3.68588 17.0854 3.68596 17.0853 3.68604 17.0853L3.6858 17.0854Z" fill="white" stroke="white" stroke-width="0.9"/>
</svg>
