<svg id="ic_wifi" xmlns="http://www.w3.org/2000/svg" width="32.525" height="22.474" viewBox="0 0 32.525 22.474">
  <path id="ic_wifi-2" data-name="ic_wifi" d="M15.175,22.254a3,3,0,0,1,0-5.5,2.819,2.819,0,0,1,3.121.653l0,0a2.928,2.928,0,0,1,.636.982,3,3,0,0,1-1.585,3.867,2.781,2.781,0,0,1-2.169,0ZM20.993,15.1a9.649,9.649,0,0,0-2.3-.965,9.363,9.363,0,0,0-4.858,0,9.619,9.619,0,0,0-2.3.965A9.454,9.454,0,0,0,9.486,16.7l-1.359-1.4a11.315,11.315,0,0,1,2.451-1.925,11.505,11.505,0,0,1,2.763-1.157,11.188,11.188,0,0,1,5.833,0,11.469,11.469,0,0,1,2.763,1.157,11.244,11.244,0,0,1,2.452,1.925l-1.355,1.4A9.509,9.509,0,0,0,20.993,15.1ZM16.261,7.907A15.081,15.081,0,0,0,5.417,12.521l-1.351-1.4a16.9,16.9,0,0,1,24.395,0l-1.356,1.4A15.081,15.081,0,0,0,16.261,7.907Zm10.418-3.1A21.066,21.066,0,0,0,21.62,2.693a20.619,20.619,0,0,0-10.714,0A21.085,21.085,0,0,0,5.844,4.809,20.66,20.66,0,0,0,1.355,8.33L0,6.935A22.572,22.572,0,0,1,4.9,3.086,22.891,22.891,0,0,1,10.431.774,22.357,22.357,0,0,1,22.1.774a22.927,22.927,0,0,1,5.528,2.312,22.568,22.568,0,0,1,4.9,3.848L31.17,8.33A20.643,20.643,0,0,0,26.679,4.809Z" fill="#0279ff"/>
</svg>
