<svg xmlns="http://www.w3.org/2000/svg" width="19" height="13" viewBox="0 0 19 13">
  <path id="ic_wifi" d="M612.5,422.553a6.605,6.605,0,0,1,1.432-1.113,6.757,6.757,0,0,1,1.614-.669,6.6,6.6,0,0,1,3.407,0,6.722,6.722,0,0,1,1.614.669A6.582,6.582,0,0,1,622,422.553l-.791.807a5.543,5.543,0,0,0-1.192-.929,5.648,5.648,0,0,0-1.346-.558,5.515,5.515,0,0,0-2.838,0,5.631,5.631,0,0,0-1.345.558,5.493,5.493,0,0,0-1.192.929Zm-2.375-2.423a9.939,9.939,0,0,1,14.25,0l-.792.808a8.849,8.849,0,0,0-12.667,0Zm-2.375-2.422a13.162,13.162,0,0,1,2.864-2.227,13.452,13.452,0,0,1,3.229-1.338,13.191,13.191,0,0,1,6.814,0,13.469,13.469,0,0,1,3.229,1.338,13.183,13.183,0,0,1,2.863,2.227l-.791.807a12.037,12.037,0,0,0-2.623-2.037,12.394,12.394,0,0,0-2.956-1.224,12.162,12.162,0,0,0-6.259,0,12.4,12.4,0,0,0-2.957,1.224,12.055,12.055,0,0,0-2.622,2.037Zm10.688,6.055a1.694,1.694,0,0,1,.371.568,1.73,1.73,0,0,1-.928,2.238,1.642,1.642,0,0,1-1.267,0,1.73,1.73,0,0,1,0-3.184,1.658,1.658,0,0,1,1.823.378Z" transform="translate(-607.751 -413.697)" fill="#9e9e9e"/>
</svg>
