<svg width="40" height="30" viewBox="0 0 40 30" fill="none" xmlns="http://www.w3.org/2000/svg">
<path d="M28.4998 27.999H9.17782C7.4935 27.9942 5.86427 27.3986 4.57393 26.316C3.2836 25.2334 2.41396 23.7325 2.11651 22.0746C1.81907 20.4168 2.11267 18.7071 2.94617 17.2435C3.77967 15.7799 5.10024 14.6551 6.67782 14.065C6.43562 11.4187 7.15531 8.77385 8.70498 6.61518C10.2546 4.45651 12.5304 2.9287 15.1152 2.31183C17.6999 1.69496 20.4203 2.03037 22.7778 3.25656C25.1353 4.48275 26.9719 6.51757 27.9508 8.98799C30.3269 8.85508 32.6666 9.61741 34.5084 11.1246C36.3501 12.6319 37.5601 14.7745 37.8998 17.13C38.0942 18.4786 37.9966 19.8533 37.6136 21.1609C37.2305 22.4685 36.571 23.6786 35.6797 24.7092C34.7884 25.7398 33.6861 26.5669 32.4473 27.1345C31.2086 27.7021 29.8624 27.9969 28.4998 27.999ZM17.6708 3.99899C16.3515 3.99916 15.0482 4.28797 13.8524 4.84516C12.6565 5.40235 11.597 6.21442 10.7482 7.22443C9.89942 8.23444 9.28188 9.41792 8.93891 10.6919C8.59594 11.9658 8.53583 13.2994 8.76282 14.599C8.80683 14.8506 8.75293 15.1094 8.61217 15.3225C8.47142 15.5356 8.25447 15.6868 8.00582 15.745C6.76318 16.0329 5.66992 16.7679 4.93442 17.8101C4.19893 18.8522 3.87263 20.1285 4.01772 21.3958C4.16281 22.6631 4.76915 23.8326 5.72116 24.6816C6.67317 25.5305 7.90427 25.9994 9.17982 25.999H28.4998C29.5755 25.9963 30.638 25.7628 31.6156 25.3142C32.5933 24.8655 33.4632 24.2122 34.1666 23.3985C34.87 22.5847 35.3906 21.6294 35.693 20.5971C35.9955 19.5649 36.0728 18.4797 35.9198 17.415C35.6379 15.456 34.5944 13.6874 33.0159 12.4936C31.4374 11.2997 29.4515 10.777 27.4898 11.039C27.2423 11.0942 26.9831 11.0534 26.7646 10.9247C26.5461 10.7961 26.3846 10.5892 26.3128 10.346C25.7331 8.50736 24.5831 6.90107 23.0293 5.7599C21.4755 4.61873 19.5987 4.00197 17.6708 3.99899Z" fill="rgb(199, 0, 0)"/>
</svg>
