<svg width="173" height="62" viewBox="0 0 173 62" fill="none" xmlns="http://www.w3.org/2000/svg">
<g clip-path="url(#clip0_5851_74954)">
<path d="M158.865 44.9915V42.9653C165.428 42.9653 170.769 37.6474 170.769 31.1086C170.769 24.5699 165.428 19.2551 158.865 19.2551C157.388 19.2551 155.947 19.5204 154.583 20.0477L153.649 20.4057L153.273 19.482C151.271 14.5572 146.53 11.3741 141.192 11.3741C138.637 11.3741 136.166 12.1092 134.041 13.5026L132.818 14.3047L132.491 12.8826C131.027 6.53235 125.427 2.09967 118.876 2.09967C111.246 2.09967 105.113 8.044 104.91 15.6342L104.882 16.7272L103.79 16.6153C103.405 16.577 103.017 16.5578 102.603 16.5578C96.0422 16.5578 90.7046 21.8726 90.7046 28.4049H88.6697C88.6697 20.754 94.9189 14.5316 102.603 14.5316C102.715 14.5316 102.827 14.5316 102.94 14.5348C103.286 10.7669 104.955 7.2706 107.703 4.60204C110.71 1.68101 114.677 0.0734863 118.876 0.0734863C125.918 0.0734863 132 4.54771 134.109 11.1088C136.282 9.95194 138.705 9.34792 141.192 9.34792C147.037 9.34792 152.266 12.6493 154.766 17.8394C156.088 17.4335 157.462 17.229 158.865 17.229C166.552 17.229 172.804 23.4545 172.804 31.1086C172.804 38.7628 166.552 44.9915 158.865 44.9915Z" fill="#FF7600"/>
<path d="M90.512 57.8901C90.6436 57.9636 90.772 58.0467 90.8971 58.133C90.9164 58.0531 90.9357 57.9732 90.9517 57.8901H90.512ZM84.2114 54.5217C84.4522 54.25 84.7475 54.0359 85.1005 53.8697C85.4504 53.7067 85.8548 53.6236 86.3073 53.6236C86.6379 53.6236 86.9364 53.6716 87.2093 53.7706C87.4821 53.8697 87.7164 54.0039 87.9154 54.1765C88.0598 54.3011 88.1882 54.4418 88.2941 54.5984C88.9328 54.2532 89.5298 53.8537 90.0851 53.3935C89.9246 53.1858 89.7449 52.9908 89.5427 52.8151C89.1479 52.4699 88.6664 52.1951 88.1015 51.9905C87.5366 51.786 86.8947 51.6837 86.1725 51.6837C85.4086 51.6837 84.7218 51.8179 84.1184 52.0896C83.5117 52.3612 82.9982 52.7224 82.5777 53.173C82.1541 53.6236 81.8331 54.1445 81.6116 54.7294C81.3902 55.3142 81.2778 55.9246 81.2778 56.5638C81.2778 57.203 81.3902 57.8454 81.6181 58.4366C81.8459 59.031 82.1733 59.552 82.6066 59.9994C83.0367 60.4468 83.5631 60.8047 84.1826 61.07C84.802 61.3353 85.5049 61.4695 86.2977 61.4695C86.9396 61.4695 87.527 61.3768 88.0598 61.1914C88.5926 61.0061 89.0612 60.7504 89.4624 60.4276C89.6325 60.2902 89.7866 60.14 89.931 59.9834C89.3694 59.536 88.7691 59.1461 88.124 58.8137C88.0373 58.9032 87.9443 58.9831 87.8416 59.0566C87.6426 59.2036 87.4211 59.3187 87.1804 59.4018C86.9396 59.4848 86.6861 59.5264 86.4197 59.5264C85.9479 59.5264 85.5306 59.4497 85.1711 59.2931C84.8116 59.1397 84.5035 58.9256 84.25 58.6539C83.9964 58.3823 83.8038 58.0691 83.6754 57.7111C83.5471 57.3532 83.4829 56.9697 83.4829 56.5606C83.4829 56.1803 83.5438 55.8128 83.669 55.458C83.7942 55.1033 83.9771 54.7901 84.2179 54.5217H84.2114Z" fill="#0B38DB"/>
<path d="M97.2906 54.608V61.0125H95.2493V60.1081C95.1691 60.2583 95.0631 60.3989 94.9283 60.5267C94.7935 60.6546 94.6427 60.7664 94.4694 60.8591C94.296 60.9518 94.1067 61.0285 93.9012 61.086C93.6958 61.1435 93.4904 61.1723 93.2882 61.1723C92.826 61.1723 92.3991 61.086 92.014 60.9134C91.6256 60.7409 91.295 60.5076 91.019 60.2103C90.743 59.9131 90.5311 59.5584 90.3771 59.1461C90.2262 58.7339 90.1492 58.2896 90.1492 57.8102C90.1492 57.3309 90.2262 56.8866 90.3771 56.4744C90.5279 56.0621 90.743 55.7074 91.019 55.4101C91.295 55.1129 91.6256 54.8796 92.014 54.707C92.4023 54.5345 92.826 54.4482 93.2882 54.4482C93.4936 54.4482 93.6958 54.4769 93.9012 54.5345C94.1067 54.592 94.296 54.6687 94.4694 54.7678C94.6427 54.8668 94.7967 54.9819 94.9283 55.1129C95.0631 55.2472 95.1691 55.3846 95.2493 55.5252V54.608H97.2906ZM93.7151 59.4465C93.9462 59.4465 94.1548 59.4018 94.341 59.3123C94.5271 59.2228 94.6876 59.1078 94.8224 58.9608C94.9572 58.8138 95.0599 58.6412 95.137 58.443C95.214 58.2449 95.2493 58.034 95.2493 57.8102C95.2493 57.5865 95.2108 57.382 95.137 57.187C95.0599 56.9921 94.9572 56.8195 94.8224 56.6693C94.6876 56.5191 94.5303 56.3977 94.341 56.3114C94.1548 56.2219 93.9462 56.1772 93.7151 56.1772C93.484 56.1772 93.2754 56.2219 93.0892 56.3114C92.903 56.4009 92.7426 56.5191 92.6078 56.6693C92.473 56.8195 92.3702 56.9921 92.2932 57.187C92.2162 57.382 92.1809 57.5897 92.1809 57.8102C92.1809 58.0308 92.2194 58.2417 92.2932 58.443C92.3702 58.6412 92.473 58.8138 92.6078 58.9608C92.7426 59.1078 92.8998 59.226 93.0892 59.3123C93.2754 59.4018 93.484 59.4465 93.7151 59.4465Z" fill="#0B38DB"/>
<path d="M99.0271 51.7125H101.068V61.0157H99.0271V51.7125Z" fill="#0B38DB"/>
<path d="M102.51 52.4827C102.51 52.1184 102.635 51.8148 102.882 51.5655C103.129 51.3162 103.444 51.1948 103.816 51.1948C104.002 51.1948 104.175 51.2267 104.336 51.2938C104.496 51.3609 104.638 51.4504 104.756 51.5655C104.875 51.6805 104.971 51.818 105.036 51.9778C105.103 52.1375 105.135 52.3069 105.135 52.4827C105.135 52.6585 105.103 52.8247 105.036 52.9813C104.968 53.1379 104.875 53.2721 104.756 53.3935C104.638 53.5118 104.496 53.6076 104.336 53.6716C104.175 53.7387 104.002 53.7706 103.816 53.7706C103.63 53.7706 103.456 53.7387 103.302 53.6716C103.145 53.6045 103.01 53.5118 102.888 53.3935C102.77 53.2753 102.673 53.1379 102.609 52.9813C102.542 52.8279 102.51 52.6617 102.51 52.4827ZM102.802 54.608H104.843V61.0125H102.802V54.608Z" fill="#0B38DB"/>
<path d="M112.559 61.0125H110.197L109.141 59.1525L108.085 61.0125H105.722L107.937 57.7847L105.761 54.608H108.123L109.137 56.4168L110.152 54.608H112.514L110.351 57.7847L112.553 61.0125H112.559Z" fill="#0B38DB"/>
<path d="M123.571 58.7178C123.443 59.1429 123.247 59.5392 122.978 59.9035C122.711 60.271 122.384 60.5874 122.005 60.8527C121.623 61.1179 121.193 61.3289 120.712 61.4823C120.23 61.6357 119.713 61.7124 119.158 61.7124C118.378 61.7124 117.682 61.5781 117.069 61.3129C116.456 61.0476 115.932 60.6833 115.502 60.2295C115.072 59.7725 114.742 59.2452 114.514 58.6507C114.286 58.0531 114.174 57.4203 114.174 56.7524C114.174 56.0844 114.286 55.4932 114.507 54.902C114.729 54.3107 115.047 53.7866 115.461 53.3296C115.875 52.8726 116.379 52.5082 116.972 52.2302C117.566 51.9554 118.237 51.8179 118.982 51.8179C119.652 51.8179 120.253 51.9074 120.779 52.0832C121.305 52.259 121.761 52.4987 122.14 52.8023C122.522 53.1059 122.83 53.4638 123.068 53.8793C123.305 54.2947 123.472 54.7422 123.571 55.2215H122.605C122.515 54.8604 122.374 54.5216 122.182 54.2116C121.992 53.8984 121.748 53.63 121.453 53.3967C121.158 53.1666 120.814 52.9844 120.416 52.8534C120.022 52.7224 119.579 52.6584 119.088 52.6584C118.462 52.6584 117.903 52.7703 117.412 52.9972C116.921 53.2241 116.507 53.5245 116.167 53.9048C115.827 54.2851 115.567 54.7198 115.39 55.212C115.214 55.7041 115.124 56.2187 115.124 56.7524C115.124 57.3116 115.217 57.8422 115.403 58.3375C115.589 58.8361 115.859 59.2707 116.212 59.6446C116.565 60.0186 116.998 60.319 117.512 60.5395C118.025 60.76 118.609 60.8719 119.261 60.8719C119.633 60.8719 119.993 60.8175 120.343 60.7089C120.692 60.6002 121.01 60.45 121.296 60.2614C121.581 60.0729 121.835 59.846 122.05 59.5839C122.268 59.3219 122.432 59.031 122.541 58.7146H123.562L123.571 58.7178Z" fill="#FF7600"/>
<path d="M125.276 52.0193H126.162V61.511H125.276V52.0193Z" fill="#FF7600"/>
<path d="M131.034 61.6612C130.552 61.6612 130.119 61.5781 129.734 61.4119C129.349 61.2457 129.015 61.0156 128.739 60.728C128.463 60.4372 128.248 60.1048 128.1 59.7245C127.949 59.3442 127.875 58.9415 127.875 58.5165C127.875 58.0914 127.949 57.6855 128.1 57.302C128.251 56.9185 128.463 56.583 128.739 56.2985C129.015 56.0141 129.346 55.7872 129.734 55.621C130.119 55.4548 130.552 55.3685 131.034 55.3685C131.515 55.3685 131.952 55.4516 132.347 55.621C132.741 55.7872 133.078 56.0141 133.354 56.2985C133.63 56.583 133.845 56.9185 133.993 57.302C134.144 57.6855 134.218 58.0914 134.218 58.5165C134.218 58.9415 134.144 59.3442 133.993 59.7245C133.842 60.1048 133.63 60.4404 133.354 60.728C133.078 61.0188 132.741 61.2457 132.347 61.4119C131.952 61.5781 131.512 61.6612 131.034 61.6612ZM131.034 60.8463C131.387 60.8463 131.705 60.7823 131.987 60.6577C132.269 60.5299 132.51 60.3605 132.709 60.1496C132.908 59.9386 133.062 59.6894 133.171 59.4113C133.281 59.1301 133.335 58.8329 133.335 58.5165C133.335 58.2001 133.281 57.8997 133.171 57.6152C133.062 57.3308 132.908 57.0815 132.709 56.8706C132.51 56.6597 132.269 56.4903 131.987 56.3624C131.705 56.2346 131.387 56.1739 131.034 56.1739C130.681 56.1739 130.376 56.2378 130.093 56.3624C129.811 56.4903 129.573 56.6597 129.378 56.8706C129.182 57.0815 129.031 57.3308 128.922 57.6152C128.813 57.8997 128.758 58.2001 128.758 58.5165C128.758 58.8329 128.813 59.1301 128.922 59.4113C129.031 59.6925 129.182 59.9386 129.378 60.1496C129.573 60.3605 129.811 60.5331 130.093 60.6577C130.376 60.7855 130.687 60.8463 131.034 60.8463Z" fill="#FF7600"/>
<path d="M141.305 55.5028V61.5111H140.419V60.2103C140.246 60.6162 139.963 60.9614 139.575 61.2394C139.183 61.5206 138.702 61.6613 138.13 61.6613C137.723 61.6613 137.366 61.5941 137.062 61.4567C136.757 61.3225 136.509 61.1371 136.32 60.9006C136.137 60.6737 136.006 60.4117 135.919 60.1145C135.832 59.8172 135.791 59.4561 135.791 59.0279V55.5028H136.689V58.7722C136.689 59.0694 136.721 59.3474 136.786 59.5999C136.85 59.8524 136.952 60.0729 137.09 60.2583C137.232 60.4436 137.411 60.5906 137.63 60.6993C137.848 60.808 138.114 60.8623 138.432 60.8623C138.769 60.8623 139.061 60.7952 139.312 60.6642C139.562 60.5331 139.767 60.3605 139.931 60.1432C140.095 59.9259 140.217 59.683 140.3 59.4114C140.38 59.1397 140.422 58.8649 140.422 58.5836V55.506H141.308L141.305 55.5028Z" fill="#FF7600"/>
<path d="M148.482 60.2486C148.283 60.6737 147.974 61.0156 147.554 61.2713C147.137 61.5302 146.665 61.658 146.139 61.658C145.676 61.658 145.25 61.5749 144.864 61.4087C144.479 61.2425 144.149 61.0124 143.876 60.7248C143.603 60.4372 143.391 60.1016 143.243 59.7213C143.093 59.341 143.019 58.9383 143.019 58.5133C143.019 58.0882 143.093 57.6823 143.243 57.2988C143.394 56.9153 143.603 56.5798 143.876 56.2953C144.149 56.0109 144.476 55.784 144.864 55.6178C145.25 55.4516 145.673 55.3653 146.139 55.3653C146.665 55.3653 147.137 55.4932 147.554 55.7456C147.971 55.9981 148.279 56.3433 148.482 56.7747V52.0161H149.367V61.5078H148.482V60.2454V60.2486ZM146.18 60.8463C146.533 60.8463 146.851 60.7823 147.134 60.6577C147.416 60.5299 147.657 60.3605 147.856 60.1496C148.055 59.9386 148.209 59.6894 148.318 59.4113C148.427 59.1301 148.482 58.8329 148.482 58.5165C148.482 58.2001 148.427 57.8997 148.318 57.6152C148.209 57.3308 148.055 57.0815 147.856 56.8706C147.657 56.6597 147.416 56.4903 147.134 56.3624C146.851 56.2346 146.533 56.1739 146.18 56.1739C145.827 56.1739 145.522 56.2378 145.24 56.3624C144.957 56.4903 144.72 56.6597 144.524 56.8706C144.328 57.0815 144.177 57.3308 144.068 57.6152C143.959 57.8997 143.905 58.2001 143.905 58.5165C143.905 58.8329 143.959 59.1301 144.068 59.4113C144.177 59.6925 144.328 59.9386 144.524 60.1496C144.72 60.3605 144.957 60.5331 145.24 60.6577C145.522 60.7855 145.834 60.8463 146.18 60.8463Z" fill="#FF7600"/>
<path d="M154.477 53.7611C154.477 54.6304 153.79 55.3143 152.898 55.3143C152.006 55.3143 151.309 54.6304 151.309 53.7611C151.309 52.8918 152.015 52.2271 152.898 52.2271C153.781 52.2271 154.477 52.911 154.477 53.7611ZM151.707 53.7611C151.707 54.445 152.214 54.9851 152.911 54.9851C153.607 54.9851 154.085 54.4418 154.085 53.7707C154.085 53.0995 153.588 52.5371 152.901 52.5371C152.214 52.5371 151.707 53.0899 151.707 53.7611ZM152.657 54.5664H152.301V53.0324C152.442 53.0037 152.638 52.9845 152.891 52.9845C153.184 52.9845 153.315 53.0324 153.427 53.0963C153.511 53.1602 153.578 53.2849 153.578 53.4319C153.578 53.6013 153.447 53.7323 153.261 53.7866V53.8058C153.411 53.8633 153.495 53.9752 153.543 54.1797C153.591 54.413 153.617 54.5057 153.655 54.5632H153.27C153.222 54.5057 153.196 54.3683 153.148 54.1893C153.119 54.0199 153.026 53.9464 152.83 53.9464H152.66V54.5632L152.657 54.5664ZM152.667 53.6972H152.837C153.033 53.6972 153.193 53.63 153.193 53.4734C153.193 53.3328 153.09 53.2401 152.866 53.2401C152.773 53.2401 152.705 53.2497 152.67 53.2593V53.7003L152.667 53.6972Z" fill="#FF7600"/>
<path d="M0.250244 45.4422V24.7648H12.1163V27.8073H3.62679V33.6558H12.1163V36.6982H3.62679V42.3997H12.1163V45.4422H0.250244Z" fill="#333333"/>
<path d="M15.0531 45.4421V31.6775H18.2531V33.5982C19.1037 32.1217 20.6892 31.3228 22.7177 31.3228C26.0076 31.3228 27.7119 33.1828 27.7119 36.7877V45.4421H24.5119V38.2642C24.5119 35.34 23.748 34.0712 21.5173 34.0712C19.4311 34.0712 18.2563 35.4582 18.2563 37.8807V45.4421H15.0563H15.0531Z" fill="#333333"/>
<path d="M40.7207 31.6775H43.9208V44.8509C43.9208 47.5674 43.0702 49.6064 41.4525 50.7889C40.3067 51.6454 38.7211 52.0001 36.7536 52.0001C34.9337 52.0001 33.2005 51.6166 31.9359 50.7601C30.6424 49.8749 29.8208 48.5454 29.763 47.0082H33.1107C33.3739 48.4271 34.5197 49.3411 36.7247 49.3411C39.3374 49.3411 40.7175 48.1906 40.7175 45.0874V43.5822C39.8959 44.9692 38.015 45.7969 36.3428 45.7969C32.0836 45.7969 29.6154 42.6074 29.6154 38.5615C29.6154 34.5155 32.3179 31.326 36.4294 31.326C38.2493 31.326 39.8959 32.1537 40.7175 33.5407V31.6807L40.7207 31.6775ZM40.8684 38.5615C40.8684 36.1997 39.4305 34.1895 36.8146 34.1895C34.4074 34.1895 32.8186 36.0495 32.8186 38.5615C32.8186 41.0734 34.4041 42.9334 36.8146 42.9334C39.4272 42.9334 40.8684 40.9232 40.8684 38.5615Z" fill="#333333"/>
<path d="M45.3908 38.5615C45.3908 34.5155 47.9457 31.326 52.2049 31.326C54.0247 31.326 55.6713 32.1537 56.5218 33.5407V31.6807H59.693V45.4454H56.5218V43.5854C55.6713 44.9724 53.7904 45.8001 52.115 45.8001C47.7081 45.8001 45.3876 42.6106 45.3876 38.5646L45.3908 38.5615ZM56.6406 38.5615C56.6406 36.1997 55.3182 34.1895 52.5868 34.1895C50.0897 34.1895 48.5908 36.0495 48.5908 38.5615C48.5908 41.0734 50.0897 42.9334 52.5868 42.9334C55.3182 42.9334 56.6406 40.9232 56.6406 38.5615Z" fill="#333333"/>
<path d="M72.5572 31.6775H75.7572V44.8509C75.7572 47.5674 74.9066 49.6064 73.289 50.7889C72.1431 51.6454 70.5576 52.0001 68.59 52.0001C66.7702 52.0001 65.037 51.6166 63.7724 50.7601C62.4789 49.8749 61.6572 48.5454 61.5994 47.0082H64.9471C65.2103 48.4271 66.3561 49.3411 68.5611 49.3411C71.1738 49.3411 72.554 48.1906 72.554 45.0874V43.5822C71.7323 44.9692 69.8514 45.7969 68.1792 45.7969C63.92 45.7969 61.4518 42.6074 61.4518 38.5615C61.4518 34.5155 64.1543 31.326 68.2659 31.326C70.0857 31.326 71.7323 32.1537 72.554 33.5407V31.6807L72.5572 31.6775ZM72.7048 38.5615C72.7048 36.1997 71.2669 34.1895 68.651 34.1895C66.2438 34.1895 64.655 36.0495 64.655 38.5615C64.655 41.0734 66.2406 42.9334 68.651 42.9334C71.2637 42.9334 72.7048 40.9232 72.7048 38.5615Z" fill="#333333"/>
<path d="M90.8553 39.6257H80.6936C80.7802 41.8116 82.1925 42.9941 84.513 42.9941C86.0986 42.9941 87.039 42.4924 87.5686 41.4281H90.8007C90.3899 43.9976 87.8061 45.8001 84.5162 45.8001C80.1993 45.8001 77.5256 43.0229 77.5256 38.5646C77.5256 34.1064 80.2282 31.3292 84.3975 31.3292C88.3036 31.3292 90.9484 33.9881 90.9484 37.8551C90.9484 38.4176 90.9195 38.8586 90.8617 39.6289L90.8553 39.6257ZM87.7997 37.1744C87.7708 35.046 86.5351 33.8667 84.3333 33.8667C82.1315 33.8667 80.7192 35.2249 80.6903 37.1744H87.7965H87.7997Z" fill="#333333"/>
<path d="M92.9961 45.4421V31.6775H96.1961V33.5982C96.7835 32.3295 98.2214 31.3228 100.016 31.3228C102.513 31.3228 103.745 32.4157 104.333 33.774C104.978 32.387 106.595 31.3228 108.531 31.3228C112.642 31.3228 113.464 34.1575 113.464 36.727V45.4389H110.264V37.347C110.264 35.0715 109.381 34.068 107.709 34.068C106.037 34.068 104.83 34.867 104.83 38.1428V45.4389H101.63V37.315C101.63 35.0396 100.808 34.0648 99.1329 34.0648C97.4575 34.0648 96.1961 34.8638 96.1961 38.1396V45.4357H92.9961V45.4421Z" fill="#333333"/>
<path d="M128.71 39.6257H118.548C118.635 41.8116 120.047 42.9941 122.368 42.9941C123.953 42.9941 124.894 42.4924 125.423 41.4281H128.655C128.245 43.9976 125.661 45.8001 122.371 45.8001C118.054 45.8001 115.38 43.0229 115.38 38.5646C115.38 34.1064 118.083 31.3292 122.252 31.3292C126.158 31.3292 128.803 33.9881 128.803 37.8551C128.803 38.4176 128.774 38.8586 128.716 39.6289L128.71 39.6257ZM125.654 37.1744C125.626 35.046 124.39 33.8667 122.188 33.8667C119.986 33.8667 118.574 35.2249 118.545 37.1744H125.651H125.654Z" fill="#333333"/>
<path d="M130.854 45.4421V31.6775H134.054V33.5982C134.905 32.1217 136.49 31.3228 138.519 31.3228C141.809 31.3228 143.513 33.1828 143.513 36.7877V45.4421H140.313V38.2642C140.313 35.34 139.549 34.0712 137.318 34.0712C135.232 34.0712 134.057 35.4582 134.057 37.8807V45.4421H130.857H130.854Z" fill="#333333"/>
<path d="M153.851 42.6074V45.4421C153.351 45.5316 152.413 45.6179 151.473 45.6179C149.916 45.6179 147.037 45.4102 147.037 40.773V34.362H144.717V31.6743H147.037V27.5101H150.237V31.6743H153.379V34.362H150.237V40.0347C150.237 42.4284 150.972 42.7224 152.234 42.7224C152.734 42.7224 153.527 42.6649 153.848 42.6042L153.851 42.6074Z" fill="#333333"/>
</g>
<defs>
<clipPath id="clip0_5851_74954">
<rect width="173" height="62" fill="white"/>
</clipPath>
</defs>
</svg>
