<svg width="140" height="62" viewBox="0 0 140 62" fill="none" xmlns="http://www.w3.org/2000/svg">
<path d="M126.126 44.8298V42.8306C127.844 42.8304 129.54 42.4509 131.095 41.7191C132.649 40.9872 134.024 39.9209 135.122 38.5958C136.22 37.2708 137.013 35.7196 137.446 34.0523C137.879 32.3851 137.94 30.6426 137.626 28.9488C137.312 27.255 136.63 25.6513 135.629 24.2517C134.627 22.852 133.331 21.6907 131.832 20.8503C130.333 20.0098 128.667 19.5108 126.954 19.3887C125.241 19.2665 123.522 19.5243 121.92 20.1436L120.999 20.4979L120.64 19.6122C119.932 17.8466 118.841 16.2611 117.447 14.9705C116.053 13.6799 114.391 12.7166 112.58 12.1504C110.769 11.5841 108.855 11.4291 106.977 11.6966C105.098 11.9641 103.303 12.6474 101.721 13.6969L100.516 14.4877L100.195 13.0832C99.4989 10.0774 97.8206 7.39158 95.4271 5.45343C93.4366 3.86026 91.0435 2.85412 88.5156 2.54758C85.9876 2.24103 83.4245 2.64617 81.1129 3.71766C78.8014 4.78916 76.8326 6.48475 75.4269 8.61473C74.0212 10.7447 73.2339 13.2251 73.1532 15.7783L73.1217 16.8602L72.0496 16.7526C71.6623 16.7086 71.2727 16.6875 70.8829 16.6894C67.7842 16.6944 64.8138 17.932 62.6233 20.1307C60.4327 22.3295 59.2007 25.31 59.1973 28.4187H57.1982C57.2016 24.7787 58.6444 21.2888 61.2101 18.7149C63.7757 16.141 67.2545 14.6935 70.8829 14.6902H71.2172C71.4801 11.8512 72.5052 9.13684 74.1834 6.83583C75.8617 4.53482 78.1303 2.73323 80.7479 1.62272C83.3656 0.512208 86.2343 0.134312 89.049 0.529232C91.8637 0.924152 94.519 2.07712 96.7325 3.86547C99.1145 5.79569 100.887 8.37806 101.834 11.2991C103.595 10.3575 105.527 9.78256 107.514 9.60894C109.502 9.43533 111.504 9.6666 113.4 10.2889C115.296 10.9111 117.047 11.9115 118.548 13.23C120.049 14.5484 121.269 16.1576 122.134 17.961C123.436 17.5475 124.792 17.3342 126.158 17.3283C129.739 17.4054 133.147 18.8867 135.653 21.4547C138.158 24.0227 139.561 27.4731 139.561 31.0664C139.561 34.6597 138.158 38.1101 135.653 40.6781C133.147 43.2461 129.739 44.7274 126.158 44.8045L126.126 44.8298Z" fill="#FF7600"/>
<path d="M43.7907 57.6726C43.9219 57.7445 44.0482 57.8248 44.1691 57.913C44.1691 57.8308 44.2069 57.7549 44.2195 57.6726H43.7907ZM37.5979 54.3385C37.8422 54.0678 38.141 53.8522 38.4745 53.7059C38.8461 53.535 39.2514 53.4507 39.66 53.4592C39.9605 53.4565 40.2591 53.5057 40.5429 53.6047C40.7974 53.6949 41.0327 53.8322 41.2366 54.0096C41.3816 54.1285 41.5071 54.2693 41.6087 54.4271C42.235 54.0877 42.8265 53.6872 43.3745 53.2314C43.2175 53.0222 43.0377 52.8312 42.8384 52.662C42.4214 52.3021 41.9398 52.0251 41.4195 51.8459C40.8114 51.6346 40.1711 51.5319 39.5276 51.5422C38.8344 51.5305 38.1466 51.6664 37.5096 51.9408C36.9458 52.1895 36.4373 52.5488 36.0138 52.9975C35.5904 53.4462 35.2606 53.9753 35.0438 54.5536C34.8236 55.1333 34.7124 55.749 34.7159 56.3694C34.7146 57.0024 34.8279 57.6305 35.0501 58.223C35.2656 58.7986 35.5961 59.3239 36.0213 59.7667C36.4608 60.2205 36.986 60.5819 37.5664 60.8296C38.2264 61.1005 38.9344 61.2339 39.6474 61.2218C40.2352 61.2307 40.8199 61.1365 41.3754 60.9434C41.8733 60.7736 42.3384 60.5189 42.7501 60.1906C42.9156 60.0561 43.0696 59.9079 43.2105 59.7477C42.6579 59.3061 42.0645 58.9184 41.4384 58.59C41.352 58.6788 41.2592 58.7612 41.1609 58.8367C40.9685 58.9809 40.7561 59.096 40.5303 59.1783C40.2891 59.2628 40.0354 59.3056 39.7799 59.3049C39.3604 59.3109 38.9442 59.2313 38.5564 59.0708C38.2137 58.928 37.906 58.7121 37.6546 58.4381C37.4021 58.1719 37.2086 57.8549 37.0871 57.5081C36.8391 56.7845 36.8391 55.9985 37.0871 55.2749C37.1948 54.9323 37.3683 54.6142 37.5979 54.3385Z" fill="#0B38DB"/>
<path d="M50.4507 54.4081V60.7347H48.4453V59.8426C48.3628 59.9958 48.2564 60.1346 48.13 60.2539C47.9965 60.3864 47.8433 60.4974 47.6759 60.5828C47.5 60.6792 47.3138 60.7556 47.121 60.8106C46.9158 60.8682 46.7034 60.8959 46.4904 60.8928C46.0568 60.8991 45.6269 60.8129 45.2291 60.6398C44.8612 60.4771 44.5307 60.2402 44.2579 59.9439C43.9784 59.6383 43.7639 59.2788 43.6273 58.8873C43.3248 58.032 43.3248 57.0982 43.6273 56.2428C43.764 55.8533 43.9786 55.4959 44.2579 55.1926C44.5307 54.8963 44.8612 54.6595 45.2291 54.4967C45.6264 54.3215 46.0564 54.233 46.4904 54.2373C46.7037 54.2365 46.9161 54.2663 47.121 54.3259C47.3138 54.3809 47.5 54.4573 47.6759 54.5537C47.8424 54.6457 47.9953 54.7607 48.13 54.8953C48.2534 55.0172 48.3595 55.1556 48.4453 55.3065V54.4081H50.4507ZM46.9381 59.1973C47.1558 59.2036 47.3719 59.158 47.5687 59.0645C47.7473 58.9801 47.9079 58.862 48.0417 58.7165C48.1758 58.5666 48.2806 58.3928 48.3507 58.2041C48.4278 58.0022 48.4663 57.7876 48.4642 57.5714C48.4681 57.3551 48.4295 57.1401 48.3507 56.9388C48.2791 56.7488 48.1745 56.5732 48.0417 56.42C47.9081 56.2726 47.7475 56.1523 47.5687 56.0657C47.37 55.9779 47.1553 55.9325 46.9381 55.9325C46.721 55.9325 46.5062 55.9779 46.3075 56.0657C46.1287 56.1523 45.9681 56.2726 45.8345 56.42C45.7017 56.5732 45.5971 56.7488 45.5255 56.9388C45.4467 57.1401 45.4081 57.3551 45.412 57.5714C45.4099 57.7876 45.4484 58.0022 45.5255 58.2041C45.5956 58.3928 45.7004 58.5666 45.8345 58.7165C45.9684 58.862 46.129 58.9801 46.3075 59.0645C46.5034 59.1619 46.7194 59.2118 46.9381 59.21V59.1973Z" fill="#0B38DB"/>
<path d="M52.1533 51.5549H54.1587V60.7347H52.1533V51.5549Z" fill="#0B38DB"/>
<path d="M55.5778 52.3204C55.5778 51.9849 55.7107 51.663 55.9472 51.4257C56.1837 51.1885 56.5045 51.0551 56.839 51.0551C57.0159 51.0531 57.1915 51.0853 57.3561 51.15C57.5068 51.2174 57.6453 51.3093 57.7661 51.4221C57.884 51.5376 57.9783 51.6751 58.0435 51.827C58.1069 51.9881 58.139 52.1599 58.1381 52.3331C58.139 52.5002 58.1068 52.6657 58.0435 52.8202C57.978 52.9738 57.8838 53.1134 57.7661 53.2315C57.645 53.3537 57.5004 53.4499 57.3409 53.5141C57.1815 53.5783 57.0107 53.6091 56.839 53.6047C56.6663 53.6063 56.495 53.574 56.3345 53.5098C56.1843 53.4424 56.0475 53.3481 55.9309 53.2315C55.8131 53.1134 55.7189 52.9738 55.6534 52.8202C55.595 52.6604 55.5692 52.4905 55.5778 52.3204ZM55.8616 54.4209H57.8733V60.7474H55.8616V54.4209Z" fill="#0B38DB"/>
<path d="M65.4472 60.7347H63.1265L62.0923 58.8937L61.058 60.7347H58.7373L60.913 57.5715L58.7751 54.4082H61.0959L62.0923 56.1986L63.0634 54.4082H65.3841L63.2589 57.5715L65.4472 60.7347Z" fill="#0B38DB"/>
<path d="M76.2683 58.4888C76.141 58.9117 75.9427 59.3096 75.6818 59.6655C75.4197 60.0296 75.0977 60.3462 74.7295 60.6018C74.3432 60.8752 73.918 61.0885 73.4683 61.2345C72.2919 61.5887 71.0301 61.5285 69.8926 61.0637C69.3141 60.8212 68.7916 60.4619 68.3576 60.008C67.9236 59.5541 67.5875 59.0154 67.3701 58.4255C66.9287 57.2294 66.9287 55.9143 67.3701 54.7182C67.574 54.1376 67.8889 53.6025 68.2971 53.1429C68.7138 52.6818 69.2203 52.3115 69.7854 52.0547C70.4052 51.7736 71.0792 51.6332 71.7593 51.6435C72.3578 51.636 72.9538 51.7235 73.525 51.9029C74.0077 52.0637 74.4598 52.3054 74.862 52.6178C75.2301 52.9126 75.5383 53.2756 75.7701 53.6869C76.0036 54.1013 76.1717 54.5495 76.2683 55.0155H75.316C75.2313 54.6622 75.0908 54.3247 74.8998 54.0159C74.7149 53.7037 74.4731 53.429 74.1872 53.2061C73.8795 52.9701 73.534 52.7883 73.1656 52.6684C72.7516 52.55 72.3219 52.4966 71.8917 52.5102C71.3249 52.4969 70.7624 52.6115 70.2458 52.8455C69.7786 53.0538 69.3614 53.3601 69.0223 53.7439C68.6863 54.1103 68.4268 54.5405 68.2593 55.0092C68.0832 55.4959 67.9935 56.0098 67.9944 56.5276C67.9921 57.0651 68.086 57.5987 68.2719 58.1029C68.4505 58.5733 68.7206 59.0034 69.0665 59.3682C69.4206 59.7485 69.8503 60.0503 70.3277 60.2539C70.8703 60.4827 71.4546 60.5948 72.0431 60.5829C72.4042 60.5844 72.7636 60.5311 73.1088 60.4247C73.4399 60.3237 73.7544 60.1745 74.0422 59.9818C74.3216 59.796 74.5723 59.5701 74.7863 59.3112C74.9995 59.0568 75.1642 58.7651 75.2719 58.4508L76.2683 58.4888Z" fill="#FF7600"/>
<path d="M77.9395 51.8776H78.8286V61.2725H77.9584L77.9395 51.8776Z" fill="#FF7600"/>
<path d="M83.596 61.399C83.1631 61.4045 82.7338 61.3205 82.3347 61.1522C81.9669 60.9948 81.6344 60.7645 81.3572 60.4753C81.0842 60.1889 80.8699 59.8514 80.7266 59.482C80.579 59.1008 80.5042 58.6952 80.5059 58.2863C80.5053 57.8754 80.5801 57.468 80.7266 57.0843C80.8684 56.7142 81.0828 56.3764 81.3572 56.091C81.6364 55.8057 81.9684 55.5779 82.3347 55.4204C82.7338 55.2522 83.1631 55.1682 83.596 55.1737C84.0391 55.1674 84.4789 55.2514 84.8888 55.4204C85.2605 55.5747 85.5973 55.8028 85.8788 56.091C86.1511 56.378 86.3653 56.7154 86.5095 57.0843C86.656 57.468 86.7308 57.8754 86.7302 58.2863C86.7319 58.6952 86.6571 59.1008 86.5095 59.482C86.3631 59.8498 86.1492 60.1867 85.8788 60.4753C85.5993 60.7675 85.2621 60.998 84.8888 61.1522C84.4789 61.3213 84.0391 61.4052 83.596 61.399ZM83.596 60.5955C83.9191 60.6006 84.2396 60.5359 84.5356 60.4057C84.803 60.2899 85.0435 60.1197 85.2419 59.9059C85.4393 59.6932 85.5935 59.4439 85.696 59.172C85.8053 58.8897 85.8609 58.5892 85.8599 58.2863C85.8593 57.9815 85.8037 57.6793 85.696 57.3943C85.592 57.1213 85.438 56.8702 85.2419 56.6541C85.0417 56.4423 84.8017 56.2724 84.5356 56.1543C84.2396 56.0241 83.9191 55.9593 83.596 55.9645C83.279 55.9607 82.965 56.0254 82.6753 56.1543C82.4102 56.2709 82.1719 56.441 81.9753 56.6541C81.7792 56.8702 81.6252 57.1213 81.5212 57.3943C81.4156 57.6797 81.3622 57.9819 81.3635 58.2863C81.3604 58.5889 81.4138 58.8893 81.5212 59.172C81.6237 59.4439 81.7779 59.6932 81.9753 59.9059C82.1701 60.121 82.4089 60.2914 82.6753 60.4057C82.965 60.5346 83.279 60.5993 83.596 60.5955Z" fill="#FF7600"/>
<path d="M93.6869 55.3065V61.2535H92.8166V59.9882C92.6403 60.3995 92.3545 60.7541 91.9905 61.013C91.5736 61.299 91.0762 61.4431 90.5715 61.4243C90.2107 61.4332 89.852 61.3664 89.5184 61.2281C89.2379 61.1026 88.9899 60.9143 88.7932 60.6777C88.6093 60.4482 88.4741 60.1834 88.3959 59.8996C88.3032 59.5489 88.2608 59.1868 88.2697 58.8241V55.3318H89.1526V58.571C89.1507 58.8459 89.1825 59.12 89.2472 59.3871C89.303 59.6157 89.4038 59.8308 89.5436 60.0198C89.6839 60.2047 89.8653 60.3541 90.0733 60.4563C90.3204 60.5694 90.5902 60.6235 90.8616 60.6145C91.1465 60.6256 91.4298 60.5669 91.6869 60.4435C91.944 60.32 92.1673 60.1355 92.3373 59.9059C92.4979 59.6859 92.6195 59.4398 92.6968 59.1784C92.7775 58.9139 92.8179 58.6388 92.8166 58.3622V55.3128L93.6869 55.3065Z" fill="#FF7600"/>
<path d="M100.737 60.0072C100.541 60.4274 100.225 60.7797 99.8291 61.0194C99.4093 61.2749 98.9263 61.4064 98.4354 61.399C98.0024 61.4058 97.5728 61.3217 97.1741 61.1523C96.8082 60.9947 96.4778 60.7644 96.2029 60.4753C95.9338 60.1858 95.72 59.8491 95.5723 59.4821C95.4247 59.1009 95.3499 58.6953 95.3516 58.2863C95.351 57.8755 95.4258 57.468 95.5723 57.0843C95.7187 56.7165 95.9326 56.3796 96.2029 56.091C96.4798 55.8059 96.8098 55.5781 97.1741 55.4204C97.5728 55.251 98.0024 55.1669 98.4354 55.1737C98.9253 55.167 99.4076 55.2962 99.8291 55.547C100.228 55.7881 100.545 56.1456 100.737 56.5718V51.8776H101.607V61.2725H100.737V60.0072ZM98.4795 60.5955C98.8006 60.6005 99.119 60.5358 99.4129 60.4057C99.6812 60.2883 99.9234 60.1184 100.125 59.9059C100.323 59.6932 100.477 59.4439 100.58 59.172C100.687 58.8893 100.74 58.5889 100.737 58.2863C100.739 57.9819 100.685 57.6797 100.58 57.3943C100.476 57.1213 100.322 56.8702 100.125 56.6541C99.9217 56.4436 99.6799 56.274 99.4129 56.1543C99.1186 56.0292 98.8023 55.9647 98.4827 55.9647C98.1631 55.9647 97.8468 56.0292 97.5525 56.1543C97.2874 56.2709 97.0491 56.441 96.8525 56.6541C96.6583 56.8705 96.5064 57.1216 96.4047 57.3943C96.297 57.6793 96.2414 57.9815 96.2408 58.2863C96.2398 58.5893 96.2954 58.8897 96.4047 59.172C96.505 59.4436 96.6571 59.6928 96.8525 59.9059C97.0474 60.121 97.2861 60.2915 97.5525 60.4057C97.8443 60.5353 98.1605 60.6 98.4795 60.5955Z" fill="#FF7600"/>
<path d="M106.627 53.5857C106.636 53.8968 106.552 54.2034 106.386 54.4663C106.22 54.7292 105.98 54.9363 105.696 55.0612C105.411 55.1861 105.097 55.2231 104.791 55.1674C104.486 55.1117 104.205 54.9658 103.983 54.7485C103.761 54.5312 103.608 54.2523 103.545 53.9476C103.482 53.6429 103.511 53.3263 103.629 53.0383C103.746 52.7502 103.947 52.504 104.205 52.331C104.462 52.158 104.766 52.0662 105.076 52.0673C105.278 52.0631 105.478 52.0993 105.666 52.1736C105.853 52.248 106.025 52.359 106.169 52.5004C106.313 52.6417 106.428 52.8104 106.507 52.9968C106.586 53.1831 106.627 53.3833 106.627 53.5857ZM103.903 53.5857C103.898 53.7442 103.925 53.9021 103.982 54.0497C104.04 54.1974 104.127 54.3319 104.238 54.4449C104.349 54.5579 104.481 54.6471 104.627 54.7071C104.774 54.7671 104.931 54.7967 105.089 54.7941C105.244 54.7942 105.398 54.7628 105.541 54.7019C105.684 54.641 105.813 54.5517 105.921 54.4395C106.028 54.3272 106.113 54.1943 106.168 54.0487C106.223 53.9031 106.249 53.7478 106.243 53.592C106.255 53.4307 106.233 53.2686 106.18 53.1159C106.126 52.9633 106.042 52.8233 105.932 52.7048C105.822 52.5863 105.689 52.4917 105.542 52.4271C105.394 52.3624 105.234 52.3291 105.073 52.3291C104.912 52.3291 104.752 52.3624 104.604 52.4271C104.456 52.4917 104.323 52.5863 104.214 52.7048C104.104 52.8233 104.02 52.9633 103.966 53.1159C103.913 53.2686 103.891 53.4307 103.903 53.592V53.5857ZM104.836 54.3829H104.49V52.8645C104.681 52.8266 104.875 52.8097 105.07 52.8139C105.252 52.8001 105.433 52.8397 105.593 52.9278C105.642 52.9686 105.681 53.02 105.707 53.0781C105.733 53.1361 105.746 53.1993 105.744 53.2631C105.736 53.3475 105.701 53.427 105.645 53.4897C105.588 53.5524 105.512 53.595 105.429 53.611C105.504 53.643 105.569 53.6944 105.618 53.76C105.667 53.8256 105.698 53.903 105.707 53.9843C105.721 54.116 105.757 54.2444 105.814 54.3639H105.435C105.38 54.2449 105.34 54.1195 105.316 53.9906C105.316 53.8261 105.196 53.7502 105 53.7502H104.836V54.3829ZM104.836 53.5161H105C105.196 53.5161 105.354 53.4529 105.354 53.2947C105.354 53.1365 105.246 53.0669 105.026 53.0669C104.963 53.0574 104.899 53.0574 104.836 53.0669V53.5161Z" fill="#FF7600"/>
<path d="M126.126 44.8298V42.8306C127.844 42.8304 129.54 42.4509 131.095 41.7191C132.649 40.9872 134.024 39.9209 135.122 38.5958C136.22 37.2708 137.013 35.7196 137.446 34.0523C137.879 32.3851 137.94 30.6426 137.626 28.9488C137.312 27.255 136.63 25.6513 135.629 24.2517C134.627 22.852 133.331 21.6907 131.832 20.8503C130.333 20.0098 128.667 19.5108 126.954 19.3887C125.241 19.2665 123.522 19.5243 121.92 20.1436L120.999 20.4979L120.64 19.6122C119.932 17.8466 118.841 16.2611 117.447 14.9705C116.053 13.6799 114.391 12.7166 112.58 12.1504C110.769 11.5841 108.855 11.4291 106.977 11.6966C105.098 11.9641 103.303 12.6474 101.721 13.6969L100.516 14.4877L100.195 13.0832C99.4989 10.0774 97.8206 7.39158 95.4271 5.45343C93.4366 3.86026 91.0435 2.85412 88.5156 2.54758C85.9876 2.24103 83.4245 2.64617 81.1129 3.71766C78.8014 4.78916 76.8326 6.48475 75.4269 8.61473C74.0212 10.7447 73.2339 13.2251 73.1532 15.7783L73.1217 16.8602L72.0496 16.7526C71.6623 16.7086 71.2727 16.6875 70.8829 16.6894C67.7842 16.6944 64.8138 17.932 62.6233 20.1307C60.4327 22.3295 59.2007 25.31 59.1973 28.4187H57.1982C57.2016 24.7787 58.6444 21.2888 61.2101 18.7149C63.7757 16.141 67.2545 14.6935 70.8829 14.6902H71.2172C71.4801 11.8512 72.5052 9.13684 74.1834 6.83583C75.8617 4.53482 78.1303 2.73323 80.7479 1.62272C83.3656 0.512208 86.2343 0.134312 89.049 0.529232C91.8637 0.924152 94.519 2.07712 96.7325 3.86547C99.1145 5.79569 100.887 8.37806 101.834 11.2991C103.595 10.3575 105.527 9.78256 107.514 9.60894C109.502 9.43533 111.504 9.6666 113.4 10.2889C115.296 10.9111 117.047 11.9115 118.548 13.23C120.049 14.5484 121.269 16.1576 122.134 17.961C123.436 17.5475 124.792 17.3342 126.158 17.3283C129.739 17.4054 133.147 18.8867 135.653 21.4547C138.158 24.0227 139.561 27.4731 139.561 31.0664C139.561 34.6597 138.158 38.1101 135.653 40.6781C133.147 43.2461 129.739 44.7274 126.158 44.8045L126.126 44.8298Z" fill="#FF7600"/>
<path d="M0.271484 46.848V26.3563H3.42464L9.89491 42.0461L16.3967 26.3563H19.5499V46.848H16.3967V33.2965L11.1625 46.848H8.63995L3.44986 33.1447V46.848H0.271484Z" fill="#333333"/>
<path d="M21.9961 40.0279C21.9961 36.0169 24.5186 32.8536 28.6997 32.8536C29.5349 32.8267 30.3632 33.0142 31.1059 33.3984C31.8487 33.7825 32.4813 34.3507 32.9438 35.0489V33.2079H36.097V46.8479H32.9438V45.0006C32.4524 45.691 31.8016 46.2519 31.0472 46.6352C30.2928 47.0186 29.457 47.2132 28.6114 47.2022C24.279 47.2022 21.9961 44.0389 21.9961 40.0279ZM33.0637 40.0279C33.0637 37.6871 31.7583 35.6942 29.0718 35.6942C26.6186 35.6942 25.1429 37.5353 25.1429 40.0279C25.1429 42.5206 26.6186 44.3616 29.0718 44.3616C31.7583 44.3616 33.0637 42.3877 33.0637 40.0279Z" fill="#333333"/>
<path d="M39.3896 46.8479V33.2079H42.5428V35.8397C42.7332 35.0331 43.1916 34.3155 43.8427 33.8049C44.4937 33.2944 45.2985 33.0214 46.1248 33.0308C46.5482 33.0194 46.9715 33.0576 47.386 33.1446V36.0612C46.9674 36.0129 46.546 35.9939 46.1248 36.0042C43.905 36.0042 42.5428 37.6997 42.5428 40.8061V46.8353L39.3896 46.8479Z" fill="#333333"/>
<path d="M61.4615 33.208L55.6219 39.7369L61.4615 46.848H57.3309L52.3426 40.61V46.848H49.1895V26.3563H52.3426V39.2245L57.457 33.2269L61.4615 33.208Z" fill="#333333"/>
<path d="M74.1433 41.0781H64.1478C64.2361 43.2481 65.6172 44.4185 67.9001 44.4185C69.464 44.4185 70.3848 43.9187 70.9082 42.8685H74.0613C73.6577 45.3991 71.11 47.2022 67.8749 47.2022C63.6307 47.2022 61.001 44.4502 61.001 40.0279C61.001 35.6057 63.6938 32.8536 67.7866 32.8536C71.6271 32.8536 74.2316 35.4918 74.2316 39.3257C74.2316 39.8571 74.2001 40.3189 74.1433 41.0781ZM71.1352 38.6487C71.1352 36.542 69.874 35.3716 67.7298 35.3716C65.5857 35.3716 64.1731 36.7191 64.1478 38.6487H71.1352Z" fill="#333333"/>
<path d="M84.0822 44.039V46.848C83.3081 46.9682 82.5258 47.0274 81.7425 47.0251C80.2101 47.0251 77.3786 46.8163 77.3786 42.2233V35.8967H75.0957V33.208H77.3786V29.1021H80.5317V33.2333H83.6218V35.8714H80.5317V41.4894C80.5317 43.8618 81.257 44.1529 82.4993 44.1529C83.0288 44.1493 83.5576 44.1112 84.0822 44.039Z" fill="#333333"/>
<path d="M85.469 28.8743C85.474 28.4112 85.6155 27.9599 85.8756 27.5773C86.1356 27.1946 86.5028 26.8978 86.9307 26.724C87.3586 26.5502 87.8282 26.5073 88.2804 26.6007C88.7326 26.6941 89.1471 26.9196 89.4718 27.2489C89.7965 27.5781 90.0168 27.9964 90.105 28.451C90.1933 28.9056 90.1455 29.3762 89.9677 29.8036C89.7899 30.231 89.4901 30.5961 89.1059 30.8529C88.7217 31.1097 88.2703 31.2468 87.8087 31.2468C87.4974 31.2538 87.1879 31.1971 86.8992 31.08C86.6105 30.963 86.3486 30.7881 86.1296 30.566C85.9106 30.3439 85.7391 30.0794 85.6255 29.7885C85.5119 29.4976 85.4587 29.1865 85.469 28.8743ZM86.2447 46.848V33.208H89.3979V46.848H86.2447Z" fill="#333333"/>
<path d="M92.7031 46.8479V33.2079H95.8563V35.1059C96.695 33.6445 98.2527 32.8536 100.271 32.8536C103.506 32.8536 105.177 34.701 105.177 38.2691V46.8479H102.024V39.7369C102.024 36.833 101.273 35.574 99.0788 35.574C97.0229 35.574 95.8689 36.9532 95.8689 39.37V46.8669L92.7031 46.8479Z" fill="#333333"/>
<path d="M118.231 33.208H121.384V46.2596C121.384 48.9547 120.545 50.9729 118.956 52.1496C117.827 52.9974 116.269 53.3453 114.333 53.3453C112.669 53.4102 111.022 52.9834 109.597 52.118C108.973 51.7121 108.453 51.1631 108.082 50.5164C107.71 49.8697 107.497 49.1436 107.459 48.398H110.751C111.01 49.8025 112.139 50.7135 114.302 50.7135C116.875 50.7135 118.237 49.5684 118.237 46.4937V45.0006C117.423 46.3798 115.576 47.2023 113.93 47.2023C109.742 47.2023 107.314 44.039 107.314 40.028C107.314 36.017 109.969 32.8537 114.018 32.8537C114.85 32.8238 115.676 33.0102 116.415 33.3948C117.154 33.7795 117.782 34.3493 118.237 35.049L118.231 33.208ZM118.369 40.028C118.369 37.6872 116.957 35.6943 114.384 35.6943C112.019 35.6943 110.455 37.5353 110.455 40.028C110.455 42.5206 112.019 44.3617 114.384 44.3617C116.957 44.3617 118.369 42.3878 118.369 40.028Z" fill="#333333"/>
</svg>
