<svg width="147" height="62" viewBox="0 0 147 62" fill="none" xmlns="http://www.w3.org/2000/svg">
<path d="M0.307617 45.0719V26.8063H6.29962C12.1796 26.8063 15.2386 31.1881 15.2386 35.9391C15.2386 40.6901 12.1866 45.0719 6.29962 45.0719H0.307617ZM3.21962 42.3829H6.01962C10.3526 42.3829 12.2216 39.1993 12.2216 35.9391C12.2216 32.6789 10.3526 29.4953 6.01962 29.4953H3.21962V42.3829Z" fill="#333333"/>
<path d="M28.0003 39.9307H19.2503C19.3203 41.8604 20.5383 42.9053 22.5403 42.9053C23.9403 42.9053 24.7173 42.4595 25.1723 41.5121H27.9723C27.6153 43.7831 25.3893 45.3784 22.5543 45.3784C18.8303 45.3784 16.5273 42.9262 16.5273 38.9833C16.5273 35.0404 18.8583 32.5952 22.4493 32.5952C25.8163 32.5952 28.0983 34.9429 28.0983 38.3563C28.0843 38.8579 28.0563 39.255 28.0003 39.9307ZM25.3683 37.7642C25.3473 35.8903 24.2833 34.8314 22.4003 34.8314C20.5173 34.8314 19.2853 36.0296 19.2643 37.7503L25.3683 37.7642Z" fill="#333333"/>
<path d="M42.4406 39.0113C42.4406 42.7661 40.0606 45.4063 36.6376 45.4063C35.8922 45.416 35.1559 45.2424 34.494 44.9009C33.8322 44.5594 33.2653 44.0606 32.8436 43.4488V50.5684H30.0996V32.9158H32.8366V34.5598C33.2875 33.9327 33.8869 33.426 34.5817 33.0845C35.2765 32.7431 36.0451 32.5774 36.8196 32.6023C40.1866 32.6023 42.4406 35.1589 42.4406 39.0113ZM39.6826 39.0113C39.6826 36.7403 38.2826 35.152 36.2386 35.152C34.1946 35.152 32.7386 36.7194 32.7386 39.0113C32.7386 41.3032 34.1386 42.8706 36.2386 42.8706C38.3386 42.8706 39.6826 41.2614 39.6826 39.0113Z" fill="#333333"/>
<path d="M44.4639 45.0719V26.8063H47.2219V45.0719H44.4639Z" fill="#333333"/>
<path d="M49.252 39.0113C49.252 35.4375 51.576 32.6232 55.482 32.6232C59.388 32.6232 61.705 35.4097 61.705 39.0113C61.705 42.6128 59.381 45.4063 55.482 45.4063C51.583 45.4063 49.252 42.5641 49.252 39.0113ZM58.947 39.0113C58.947 36.796 57.708 35.1519 55.482 35.1519C53.256 35.1519 51.982 36.796 51.982 39.0113C51.982 41.2265 53.221 42.8706 55.482 42.8706C57.743 42.8706 58.947 41.2056 58.947 39.0113Z" fill="#333333"/>
<path d="M71.7567 32.9158H74.5147V45.1207C74.5624 45.9088 74.4506 46.6983 74.1861 47.4426C73.9216 48.1869 73.5096 48.8708 72.9747 49.4537C71.8726 50.4181 70.4366 50.9178 68.9707 50.847C67.514 50.9302 66.0764 50.4847 64.9247 49.5931C64.4944 49.189 64.1547 48.699 63.9279 48.1551C63.7011 47.6113 63.5924 47.0259 63.6087 46.4373H66.4087C66.5347 47.7679 67.1717 48.5272 68.9427 48.5272C70.5877 48.5272 71.7427 47.5102 71.7427 44.9257V43.3861C71.3625 44.0409 70.8055 44.5766 70.1349 44.9325C69.4643 45.2883 68.707 45.4501 67.9487 45.3994C65.0367 45.3994 63.5947 43.2607 63.5947 40.3349V32.9158H66.3527V39.7079C66.3527 41.5052 66.9337 42.8636 68.9077 42.8636C70.8817 42.8636 71.7077 41.2753 71.7077 39.1854L71.7567 32.9158Z" fill="#333333"/>
<path d="M77.4268 45.072V32.9158H80.1918V34.6086C80.4894 33.9956 80.9577 33.4807 81.5409 33.125C82.1242 32.7693 82.7979 32.5879 83.4818 32.6023C85.6308 32.6023 86.6948 33.5637 87.2058 34.7688C87.5396 34.1027 88.0574 33.545 88.6984 33.1613C89.3393 32.7776 90.077 32.5837 90.8248 32.6023C94.3668 32.6023 95.0808 35.1032 95.0808 37.3742V45.0371H92.2808V37.9246C92.2808 35.9113 91.5248 35.0266 90.0828 35.0266C88.6408 35.0266 87.5978 35.7232 87.5978 38.6281V45.072H84.8398V37.8967C84.8398 35.8904 84.1398 35.0266 82.6838 35.0266C81.2278 35.0266 80.1568 35.7232 80.1568 38.6281V45.072H77.4268Z" fill="#333333"/>
<path d="M108.5 39.9307H99.7082C99.7852 41.8604 101.003 42.9053 103.005 42.9053C104.37 42.9053 105.182 42.4595 105.637 41.5121H108.437C108.08 43.7831 105.854 45.3784 103.019 45.3784C99.2952 45.3784 96.9922 42.9262 96.9922 38.9833C96.9922 35.0404 99.3162 32.5952 102.914 32.5952C106.281 32.5952 108.563 34.9429 108.563 38.3563C108.549 38.8579 108.5 39.255 108.5 39.9307ZM105.868 37.7642C105.868 35.8903 104.776 34.8453 102.879 34.8453C100.982 34.8453 99.7642 36.0435 99.7362 37.7642H105.868Z" fill="#333333"/>
<path d="M110.6 45.0719V32.9157H113.358V34.6085C113.751 33.9532 114.319 33.419 114.998 33.0649C115.678 32.7109 116.442 32.5507 117.208 32.6022C120.008 32.6022 121.513 34.2462 121.513 37.4298V45.0928H118.755V38.7325C118.755 36.148 118.097 35.0265 116.172 35.0265C114.373 35.0265 113.372 36.2525 113.372 38.3912V45.0719H110.6Z" fill="#333333"/>
<path d="M130.648 42.564V45.0719C129.97 45.1763 129.284 45.2276 128.597 45.2252C127.26 45.2252 124.775 45.044 124.775 40.9479V35.2843H122.773V32.9157H124.775V29.2584H127.533V32.9366H130.242V35.3052H127.533V40.3139C127.533 42.4038 128.17 42.6894 129.255 42.6894C129.722 42.6817 130.188 42.6398 130.648 42.564Z" fill="#333333"/>
<path d="M133 44.3125V42.3272C134.71 42.3249 136.399 41.948 137.946 41.2235C139.494 40.4989 140.862 39.4443 141.954 38.1345C143.046 36.8247 143.835 35.2918 144.265 33.6445C144.695 31.9973 144.755 30.276 144.442 28.6029C144.128 26.9298 143.449 25.3459 142.452 23.9634C141.454 22.5809 140.163 21.4338 138.67 20.6035C137.178 19.7732 135.519 19.2799 133.814 19.1588C132.108 19.0377 130.396 19.2917 128.8 19.9027L127.89 20.2579L127.519 19.3523C126.811 17.612 125.724 16.0496 124.336 14.7775C122.949 13.5054 121.295 12.5553 119.494 11.9957C117.693 11.436 115.79 11.2807 113.922 11.541C112.053 11.8012 110.266 12.4705 108.689 13.5006L107.492 14.2878L107.17 12.8946C106.42 9.66894 104.515 6.82583 101.811 4.89747C99.1063 2.96911 95.7885 2.08769 92.4783 2.41823C89.1681 2.74877 86.0924 4.26859 83.827 6.6932C81.5616 9.1178 80.2618 12.281 80.1709 15.5905V16.6564L79.0999 16.5449C78.7219 16.5449 78.3439 16.4892 77.9379 16.4892C74.8498 16.4929 71.8893 17.7153 69.7056 19.8884C67.522 22.0615 66.2936 25.0078 66.2899 28.0811H64.2949C64.3005 24.4873 65.736 21.042 68.2875 18.4989C70.839 15.9557 74.2988 14.5218 77.9099 14.5107H78.2389C78.5705 10.9333 80.1328 7.57948 82.662 5.01592C85.1911 2.45236 88.5319 0.836256 92.12 0.440687C95.708 0.045118 99.3233 0.894334 102.355 2.84485C105.387 4.79536 107.649 7.72757 108.759 11.146C110.513 10.215 112.437 9.64654 114.417 9.47474C116.397 9.30294 118.392 9.53137 120.281 10.1463C122.17 10.7613 123.915 11.75 125.41 13.0531C126.905 14.3562 128.12 15.9468 128.982 17.7292C130.857 17.163 132.833 17.0053 134.775 17.2667C136.716 17.5281 138.579 18.2026 140.236 19.2442C141.892 20.2857 143.304 21.6701 144.375 23.3031C145.446 24.936 146.151 26.7794 146.443 28.7078C146.734 30.6362 146.605 32.6044 146.064 34.4787C145.523 36.353 144.583 38.0895 143.308 39.5699C142.032 41.0504 140.452 42.2403 138.673 43.0587C136.894 43.877 134.959 44.3047 133 44.3125Z" fill="#FF7600"/>
<path d="M49.7004 57.9108C49.8264 57.9874 49.9524 58.0641 50.0784 58.1546C50.0784 58.071 50.0784 57.9944 50.1274 57.9108H49.7004ZM43.5334 54.6158C43.7749 54.3463 44.0706 54.1303 44.4014 53.9818C44.7726 53.8141 45.1767 53.7308 45.5844 53.738C45.8848 53.7343 46.1834 53.7839 46.4664 53.8843C46.7244 53.9679 46.9626 54.103 47.1664 54.2814C47.3078 54.4014 47.4325 54.5396 47.5374 54.6924C48.1599 54.361 48.7464 53.9665 49.2874 53.5151C49.133 53.3069 48.957 53.1154 48.7624 52.9438C48.3491 52.5934 47.8745 52.3219 47.3624 52.1427C46.755 51.9331 46.1152 51.8316 45.4724 51.8432C44.7819 51.8311 44.0968 51.9665 43.4634 52.2402C42.9004 52.4828 42.3925 52.8362 41.9702 53.2792C41.548 53.7221 41.2201 54.2455 41.0064 54.8178C40.563 55.9874 40.563 57.2776 41.0064 58.4472C41.2263 59.0196 41.565 59.5394 42.0004 59.9728C42.4386 60.4215 42.9621 60.7791 43.5404 61.0247C44.206 61.297 44.9209 61.4298 45.6404 61.4149C46.2261 61.4198 46.8084 61.3256 47.3624 61.1362C47.8694 60.9715 48.3433 60.7191 48.7624 60.3908C48.9279 60.2596 49.0824 60.1151 49.2244 59.9589C48.6725 59.52 48.0794 59.1351 47.4534 58.8095C47.3691 58.8979 47.2778 58.9794 47.1804 59.0533C46.9803 59.1947 46.7611 59.3073 46.5294 59.3877C46.2912 59.472 46.0401 59.5144 45.7874 59.5131C45.3675 59.5209 44.9505 59.4427 44.5624 59.2832C44.221 59.1417 43.9134 58.9305 43.6594 58.6632C43.4108 58.3958 43.2202 58.0805 43.0994 57.7366C42.8519 57.0235 42.8519 56.2484 43.0994 55.5353C43.1905 55.2039 43.3423 54.8922 43.5474 54.6158H43.5334Z" fill="#0B38DB"/>
<path d="M56.3505 54.6993V60.969H54.3485V60.0843C54.2672 60.2359 54.1634 60.3745 54.0405 60.4953C53.9038 60.6237 53.7509 60.7338 53.5855 60.8227C53.4095 60.9143 53.2241 60.9867 53.0325 61.0387C52.8366 61.0937 52.6341 61.1218 52.4305 61.1223C52.002 61.1275 51.5773 61.042 51.1845 60.8715C50.8145 60.71 50.483 60.4726 50.2115 60.1748C49.9328 59.8751 49.7184 59.5219 49.5815 59.1369C49.4308 58.7166 49.355 58.2734 49.3575 57.8272C49.3543 57.3832 49.4302 56.9422 49.5815 56.5245C49.7852 55.9368 50.1705 55.4283 50.6822 55.0717C51.194 54.715 51.8059 54.5286 52.4305 54.5391C52.6341 54.5395 52.8366 54.5677 53.0325 54.6227C53.2257 54.6763 53.4115 54.7535 53.5855 54.8526C53.7511 54.944 53.904 55.0564 54.0405 55.187C54.16 55.3081 54.2635 55.4439 54.3485 55.591V54.6924L56.3505 54.6993ZM52.8505 59.4364C53.0611 59.4404 53.2697 59.3951 53.4595 59.3041C53.6394 59.2229 53.8013 59.1069 53.9355 58.9627C54.0665 58.8131 54.1685 58.6407 54.2365 58.4542C54.3127 58.2563 54.3507 58.046 54.3485 57.8342C54.3507 57.4252 54.204 57.0292 53.9355 56.7196C53.8043 56.5686 53.6419 56.4474 53.4595 56.3643C53.266 56.2817 53.0576 56.2391 52.847 56.2391C52.6364 56.2391 52.428 56.2817 52.2345 56.3643C52.0546 56.4482 51.8947 56.5694 51.7655 56.7196C51.6316 56.8656 51.527 57.0359 51.4575 57.2211C51.3814 57.4166 51.3434 57.6246 51.3455 57.8342C51.3434 58.046 51.3814 58.2563 51.4575 58.4542C51.5252 58.6424 51.6299 58.8152 51.7655 58.9627C51.8971 59.1068 52.0566 59.2229 52.2345 59.3041C52.4265 59.3959 52.6376 59.4412 52.8505 59.4364Z" fill="#0B38DB"/>
<path d="M58.0508 51.864H60.0458V60.969H58.0508V51.864Z" fill="#0B38DB"/>
<path d="M61.4604 52.6234C61.4561 52.4568 61.4862 52.2911 61.5488 52.1365C61.6114 51.9819 61.7052 51.8418 61.8244 51.7247C61.944 51.6045 62.087 51.5097 62.2447 51.4462C62.4023 51.3828 62.5713 51.3519 62.7414 51.3555C62.9113 51.3523 63.0802 51.3834 63.2378 51.4468C63.3954 51.5103 63.5384 51.6048 63.6584 51.7247C63.7787 51.8387 63.874 51.9763 63.9384 52.1288C64.0686 52.4433 64.0686 52.7964 63.9384 53.111C63.8704 53.2594 63.7755 53.394 63.6584 53.5081C63.5426 53.6264 63.4046 53.7211 63.2524 53.7867C63.0896 53.8507 62.9163 53.8838 62.7414 53.8843C62.5686 53.8848 62.3973 53.8517 62.2374 53.7867C62.0861 53.7193 61.9485 53.6249 61.8314 53.5081C61.714 53.3957 61.6211 53.2606 61.5584 53.111C61.4944 52.9563 61.4611 52.7907 61.4604 52.6234ZM61.7474 54.7133H63.7494V60.9829H61.7474V54.7133Z" fill="#0B38DB"/>
<path d="M71.3023 60.969H68.9853L67.9563 59.1508L66.9204 60.969H64.6104L66.7803 57.8063L64.6453 54.6993H66.9624L67.9563 56.4688L68.9503 54.6993H71.2603L69.1603 57.8063L71.3023 60.969Z" fill="#0B38DB"/>
<path d="M82.0822 58.7189C81.9558 59.1365 81.7594 59.5299 81.5012 59.8823C81.2379 60.2418 80.9162 60.5549 80.5492 60.8088C80.1603 61.0772 79.7332 61.2862 79.2822 61.4288C78.7885 61.5828 78.2735 61.6581 77.7562 61.6517C77.0549 61.6659 76.3585 61.533 75.7122 61.2616C75.1329 61.0184 74.6108 60.6578 74.1792 60.2027C73.7583 59.7554 73.43 59.2298 73.2132 58.6562C72.7701 57.4722 72.7701 56.169 73.2132 54.985C73.422 54.4174 73.738 53.8948 74.1442 53.4454C74.5621 52.993 75.0666 52.6283 75.6282 52.3726C76.2457 52.0947 76.9176 51.9567 77.5952 51.9686C78.1911 51.9584 78.7846 52.0454 79.3522 52.2263C79.8353 52.3791 80.2878 52.6148 80.6892 52.923C81.0555 53.2124 81.3622 53.5696 81.5922 53.9749C81.8244 54.3859 81.992 54.83 82.0892 55.2915H81.1302C81.0468 54.9418 80.9074 54.6078 80.7172 54.3023C80.5369 53.9956 80.2993 53.726 80.0172 53.5081C79.7163 53.2721 79.3747 53.0927 79.0092 52.9787C78.589 52.8426 78.149 52.7767 77.7072 52.7836C77.143 52.7729 76.5835 52.8872 76.0692 53.118C75.6034 53.3248 75.1861 53.6261 74.8442 54.0027C74.5117 54.3776 74.255 54.8129 74.0882 55.2845C73.7335 56.2734 73.7335 57.3539 74.0882 58.3427C74.263 58.8256 74.5369 59.2669 74.8924 59.6387C75.2479 60.0105 75.6773 60.3046 76.1532 60.5023C76.6967 60.7251 77.2805 60.8341 77.8682 60.8227C78.2262 60.8246 78.5825 60.7729 78.9252 60.6695C79.2535 60.5644 79.5665 60.4169 79.8562 60.2306C80.1374 60.0369 80.3875 59.8021 80.5982 59.534C80.8136 59.2849 80.9777 58.9961 81.0812 58.6841L82.0822 58.7189Z" fill="#FF7600"/>
<path d="M83.748 52.1636H84.6161V61.4566H83.748V52.1636Z" fill="#FF7600"/>
<path d="M89.39 61.6029C88.9531 61.6088 88.5196 61.5259 88.116 61.3591C87.7524 61.2012 87.4237 60.9734 87.1486 60.6889C86.8736 60.4044 86.6576 60.0687 86.513 59.7011C86.3659 59.326 86.2922 58.9264 86.296 58.5238C86.2928 58.1167 86.3664 57.7126 86.513 57.3325C86.6539 56.966 86.8682 56.6318 87.143 56.3503C87.417 56.0554 87.748 55.8184 88.116 55.6537C88.5196 55.4868 88.9531 55.4039 89.39 55.4098C89.8291 55.4052 90.2647 55.4881 90.671 55.6537C91.0395 55.8026 91.3732 56.0255 91.6514 56.3083C91.9296 56.5911 92.1463 56.9279 92.288 57.2977C92.4346 57.6778 92.5082 58.0819 92.505 58.4889C92.5088 58.8916 92.4352 59.2912 92.288 59.6662C92.1472 60.0328 91.9329 60.367 91.6581 60.6485C91.3828 60.9482 91.0463 61.1857 90.671 61.3451C90.2657 61.5154 89.8301 61.6031 89.39 61.6029ZM89.39 60.8087C89.7044 60.8065 90.0146 60.7376 90.3 60.6067C90.8332 60.368 91.2506 59.9301 91.4621 59.3876C91.6672 58.8178 91.6672 58.1949 91.4621 57.6251C91.3584 57.3584 91.2022 57.115 91.0026 56.9093C90.8031 56.7035 90.5642 56.5395 90.3 56.4269C90.0071 56.2979 89.6894 56.2337 89.369 56.2388C89.0509 56.2336 88.7355 56.2978 88.445 56.4269C88.1817 56.545 87.9439 56.713 87.745 56.9215C87.5567 57.1265 87.4052 57.3621 87.297 57.6182C87.0821 58.1862 87.0821 58.8126 87.297 59.3806C87.4039 59.6373 87.5556 59.8732 87.745 60.0773C87.9417 60.2901 88.1799 60.4608 88.445 60.5788C88.7386 60.7254 89.0617 60.804 89.39 60.8087Z" fill="#FF7600"/>
<path d="M99.4424 55.5771V61.4567H98.5744V60.1818C98.3857 60.6117 98.0708 60.9748 97.6711 61.2234C97.2713 61.4721 96.8054 61.5947 96.3344 61.5751C95.974 61.5816 95.6163 61.5128 95.2844 61.3731C95.0112 61.2496 94.7713 61.0634 94.5844 60.8297C94.4025 60.6026 94.267 60.3423 94.1854 60.0634C94.0945 59.7155 94.0521 59.3569 94.0594 58.9976V55.5144H94.9414V58.7119C94.9412 58.9838 94.9717 59.2549 95.0324 59.52C95.0896 59.7534 95.1918 59.9734 95.3334 60.1679C95.476 60.3497 95.6578 60.4973 95.8654 60.5998C96.1112 60.7109 96.3797 60.7633 96.6494 60.7531C96.9474 60.7601 97.2428 60.6956 97.5104 60.565C97.7485 60.442 97.9546 60.2655 98.1124 60.0495C98.2732 59.8399 98.3964 59.6042 98.4764 59.3528C98.5546 59.0881 98.5946 58.8137 98.5954 58.5378V55.5283L99.4424 55.5771Z" fill="#FF7600"/>
<path d="M106.471 60.2236C106.272 60.6391 105.956 60.9877 105.561 61.2267C105.14 61.483 104.654 61.6135 104.161 61.6029C103.733 61.6069 103.309 61.5239 102.915 61.3591C102.548 61.1959 102.219 60.9587 101.949 60.6625C101.678 60.3789 101.466 60.0451 101.326 59.6802C101.178 59.3052 101.105 58.9055 101.109 58.5029C101.105 58.0958 101.179 57.6918 101.326 57.3117C101.465 56.9449 101.678 56.6101 101.951 56.3275C102.224 56.0449 102.552 55.8205 102.915 55.6676C103.309 55.5029 103.733 55.4199 104.161 55.4238C104.653 55.4142 105.138 55.5421 105.561 55.793C105.96 56.0293 106.278 56.3818 106.471 56.8031V52.1427H107.339V61.4357H106.471V60.2236ZM104.217 60.8088C104.537 60.8139 104.855 60.7497 105.148 60.6207C105.412 60.5019 105.65 60.3314 105.848 60.1191C106.044 59.9188 106.198 59.6821 106.303 59.4225C106.517 58.8544 106.517 58.228 106.303 57.66C106.197 57.4011 106.042 57.1646 105.848 56.9634C105.648 56.7554 105.411 56.5875 105.148 56.4688C104.854 56.3448 104.539 56.2809 104.22 56.2809C103.901 56.2809 103.586 56.3448 103.293 56.4688C103.028 56.584 102.79 56.7524 102.594 56.9634C102.397 57.1743 102.247 57.4233 102.152 57.6948C101.937 58.2629 101.937 58.8893 102.152 59.4573C102.308 59.8739 102.591 60.2318 102.961 60.4814C103.331 60.731 103.77 60.86 104.217 60.8506V60.8088Z" fill="#FF7600"/>
<path d="M112.336 53.8704C112.345 54.1784 112.263 54.4823 112.098 54.7432C111.933 55.004 111.693 55.2098 111.41 55.3341C111.126 55.4585 110.812 55.4958 110.507 55.4411C110.202 55.3865 109.921 55.2425 109.699 55.0276C109.477 54.8127 109.325 54.5367 109.261 54.2349C109.198 53.9332 109.227 53.6196 109.344 53.3343C109.461 53.0489 109.661 52.8049 109.919 52.6336C110.176 52.4622 110.479 52.3714 110.789 52.3726C110.99 52.368 111.189 52.4032 111.376 52.4763C111.564 52.5494 111.734 52.6589 111.878 52.7984C112.022 52.9378 112.137 53.1044 112.215 53.2885C112.294 53.4726 112.335 53.6704 112.336 53.8704ZM109.627 53.8704C109.622 54.0266 109.649 54.1822 109.706 54.3279C109.763 54.4735 109.849 54.6063 109.959 54.7181C110.069 54.8299 110.2 54.9186 110.345 54.9788C110.49 55.039 110.646 55.0696 110.803 55.0686C110.957 55.0677 111.109 55.0362 111.251 54.9758C111.392 54.9155 111.521 54.8275 111.628 54.7172C111.734 54.6068 111.818 54.4763 111.874 54.3332C111.929 54.1902 111.955 54.0375 111.951 53.8843C111.951 53.5776 111.828 53.2834 111.61 53.0666C111.392 52.8497 111.097 52.7279 110.789 52.7279C110.481 52.7279 110.185 52.8497 109.967 53.0666C109.749 53.2834 109.627 53.5776 109.627 53.8843V53.8704ZM110.551 54.6575H110.201V53.1598C110.392 53.125 110.587 53.1087 110.782 53.111C110.964 53.0973 111.146 53.136 111.307 53.2225C111.355 53.2621 111.393 53.3123 111.419 53.3691C111.444 53.4259 111.456 53.4877 111.454 53.5499C111.447 53.6345 111.413 53.7145 111.356 53.7776C111.299 53.8406 111.223 53.883 111.139 53.8982C111.213 53.9291 111.278 53.9787 111.327 54.0423C111.376 54.1058 111.408 54.181 111.419 54.2605C111.429 54.3923 111.467 54.5205 111.531 54.6366H111.153C111.092 54.5239 111.051 54.4012 111.034 54.2744C111.034 54.1072 110.915 54.0375 110.719 54.0375H110.551V54.6575ZM110.551 53.8077H110.712C110.908 53.8077 111.062 53.745 111.062 53.5917C111.062 53.4384 110.964 53.3618 110.74 53.3618H110.551V53.8077Z" fill="#FF7600"/>
</svg>
