<svg width="143" height="67" viewBox="0 0 143 67" fill="none" xmlns="http://www.w3.org/2000/svg">
<path d="M18.0459 48.1117C18.3048 48.2586 18.5558 48.419 18.7978 48.5922C18.8355 48.432 18.8779 48.2755 18.9048 48.1117H18.0459ZM5.73733 41.5016C6.22119 40.9609 6.81144 40.5259 7.47114 40.2239C8.21263 39.8916 9.01845 39.7275 9.83082 39.7433C10.4296 39.7362 11.0251 39.8332 11.5907 40.03C12.454 40.3303 13.198 40.9001 13.7129 41.6553C14.9555 40.9859 16.1278 40.1935 17.2122 39.2901C16.8983 38.8762 16.5433 38.4952 16.1527 38.1529C15.3231 37.4429 14.3679 36.8946 13.3365 36.5364C12.1251 36.1187 10.8502 35.9155 9.56895 35.9358C8.18917 35.9125 6.82028 36.1835 5.55353 36.731C4.4309 37.2203 3.41832 37.9306 2.57619 38.8197C1.73407 39.7089 1.07965 40.7585 0.651977 41.906C0.216825 43.0555 -0.00411121 44.2751 9.60644e-05 45.5042C-0.00533986 46.76 0.219967 48.0061 0.664796 49.1805C1.09364 50.3221 1.75015 51.3645 2.59442 52.2445C3.46857 53.1437 4.51502 53.8574 5.67125 54.3431C8.09216 55.2986 10.7702 55.3815 13.2456 54.5777C14.2382 54.2405 15.1646 53.7333 15.9833 53.0786C16.3091 52.812 16.6142 52.521 16.8958 52.208C15.7984 51.3289 14.6167 50.5604 13.3681 49.9136C13.1972 50.0884 13.0124 50.2491 12.8156 50.3941C12.4212 50.6825 11.9863 50.911 11.525 51.0721C11.0471 51.2386 10.5443 51.3223 10.0382 51.3195C9.20312 51.3361 8.37349 51.1809 7.60088 50.8634C6.92388 50.5796 6.31405 50.1568 5.81091 49.6223C5.30778 49.0877 4.92256 48.4535 4.68021 47.7606C4.42482 47.0364 4.29693 46.2733 4.30221 45.5054C4.30046 44.7685 4.42396 44.0367 4.6674 43.3411C4.89998 42.6637 5.26352 42.0387 5.73733 41.5016Z" fill="#0B38DB"/>
<path d="M31.2878 41.6706V54.2382H27.298V52.4655C27.1344 52.7707 26.9233 53.0479 26.6725 53.2867C26.4042 53.5444 26.1015 53.7638 25.7732 53.9386C25.421 54.1263 25.0493 54.2748 24.6648 54.3815C24.2742 54.4935 23.8699 54.5507 23.4635 54.5513C22.6067 54.5609 21.7578 54.3875 20.9733 54.0428C20.2384 53.7193 19.5774 53.249 19.0309 52.6609C18.4784 52.0563 18.0529 51.3471 17.7796 50.5751C17.188 48.8783 17.188 47.0312 17.7796 45.3344C18.0529 44.5623 18.4784 43.8529 19.0309 43.2482C19.5777 42.6603 20.2386 42.1901 20.9733 41.8663C21.7577 41.5214 22.6067 41.3481 23.4635 41.3578C23.8698 41.3587 24.2741 41.4157 24.6648 41.5272C25.0511 41.6348 25.4232 41.788 25.7732 41.9837C26.1024 42.1677 26.4049 42.3958 26.6725 42.6616C26.9169 42.9013 27.1274 43.1733 27.298 43.47V41.6706H31.2878ZM24.2996 51.1605C24.7226 51.1668 25.1415 51.0777 25.5253 50.8999C25.8804 50.7332 26.1993 50.4984 26.4639 50.2087C26.7307 49.9118 26.9386 49.5667 27.0765 49.1921C27.2251 48.796 27.3001 48.3762 27.298 47.9532C27.3039 47.1288 27.0071 46.3309 26.4639 45.7108C26.202 45.4149 25.8827 45.1754 25.5253 45.0068C25.1396 44.835 24.7221 44.7462 24.2998 44.7462C23.8776 44.7462 23.46 44.835 23.0743 45.0068C22.7169 45.1753 22.3975 45.4148 22.1357 45.7108C21.5926 46.331 21.2957 47.1288 21.3013 47.9532C21.299 48.3762 21.3742 48.7961 21.5231 49.1921C21.6607 49.5669 21.8686 49.912 22.1357 50.2087C22.4002 50.4985 22.7192 50.7333 23.0743 50.8999C23.4579 51.0781 23.8767 51.1677 24.2996 51.1618V51.1605Z" fill="#0B38DB"/>
<path d="M34.6777 35.987H38.667V54.2382H34.6777V35.987Z" fill="#0B38DB"/>
<path d="M41.482 37.499C41.4744 37.1651 41.5353 36.8333 41.6609 36.5238C41.7865 36.2144 41.9742 35.934 42.2124 35.6999C42.4507 35.4602 42.7356 35.2718 43.0494 35.1462C43.3633 35.0207 43.6995 34.9607 44.0375 34.97C44.7221 34.9636 45.382 35.2257 45.8758 35.6999C46.112 35.9288 46.2984 36.204 46.4232 36.5084C46.5539 36.8222 46.6205 37.159 46.619 37.499C46.6214 37.8349 46.5548 38.1677 46.4232 38.4768C46.2942 38.7788 46.1083 39.0531 45.8758 39.2849C45.6409 39.5199 45.3618 39.706 45.0545 39.8326C44.7319 39.9647 44.3861 40.0312 44.0375 40.0281C43.693 40.0322 43.3514 39.9656 43.0336 39.8326C42.4246 39.5712 41.9392 39.0859 41.6778 38.4768C41.5462 38.1677 41.4796 37.8349 41.482 37.499ZM42.0558 41.6706H46.0452V54.2382H42.0566L42.0558 41.6706Z" fill="#0B38DB"/>
<path d="M61.1154 54.2382H56.4993L54.4392 50.5879L52.3794 54.2382H47.7645L52.0927 47.9027L47.8426 41.6706H52.4579L54.4392 45.2167L56.4208 41.6706H61.0353L56.8113 47.9027L61.1154 54.2382Z" fill="#0B38DB"/>
<path d="M74.0674 66.7678H72.288V61.8747L70.5854 66.7678H69.2324L67.4737 61.8747V66.7678H65.6922V58.8751H67.8005L69.9091 64.3661L71.9949 58.8751H74.0694L74.0674 66.7678Z" fill="#333333"/>
<path d="M80.7983 66.7669L80.494 65.8087H77.6862L77.3819 66.7669H75.4315L78.25 58.8743H79.9318L82.7844 66.7669H80.7983ZM79.0945 61.129L78.1251 64.3764H80.0415L79.0945 61.129Z" fill="#333333"/>
<path d="M84.1463 58.8743H87.4626C87.869 58.8685 88.2723 58.9474 88.6466 59.1058C88.9869 59.2509 89.2954 59.4615 89.5544 59.7256C89.8069 59.9862 90.0043 60.2949 90.135 60.6333C90.2709 60.982 90.3398 61.3531 90.338 61.7273C90.344 62.2612 90.2015 62.7862 89.9264 63.2437C89.6542 63.6965 89.2514 64.0563 88.7708 64.2756L90.3492 66.767H88.2294L86.8311 64.5799H85.9742V66.767H84.1479L84.1463 58.8743ZM87.2243 63.0915C87.4035 63.0935 87.5808 63.0549 87.7429 62.9786C87.8955 62.9078 88.0319 62.806 88.1433 62.6799C88.2543 62.5522 88.3404 62.4048 88.3972 62.2454C88.5173 61.9103 88.5173 61.5439 88.3972 61.2088C88.3403 61.0494 88.2542 60.9021 88.1433 60.7743C88.0318 60.6483 87.8955 60.5466 87.7429 60.4756C87.5808 60.3993 87.4035 60.3607 87.2243 60.3626H85.9726V63.0915H87.2243Z" fill="#333333"/>
<path d="M93.9111 63.4294V66.7669H92.0848V58.8743H93.9111V62.2234L96.4594 58.8743H98.6581L95.5348 62.8208L98.6581 66.7669H96.4594L93.9111 63.4294Z" fill="#333333"/>
<path d="M101.905 60.3402V62.1329H104.893V63.5648H101.905V65.3014H104.893V66.7669H100.079V58.8743H104.893V60.3402H101.905Z" fill="#333333"/>
<path d="M108.095 60.4531H106.313V58.8743H111.714V60.4531H109.921V66.7669H108.095V60.4531Z" fill="#333333"/>
<path d="M113.204 58.8743H115.053V66.7669H113.204V58.8743Z" fill="#333333"/>
<path d="M121.886 64.0157V58.8743H123.703V66.7669H121.797L118.954 61.6932V66.7669H117.128V58.8743H119.033L121.886 64.0157Z" fill="#333333"/>
<path d="M130.148 62.5949H134.241V63.9596H133.432C133.357 64.3897 133.212 64.8047 133.003 65.1884C132.802 65.5544 132.53 65.8764 132.203 66.1354C131.853 66.4085 131.458 66.6166 131.035 66.7501C130.545 66.9033 130.033 66.9776 129.519 66.97C128.914 66.981 128.313 66.8659 127.754 66.632C127.264 66.4232 126.822 66.114 126.458 65.7242C126.106 65.3416 125.834 64.8932 125.657 64.4049C125.471 63.8975 125.378 63.361 125.381 62.8208C125.379 62.2874 125.475 61.7582 125.663 61.2591C125.847 60.7617 126.129 60.3067 126.493 59.9213C126.858 59.5359 127.296 59.2282 127.782 59.0168C128.33 58.7803 128.922 58.6632 129.519 58.6732C130.003 58.6677 130.485 58.7418 130.945 58.8926C131.351 59.0256 131.73 59.2279 132.066 59.4905C132.373 59.7323 132.63 60.0315 132.822 60.3714C133.007 60.6992 133.123 61.0621 133.16 61.4369H131.21C131.178 61.2766 131.117 61.1237 131.029 60.986C130.935 60.8392 130.815 60.7112 130.674 60.6084C130.518 60.4946 130.345 60.407 130.161 60.349C129.619 60.1891 129.038 60.2318 128.526 60.4691C128.253 60.608 128.012 60.8041 127.821 61.0441C127.627 61.2903 127.481 61.5715 127.393 61.8726C127.203 62.5131 127.205 63.1952 127.398 63.8346C127.49 64.136 127.642 64.416 127.844 64.6579C128.05 64.9001 128.308 65.0926 128.599 65.2213C128.935 65.367 129.299 65.4383 129.665 65.4303C129.918 65.4338 130.17 65.3932 130.409 65.3102C130.615 65.2385 130.806 65.13 130.973 64.9898C131.281 64.7281 131.485 64.3639 131.548 63.964H130.148V62.5949Z" fill="#333333"/>
<path d="M82.6251 49.7323C82.3753 50.5689 81.9838 51.3564 81.4679 52.0608C80.9413 52.7826 80.2984 53.412 79.5655 53.9231C78.7905 54.4613 77.9381 54.8785 77.0377 55.1604C76.0563 55.4682 75.0329 55.6209 74.0045 55.6129C72.6033 55.6372 71.2124 55.3698 69.9202 54.8277C68.777 54.3411 67.7449 53.6265 66.8872 52.7276C66.0295 51.8286 65.3642 50.7642 64.9317 49.5994C64.4846 48.409 64.2592 47.147 64.2666 45.8755C64.2631 44.6355 64.4839 43.405 64.9185 42.2436C65.3383 41.1062 65.9703 40.0588 66.7809 39.1572C67.6091 38.246 68.614 37.5128 69.7344 37.0021C70.9668 36.4461 72.3067 36.169 73.6585 36.1905C74.8497 36.1726 76.0358 36.3484 77.1706 36.711C78.1333 37.0215 79.034 37.4989 79.8314 38.1213C80.5655 38.7029 81.1799 39.4211 81.6409 40.2363C82.1038 41.0579 82.4358 41.9466 82.6251 42.8703H80.7359C80.5628 42.1717 80.2847 41.5034 79.9111 40.8882C79.5368 40.2745 79.0545 39.7336 78.4876 39.2918C77.88 38.823 77.1958 38.463 76.4655 38.2275C75.627 37.9604 74.751 37.8302 73.8711 37.8418C72.7448 37.8218 71.6277 38.0488 70.5985 38.5069C69.6727 38.9268 68.8438 39.5338 68.1639 40.2896C67.4964 41.0387 66.9814 41.9108 66.6475 42.8571C65.9467 44.8429 65.956 47.0103 66.674 48.9899C67.025 49.9568 67.5728 50.8403 68.2827 51.5847C68.9926 52.3291 69.8492 52.9181 70.7983 53.3145C71.881 53.765 73.045 53.9869 74.2175 53.9664C74.9348 53.9674 75.6481 53.8594 76.3329 53.646C76.9925 53.4439 77.6197 53.1482 78.1953 52.7679C78.7501 52.3992 79.2477 51.9508 79.672 51.4373C80.0923 50.9327 80.4169 50.3556 80.6298 49.7343L82.6251 49.7323Z" fill="#FF7600"/>
<path d="M85.951 36.589H87.6804V55.2138H85.951V36.589Z" fill="#FF7600"/>
<path d="M97.2052 55.5061C96.3333 55.5196 95.4681 55.3522 94.6641 55.0144C93.9327 54.7021 93.2721 54.2449 92.7221 53.6705C92.1804 53.1022 91.7556 52.4332 91.4716 51.7013C91.1766 50.9469 91.0271 50.1435 91.0311 49.3336C91.028 48.5193 91.1774 47.7116 91.4716 46.9523C91.7514 46.2184 92.1768 45.5487 92.7221 44.9834C93.2754 44.4163 93.9354 43.9642 94.6641 43.6532C95.468 43.3149 96.3332 43.1472 97.2052 43.1607C98.0856 43.1491 98.9591 43.3166 99.7727 43.6532C100.512 43.9595 101.182 44.412 101.742 44.9834C102.287 45.5488 102.712 46.2185 102.992 46.9523C103.286 47.7116 103.436 48.5193 103.433 49.3336C103.437 50.1435 103.287 50.9469 102.992 51.7013C102.708 52.4331 102.283 53.1021 101.742 53.6705C101.185 54.2492 100.515 54.7068 99.7727 55.0144C98.959 55.3505 98.0855 55.5178 97.2052 55.5061ZM97.2052 53.91C97.8455 53.9206 98.4807 53.7934 99.0676 53.5372C99.5994 53.302 100.079 52.9629 100.478 52.5397C100.87 52.1194 101.178 51.6268 101.382 51.0894C101.598 50.5292 101.706 49.9337 101.703 49.3336C101.705 48.7291 101.597 48.1293 101.382 47.5641C101.181 47.0195 100.873 46.521 100.475 46.0982C100.078 45.6754 99.5988 45.337 99.0676 45.1031C98.4806 44.8471 97.8455 44.72 97.2052 44.7304C96.5736 44.7217 95.9475 44.8488 95.3693 45.1031C94.8404 45.3367 94.365 45.6763 93.9726 46.101C93.5852 46.5276 93.2827 47.0242 93.0813 47.5641C92.8668 48.1293 92.7582 48.7291 92.761 49.3336C92.7574 49.9337 92.866 50.5292 93.0813 51.0894C93.2848 51.6245 93.5872 52.1165 93.9726 52.5397C94.3648 52.9646 94.8402 53.3041 95.3693 53.5372C95.9474 53.7916 96.5736 53.9188 97.2052 53.91Z" fill="#FF7600"/>
<path d="M117.267 43.4264V55.2136H115.538V52.6594C115.187 53.4741 114.616 54.1745 113.888 54.6815C113.06 55.2509 112.072 55.5399 111.068 55.506C110.351 55.5215 109.639 55.385 108.979 55.1055C108.416 54.8627 107.919 54.4887 107.529 54.0148C107.167 53.558 106.9 53.0332 106.744 52.4716C106.562 51.7771 106.477 51.0607 106.492 50.3429V43.4264H108.247V49.8372C108.243 50.3837 108.305 50.9288 108.434 51.4601C108.543 51.9264 108.747 52.3653 109.032 52.7502C109.31 53.1165 109.67 53.4127 110.083 53.6152C110.575 53.8424 111.112 53.9521 111.653 53.9355C112.248 53.9495 112.837 53.8171 113.369 53.5499C113.844 53.3032 114.258 52.9532 114.58 52.5256C114.903 52.0928 115.146 51.6063 115.298 51.0885C115.457 50.5621 115.538 50.0154 115.539 49.4656V43.4264H117.267Z" fill="#FF7600"/>
<path d="M131.288 52.7392C130.897 53.5732 130.267 54.2724 129.479 54.7481C128.647 55.258 127.687 55.5209 126.711 55.5061C125.857 55.5162 125.01 55.3488 124.224 55.0144C123.495 54.704 122.838 54.2465 122.295 53.6706C121.76 53.0993 121.34 52.4308 121.057 51.7013C120.762 50.947 120.613 50.1436 120.617 49.3336C120.614 48.5193 120.763 47.7116 121.057 46.9523C121.336 46.2209 121.757 45.5518 122.295 44.9834C122.842 44.4147 123.498 43.9622 124.224 43.6532C125.01 43.3185 125.857 43.1508 126.711 43.1607C127.685 43.146 128.644 43.4041 129.479 43.9059C130.274 44.3798 130.905 45.0852 131.288 45.9277V36.589H133.017V55.2138H131.288V52.7392ZM126.791 53.91C127.432 53.9206 128.067 53.7934 128.654 53.5372C129.186 53.302 129.665 52.9629 130.064 52.5398C130.456 52.1194 130.763 51.6269 130.968 51.0895C131.184 50.5293 131.292 49.9338 131.289 49.3336C131.291 48.7291 131.183 48.1293 130.968 47.5641C130.767 47.0196 130.459 46.5211 130.061 46.0983C129.664 45.6755 129.185 45.3371 128.654 45.1032C128.067 44.8472 127.432 44.7201 126.791 44.7304C126.159 44.7218 125.533 44.8489 124.955 45.1032C124.426 45.3367 123.951 45.6764 123.559 46.101C123.171 46.5277 122.869 47.0242 122.667 47.5641C122.453 48.1293 122.344 48.7291 122.347 49.3336C122.343 49.9338 122.452 50.5293 122.667 51.0895C122.871 51.6245 123.173 52.1165 123.559 52.5398C123.951 52.9646 124.426 53.3041 124.955 53.5372C125.533 53.7917 126.159 53.9188 126.791 53.91Z" fill="#FF7600"/>
<path d="M19.1423 35.4984L17.833 34.9258C19.4679 31.182 22.1591 27.9962 25.5771 25.7586C28.9952 23.5211 32.9915 22.3289 37.0768 22.3282C37.5241 22.3282 37.9785 22.343 38.435 22.3722C38.4054 21.9174 38.3906 21.4629 38.3906 21.0144C38.391 16.3185 39.9656 11.7583 42.8625 8.06252C45.7595 4.36672 49.8116 1.74863 54.3715 0.626628C58.9313 -0.495377 63.7357 -0.0564991 68.0168 1.87306C72.298 3.80261 75.8087 7.11148 77.9882 11.271C82.5517 9.72396 87.5084 9.79295 92.0272 11.4664C96.5459 13.1398 100.352 16.3159 102.807 20.4622C108.108 19.0903 113.735 19.8442 118.488 22.5631C123.241 25.282 126.744 29.7506 128.248 35.0155L126.874 35.4079C126.168 32.9353 124.981 30.6263 123.381 28.613C121.781 26.5996 119.8 24.9215 117.551 23.6746C115.302 22.4277 112.829 21.6366 110.274 21.3464C107.718 21.0562 105.131 21.2727 102.66 21.9834L102.115 22.1396L101.838 21.6447C99.561 17.5522 95.8918 14.412 91.4969 12.7938C87.1019 11.1755 82.2724 11.1866 77.8849 12.825L77.2762 13.0529L76.9919 12.4682C75.058 8.48515 71.8305 5.27569 67.8367 3.36412C63.8428 1.45256 59.3188 0.951902 55.0036 1.94398C50.6885 2.93606 46.8373 5.36221 44.0793 8.82606C41.3213 12.2899 39.8195 16.5867 39.8193 21.0144C39.8198 21.7047 39.8563 22.3945 39.9286 23.081L40.0207 23.9575L39.1438 23.8662C38.4571 23.794 37.7672 23.7575 37.0768 23.7569C33.2694 23.7577 29.5448 24.8688 26.3594 26.9543C23.1739 29.0398 20.6658 32.0091 19.1423 35.4984Z" fill="#FF7600"/>
<path d="M142.999 40.0097C143.015 40.6251 142.848 41.2315 142.518 41.7513C142.188 42.2711 141.711 42.6805 141.147 42.9273C140.583 43.174 139.958 43.2469 139.352 43.1364C138.746 43.026 138.188 42.7373 137.747 42.3073C137.306 41.8773 137.004 41.3256 136.879 40.7229C136.754 40.1201 136.811 39.4936 137.044 38.9237C137.277 38.3538 137.675 37.8664 138.186 37.5238C138.698 37.1813 139.3 36.9992 139.915 37.0009C140.316 36.993 140.715 37.0649 141.087 37.2123C141.46 37.3598 141.8 37.5799 142.087 37.8599C142.374 38.1399 142.602 38.4741 142.759 38.8432C142.915 39.2123 142.997 39.6088 142.999 40.0097ZM137.586 40.0097C137.577 40.3232 137.63 40.6354 137.744 40.9277C137.858 41.22 138.03 41.4863 138.249 41.7106C138.469 41.9349 138.731 42.1127 139.02 42.2332C139.31 42.3538 139.621 42.4146 139.935 42.4122C140.243 42.4109 140.549 42.3477 140.832 42.2262C141.116 42.1047 141.372 41.9275 141.586 41.705C141.8 41.4825 141.967 41.2193 142.077 40.931C142.188 40.6428 142.239 40.3353 142.228 40.0269C142.241 39.7149 142.19 39.4036 142.08 39.1115C141.97 38.8195 141.802 38.5526 141.586 38.327C141.37 38.1013 141.111 37.9215 140.824 37.7982C140.538 37.6749 140.229 37.6108 139.917 37.6095C139.604 37.6083 139.295 37.67 139.007 37.791C138.72 37.912 138.459 38.0897 138.242 38.3137C138.024 38.5376 137.854 38.8031 137.741 39.0943C137.629 39.3855 137.576 39.6964 137.586 40.0085V40.0097ZM139.439 41.5877H138.742V38.5786C139.124 38.5114 139.511 38.4807 139.898 38.4869C140.261 38.457 140.624 38.5337 140.944 38.7075C141.039 38.7885 141.115 38.8898 141.166 39.0042C141.217 39.1185 141.241 39.2427 141.237 39.3678C141.224 39.5363 141.156 39.6958 141.043 39.8218C140.93 39.9478 140.779 40.0332 140.613 40.0649V40.1014C140.763 40.162 140.894 40.2625 140.991 40.3918C141.088 40.5211 141.147 40.6745 141.164 40.8353C141.193 41.0969 141.268 41.3514 141.384 41.5877H140.632C140.516 41.3566 140.435 41.1093 140.392 40.8541C140.337 40.5238 140.151 40.3768 139.768 40.3768H139.438L139.439 41.5877ZM139.458 39.8815H139.788C140.173 39.8815 140.485 39.753 140.485 39.4411C140.485 39.166 140.285 38.9826 139.845 38.9826C139.715 38.9798 139.586 38.992 139.459 39.019L139.458 39.8815Z" fill="#0B38DB"/>
</svg>
