<svg width="18" height="18" viewBox="0 0 18 18" fill="none" xmlns="http://www.w3.org/2000/svg">
<path d="M18 2.94454C18.0001 3.33022 17.9255 3.71227 17.7802 4.06953C17.6343 4.43199 17.4162 4.76093 17.139 5.03628L5.56349 16.611L0 18L1.389 12.4365L12.9637 0.861042C13.2391 0.58385 13.568 0.365662 13.9305 0.219793C14.2877 0.0744802 14.6698 -0.000147584 15.0555 4.36168e-05C15.4483 -0.00213458 15.8372 0.0772932 16.1977 0.233294C16.547 0.383101 16.8646 0.59791 17.1337 0.866292C17.4021 1.13538 17.6169 1.45301 17.7667 1.80229C17.9227 2.16278 18.0021 2.55174 18 2.94454ZM2.86499 12.5505C3.46982 12.7456 4.01966 13.0816 4.46924 13.5308C4.91842 13.9803 5.25439 14.5302 5.44949 15.135L14.9505 5.62503L12.375 3.04954L2.86499 12.5505ZM1.5465 16.4505L4.43774 15.7298C4.37996 15.4623 4.28371 15.2046 4.15199 14.9648C4.02412 14.73 3.86351 14.5146 3.67499 14.325C3.48512 14.1356 3.2692 13.9742 3.03374 13.8458C2.79389 13.714 2.53621 13.6178 2.26874 13.56L1.5465 16.4505ZM15.75 4.82553C15.8965 4.67903 16.0372 4.54128 16.1722 4.41228C16.3039 4.28675 16.4243 4.14998 16.5322 4.00353C16.6372 3.86085 16.7215 3.70405 16.7827 3.53778C16.8476 3.34998 16.8788 3.1522 16.875 2.95354C16.8768 2.71025 16.8275 2.4693 16.7302 2.24629C16.6358 2.03004 16.5018 1.83339 16.335 1.66654C16.1681 1.49972 15.9715 1.36565 15.7552 1.27129C15.5322 1.17404 15.2912 1.12473 15.048 1.12654C14.8493 1.12267 14.6515 1.1539 14.4637 1.21879C14.2974 1.27995 14.1407 1.36428 13.998 1.46929C13.8515 1.57719 13.7148 1.69764 13.5892 1.82929C13.4602 1.96429 13.3225 2.10504 13.176 2.25154L15.75 4.82553Z" fill="#0279FF"/>
</svg>
