<svg width="14" height="17" viewBox="0 0 14 17" fill="none" xmlns="http://www.w3.org/2000/svg">
<path d="M0.732972 16.999C0.538568 16.999 0.352156 16.9218 0.214692 16.7843C0.0772277 16.6468 6.84656e-07 16.4604 6.84656e-07 16.266V0.733033C-0.000130957 0.636737 0.0187222 0.541384 0.0555122 0.452393C0.0923023 0.363402 0.146295 0.282448 0.214387 0.214356C0.282478 0.146265 0.363341 0.0923327 0.452332 0.0555427C0.541323 0.0187526 0.636676 -0.000130958 0.732972 6.83562e-07H13.267C13.4614 6.83562e-07 13.6478 0.0772582 13.7853 0.214722C13.9228 0.352187 14 0.538629 14 0.733033V16.266C13.9997 16.4603 13.9224 16.6467 13.785 16.7841C13.6476 16.9215 13.4613 16.9988 13.267 16.999H0.732972ZM1.46698 15.532H12.533V1.46607H1.46698V15.532ZM3.67999 12.363C3.48559 12.363 3.29915 12.2858 3.16168 12.1483C3.02422 12.0109 2.94699 11.8244 2.94699 11.63C2.94699 11.4356 3.02422 11.2492 3.16168 11.1117C3.29915 10.9742 3.48559 10.897 3.67999 10.897H8.52399C8.71831 10.8972 8.90458 10.9745 9.04199 11.1119C9.1794 11.2493 9.25672 11.4357 9.25699 11.63C9.25672 11.8243 9.1794 12.0107 9.04199 12.1481C8.90458 12.2855 8.71831 12.3628 8.52399 12.363H3.67999ZM3.67899 8.625C3.48458 8.625 3.29814 8.54774 3.16068 8.41028C3.02321 8.27281 2.94598 8.08637 2.94598 7.89197C2.94598 7.69756 3.02321 7.51112 3.16068 7.37366C3.29814 7.23619 3.48458 7.15906 3.67899 7.15906H9.52298C9.7173 7.15932 9.90361 7.23662 10.041 7.37402C10.1784 7.51143 10.2557 7.69765 10.256 7.89197C10.2557 8.08629 10.1784 8.27263 10.041 8.41003C9.90361 8.54744 9.7173 8.62474 9.52298 8.625H3.67899ZM3.67899 4.88696C3.48458 4.88696 3.29814 4.80983 3.16068 4.67236C3.02321 4.5349 2.94598 4.34846 2.94598 4.15405C2.94585 4.05776 2.96474 3.96228 3.00153 3.87329C3.03832 3.7843 3.09228 3.70347 3.16037 3.63538C3.22846 3.56729 3.30933 3.51335 3.39832 3.47656C3.48731 3.43977 3.58269 3.42089 3.67899 3.42102H7.78497C7.97938 3.42102 8.16582 3.49828 8.30328 3.63574C8.44075 3.77321 8.51797 3.95965 8.51797 4.15405C8.51797 4.34846 8.44075 4.5349 8.30328 4.67236C8.16582 4.80983 7.97938 4.88696 7.78497 4.88696H3.67899Z" fill="#808080"/>
</svg>
