<svg width="48" height="48" viewBox="0 0 48 48" fill="none" xmlns="http://www.w3.org/2000/svg">
<path d="M0 24C0.00661796 17.6368 2.53767 11.5365 7.03711 7.03711C11.5365 2.53767 17.6368 0.00661796 24 0C30.3631 0.00688216 36.4635 2.53773 40.9629 7.03711C45.4623 11.5365 47.9931 17.6369 48 24C47.9929 30.363 45.4622 36.4636 40.9629 40.9629C36.4636 45.4622 30.363 47.9929 24 48C17.6369 47.9931 11.5365 45.4623 7.03711 40.9629C2.53773 36.4635 0.00688216 30.3631 0 24ZM3.2002 24C3.20628 29.5146 5.39939 34.8017 9.29883 38.7012C13.1983 42.6006 18.4854 44.7937 24 44.7998C29.5146 44.7935 34.8018 42.6006 38.7012 38.7012C42.6006 34.8018 44.7935 29.5146 44.7998 24C44.7935 18.4854 42.6006 13.1982 38.7012 9.29883C34.8018 5.39945 29.5146 3.20655 24 3.2002C18.4854 3.20628 13.1983 5.39939 9.29883 9.29883C5.39939 13.1983 3.20628 18.4854 3.2002 24Z" fill="#C70000"/>
<path d="M30.8479 32.2637L23.778 25.1934L16.71 32.2637C16.5222 32.4513 16.2675 32.5567 16.0021 32.5566C15.7366 32.5565 15.4821 32.4514 15.2944 32.2637C15.1068 32.0759 15.0014 31.8201 15.0015 31.5547C15.0016 31.2892 15.1071 31.0353 15.2949 30.8477L22.3629 23.7793L15.2949 16.7129C15.2021 16.62 15.1285 16.5081 15.0782 16.3867C15.028 16.2654 15.0022 16.1353 15.0022 16.0039C15.0022 15.8726 15.0282 15.7424 15.0785 15.6211C15.1288 15.4998 15.2025 15.3897 15.2954 15.2969C15.3883 15.204 15.4986 15.1303 15.62 15.0801C15.7414 15.0299 15.8715 15.0039 16.0028 15.0039C16.1342 15.004 16.2642 15.0298 16.3855 15.0801C16.5068 15.1304 16.6171 15.2059 16.71 15.2988L23.7759 22.3652L30.8469 15.291C30.9398 15.198 31.0501 15.1245 31.1715 15.0742C31.2929 15.0239 31.423 14.998 31.5544 14.998C31.6859 14.998 31.816 15.0239 31.9374 15.0742C32.0588 15.1245 32.1691 15.198 32.262 15.291C32.3556 15.3834 32.4299 15.4939 32.4807 15.6152C32.5315 15.7366 32.5576 15.8665 32.5576 15.998C32.5576 16.1296 32.5315 16.2614 32.4807 16.3828C32.4299 16.5042 32.3556 16.6127 32.262 16.7051L25.1899 23.7793L32.262 30.8535C32.401 30.9933 32.4955 31.1718 32.5337 31.3652C32.5719 31.5587 32.5521 31.7592 32.4768 31.9414C32.4015 32.1236 32.2739 32.2787 32.1102 32.3887C31.9466 32.4986 31.7541 32.5578 31.5569 32.5586C31.4251 32.5586 31.2946 32.533 31.173 32.4824C31.0513 32.4318 30.9408 32.3571 30.8479 32.2637Z" fill="#C70000"/>
</svg>
