<svg xmlns="http://www.w3.org/2000/svg" width="20" height="32" viewBox="0 0 20 32">
  <path id="ic_phone" d="M6.75-36a1.938,1.938,0,0,1,.781.156,2.033,2.033,0,0,1,.633.43,2.032,2.032,0,0,1,.43.633A1.938,1.938,0,0,1,8.75-34V-6a1.938,1.938,0,0,1-.156.781,2.033,2.033,0,0,1-.43.633,2.033,2.033,0,0,1-.633.43A1.938,1.938,0,0,1,6.75-4h-16a1.938,1.938,0,0,1-.781-.156,2.033,2.033,0,0,1-.633-.43,2.033,2.033,0,0,1-.43-.633A1.938,1.938,0,0,1-11.25-6V-34a1.938,1.938,0,0,1,.156-.781,2.032,2.032,0,0,1,.43-.633,2.033,2.033,0,0,1,.633-.43A1.938,1.938,0,0,1-9.25-36Zm0,2h-16V-6h16Zm-10,24h4v2h-4Z" transform="translate(11.25 36)" fill="#9e9e9e"/>
</svg>
