<svg id="Chart_Data_Progress_Bar_Fat_Percentage_4" data-name="Chart Data / Progress Bar / Fat / Percentage #4" xmlns="http://www.w3.org/2000/svg" width="72.005" height="72" viewBox="0 0 72.005 72">
  <path id="Track" d="M36,72A36.009,36.009,0,0,1,21.987,2.829,36.009,36.009,0,0,1,50.013,69.171,35.774,35.774,0,0,1,36,72ZM36,9.311a26.606,26.606,0,1,0,10.389,2.1A26.522,26.522,0,0,0,36,9.311Z" transform="translate(0.002)" fill="#666"/>
  <path id="Progress_Bar" data-name="Progress Bar" d="M1.764,24.875A36,36,0,1,0,36,0a4.655,4.655,0,0,0,0,9.31A26.69,26.69,0,1,1,10.619,27.752a4.655,4.655,0,0,0-8.855-2.877Z" transform="translate(0)" fill="#1e90ff"/>
</svg>
