<svg width="29" height="29" viewBox="0 0 29 29" fill="none" xmlns="http://www.w3.org/2000/svg">
<path d="M12.2994 2.45407C13.5785 1.40373 15.4215 1.40373 16.7006 2.45407C17.5701 3.16811 18.677 3.52776 19.8001 3.46118C21.4523 3.36324 22.9433 4.44655 23.3607 6.0481C23.6445 7.13685 24.3286 8.07844 25.2763 8.68474C26.6705 9.57661 27.2401 11.3294 26.6364 12.8705C26.226 13.9181 26.226 15.0819 26.6364 16.1295C27.2401 17.6706 26.6705 19.4234 25.2763 20.3153C24.3286 20.9216 23.6445 21.8632 23.3607 22.9519C22.9433 24.5534 21.4523 25.6368 19.8001 25.5388C18.677 25.4722 17.5701 25.8319 16.7006 26.5459C15.4215 27.5963 13.5785 27.5963 12.2994 26.5459C11.4299 25.8319 10.323 25.4722 9.19987 25.5388C7.54773 25.6368 6.05668 24.5534 5.63929 22.9519C5.35554 21.8632 4.67143 20.9216 3.72365 20.3153C2.32947 19.4234 1.75994 17.6706 2.36363 16.1295C2.77403 15.0819 2.77403 13.9181 2.36363 12.8705C1.75994 11.3294 2.32947 9.57661 3.72365 8.68475C4.67143 8.07844 5.35554 7.13685 5.63929 6.0481C6.05668 4.44655 7.54773 3.36324 9.19987 3.46118C10.323 3.52776 11.4299 3.16811 12.2994 2.45407Z" fill="#E61A1A" stroke="white"/>
<circle cx="14.5" cy="14.5" r="8.5" fill="white"/>
<path d="M12.9684 18V11.44H13.7984V17.29H16.6684V18H12.9684Z" fill="#C70000"/>
</svg>
