<svg width="15" height="15" viewBox="0 0 15 15" fill="none" xmlns="http://www.w3.org/2000/svg">
<path d="M0 7.5C0 3.35786 3.35786 0 7.5 0C11.6421 0 15 3.35786 15 7.5C15 11.6421 11.6421 15 7.5 15C3.35786 15 0 11.6421 0 7.5Z" fill="white"/>
<circle cx="7.5" cy="7.5" r="5.9" fill="white" stroke="#0279FF" stroke-width="1.2"/>
<path d="M6.63086 8.74902C6.63086 8.27376 6.68457 7.89941 6.79199 7.62598C6.89941 7.34928 7.07357 7.11003 7.31445 6.9082C7.55534 6.70638 7.73763 6.52246 7.86133 6.35645C7.98828 6.18717 8.05176 6.00163 8.05176 5.7998C8.05176 5.30827 7.84017 5.0625 7.41699 5.0625C7.22168 5.0625 7.0638 5.13411 6.94336 5.27734C6.82292 5.42057 6.75944 5.61426 6.75293 5.8584H5.10254C5.10905 5.20736 5.31413 4.70117 5.71777 4.33984C6.12142 3.97526 6.68783 3.79297 7.41699 3.79297C8.1429 3.79297 8.70443 3.96061 9.10156 4.2959C9.50195 4.63118 9.70215 5.10807 9.70215 5.72656C9.70215 5.99674 9.64844 6.24251 9.54102 6.46387C9.43359 6.68522 9.26107 6.91146 9.02344 7.14258L8.46191 7.66504C8.30241 7.81803 8.19173 7.97591 8.12988 8.13867C8.06803 8.29818 8.03385 8.50163 8.02734 8.74902H6.63086ZM6.43066 10.2334C6.43066 9.99251 6.51693 9.79557 6.68945 9.64258C6.86523 9.48633 7.08333 9.4082 7.34375 9.4082C7.60417 9.4082 7.82064 9.48633 7.99316 9.64258C8.16895 9.79557 8.25684 9.99251 8.25684 10.2334C8.25684 10.4743 8.16895 10.6729 7.99316 10.8291C7.82064 10.9821 7.60417 11.0586 7.34375 11.0586C7.08333 11.0586 6.86523 10.9821 6.68945 10.8291C6.51693 10.6729 6.43066 10.4743 6.43066 10.2334Z" fill="#0279FF"/>
</svg>
