<?xml version="1.0" encoding="utf-8"?>
<!-- Generator: Adobe Illustrator 24.2.1, SVG Export Plug-In . SVG Version: 6.00 Build 0)  -->
<svg version="1.1" id="Layer_1" xmlns="http://www.w3.org/2000/svg" xmlns:xlink="http://www.w3.org/1999/xlink" x="0px" y="0px"
	 viewBox="0 0 1046 626" style="enable-background:new 0 0 1046 626;" xml:space="preserve">
<style type="text/css">
	.st0{fill:#1240D8;}
	.st1{fill:#FBB048;}
	.st2{fill-rule:evenodd;clip-rule:evenodd;fill:#1240D8;}
	.st3{fill:#6D6E70;}
</style>
<g>
	<g>
		<g>
			<g>
				<g>
					<path class="st0" d="M942.74,276.97h14.23c-21.6-62.26-79.63-103.73-145.99-103.73c-11.62,0-23.27,1.33-34.67,3.95l-2.8,0.64
						l-1.43-2.49c-27.42-48.34-78.96-78.38-134.47-78.38c-16.63,0-33.06,2.65-48.8,7.9l-3.01,1.01l-1.56-2.76
						c-27.45-48.39-78.97-78.46-134.47-78.46c-85.22,0-154.56,69.34-154.56,154.56c0,3.44,0.16,7.18,0.49,11.43l0.35,4.78
						l-4.75-0.68c-6.29-0.9-12.68-1.33-18.94-1.33c-54.62,0-103.91,33.35-124.43,83.56h14.56c19.83-42.76,62.69-70.26,109.86-70.26
						c5.5,0,11.25,0.41,17.07,1.25l21.11,2.97l-1.55-21.24c-0.31-4.29-0.42-7.52-0.42-10.47c0-77.87,63.33-141.22,141.19-141.22
						c50.74,0,97.82,27.47,122.88,71.69l6.98,12.3l13.4-4.46c14.47-4.82,29.45-7.26,44.58-7.26c50.67,0,97.75,27.45,122.88,71.65
						l6.31,11.13l12.46-2.86c10.5-2.41,21.16-3.63,31.71-3.63C869.15,186.55,921.75,222.77,942.74,276.97z"/>
				</g>
			</g>
		</g>
	</g>
	<g>
		<path class="st1" d="M653.42,353.74c-2.8-4.43-6.21-8.15-10.23-11.15c-4.03-3-8.46-5.29-13.3-6.86
			c-4.85-1.57-9.93-2.35-15.25-2.35c-9.69,0-18.01,1.84-24.97,5.53c-6.96,3.68-12.66,8.57-17.09,14.64
			c-4.44,6.07-7.71,12.93-9.83,20.57c-2.12,7.64-3.17,15.49-3.17,23.54c0,7.92,1.05,15.73,3.17,23.44
			c2.11,7.71,5.39,14.6,9.83,20.67c4.43,6.07,10.13,10.95,17.09,14.63c6.96,3.68,15.28,5.53,24.97,5.53
			c6.82,0,12.96-1.23,18.42-3.68c5.46-2.46,10.16-5.8,14.12-10.03c3.96-4.23,7.17-9.18,9.62-14.84c2.46-5.66,4.02-11.77,4.71-18.32
			h13.92c-0.96,9.01-3.07,17.13-6.35,24.36c-3.28,7.23-7.51,13.37-12.69,18.42c-5.19,5.05-11.29,8.94-18.32,11.67
			c-7.03,2.73-14.84,4.09-23.44,4.09c-11.46,0-21.53-2.08-30.19-6.24c-8.67-4.16-15.86-9.72-21.6-16.68
			c-5.73-6.96-10.03-15.01-12.89-24.15c-2.87-9.14-4.3-18.76-4.3-28.86c0-10.1,1.43-19.72,4.3-28.86
			c2.87-9.14,7.16-17.23,12.89-24.26c5.73-7.03,12.93-12.62,21.6-16.78c8.67-4.16,18.73-6.24,30.19-6.24
			c6.96,0,13.75,1.02,20.37,3.07c6.62,2.05,12.62,5.09,18.01,9.11c5.39,4.03,9.89,8.97,13.51,14.84c3.62,5.87,5.9,12.62,6.86,20.26
			h-13.92C658.23,363.19,656.22,358.18,653.42,353.74z"/>
		<path class="st1" d="M696.51,324.57v146.15h-12.89V324.57H696.51z"/>
		<path class="st1" d="M776.44,366.54c6.21,3,11.43,7.03,15.66,12.08c4.23,5.05,7.43,10.95,9.62,17.71
			c2.18,6.75,3.28,13.95,3.28,21.59c0,7.64-1.1,14.84-3.28,21.6c-2.18,6.75-5.39,12.66-9.62,17.71c-4.23,5.05-9.45,9.04-15.66,11.98
			c-6.21,2.93-13.34,4.4-21.39,4.4s-15.18-1.47-21.39-4.4c-6.21-2.93-11.43-6.93-15.66-11.98c-4.23-5.05-7.44-10.95-9.62-17.71
			c-2.18-6.75-3.28-13.95-3.28-21.6c0-7.64,1.09-14.84,3.28-21.59c2.18-6.76,5.39-12.66,9.62-17.71c4.23-5.05,9.45-9.07,15.66-12.08
			c6.21-3,13.34-4.5,21.39-4.5S770.23,363.54,776.44,366.54z M738.88,376.77c-4.64,2.59-8.49,6.01-11.56,10.23
			c-3.07,4.23-5.39,9.04-6.96,14.43c-1.57,5.39-2.36,10.88-2.36,16.48c0,5.6,0.79,11.09,2.36,16.48c1.57,5.39,3.89,10.2,6.96,14.43
			c3.07,4.23,6.92,7.64,11.56,10.24c4.64,2.59,10.03,3.89,16.17,3.89c6.14,0,11.53-1.3,16.17-3.89c4.64-2.59,8.5-6,11.57-10.24
			c3.07-4.23,5.39-9.04,6.96-14.43c1.57-5.39,2.36-10.88,2.36-16.48c0-5.59-0.79-11.08-2.36-16.48c-1.57-5.39-3.89-10.2-6.96-14.43
			c-3.07-4.23-6.93-7.64-11.57-10.23c-4.64-2.59-10.03-3.89-16.17-3.89C748.91,372.88,743.52,374.18,738.88,376.77z"/>
		<path class="st1" d="M887.08,470.73v-19.04h-0.41c-3.41,7.1-8.36,12.52-14.84,16.27c-6.49,3.75-13.68,5.63-21.6,5.63
			c-6.69,0-12.38-0.92-17.09-2.76c-4.71-1.84-8.53-4.47-11.46-7.88c-2.94-3.41-5.09-7.57-6.45-12.49
			c-1.36-4.91-2.04-10.51-2.04-16.78v-68.57h12.89v68.78c0.27,9.55,2.49,16.78,6.65,21.7c4.16,4.91,11.36,7.37,21.6,7.37
			c5.59,0,10.37-1.19,14.33-3.58c3.95-2.39,7.23-5.56,9.83-9.52c2.59-3.96,4.5-8.5,5.73-13.61c1.23-5.12,1.84-10.34,1.84-15.66
			v-55.47h12.89v105.62H887.08z"/>
		<path class="st1" d="M993.51,470.73v-20.06h-0.41c-1.37,3.41-3.38,6.55-6.04,9.41c-2.66,2.87-5.7,5.29-9.11,7.27
			c-3.42,1.98-7.06,3.51-10.95,4.61c-3.89,1.09-7.74,1.64-11.56,1.64c-8.06,0-15.05-1.47-20.98-4.4
			c-5.93-2.93-10.89-6.96-14.84-12.08c-3.96-5.12-6.9-11.05-8.8-17.81c-1.91-6.75-2.87-13.88-2.87-21.39
			c0-7.5,0.96-14.63,2.87-21.39c1.91-6.75,4.84-12.69,8.8-17.81c3.95-5.12,8.9-9.18,14.84-12.18c5.93-3,12.93-4.5,20.98-4.5
			c3.95,0,7.81,0.48,11.56,1.43c3.75,0.96,7.27,2.42,10.54,4.4c3.28,1.98,6.17,4.4,8.7,7.27c2.53,2.87,4.47,6.21,5.84,10.03h0.41
			v-60.59h12.89v146.15H993.51z M922.79,434.19c1.3,5.39,3.34,10.2,6.14,14.43c2.8,4.23,6.38,7.67,10.75,10.34s9.62,3.99,15.76,3.99
			c6.82,0,12.59-1.33,17.29-3.99s8.53-6.1,11.46-10.34c2.93-4.23,5.05-9.04,6.35-14.43c1.3-5.39,1.95-10.81,1.95-16.27
			c0-5.46-0.65-10.88-1.95-16.27c-1.3-5.39-3.41-10.2-6.35-14.43c-2.94-4.23-6.76-7.68-11.46-10.34s-10.47-3.99-17.29-3.99
			c-6.14,0-11.4,1.33-15.76,3.99s-7.95,6.11-10.75,10.34c-2.8,4.23-4.84,9.04-6.14,14.43c-1.3,5.39-1.95,10.82-1.95,16.27
			C920.85,423.38,921.5,428.8,922.79,434.19z"/>
	</g>
	<g>
		<path class="st2" d="M177.52,318.53c0,13.18,0,26.28,0,39.8c-1.02-1.05-1.75-1.93-2.47-2.68c-6.43-6.18-14.26-9.2-22.94-10.03
			c-14.43-1.43-27.64,1.93-39.24,10.82c-11.65,8.98-18.26,20.93-19.8,35.58c-3.04,28.15,15.97,52.41,43.94,57.11
			c10.42,1.76,20.81,1.12,30.25-4.08c3.74-2.03,6.96-4.91,10.26-7.35c0,12.59,0,25.59,0,38.8c-1.02-0.66-1.99-1.38-3.02-1.83
			c-2.46-1.16-4.97-1.03-7.57-0.4c-7.88,1.92-15.9,3.12-24.09,2.85c-36.35-1.19-68.44-23.82-76.28-61.5
			c-5.64-27.34,0.05-52.24,19.45-73.05c11.72-12.52,26.46-19.81,43.27-22.98c11.94-2.25,23.77-1.98,35.57,1.02
			C171.04,322.15,171.27,322.02,177.52,318.53z"/>
		<path class="st2" d="M297.88,389.95c-2.46,2.2-4.37,4.39-4.86,7.5c-0.15,0.84-0.18,1.72-0.18,2.62c0,20.91,0.03,41.82-0.06,62.75
			c-0.03,4.35,0.72,8.16,5.28,10.73c-9.73,0-18.94,0-28.39,0c0-3.32,0-6.58,0-10.26c-0.57,0.47-0.82,0.57-0.93,0.79
			c-4.38,7.33-11.22,10.76-19.27,12.22c-27.61,4.92-55.55-11.99-64.04-38.72c-7.24-22.71,1.46-47.28,21.38-61.46
			c20.57-14.61,48.73-13.65,68.12,0.6c2.87,2.13,5.77,4.28,8.43,6.68C287.43,387.07,291.99,389.67,297.88,389.95z M268.18,421.35
			c0-6,0.05-11.97-0.04-17.96c0-0.77-0.26-1.82-0.83-2.29c-8.59-7.46-18.26-11.78-30.01-10.61c-13.55,1.39-26.09,13.35-27.72,26.98
			c-2.43,20.45,15.83,37.59,36.38,34.64c8.17-1.17,15.07-5.05,21.21-10.36c0.6-0.5,0.95-1.59,0.97-2.43
			C268.23,433.32,268.18,427.33,268.18,421.35z"/>
		<path class="st2" d="M404.84,473.55c2.64-2.46,5.54-4.64,7.81-7.33c6.57-7.79,12.92-15.76,19.33-23.73
			c6.1-7.47,12.1-14.98,18.11-22.53c0.4-0.49,0.77-0.99,1.24-1.63c-1.64-2.07-3.28-4.13-4.91-6.21
			c-8.23-10.25-16.4-20.58-24.78-30.74c-3.52-4.29-7.54-8.23-11.19-12.2c13.19,0,26.87,0,40.68,0c-0.16,0.22-0.22,0.4-0.42,0.56
			c-3.02,2.88-3.36,4.48-0.91,8.06c3.02,4.38,6.34,8.61,9.52,12.9c2.34,3.13,4.68,6.23,7.14,9.55c0.54-0.7,1-1.16,1.42-1.72
			c4.71-6.31,9.46-12.6,14.14-18.92c0.84-1.16,1.6-2.41,2.19-3.71c1.02-2.05,0.72-3.92-1.1-5.42c-0.44-0.35-0.84-0.73-1.57-1.3
			c14.05,0,27.71,0,41.31,0c-2.46,2.33-5.21,4.49-7.37,7.11c-8.92,10.78-17.64,21.72-26.45,32.57c-2.53,3.15-5.02,6.28-7.57,9.47
			c3.58,4.48,7.07,8.87,10.57,13.25c8.21,10.25,16.37,20.61,24.76,30.77c2.99,3.61,6.63,6.67,10.02,9.99
			c0.34,0.37,0.79,0.69,1.43,1.25c-13.85,0-27.42,0-40.98,0l-0.04-0.21c3.71-3.69,3.88-4.02,0.76-8.21
			c-6.93-9.26-14.09-18.38-21.16-27.58c-0.11-0.13-0.27-0.21-0.86-0.65c-0.11,0.3-0.23,0.69-0.43,0.99
			c-6.65,8.56-13.25,17.09-19.91,25.69c-0.39,0.52-0.74,1-1.08,1.55c-2.88,4.19-2.81,4.87,0.97,8.38
			C431.84,473.55,418.33,473.55,404.84,473.55z"/>
		<path class="st2" d="M311.59,321.58c11.01,0,21.3,0,31.77,0c0,0.9,0,1.69,0,2.49c0,46.1,0.04,92.21,0,138.29
			c-0.03,4.48,0.4,8.54,4.64,11.19c-11.9,0-23.79,0-36.25,0c5.45-2.98,5.32-7.77,5.31-12.65c-0.03-42.15-0.03-84.27,0-126.44
			C317.06,329.54,317.27,324.64,311.59,321.58z"/>
		<path class="st2" d="M363.91,369.14c10.66,0,20.81,0,31.3,0c0,0.86,0,1.68,0,2.46c0,30.1,0.03,60.26-0.04,90.35
			c0,4.64,0.42,8.85,5.42,11.64c-12.51,0-24.38,0-36.67,0c0.67-0.58,1.19-1.02,1.64-1.43c2.23-1.75,3.27-4.03,3.27-6.88
			c0-29.24-0.01-58.49,0-87.71c0-2.93-1.04-5.24-3.3-7.1C365.12,370.13,364.67,369.74,363.91,369.14z"/>
		<path class="st0" d="M396.84,340.93c0,8.61-6.99,15.6-15.61,15.6c-8.61,0-15.6-6.98-15.6-15.6c0-8.63,6.99-15.61,15.6-15.61
			C389.85,325.32,396.84,332.3,396.84,340.93z"/>
	</g>
</g>
<g>
	<g>
		<path class="st3" d="M1120.21-135.73c13.12,0,20.84,9.8,20.84,22.38c0,12.23-7.72,22.02-20.84,22.02
			c-13.12,0-20.83-9.79-20.83-22.02C1099.38-125.93,1107.09-135.73,1120.21-135.73z M1120.21-99.16c8.37,0,11.52-7.12,11.52-14.19
			c0-7.42-3.15-14.54-11.52-14.54c-8.37,0-11.51,7.12-11.51,14.54C1108.69-106.29,1111.84-99.16,1120.21-99.16z"/>
		<path class="st3" d="M1153.26-134.72h19.11c10.56,0,14.66,6.71,14.66,13.59c0,6.89-4.1,13.59-14.66,13.59h-9.8v15.2h-9.32V-134.72
			z M1162.58-114.77h7.24c4.34,0,8.19-0.95,8.19-6.35c0-5.4-3.86-6.35-8.19-6.35h-7.24V-114.77z"/>
		<path class="st3" d="M1198.72-134.72h31.7v7.84h-22.38v9.08h20.54v7.24h-20.54v10.39h22.85v7.84h-32.17V-134.72z"/>
		<path class="st3" d="M1243.05-134.72h22.85c7.6,0,12.41,5.28,12.41,11.69c0,4.99-2.02,8.72-6.71,10.62v0.12
			c4.57,1.19,5.88,5.64,6.17,9.91c0.18,2.67,0.12,7.66,1.79,10.03h-9.32c-1.13-2.67-1.01-6.77-1.49-10.15
			c-0.65-4.45-2.37-6.41-7.06-6.41h-9.32v16.56h-9.32V-134.72z M1252.37-115.55h10.21c4.16,0,6.41-1.78,6.41-6.05
			c0-4.1-2.26-5.87-6.41-5.87h-10.21V-115.55z"/>
		<path class="st3" d="M1303.35-134.72h9.56l15.85,42.38h-9.68l-3.2-9.44h-15.85l-3.32,9.44h-9.44L1303.35-134.72z M1302.45-108.72
			h10.98l-5.34-15.55h-0.12L1302.45-108.72z"/>
		<path class="st3" d="M1343.29-126.88h-12.7v-7.84h34.72v7.84h-12.7v34.55h-9.32V-126.88z"/>
		<path class="st3" d="M1376.04-134.72h9.32v42.38h-9.32V-134.72z"/>
		<path class="st3" d="M1418.42-135.73c13.12,0,20.84,9.8,20.84,22.38c0,12.23-7.72,22.02-20.84,22.02
			c-13.12,0-20.83-9.79-20.83-22.02C1397.59-125.93,1405.3-135.73,1418.42-135.73z M1418.42-99.16c8.37,0,11.52-7.12,11.52-14.19
			c0-7.42-3.15-14.54-11.52-14.54c-8.37,0-11.52,7.12-11.52,14.54C1406.9-106.29,1410.05-99.16,1418.42-99.16z"/>
		<path class="st3" d="M1451.47-134.72h9.26l17.69,28.43h0.12v-28.43h8.73v42.38h-9.32l-17.63-28.37h-0.12v28.37h-8.73V-134.72z"/>
		<path class="st3" d="M1507.67-106.41c0,5.64,4.39,7.84,9.38,7.84c3.26,0,8.25-0.95,8.25-5.28c0-4.57-6.35-5.34-12.59-7.01
			c-6.29-1.66-12.64-4.1-12.64-12.05c0-8.67,8.19-12.82,15.85-12.82c8.84,0,16.97,3.86,16.97,13.65h-9.02
			c-0.3-5.1-3.92-6.41-8.37-6.41c-2.97,0-6.41,1.25-6.41,4.81c0,3.26,2.02,3.68,12.64,6.41c3.09,0.77,12.59,2.73,12.59,12.35
			c0,7.78-6.11,13.59-17.63,13.59c-9.38,0-18.16-4.63-18.04-15.08H1507.67z"/>
	</g>
</g>
<g>
	<path class="st3" d="M66.01,571.11c-2.82,0-5.62-0.52-8.42-1.55c-2.79-1.03-5.29-2.58-7.49-4.65l5.54-6.67
		c1.54,1.32,3.24,2.4,5.12,3.23c1.87,0.84,3.71,1.25,5.51,1.25c2.02,0,3.53-0.37,4.52-1.12c0.99-0.75,1.48-1.76,1.48-3.04
		c0-0.66-0.14-1.23-0.43-1.72c-0.29-0.48-0.7-0.91-1.25-1.29c-0.55-0.37-1.21-0.73-1.98-1.06c-0.77-0.33-1.62-0.69-2.54-1.09
		l-5.61-2.38c-1.1-0.44-2.17-1.01-3.2-1.72c-1.03-0.7-1.96-1.53-2.77-2.47c-0.81-0.95-1.46-2.05-1.95-3.3
		c-0.48-1.25-0.73-2.67-0.73-4.26c0-1.76,0.37-3.42,1.12-4.98c0.75-1.56,1.8-2.93,3.17-4.09c1.36-1.17,2.98-2.08,4.85-2.74
		c1.87-0.66,3.93-0.99,6.17-0.99c2.51,0,4.98,0.48,7.43,1.45c2.44,0.97,4.59,2.38,6.44,4.22l-4.95,6.14
		c-1.41-1.1-2.82-1.95-4.22-2.54c-1.41-0.59-2.97-0.89-4.69-0.89c-1.67,0-3,0.34-3.99,1.02c-0.99,0.68-1.49,1.64-1.49,2.87
		c0,0.66,0.17,1.22,0.5,1.68s0.79,0.88,1.39,1.25c0.59,0.37,1.29,0.73,2.08,1.06c0.79,0.33,1.65,0.69,2.57,1.09l5.54,2.24
		c2.64,1.06,4.72,2.51,6.24,4.36c1.52,1.85,2.28,4.29,2.28,7.33c0,1.8-0.36,3.51-1.09,5.12c-0.73,1.61-1.78,3.01-3.17,4.22
		c-1.39,1.21-3.09,2.18-5.11,2.9C70.85,570.75,68.56,571.11,66.01,571.11z"/>
	<path class="st3" d="M89.58,570.32v-43.03h10.63l6.93,19.14c0.44,1.28,0.86,2.59,1.25,3.93c0.4,1.34,0.81,2.67,1.25,3.99h0.26
		c0.44-1.32,0.85-2.65,1.22-3.99c0.37-1.34,0.78-2.65,1.22-3.93l6.8-19.14h10.56v43.03h-8.84v-15.77c0-1.06,0.04-2.22,0.13-3.5
		c0.09-1.28,0.2-2.56,0.33-3.86c0.13-1.3,0.26-2.57,0.4-3.83c0.13-1.25,0.26-2.41,0.4-3.46h-0.26l-3.5,10.23l-6.14,16.43h-5.35
		l-6.14-16.43l-3.43-10.23h-0.26c0.13,1.06,0.26,2.21,0.4,3.46s0.26,2.53,0.4,3.83s0.24,2.58,0.33,3.86
		c0.09,1.28,0.13,2.44,0.13,3.5v15.77H89.58z"/>
	<path class="st3" d="M134.39,570.32l13.46-43.03h11.68L173,570.32h-10.3l-2.64-10.23h-13.13l-2.64,10.23H134.39z M149.97,548.54
		l-1.06,3.96h9.17l-0.99-3.96c-0.62-2.16-1.21-4.44-1.78-6.86c-0.57-2.42-1.14-4.75-1.72-7h-0.26c-0.53,2.29-1.07,4.63-1.62,7.03
		C151.16,544.11,150.58,546.38,149.97,548.54z"/>
	<path class="st3" d="M177.68,570.32v-43.03h15.51c2.29,0,4.43,0.22,6.44,0.66c2,0.44,3.75,1.18,5.25,2.21
		c1.5,1.03,2.68,2.41,3.56,4.13c0.88,1.72,1.32,3.85,1.32,6.4c0,3.17-0.69,5.77-2.08,7.82c-1.39,2.05-3.25,3.58-5.58,4.59
		l9.77,17.23h-10.89l-8.25-15.51h-5.35v15.51H177.68z M187.39,547.09h5.02c2.55,0,4.5-0.54,5.84-1.62c1.34-1.08,2.01-2.67,2.01-4.78
		c0-2.11-0.67-3.59-2.01-4.42c-1.34-0.83-3.29-1.25-5.84-1.25h-5.02V547.09z"/>
	<path class="st3" d="M225.34,570.32v-34.85h-11.81v-8.18h33.4v8.18h-11.81v34.85H225.34z"/>
	<path class="st3" d="M266.85,570.32v-43.03h9.7v16.57h14.85v-16.57h9.77v43.03h-9.77v-17.95h-14.85v17.95H266.85z"/>
	<path class="st3" d="M328.82,571.11c-2.9,0-5.56-0.52-7.95-1.55c-2.4-1.03-4.46-2.52-6.17-4.46c-1.72-1.94-3.05-4.29-3.99-7.06
		c-0.95-2.77-1.42-5.92-1.42-9.44s0.47-6.66,1.42-9.41c0.95-2.75,2.28-5.06,3.99-6.93c1.72-1.87,3.77-3.3,6.17-4.29
		c2.4-0.99,5.05-1.49,7.95-1.49c2.9,0,5.55,0.5,7.95,1.49c2.4,0.99,4.46,2.43,6.17,4.32c1.72,1.89,3.05,4.21,3.99,6.96
		c0.95,2.75,1.42,5.86,1.42,9.34c0,3.52-0.47,6.67-1.42,9.44c-0.95,2.77-2.28,5.13-3.99,7.06c-1.72,1.94-3.77,3.42-6.17,4.46
		C334.38,570.59,331.73,571.11,328.82,571.11z M328.82,562.73c2.95,0,5.28-1.26,7-3.79c1.72-2.53,2.57-5.97,2.57-10.33
		c0-4.31-0.86-7.68-2.57-10.1c-1.72-2.42-4.05-3.63-7-3.63c-2.95,0-5.28,1.21-7,3.63c-1.72,2.42-2.57,5.79-2.57,10.1
		c0,4.36,0.86,7.8,2.57,10.33C323.54,561.47,325.88,562.73,328.82,562.73z"/>
	<path class="st3" d="M356.48,570.32v-43.03h10.63l6.93,19.14c0.44,1.28,0.86,2.59,1.25,3.93c0.4,1.34,0.81,2.67,1.25,3.99h0.26
		c0.44-1.32,0.85-2.65,1.22-3.99c0.37-1.34,0.78-2.65,1.22-3.93l6.8-19.14h10.56v43.03h-8.84v-15.77c0-1.06,0.04-2.22,0.13-3.5
		c0.09-1.28,0.2-2.56,0.33-3.86c0.13-1.3,0.26-2.57,0.4-3.83c0.13-1.25,0.26-2.41,0.4-3.46h-0.26l-3.5,10.23l-6.14,16.43h-5.35
		l-6.14-16.43l-3.43-10.23h-0.26c0.13,1.06,0.26,2.21,0.4,3.46s0.26,2.53,0.4,3.83s0.24,2.58,0.33,3.86
		c0.09,1.28,0.13,2.44,0.13,3.5v15.77H356.48z"/>
	<path class="st3" d="M406.77,570.32v-43.03h26.93v8.18h-17.23v8.65h14.65v8.12h-14.65v9.9h17.89v8.18H406.77z"/>
	<path class="st3" d="M450.66,570.32l13.46-43.03h11.68l13.46,43.03h-10.3l-2.64-10.23H463.2l-2.64,10.23H450.66z M466.23,548.54
		l-1.06,3.96h9.17l-0.99-3.96c-0.62-2.16-1.21-4.44-1.78-6.86c-0.57-2.42-1.14-4.75-1.72-7h-0.26c-0.53,2.29-1.07,4.63-1.62,7.03
		C467.43,544.11,466.85,546.38,466.23,548.54z"/>
	<path class="st3" d="M493.95,570.32v-43.03h12.14c3.3,0,6.27,0.42,8.91,1.25c2.64,0.84,4.91,2.12,6.8,3.86
		c1.89,1.74,3.34,3.95,4.36,6.63c1.01,2.68,1.52,5.87,1.52,9.57c0,3.7-0.51,6.91-1.52,9.64c-1.01,2.73-2.44,4.98-4.29,6.76
		s-4.06,3.11-6.63,3.99c-2.57,0.88-5.45,1.32-8.61,1.32H493.95z M503.66,562.47h1.85c1.85,0,3.52-0.24,5.02-0.73
		c1.5-0.48,2.77-1.26,3.83-2.34s1.88-2.5,2.48-4.26c0.59-1.76,0.89-3.94,0.89-6.53c0-2.55-0.3-4.7-0.89-6.44
		c-0.59-1.74-1.42-3.12-2.48-4.16c-1.06-1.03-2.33-1.77-3.83-2.21c-1.5-0.44-3.17-0.66-5.02-0.66h-1.85V562.47z"/>
	<path class="st3" d="M535.86,570.32v-43.03h10.63l6.93,19.14c0.44,1.28,0.86,2.59,1.25,3.93c0.4,1.34,0.81,2.67,1.25,3.99h0.26
		c0.44-1.32,0.85-2.65,1.22-3.99c0.37-1.34,0.78-2.65,1.22-3.93l6.8-19.14h10.56v43.03h-8.84v-15.77c0-1.06,0.04-2.22,0.13-3.5
		c0.09-1.28,0.2-2.56,0.33-3.86c0.13-1.3,0.26-2.57,0.4-3.83s0.26-2.41,0.4-3.46h-0.26l-3.5,10.23l-6.14,16.43h-5.35l-6.14-16.43
		l-3.43-10.23h-0.26c0.13,1.06,0.26,2.21,0.4,3.46s0.26,2.53,0.4,3.83s0.24,2.58,0.33,3.86c0.09,1.28,0.13,2.44,0.13,3.5v15.77
		H535.86z"/>
	<path class="st3" d="M586.15,570.32v-43.03h9.7v43.03H586.15z"/>
	<path class="st3" d="M606.02,570.32v-43.03h9.97l11.22,21.38l4.22,9.5h0.26c-0.22-2.29-0.47-4.84-0.76-7.66
		c-0.29-2.82-0.43-5.5-0.43-8.05v-15.18h9.24v43.03h-9.97l-11.22-21.45l-4.22-9.37h-0.26c0.22,2.38,0.47,4.93,0.76,7.66
		c0.29,2.73,0.43,5.37,0.43,7.92v15.25H606.02z"/>
	<path class="st3" d="M663.11,570.32v-43.03h12.14c3.3,0,6.27,0.42,8.91,1.25c2.64,0.84,4.91,2.12,6.8,3.86s3.34,3.95,4.36,6.63
		c1.01,2.68,1.52,5.87,1.52,9.57c0,3.7-0.51,6.91-1.52,9.64c-1.01,2.73-2.44,4.98-4.29,6.76s-4.06,3.11-6.63,3.99
		c-2.57,0.88-5.45,1.32-8.61,1.32H663.11z M672.81,562.47h1.85c1.85,0,3.52-0.24,5.02-0.73c1.5-0.48,2.77-1.26,3.83-2.34
		c1.06-1.08,1.88-2.5,2.48-4.26c0.59-1.76,0.89-3.94,0.89-6.53c0-2.55-0.3-4.7-0.89-6.44c-0.59-1.74-1.42-3.12-2.48-4.16
		c-1.06-1.03-2.33-1.77-3.83-2.21c-1.5-0.44-3.17-0.66-5.02-0.66h-1.85V562.47z"/>
	<path class="st3" d="M698.88,570.32l13.46-43.03h11.68l13.46,43.03h-10.3l-2.64-10.23h-13.13l-2.64,10.23H698.88z M714.46,548.54
		l-1.06,3.96h9.17l-0.99-3.96c-0.62-2.16-1.21-4.44-1.78-6.86c-0.57-2.42-1.15-4.75-1.72-7h-0.26c-0.53,2.29-1.07,4.63-1.62,7.03
		C715.66,544.11,715.07,546.38,714.46,548.54z"/>
	<path class="st3" d="M755.31,571.11c-2.82,0-5.62-0.52-8.42-1.55c-2.79-1.03-5.29-2.58-7.49-4.65l5.54-6.67
		c1.54,1.32,3.25,2.4,5.12,3.23c1.87,0.84,3.71,1.25,5.51,1.25c2.02,0,3.53-0.37,4.52-1.12s1.49-1.76,1.49-3.04
		c0-0.66-0.14-1.23-0.43-1.72s-0.7-0.91-1.25-1.29c-0.55-0.37-1.21-0.73-1.98-1.06c-0.77-0.33-1.62-0.69-2.54-1.09l-5.61-2.38
		c-1.1-0.44-2.17-1.01-3.2-1.72c-1.03-0.7-1.96-1.53-2.77-2.47c-0.81-0.95-1.46-2.05-1.95-3.3c-0.48-1.25-0.73-2.67-0.73-4.26
		c0-1.76,0.37-3.42,1.12-4.98c0.75-1.56,1.8-2.93,3.17-4.09c1.36-1.17,2.98-2.08,4.85-2.74c1.87-0.66,3.93-0.99,6.17-0.99
		c2.51,0,4.98,0.48,7.42,1.45c2.44,0.97,4.59,2.38,6.44,4.22l-4.95,6.14c-1.41-1.1-2.82-1.95-4.22-2.54
		c-1.41-0.59-2.97-0.89-4.69-0.89c-1.67,0-3,0.34-3.99,1.02c-0.99,0.68-1.48,1.64-1.48,2.87c0,0.66,0.17,1.22,0.5,1.68
		c0.33,0.46,0.79,0.88,1.39,1.25c0.59,0.37,1.29,0.73,2.08,1.06c0.79,0.33,1.65,0.69,2.57,1.09l5.54,2.24
		c2.64,1.06,4.72,2.51,6.24,4.36c1.52,1.85,2.28,4.29,2.28,7.33c0,1.8-0.36,3.51-1.09,5.12c-0.73,1.61-1.78,3.01-3.17,4.22
		c-1.39,1.21-3.09,2.18-5.12,2.9C760.15,570.75,757.86,571.11,755.31,571.11z"/>
	<path class="st3" d="M778.87,570.32v-43.03h9.7v16.57h14.85v-16.57h9.77v43.03h-9.77v-17.95h-14.85v17.95H778.87z"/>
	<path class="st3" d="M823.36,570.32v-43.03h14.72c2.24,0,4.32,0.17,6.24,0.5s3.59,0.91,5.02,1.75s2.55,1.94,3.37,3.3
		c0.81,1.36,1.22,3.08,1.22,5.15c0,0.97-0.13,1.94-0.4,2.9c-0.26,0.97-0.64,1.87-1.12,2.71c-0.48,0.84-1.07,1.58-1.75,2.24
		c-0.68,0.66-1.46,1.14-2.34,1.45v0.26c1.1,0.26,2.11,0.67,3.04,1.22c0.92,0.55,1.74,1.24,2.44,2.08c0.7,0.84,1.25,1.82,1.65,2.94
		c0.4,1.12,0.59,2.41,0.59,3.86c0,2.2-0.43,4.09-1.29,5.68c-0.86,1.58-2.05,2.89-3.56,3.93c-1.52,1.03-3.29,1.8-5.31,2.31
		c-2.02,0.51-4.2,0.76-6.53,0.76H823.36z M833.06,544.51h4.55c2.38,0,4.1-0.46,5.18-1.39s1.62-2.16,1.62-3.7
		c0-1.67-0.55-2.86-1.65-3.56c-1.1-0.7-2.79-1.06-5.08-1.06h-4.62V544.51z M833.06,562.8h5.48c5.32,0,7.99-1.94,7.99-5.81
		c0-1.89-0.66-3.24-1.98-4.06c-1.32-0.81-3.32-1.22-6.01-1.22h-5.48V562.8z"/>
	<path class="st3" d="M880.78,571.11c-2.9,0-5.56-0.52-7.95-1.55c-2.4-1.03-4.46-2.52-6.17-4.46c-1.72-1.94-3.05-4.29-3.99-7.06
		c-0.95-2.77-1.42-5.92-1.42-9.44s0.47-6.66,1.42-9.41c0.95-2.75,2.28-5.06,3.99-6.93s3.77-3.3,6.17-4.29
		c2.4-0.99,5.05-1.49,7.95-1.49c2.9,0,5.55,0.5,7.95,1.49c2.4,0.99,4.46,2.43,6.17,4.32c1.72,1.89,3.05,4.21,3.99,6.96
		c0.95,2.75,1.42,5.86,1.42,9.34c0,3.52-0.47,6.67-1.42,9.44c-0.95,2.77-2.28,5.13-3.99,7.06c-1.72,1.94-3.77,3.42-6.17,4.46
		C886.33,570.59,883.68,571.11,880.78,571.11z M880.78,562.73c2.95,0,5.28-1.26,7-3.79c1.72-2.53,2.57-5.97,2.57-10.33
		c0-4.31-0.86-7.68-2.57-10.1c-1.72-2.42-4.05-3.63-7-3.63c-2.95,0-5.28,1.21-7,3.63c-1.72,2.42-2.57,5.79-2.57,10.1
		c0,4.36,0.86,7.8,2.57,10.33S877.83,562.73,880.78,562.73z"/>
	<path class="st3" d="M902.29,570.32l13.46-43.03h11.68l13.46,43.03h-10.3l-2.64-10.23h-13.13l-2.64,10.23H902.29z M917.87,548.54
		l-1.06,3.96h9.17l-0.99-3.96c-0.62-2.16-1.21-4.44-1.78-6.86c-0.57-2.42-1.15-4.75-1.72-7h-0.26c-0.53,2.29-1.07,4.63-1.62,7.03
		C919.07,544.11,918.48,546.38,917.87,548.54z"/>
	<path class="st3" d="M945.59,570.32v-43.03h15.51c2.29,0,4.43,0.22,6.44,0.66c2,0.44,3.75,1.18,5.25,2.21
		c1.5,1.03,2.68,2.41,3.56,4.13c0.88,1.72,1.32,3.85,1.32,6.4c0,3.17-0.69,5.77-2.08,7.82s-3.25,3.58-5.58,4.59l9.77,17.23h-10.89
		l-8.25-15.51h-5.35v15.51H945.59z M955.29,547.09h5.02c2.55,0,4.5-0.54,5.84-1.62c1.34-1.08,2.01-2.67,2.01-4.78
		c0-2.11-0.67-3.59-2.01-4.42c-1.34-0.83-3.29-1.25-5.84-1.25h-5.02V547.09z"/>
	<path class="st3" d="M986.05,570.32v-43.03h12.14c3.3,0,6.27,0.42,8.91,1.25c2.64,0.84,4.91,2.12,6.8,3.86s3.34,3.95,4.36,6.63
		c1.01,2.68,1.52,5.87,1.52,9.57c0,3.7-0.51,6.91-1.52,9.64c-1.01,2.73-2.44,4.98-4.29,6.76s-4.06,3.11-6.63,3.99
		c-2.57,0.88-5.45,1.32-8.61,1.32H986.05z M995.75,562.47h1.85c1.85,0,3.52-0.24,5.02-0.73c1.5-0.48,2.77-1.26,3.83-2.34
		c1.06-1.08,1.88-2.5,2.48-4.26c0.59-1.76,0.89-3.94,0.89-6.53c0-2.55-0.3-4.7-0.89-6.44c-0.59-1.74-1.42-3.12-2.48-4.16
		c-1.06-1.03-2.33-1.77-3.83-2.21c-1.5-0.44-3.17-0.66-5.02-0.66h-1.85V562.47z"/>
</g>
<rect x="132.51" y="-357.83" style="fill:none;" width="15.32" height="59.74"/>
</svg>
