<svg xmlns="http://www.w3.org/2000/svg" width="32" height="24" viewBox="0 0 32 24">
  <path id="ic_tablet" d="M11.5-31.5h-27a2.421,2.421,0,0,0-.969.2,2.535,2.535,0,0,0-.8.539,2.535,2.535,0,0,0-.539.8A2.421,2.421,0,0,0-18-29v19a2.421,2.421,0,0,0,.2.969,2.535,2.535,0,0,0,.539.8,2.535,2.535,0,0,0,.8.539,2.421,2.421,0,0,0,.969.2h27a2.421,2.421,0,0,0,.969-.2,2.535,2.535,0,0,0,.8-.539,2.535,2.535,0,0,0,.539-.8A2.421,2.421,0,0,0,14-10V-29a2.421,2.421,0,0,0-.2-.969,2.535,2.535,0,0,0-.539-.8,2.535,2.535,0,0,0-.8-.539A2.421,2.421,0,0,0,11.5-31.5ZM12-10a.487.487,0,0,1-.141.359A.487.487,0,0,1,11.5-9.5h-27a.487.487,0,0,1-.359-.141A.487.487,0,0,1-16-10V-29a.487.487,0,0,1,.141-.359A.487.487,0,0,1-15.5-29.5h27a.487.487,0,0,1,.359.141A.487.487,0,0,1,12-29ZM-4-11.5H0v-2H-4Z" transform="translate(18 31.5)" fill="#9e9e9e"/>
</svg>
