<svg width="26" height="18" viewBox="0 0 26 18" fill="none" xmlns="http://www.w3.org/2000/svg">
<path d="M6.45502 12.0352C7.03102 11.4438 7.68584 10.9347 8.401 10.5222C9.0899 10.1256 9.82743 9.82 10.595 9.61325C12.1121 9.20762 13.709 9.20762 15.226 9.61325C15.9938 9.81946 16.7314 10.125 17.42 10.5222C18.1354 10.9344 18.7903 11.4435 19.366 12.0352L18.291 13.1353C17.8112 12.6426 17.2661 12.218 16.671 11.8733C16.0967 11.5424 15.4819 11.2872 14.842 11.1143C13.5784 10.7777 12.2487 10.7777 10.985 11.1143C10.3454 11.2871 9.73095 11.5422 9.15704 11.8733C8.56149 12.2173 8.01633 12.642 7.53705 13.1353L6.45502 12.0352ZM3.22803 8.74326C4.48675 7.44897 5.99219 6.42016 7.65533 5.71765C9.31848 5.01514 11.1056 4.65317 12.911 4.65317C14.7164 4.65317 16.5035 5.01514 18.1667 5.71765C19.8298 6.42016 21.3353 7.44897 22.594 8.74326L21.518 9.84326C20.3978 8.69514 19.0593 7.78272 17.5811 7.15976C16.103 6.5368 14.5151 6.21588 12.911 6.21588C11.3069 6.21588 9.71912 6.5368 8.24097 7.15976C6.76281 7.78272 5.42421 8.69514 4.30402 9.84326L3.22803 8.74326ZM0 5.45224C1.15143 4.26875 2.46123 3.25041 3.89203 2.42624C5.26972 1.63191 6.74515 1.02075 8.28101 0.608247C11.3144 -0.202749 14.5076 -0.202749 17.541 0.608247C19.0768 1.02097 20.5523 1.63211 21.9301 2.42624C23.3603 3.25081 24.6697 4.26911 25.821 5.45224L24.746 6.55225C23.6913 5.46931 22.4915 4.53778 21.181 3.78424C19.9195 3.05873 18.5692 2.49974 17.164 2.12125C14.3772 1.37916 11.4448 1.37916 8.65802 2.12125C7.25249 2.49975 5.90192 3.05873 4.64001 3.78424C3.33004 4.53811 2.1307 5.46962 1.07605 6.55225L0 5.45224ZM14.525 13.6812C14.742 13.9023 14.912 14.1649 15.025 14.4532C15.2548 15.0243 15.2514 15.6627 15.0156 16.2313C14.7798 16.7999 14.3305 17.2534 13.764 17.4943C13.4913 17.6084 13.1986 17.6671 12.903 17.6671C12.6074 17.6671 12.3148 17.6084 12.0421 17.4943C11.6176 17.3138 11.2556 17.0124 11.0012 16.6277C10.7467 16.243 10.6111 15.792 10.6111 15.3308C10.6111 14.8695 10.7467 14.4185 11.0012 14.0338C11.2556 13.6491 11.6176 13.3478 12.0421 13.1673C12.459 12.9948 12.9181 12.9515 13.3599 13.043C13.8017 13.1345 14.2058 13.3565 14.52 13.6803L14.525 13.6812Z" fill="#82BF00"/>
</svg>
