<svg width="19" height="14" viewBox="0 0 19 14" fill="none" xmlns="http://www.w3.org/2000/svg">
<path d="M4.74902 9.85599C5.17291 9.42091 5.65479 9.04638 6.18103 8.74299C6.68781 8.45108 7.23036 8.22619 7.79504 8.07398C8.91114 7.77581 10.0859 7.77581 11.202 8.07398C11.7668 8.22582 12.3094 8.45072 12.816 8.74299C13.3428 9.04605 13.825 9.42062 14.249 9.85599L13.458 10.663C13.1049 10.3003 12.7039 9.98778 12.2661 9.73398C11.8434 9.49065 11.3909 9.30307 10.92 9.17597C9.99024 8.9284 9.01183 8.9284 8.08203 9.17597C7.61144 9.30297 7.15929 9.49055 6.737 9.73398C6.29876 9.98725 5.89768 10.2999 5.54504 10.663L4.74902 9.85599ZM2.37402 7.43299C3.30024 6.48064 4.40799 5.72364 5.63177 5.20673C6.85556 4.68982 8.17055 4.4235 9.49902 4.4235C10.8275 4.4235 12.1425 4.68982 13.3663 5.20673C14.5901 5.72364 15.6978 6.48064 16.624 7.43299L15.832 8.24097C15.0077 7.39616 14.0227 6.72484 12.935 6.26646C11.8473 5.80807 10.6789 5.57191 9.49854 5.57191C8.31819 5.57191 7.14978 5.80807 6.06207 6.26646C4.97437 6.72484 3.98936 7.39616 3.16504 8.24097L2.37402 7.43299ZM-0.000976562 5.01099C0.846315 4.14002 1.81015 3.39054 2.86304 2.78397C3.8766 2.19944 4.9621 1.74967 6.09204 1.44599C8.32418 0.849221 10.6739 0.849221 12.906 1.44599C14.0359 1.74985 15.1214 2.19962 16.135 2.78397C17.1874 3.39085 18.1509 4.14029 18.998 5.01099L18.207 5.818C17.431 5.02107 16.5483 4.33552 15.584 3.78098C14.6557 3.24698 13.6621 2.83556 12.6281 2.55698C10.5774 2.01094 8.41962 2.01094 6.36902 2.55698C5.33462 2.83554 4.34071 3.24696 3.41205 3.78098C2.44828 4.33579 1.5659 5.02131 0.790039 5.818L-0.000976562 5.01099ZM10.687 11.066C10.8477 11.2284 10.9739 11.4216 11.058 11.634C11.2272 12.0542 11.2247 12.5241 11.0512 12.9425C10.8777 13.361 10.5469 13.6947 10.13 13.872C9.92934 13.9559 9.71402 13.9991 9.49652 13.9991C9.27902 13.9991 9.0637 13.9559 8.86304 13.872C8.55072 13.7392 8.28439 13.5174 8.09717 13.2343C7.90995 12.9512 7.81012 12.6194 7.81012 12.28C7.81012 11.9406 7.90995 11.6087 8.09717 11.3256C8.28439 11.0426 8.55072 10.8208 8.86304 10.688C9.16983 10.5613 9.50757 10.5296 9.83258 10.597C10.1576 10.6644 10.4549 10.8277 10.686 11.066H10.687Z" fill="#0279FF"/>
</svg>
