<svg xmlns="http://www.w3.org/2000/svg" width="26.001" height="9.999" viewBox="0 0 26.001 9.999"><defs><style>.a{fill:gray;}</style></defs><path class="a" d="M4527.51,11031a3.515,3.515,0,0,1-3.51-3.51v-2.981a3.512,3.512,0,0,1,3.51-3.508h18.98a3.512,3.512,0,0,1,3.51,3.508v2.981a3.515,3.515,0,0,1-3.51,3.51Zm-2.01-6.491v2.981a2.011,2.011,0,0,0,2.01,2.01h18.98a2.013,2.013,0,0,0,2.01-2.01v-2.981a2.011,2.011,0,0,0-2.01-2.008h-18.98A2.01,2.01,0,0,0,4525.5,11024.509Zm19.5,1.99v-1a.5.5,0,0,1,.471-.5h.061a.5.5,0,0,1,.471.5v1a.5.5,0,0,1-1,0Zm-3,0v-1a.5.5,0,0,1,.47-.5h.058a.5.5,0,0,1,.471.5v1a.5.5,0,1,1-1,0Zm-3,0v-1a.5.5,0,0,1,.47-.5h.058a.5.5,0,0,1,.471.5v1a.5.5,0,1,1-1,0Zm-3,0v-1a.5.5,0,0,1,.47-.5h.061a.5.5,0,0,1,.471.5v1a.5.5,0,0,1-1,0Z" transform="translate(-4524 -11021.001)"/></svg>